<?xml version="1.0" encoding="UTF-8"?>
<!DOCTYPE svg PUBLIC "-//W3C//DTD SVG 1.1//EN" "http://www.w3.org/Graphics/SVG/1.1/DTD/svg11.dtd">
<svg xmlns="http://www.w3.org/2000/svg" version="1.1" width="57px" height="57px" style="shape-rendering:geometricPrecision; text-rendering:geometricPrecision; image-rendering:optimizeQuality; fill-rule:evenodd; clip-rule:evenodd" xmlns:xlink="http://www.w3.org/1999/xlink">
<g><path style="opacity:0.768" fill="#f6aa05" d="M 20.5,-0.5 C 25.1667,-0.5 29.8333,-0.5 34.5,-0.5C 47.8383,6.83144 51.3383,17.4981 45,31.5C 42.0855,34.4829 39.0855,37.4829 36,40.5C 35.6667,43.8333 35.3333,47.1667 35,50.5C 32.308,51.752 30.4747,53.752 29.5,56.5C 27.8333,56.5 26.1667,56.5 24.5,56.5C 23.0539,53.8609 21.2205,51.5275 19,49.5C 18.6667,46.5 18.3333,43.5 18,40.5C 4.81195,30.9504 2.47861,19.2837 11,5.5C 13.8426,2.83733 17.0093,0.837327 20.5,-0.5 Z M 21.5,2.5 C 28.8334,1.22588 35.1667,3.05922 40.5,8C 38.7888,9.13318 38.2888,10.6332 39,12.5C 40.6667,12.8333 42.3333,13.1667 44,13.5C 45.9358,19.1553 45.2692,24.4886 42,29.5C 38.6719,32.8281 35.3386,36.1614 32,39.5C 30.1404,37.0846 28.4737,37.0846 27,39.5C 26.6667,34.1667 26.3333,28.8333 26,23.5C 21.2218,19.2998 21.7218,18.6332 27.5,21.5C 28.6199,20.1666 29.9532,19.6666 31.5,20C 29.9512,21.214 28.7845,22.714 28,24.5C 27.5012,28.4862 27.3345,32.4862 27.5,36.5C 28.5,36.5 29.5,36.5 30.5,36.5C 29.4041,30.6093 30.9041,25.6093 35,21.5C 35.3039,18.2869 33.8039,16.2869 30.5,15.5C 28.9707,15.5288 27.804,16.1955 27,17.5C 21.4813,14.3341 19.148,16.0008 20,22.5C 21,23.5 22,24.5 23,25.5C 23.8283,30.202 23.6616,34.8687 22.5,39.5C 18.0035,36.0301 14.1702,32.0301 11,27.5C 8.83126,21.6856 9.16459,16.0189 12,10.5C 12.4828,11.448 12.6495,12.448 12.5,13.5C 13.5,13.5 14.5,13.5 15.5,13.5C 15.8588,11.2341 15.1922,9.40072 13.5,8C 16.3512,6.29511 19.0179,4.46178 21.5,2.5 Z M 21.5,42.5 C 29.1755,42.4561 29.3422,43.1228 22,44.5C 21.5357,43.9056 21.369,43.2389 21.5,42.5 Z"/></g>
<g><path style="opacity:0.725" fill="#f7a807" d="M 34.5,8.5 C 35.5,8.5 36.5,8.5 37.5,8.5C 37.5,10.1667 37.5,11.8333 37.5,13.5C 36.5,13.5 35.5,13.5 34.5,13.5C 34.5,11.8333 34.5,10.1667 34.5,8.5 Z"/></g>
<g><path style="opacity:0.666" fill="#f7a905" d="M 25.5,8.5 C 26.5,8.5 27.5,8.5 28.5,8.5C 28.5,10.1667 28.5,11.8333 28.5,13.5C 27.5,13.5 26.5,13.5 25.5,13.5C 25.5,11.8333 25.5,10.1667 25.5,8.5 Z"/></g>
<g><path style="opacity:0.705" fill="#f6ae04" d="M 21.5,8.5 C 24.0838,9.0483 25.0838,10.715 24.5,13.5C 23.5,13.5 22.5,13.5 21.5,13.5C 21.5,11.8333 21.5,10.1667 21.5,8.5 Z"/></g>
<g><path style="opacity:0.57" fill="#f7ae06" d="M 16.5,8.5 C 17.5,8.5 18.5,8.5 19.5,8.5C 19.5,10.1667 19.5,11.8333 19.5,13.5C 18.5,13.5 17.5,13.5 16.5,13.5C 16.5,11.8333 16.5,10.1667 16.5,8.5 Z"/></g>
<g><path style="opacity:0.66" fill="#f4a903" d="M 30.5,8.5 C 31.6491,8.79106 32.3158,9.62439 32.5,11C 31.7062,14.1215 30.7062,14.1215 29.5,11C 29.7432,10.0979 30.0766,9.26456 30.5,8.5 Z"/></g>
</svg>
