<svg width="78" height="78" viewBox="0 0 78 78" fill="none" xmlns="http://www.w3.org/2000/svg">
<g clip-path="url(#clip0_488_246)">
<path d="M46.1506 52.8482C36.6879 48.8416 29.1631 41.2993 25.1784 31.8273L36.2284 20.7577L15.8834 0.3965L5.57763 10.699C3.79014 12.4967 2.37686 14.631 1.41958 16.9785C0.462302 19.326 -0.0199817 21.8399 0.000634079 24.375C0.000634079 47.931 30.0696 78 53.6256 78C56.1604 78.0222 58.6744 77.5406 61.0215 76.5832C63.3687 75.6258 65.5022 74.2117 67.2984 72.423L77.6041 62.1173L57.2429 41.756L46.1506 52.8482ZM62.6996 67.8275C61.5061 69.0106 60.0893 69.9446 58.5315 70.5751C56.9737 71.2056 55.3061 71.52 53.6256 71.5C33.3684 71.5 6.50063 44.6322 6.50063 24.375C6.48149 22.6942 6.79626 21.0263 7.42669 19.4681C8.05711 17.9099 8.99064 16.4924 10.1731 15.2977L15.8834 9.5875L27.0536 20.7577L17.5149 30.2965L18.3111 32.292C20.6552 38.5623 24.3196 44.2554 29.0561 48.9858C33.7926 53.7161 39.4906 57.3731 45.7639 59.709L47.7334 60.4598L57.2429 50.947L68.4131 62.1173L62.6996 67.8275ZM45.5006 6.5V0C54.1173 0.00946269 62.3783 3.4366 68.4712 9.52948C74.564 15.6224 77.9912 23.8834 78.0006 32.5H71.5006C71.4929 25.6067 68.7511 18.998 63.8769 14.1238C59.0026 9.24951 52.3939 6.50774 45.5006 6.5ZM45.5006 19.5V13C50.6708 13.0052 55.6277 15.0613 59.2835 18.7171C62.9394 22.373 64.9955 27.3299 65.0006 32.5H58.5006C58.5006 29.0522 57.131 25.7456 54.693 23.3076C52.255 20.8696 48.9484 19.5 45.5006 19.5Z" fill="#F6AA06"/>
</g>
<defs>
<clipPath id="clip0_488_246">
<rect width="78" height="78" fill="white"/>
</clipPath>
</defs>
</svg>
