<?xml version="1.0" encoding="UTF-8"?>
<!DOCTYPE svg PUBLIC "-//W3C//DTD SVG 1.1//EN" "http://www.w3.org/Graphics/SVG/1.1/DTD/svg11.dtd">
<svg xmlns="http://www.w3.org/2000/svg" version="1.1" width="180px" height="141px" style="shape-rendering:geometricPrecision; text-rendering:geometricPrecision; image-rendering:optimizeQuality; fill-rule:evenodd; clip-rule:evenodd" xmlns:xlink="http://www.w3.org/1999/xlink">
<g><path style="opacity:0.019" fill="#ebb330" d="M 2.5,-0.5 C 3.83333,-0.5 5.16667,-0.5 6.5,-0.5C 7.28696,1.10422 8.6203,1.77089 10.5,1.5C 10.5499,3.59007 9.54986,4.9234 7.5,5.5C 5.2534,4.62578 2.92006,4.29245 0.5,4.5C 0.365341,2.4458 1.03201,0.779138 2.5,-0.5 Z"/></g>
<g><path style="opacity:0.004" fill="#fae034" d="M -0.5,4.5 C -0.166667,4.5 0.166667,4.5 0.5,4.5C 0.31468,5.17014 -0.0186536,5.17014 -0.5,4.5 Z"/></g>
<g><path style="opacity:0.053" fill="#2d2826" d="M 102.5,7.5 C 107.161,6.83207 109.161,8.83207 108.5,13.5C 103.832,14.1606 101.832,12.1606 102.5,7.5 Z"/></g>
<g><path style="opacity:0.027" fill="#ebb230" d="M 109.5,7.5 C 111.482,7.99543 113.482,8.49543 115.5,9C 117.037,10.1096 117.703,11.6096 117.5,13.5C 112.093,14.8196 109.426,12.8196 109.5,7.5 Z"/></g>
<g><path style="opacity:0.026" fill="#252224" d="M -0.5,11.5 C -0.5,10.5 -0.5,9.5 -0.5,8.5C 1.04181,7.69929 2.70848,7.36596 4.5,7.5C 6.00686,12.2524 4.34019,13.5857 -0.5,11.5 Z"/></g>
<g><path style="opacity:0.008" fill="#252424" d="M 70.5,10.5 C 71.8333,10.5 73.1667,10.5 74.5,10.5C 74.5,11.5 74.5,12.5 74.5,13.5C 72.0274,13.9118 70.6941,12.9118 70.5,10.5 Z"/></g>
<g><path style="opacity:0.03" fill="#e9b030" d="M 4.5,15.5 C 8.63831,15.9732 10.6383,18.3065 10.5,22.5C 5.44386,22.4617 3.44386,20.1284 4.5,15.5 Z"/></g>
<g><path style="opacity:0.027" fill="#e9b12f" d="M 19.5,15.5 C 21.3769,16.6591 21.8769,18.3258 21,20.5C 19.2739,21.5762 17.4406,21.7429 15.5,21C 14.4829,19.9505 14.3162,18.7839 15,17.5C 16.6225,16.9011 18.1225,16.2344 19.5,15.5 Z"/></g>
<g><path style="opacity:0.004" fill="#252424" d="M 101.5,20.5 C 102.251,19.4265 103.251,19.2599 104.5,20C 103.552,20.4828 102.552,20.6495 101.5,20.5 Z"/></g>
<g><path style="opacity:0.872" fill="#e9b02f" d="M 53.5,58.5 C 51.5956,58.7376 50.2623,59.7376 49.5,61.5C 36.4288,69.591 25.0954,67.591 15.5,55.5C 10.7122,39.4649 16.0455,28.2982 31.5,22C 48.5014,19.0135 58.1681,26.0135 60.5,43C 59.79,47.2652 58.6234,51.4318 57,55.5C 55.8549,56.6364 54.6883,57.6364 53.5,58.5 Z"/></g>
<g><path style="opacity:0.004" fill="#252424" d="M 111.5,21.5 C 113.167,21.5 114.833,21.5 116.5,21.5C 116.5,22.5 116.5,23.5 116.5,24.5C 114.833,24.5 113.167,24.5 111.5,24.5C 111.5,23.5 111.5,22.5 111.5,21.5 Z"/></g>
<g><path style="opacity:0.053" fill="#e9b12f" d="M 155.5,24.5 C 160.355,23.964 162.521,25.964 162,30.5C 158.302,32.1692 155.802,31.0026 154.5,27C 154.743,26.0979 155.077,25.2646 155.5,24.5 Z"/></g>
<g><path style="opacity:0.044" fill="#252424" d="M 73.5,26.5 C 78.0719,27.0873 80.0719,29.754 79.5,34.5C 74.8811,33.8732 72.8811,31.2065 73.5,26.5 Z"/></g>
<g><path style="opacity:0.011" fill="#252424" d="M 136.5,34.5 C 139.026,34.9191 141.359,35.0858 143.5,35C 142.107,36.1711 141.273,37.6711 141,39.5C 139.333,38.1667 137.667,38.1667 136,39.5C 135.36,37.735 135.527,36.0683 136.5,34.5 Z"/></g>
<g><path style="opacity:0.049" fill="#252424" d="M 145.5,34.5 C 146.708,35.2341 148.041,35.5674 149.5,35.5C 149.5,37.8333 149.5,40.1667 149.5,42.5C 143.405,42.0773 142.071,39.4106 145.5,34.5 Z"/></g>
<g><path style="opacity:0.015" fill="#e9b12f" d="M 91.5,38.5 C 93.8056,38.9926 96.139,39.3259 98.5,39.5C 98.67,40.8221 98.3366,41.9887 97.5,43C 95.5273,43.4955 93.5273,43.6621 91.5,43.5C 91.5,41.8333 91.5,40.1667 91.5,38.5 Z"/></g>
<g><path style="opacity:0.053" fill="#252424" d="M 70.5,40.5 C 74.1632,39.9952 76.4965,41.4952 77.5,45C 73.7403,47.4316 70.7403,46.7649 68.5,43C 69.3805,42.2917 70.0472,41.4584 70.5,40.5 Z"/></g>
<g><path style="opacity:0.014" fill="#e9b12f" d="M 179.5,45.5 C 179.5,47.1667 179.5,48.8333 179.5,50.5C 176.952,48.9622 176.952,47.2956 179.5,45.5 Z"/></g>
<g><path style="opacity:0.037" fill="#252424" d="M 127.5,52.5 C 130.288,52.0769 132.288,53.0769 133.5,55.5C 129.416,58.6936 127.416,57.6936 127.5,52.5 Z"/></g>
<g><path style="opacity:0.038" fill="#e9b12f" d="M 69.5,55.5 C 73.3203,56.9293 73.987,59.0959 71.5,62C 70.2068,62.49 68.8734,62.6567 67.5,62.5C 67.1658,59.812 67.8325,57.4786 69.5,55.5 Z"/></g>
<g><path style="opacity:0.012" fill="#212025" d="M 53.5,58.5 C 56.1422,60.5804 55.8088,62.2471 52.5,63.5C 51.2613,63.0576 50.2613,62.3909 49.5,61.5C 50.2623,59.7376 51.5956,58.7376 53.5,58.5 Z"/></g>
<g><path style="opacity:0.02" fill="#e9b12f" d="M 32.5,68.5 C 37.4511,70.0885 37.7844,72.4219 33.5,75.5C 32.1195,75.0004 31.4528,74.0004 31.5,72.5C 31.8457,71.1508 32.179,69.8175 32.5,68.5 Z"/></g>
<g><path style="opacity:0.023" fill="#ebb330" d="M 128.5,79.5 C 127.909,78.8485 127.243,78.1818 126.5,77.5C 126.846,76.3044 127.346,76.3044 128,77.5C 127.489,73.0249 129.323,70.8582 133.5,71C 133.833,71.3333 134.167,71.6667 134.5,72C 133.475,74.0715 132.642,76.2381 132,78.5C 130.989,79.3366 129.822,79.67 128.5,79.5 Z"/></g>
<g><path style="opacity:0.01" fill="#e9b12f" d="M 85.5,71.5 C 86.552,71.3505 87.552,71.5172 88.5,72C 87.8839,74.1785 86.7172,76.0118 85,77.5C 83.8419,77.0019 83.0085,76.1685 82.5,75C 83.5442,73.8261 84.5442,72.6594 85.5,71.5 Z"/></g>
<g><path style="opacity:0.01" fill="#e9b12f" d="M 144.5,71.5 C 147.889,72.7101 148.223,74.3768 145.5,76.5C 143.296,75.218 142.962,73.5514 144.5,71.5 Z"/></g>
<g><path style="opacity:0.041" fill="#292525" d="M 167.5,84.5 C 167.923,82.2188 167.256,80.5521 165.5,79.5C 166.932,77.3531 168.765,77.0198 171,78.5C 172.111,81.955 170.944,83.955 167.5,84.5 Z"/></g>
<g><path style="opacity:0.864" fill="#bd3e34" d="M 128.5,79.5 C 131.128,81.4811 134.128,82.9811 137.5,84C 146.896,91.0738 149.73,100.24 146,111.5C 138.498,122.053 128.331,126.72 115.5,125.5C 104.35,121.866 99.183,114.199 100,102.5C 101.517,98.9543 102.85,95.2876 104,91.5C 106.491,89.7096 108.658,87.5429 110.5,85C 116.262,82.2798 122.262,80.4465 128.5,79.5 Z"/></g>
<g><path style="opacity:0.015" fill="#dca72f" d="M 165.5,79.5 C 167.256,80.5521 167.923,82.2188 167.5,84.5C 165.5,84.5 163.5,84.5 161.5,84.5C 161.5,82.8333 161.5,81.1667 161.5,79.5C 163.139,79.9258 164.472,79.9258 165.5,79.5 Z"/></g>
<g><path style="opacity:0.071" fill="#252424" d="M 46.5,87.5 C 48.1667,87.5 49.8333,87.5 51.5,87.5C 51.6728,92.3234 49.3394,94.3234 44.5,93.5C 44.2587,91.1137 44.9254,89.1137 46.5,87.5 Z"/></g>
<g><path style="opacity:0.067" fill="#252424" d="M 13.5,93.5 C 15.1667,93.5 16.8333,93.5 18.5,93.5C 18.5,95.5 18.5,97.5 18.5,99.5C 14.0917,99.938 12.4251,97.938 13.5,93.5 Z"/></g>
<g><path style="opacity:0.068" fill="#252424" d="M 153.5,104.5 C 158.325,104.332 159.992,106.332 158.5,110.5C 154.518,111.422 152.184,109.922 151.5,106C 152.416,105.722 153.082,105.222 153.5,104.5 Z"/></g>
<g><path style="opacity:0.048" fill="#e9b12f" d="M 34.5,112.5 C 38.9083,112.062 40.5749,114.062 39.5,118.5C 34.7561,118.772 33.0894,116.772 34.5,112.5 Z"/></g>
<g><path style="opacity:0.058" fill="#e9b12f" d="M 9.5,124.5 C 16.1741,128.972 15.5074,132.639 7.5,135.5C 5.81122,131.305 6.47788,127.638 9.5,124.5 Z"/></g>
<g><path style="opacity:0.037" fill="#e9b12f" d="M 99.5,127.5 C 103.824,127.402 105.991,129.402 106,133.5C 104.506,134.747 103.006,134.747 101.5,133.5C 100.628,131.55 99.9612,129.55 99.5,127.5 Z"/></g>
<g><path style="opacity:0.004" fill="#e9b12f" d="M 14.5,131.5 C 16.337,131.639 16.6704,132.306 15.5,133.5C 14.7025,133.043 14.3691,132.376 14.5,131.5 Z"/></g>
<g><path style="opacity:0.024" fill="#e9b12f" d="M 170.5,140.5 C 168.833,140.5 167.167,140.5 165.5,140.5C 165.925,137.886 167.258,135.886 169.5,134.5C 171.739,136.133 172.072,138.133 170.5,140.5 Z"/></g>
</svg>
