<?xml version="1.0" encoding="UTF-8"?>
<!DOCTYPE svg PUBLIC "-//W3C//DTD SVG 1.1//EN" "http://www.w3.org/Graphics/SVG/1.1/DTD/svg11.dtd">
<svg xmlns="http://www.w3.org/2000/svg" version="1.1" width="184px" height="194px" style="shape-rendering:geometricPrecision; text-rendering:geometricPrecision; image-rendering:optimizeQuality; fill-rule:evenodd; clip-rule:evenodd" xmlns:xlink="http://www.w3.org/1999/xlink">
<g><path style="opacity:0.037" fill="#e9b12f" d="M -0.5,-0.5 C 0.5,-0.5 1.5,-0.5 2.5,-0.5C 1.30766,1.1131 0.307663,2.77976 -0.5,4.5C -0.5,2.83333 -0.5,1.16667 -0.5,-0.5 Z"/></g>
<g><path style="opacity:0.025" fill="#252424" d="M 38.5,-0.5 C 39.8333,-0.5 41.1667,-0.5 42.5,-0.5C 42.38,0.586173 41.7133,1.25284 40.5,1.5C 39.2867,1.25284 38.62,0.586173 38.5,-0.5 Z"/></g>
<g><path style="opacity:0.055" fill="#252424" d="M 94.5,-0.5 C 97.8333,-0.5 101.167,-0.5 104.5,-0.5C 105.234,0.707917 105.567,2.04125 105.5,3.5C 101.821,3.27558 98.1545,2.94225 94.5,2.5C 94.5,1.5 94.5,0.5 94.5,-0.5 Z"/></g>
<g><path style="opacity:0.148" fill="#222124" d="M 130.5,-0.5 C 132.833,-0.5 135.167,-0.5 137.5,-0.5C 137.326,1.86105 136.993,4.19438 136.5,6.5C 130.472,7.40963 128.472,5.0763 130.5,-0.5 Z"/></g>
<g><path style="opacity:0.021" fill="#232124" d="M 148.5,-0.5 C 149.833,-0.5 151.167,-0.5 152.5,-0.5C 151.833,1.83333 151.167,4.16667 150.5,6.5C 149.5,6.5 148.5,6.5 147.5,6.5C 147.298,4.05035 147.631,1.71702 148.5,-0.5 Z"/></g>
<g><path style="opacity:0.039" fill="#ecb330" d="M 140.5,0.5 C 143.091,1.25429 144.924,2.92096 146,5.5C 147.472,10.6515 145.805,12.6515 141,11.5C 139.353,7.84327 139.187,4.1766 140.5,0.5 Z"/></g>
<g><path style="opacity:0.006" fill="#e9b12f" d="M 163.5,3.5 C 166.47,3.74578 167.803,5.41245 167.5,8.5C 165.801,8.66018 164.134,8.49351 162.5,8C 162.912,6.4361 163.245,4.9361 163.5,3.5 Z"/></g>
<g><path style="opacity:0.01" fill="#e9b12f" d="M 183.5,3.5 C 183.5,5.16667 183.5,6.83333 183.5,8.5C 182.603,7.40191 181.77,7.40191 181,8.5C 179,6.83333 179,5.16667 181,3.5C 181.77,4.59809 182.603,4.59809 183.5,3.5 Z"/></g>
<g><path style="opacity:0.021" fill="#252424" d="M 152.5,8.5 C 155.431,11.0133 156.765,14.3467 156.5,18.5C 155.167,18.5 153.833,18.5 152.5,18.5C 152.414,16.323 151.747,14.323 150.5,12.5C 151.18,11.1401 151.847,9.80678 152.5,8.5 Z"/></g>
<g><path style="opacity:0.004" fill="#252424" d="M 18.5,16.5 C 20.0481,16.8212 20.7148,17.8212 20.5,19.5C 17.7524,19.5983 17.0857,18.5983 18.5,16.5 Z"/></g>
<g><path style="opacity:0.032" fill="#e9b12f" d="M 56.5,16.5 C 58.5922,16.5614 60.0922,17.5614 61,19.5C 61.6172,20.4491 61.4506,21.2825 60.5,22C 55.7282,22.8104 54.3948,20.9771 56.5,16.5 Z"/></g>
<g><path style="opacity:0.011" fill="#252424" d="M 26.5,17.5 C 30.0681,17.7593 31.4015,19.7593 30.5,23.5C 26.1453,23.4505 24.8119,21.4505 26.5,17.5 Z"/></g>
<g><path style="opacity:0.004" fill="#e9b12f" d="M 127.5,17.5 C 128.833,18.1667 128.833,18.1667 127.5,17.5 Z"/></g>
<g><path style="opacity:0.01" fill="#e9b12f" d="M 107.5,18.5 C 108.5,18.5 109.5,18.5 110.5,18.5C 110.923,21.2882 109.923,23.2882 107.5,24.5C 105.001,22.6045 105.001,20.6045 107.5,18.5 Z"/></g>
<g><path style="opacity:0.01" fill="#e9b12f" d="M 127.5,18.5 C 128.244,21.9496 126.91,23.6162 123.5,23.5C 123.5,21.8333 123.5,20.1667 123.5,18.5C 124.833,18.5 126.167,18.5 127.5,18.5 Z"/></g>
<g><path style="opacity:0.014" fill="#e9b12f" d="M 81.5,21.5 C 83.1667,21.5 84.8333,21.5 86.5,21.5C 86.6162,24.9103 84.9496,26.2436 81.5,25.5C 81.5,24.1667 81.5,22.8333 81.5,21.5 Z"/></g>
<g><path style="opacity:0.004" fill="#e9b12f" d="M 123.5,25.5 C 124.251,24.4265 125.251,24.2599 126.5,25C 125.552,25.4828 124.552,25.6495 123.5,25.5 Z"/></g>
<g><path style="opacity:0.025" fill="#e9b12f" d="M 183.5,24.5 C 183.5,26.1667 183.5,27.8333 183.5,29.5C 179.201,31.5936 177.201,30.2602 177.5,25.5C 179.5,25.1667 181.5,24.8333 183.5,24.5 Z"/></g>
<g><path style="opacity:0.01" fill="#252424" d="M 141.5,26.5 C 143.167,26.5 144.833,26.5 146.5,26.5C 146.5,27.5 146.5,28.5 146.5,29.5C 144.833,29.5 143.167,29.5 141.5,29.5C 141.5,28.5 141.5,27.5 141.5,26.5 Z"/></g>
<g><path style="opacity:0.06" fill="#252424" d="M 17.5,27.5 C 24.596,27.0751 25.596,28.7418 20.5,32.5C 20.6667,32.8333 20.8333,33.1667 21,33.5C 23.4009,32.3977 25.9009,32.231 28.5,33C 30.5922,33.9525 30.9255,35.2859 29.5,37C 25.5768,37.9789 21.9101,37.4789 18.5,35.5C 14.7191,36.391 13.0525,34.7244 13.5,30.5C 15.1992,30.6602 16.8659,30.4935 18.5,30C 17.7476,29.3292 17.4142,28.4959 17.5,27.5 Z"/></g>
<g><path style="opacity:0.056" fill="#252424" d="M 41.5,27.5 C 43.5273,27.3379 45.5273,27.5045 47.5,28C 48.5171,29.0495 48.6838,30.2161 48,31.5C 45.9361,32.5914 43.7695,32.7581 41.5,32C 40.2721,30.5098 40.2721,29.0098 41.5,27.5 Z"/></g>
<g><path style="opacity:0.065" fill="#262325" d="M 92.5,39.5 C 95.8333,39.5 99.1667,39.5 102.5,39.5C 102.331,46.6758 99.1643,48.3424 93,44.5C 92.5065,42.8659 92.3398,41.1992 92.5,39.5 Z"/></g>
<g><path style="opacity:0.965" fill="#f5aa06" d="M 128.5,56.5 C 128.842,57.3382 129.508,57.6716 130.5,57.5C 133.399,59.383 136.566,61.0497 140,62.5C 140.414,62.0426 140.914,61.7093 141.5,61.5C 145.292,64.39 149.625,66.2233 154.5,67C 157.489,70.8284 161.156,71.6617 165.5,69.5C 165.93,73.6442 166.93,77.6442 168.5,81.5C 166.153,88.2442 164.819,95.2442 164.5,102.5C 163.275,103.152 162.608,104.319 162.5,106C 162.514,107.385 162.848,108.551 163.5,109.5C 161.445,114.59 160.445,119.923 160.5,125.5C 158.971,134.023 157.471,142.69 156,151.5C 152.91,156.264 149.41,160.764 145.5,165C 136.984,165.69 128.484,165.523 120,164.5C 117.549,164.312 115.382,163.479 113.5,162C 102.919,161.278 92.2528,159.611 81.5,157C 76.7723,155.312 72.4389,153.645 68.5,152C 62.7885,151.258 57.1219,150.258 51.5,149C 47.3664,146.953 43.6997,144.453 40.5,141.5C 40.3337,134.492 40.5004,127.492 41,120.5C 42.3064,119.088 43.1397,117.421 43.5,115.5C 45.2102,102.581 47.8768,89.9143 51.5,77.5C 54.6971,68.2747 58.0304,59.108 61.5,50C 63.8671,49.626 65.7005,48.4593 67,46.5C 69.1245,45.9372 71.2912,45.6039 73.5,45.5C 86.9981,48.2216 100.498,50.8883 114,53.5C 114.333,53.1667 114.667,52.8333 115,52.5C 119.043,55.0178 123.543,56.3511 128.5,56.5 Z"/></g>
<g><path style="opacity:0.008" fill="#262425" d="M 133.5,45.5 C 135.912,45.6941 136.912,47.0274 136.5,49.5C 133.046,49.7332 132.046,48.3999 133.5,45.5 Z"/></g>
<g><path style="opacity:0.061" fill="#252424" d="M 3.5,47.5 C 8.9143,47.9208 9.9143,50.4208 6.5,55C 1.91671,55.9337 0.416709,54.1004 2,49.5C 2.71719,48.9558 3.21719,48.2891 3.5,47.5 Z"/></g>
<g><path style="opacity:0.004" fill="#252424" d="M 160.5,50.5 C 162.115,53.3098 161.282,55.3098 158,56.5C 157.756,54.0699 158.589,52.0699 160.5,50.5 Z"/></g>
<g><path style="opacity:0.006" fill="#e9b131" d="M 130.5,57.5 C 130.158,56.6618 129.492,56.3284 128.5,56.5C 128.5,55.5 128.5,54.5 128.5,53.5C 130.842,53.5041 132.842,54.3375 134.5,56C 133.437,57.1882 132.103,57.6882 130.5,57.5 Z"/></g>
<g><path style="opacity:0.009" fill="#e9b12f" d="M 35.5,63.5 C 36.9778,63.238 38.3112,63.5713 39.5,64.5C 38.6798,66.1112 37.3464,66.7778 35.5,66.5C 35.5,65.5 35.5,64.5 35.5,63.5 Z"/></g>
<g><path style="opacity:0.011" fill="#252424" d="M -0.5,65.5 C 0.5,65.5 1.5,65.5 2.5,65.5C 2.74085,68.0336 1.74085,69.7002 -0.5,70.5C -0.5,68.8333 -0.5,67.1667 -0.5,65.5 Z"/></g>
<g><path style="opacity:0.017" fill="#252424" d="M -0.5,82.5 C 0.495904,82.4142 1.32924,82.7476 2,83.5C 2.49546,85.4727 2.66212,87.4727 2.5,89.5C 1.5,89.5 0.5,89.5 -0.5,89.5C -0.5,87.1667 -0.5,84.8333 -0.5,82.5 Z"/></g>
<g><path style="opacity:0.453" fill="#825d14" d="M 164.5,102.5 C 164.5,102.833 164.5,103.167 164.5,103.5C 163.549,104.919 163.216,106.585 163.5,108.5C 163.5,108.833 163.5,109.167 163.5,109.5C 162.848,108.551 162.514,107.385 162.5,106C 162.608,104.319 163.275,103.152 164.5,102.5 Z"/></g>
<g><path style="opacity:0.085" fill="#252424" d="M 24.5,106.5 C 26.7224,106.178 28.5557,106.845 30,108.5C 35.5038,117.206 34.1704,118.539 26,112.5C 25.187,110.564 24.687,108.564 24.5,106.5 Z"/></g>
<g><path style="opacity:0.024" fill="#1a1a25" d="M 163.5,108.5 C 163.216,106.585 163.549,104.919 164.5,103.5C 164.435,103.938 164.601,104.272 165,104.5C 165.451,102.071 166.285,101.904 167.5,104C 167.377,105.789 167.377,107.622 167.5,109.5C 167,109.833 166.5,110.167 166,110.5C 164.989,109.944 164.156,109.278 163.5,108.5 Z"/></g>
<g><path style="opacity:0.016" fill="#e9b12f" d="M 22.5,123.5 C 25.7451,124.745 28.0785,127.078 29.5,130.5C 28.0977,131.842 28.4311,132.676 30.5,133C 26.5746,133.952 24.0746,132.452 23,128.5C 22.5065,126.866 22.3398,125.199 22.5,123.5 Z"/></g>
<g><path style="opacity:0.023" fill="#e9b130" d="M 160.5,125.5 C 164.161,125.35 165.161,126.85 163.5,130C 162.552,130.483 161.552,130.649 160.5,130.5C 160.5,128.833 160.5,127.167 160.5,125.5 Z"/></g>
<g><path style="opacity:0.028" fill="#252424" d="M 167.5,135.5 C 172.08,137.346 173.413,140.679 171.5,145.5C 170.311,146.429 168.978,146.762 167.5,146.5C 167.085,142.713 167.085,139.046 167.5,135.5 Z"/></g>
<g><path style="opacity:0.005" fill="#252424" d="M 183.5,135.5 C 183.5,138.167 183.5,140.833 183.5,143.5C 182.414,143.38 181.747,142.713 181.5,141.5C 181.878,139.283 182.545,137.283 183.5,135.5 Z"/></g>
<g><path style="opacity:0.045" fill="#eab130" d="M 40.5,148.5 C 42.6648,148.116 44.3315,148.783 45.5,150.5C 44.3983,155.104 41.5649,157.771 37,158.5C 35.5132,156.728 35.1799,154.728 36,152.5C 37.3968,150.93 38.8968,149.596 40.5,148.5 Z"/></g>
<g><path style="opacity:0.019" fill="#262325" d="M 27.5,159.5 C 29.2884,158.378 31.2884,158.211 33.5,159C 35.5152,160.555 35.8485,162.389 34.5,164.5C 31.6677,163.363 29.3344,161.697 27.5,159.5 Z"/></g>
<g><path style="opacity:0.038" fill="#262425" d="M 48.5,159.5 C 49.2389,159.369 49.9056,159.536 50.5,160C 49.782,161.987 48.782,163.821 47.5,165.5C 44.817,166.264 41.817,166.93 38.5,167.5C 38.5,165.833 38.5,164.167 38.5,162.5C 42.1715,162.243 45.5048,161.243 48.5,159.5 Z"/></g>
<g><path style="opacity:0.008" fill="#e9b131" d="M 118.5,165.5 C 120.355,165.272 121.188,165.939 121,167.5C 117.877,169.098 117.044,168.431 118.5,165.5 Z"/></g>
<g><path style="opacity:0.019" fill="#252424" d="M 97.5,166.5 C 101.554,167.119 102.887,169.286 101.5,173C 100.365,173.749 99.365,173.583 98.5,172.5C 96.826,170.57 96.4927,168.57 97.5,166.5 Z"/></g>
<g><path style="opacity:0.016" fill="#e9b12f" d="M 16.5,167.5 C 18.8444,167.506 20.1777,168.673 20.5,171C 19.5819,173.086 18.9153,175.253 18.5,177.5C 17.1667,177.5 15.8333,177.5 14.5,177.5C 14.5758,174.027 15.2424,170.694 16.5,167.5 Z"/></g>
<g><path style="opacity:0.027" fill="#252424" d="M 42.5,174.5 C 44.1992,174.34 45.8659,174.506 47.5,175C 48.9295,179.067 47.5961,180.234 43.5,178.5C 42.7542,177.264 42.4208,175.93 42.5,174.5 Z"/></g>
<g><path style="opacity:0.01" fill="#e9b12f" d="M -0.5,190.5 C 2.24764,190.402 2.9143,191.402 1.5,193.5C 0.833333,193.5 0.166667,193.5 -0.5,193.5C -0.5,192.5 -0.5,191.5 -0.5,190.5 Z"/></g>
<g><path style="opacity:0.009" fill="#252424" d="M 115.5,193.5 C 114.167,193.5 112.833,193.5 111.5,193.5C 111.62,192.414 112.287,191.747 113.5,191.5C 114.713,191.747 115.38,192.414 115.5,193.5 Z"/></g>
</svg>
