<?xml version="1.0" encoding="UTF-8"?>
<!DOCTYPE svg PUBLIC "-//W3C//DTD SVG 1.1//EN" "http://www.w3.org/Graphics/SVG/1.1/DTD/svg11.dtd">
<svg xmlns="http://www.w3.org/2000/svg" version="1.1" width="234px" height="184px" style="shape-rendering:geometricPrecision; text-rendering:geometricPrecision; image-rendering:optimizeQuality; fill-rule:evenodd; clip-rule:evenodd" xmlns:xlink="http://www.w3.org/1999/xlink">
<g><path style="opacity:0.013" fill="#e9b12f" d="M 44.5,-0.5 C 45.5,-0.5 46.5,-0.5 47.5,-0.5C 47.1667,2.16667 46.8333,4.83333 46.5,7.5C 45.1266,7.65668 43.7932,7.49001 42.5,7C 42.164,4.46296 42.8306,1.96296 44.5,-0.5 Z"/></g>
<g><path style="opacity:0.044" fill="#252424" d="M 52.5,-0.5 C 54.5,-0.5 56.5,-0.5 58.5,-0.5C 58.516,1.48405 57.516,2.48405 55.5,2.5C 53.8247,2.1316 52.8247,1.1316 52.5,-0.5 Z"/></g>
<g><path style="opacity:0.004" fill="#252424" d="M 55.5,4.5 C 56.5735,5.25057 56.7401,6.25057 56,7.5C 55.5172,6.55198 55.3505,5.55198 55.5,4.5 Z"/></g>
<g><path style="opacity:0.005" fill="#e9b12f" d="M -0.5,9.5 C -0.5,8.83333 -0.5,8.16667 -0.5,7.5C 2.50156,5.89177 5.16822,6.2251 7.5,8.5C 4.91355,9.48002 2.24688,9.81335 -0.5,9.5 Z"/></g>
<g><path style="opacity:0.058" fill="#252424" d="M 138.5,6.5 C 143.394,6.95517 144.561,9.28851 142,13.5C 140.644,12.6198 139.144,12.2865 137.5,12.5C 137.517,10.4352 137.85,8.43525 138.5,6.5 Z"/></g>
<g><path style="opacity:0.013" fill="#252424" d="M 70.5,7.5 C 72.3904,7.2965 73.8904,7.96317 75,9.5C 75.2511,11.433 75.7511,13.2663 76.5,15C 75.6921,16.7058 74.3588,17.5391 72.5,17.5C 71.8333,14.1667 71.1667,10.8333 70.5,7.5 Z"/></g>
<g><path style="opacity:0.024" fill="#252424" d="M 89.5,7.5 C 92.1843,9.09978 93.1843,11.2664 92.5,14C 90.3594,14.8837 88.6927,14.3837 87.5,12.5C 88.1744,10.8045 88.8411,9.13785 89.5,7.5 Z"/></g>
<g><path style="opacity:0.004" fill="#e9b12f" d="M 171.5,7.5 C 172.376,7.36912 173.043,7.70245 173.5,8.5C 172.05,9.84983 171.383,11.5165 171.5,13.5C 170.167,13.5 168.833,13.5 167.5,13.5C 168.203,11.1274 169.536,9.12744 171.5,7.5 Z"/></g>
<g><path style="opacity:0.004" fill="#e9b12f" d="M 177.5,7.5 C 178.675,7.28099 179.675,7.61432 180.5,8.5C 178.948,9.79789 177.948,9.46455 177.5,7.5 Z"/></g>
<g><path style="opacity:0.021" fill="#252424" d="M 112.5,11.5 C 115.288,11.0769 117.288,12.0769 118.5,14.5C 116.827,16.0863 114.827,16.7529 112.5,16.5C 112.5,14.8333 112.5,13.1667 112.5,11.5 Z"/></g>
<g><path style="opacity:0.043" fill="#252424" d="M 14.5,14.5 C 16.861,14.6741 19.1944,15.0074 21.5,15.5C 21.5,17.1667 21.5,18.8333 21.5,20.5C 16.0687,21.9064 13.7353,19.9064 14.5,14.5 Z"/></g>
<g><path style="opacity:0.005" fill="#e9b12f" d="M 55.5,16.5 C 56.4778,16.811 57.1445,17.4777 57.5,18.5C 55.8333,19.8333 54.1667,19.8333 52.5,18.5C 53.6016,17.8243 54.6016,17.1577 55.5,16.5 Z"/></g>
<g><path style="opacity:0.028" fill="#e9b12f" d="M 151.5,17.5 C 153.5,17.5 155.5,17.5 157.5,17.5C 157.714,19.1439 157.38,20.6439 156.5,22C 154.527,22.4955 152.527,22.6621 150.5,22.5C 150.366,20.7085 150.699,19.0418 151.5,17.5 Z"/></g>
<g><path style="opacity:0.033" fill="#e9b12f" d="M 176.5,17.5 C 179.462,17.9547 182.129,19.1214 184.5,21C 184.966,22.2988 184.966,23.7988 184.5,25.5C 179.604,26.9787 174.604,27.4787 169.5,27C 168.273,25.4126 168.606,24.0793 170.5,23C 173.099,22.231 175.599,22.3977 178,23.5C 177.758,21.8619 176.925,20.3619 175.5,19C 176.056,18.6174 176.389,18.1174 176.5,17.5 Z"/></g>
<g><path style="opacity:0.037" fill="#252424" d="M 233.5,20.5 C 233.5,22.1667 233.5,23.8333 233.5,25.5C 230.952,23.7044 230.952,22.0378 233.5,20.5 Z"/></g>
<g><path style="opacity:0.934" fill="#0f8382" d="M 197.5,74.5 C 197.328,75.4916 197.662,76.1583 198.5,76.5C 200.22,82.6756 201.22,89.0089 201.5,95.5C 201.167,98.8333 200.833,102.167 200.5,105.5C 199.034,109.064 197.868,112.73 197,116.5C 194.294,119.591 192.627,123.258 192,127.5C 191,128.167 190,128.833 189,129.5C 185.484,135.945 180.651,140.945 174.5,144.5C 174.5,145.5 174.5,146.5 174.5,147.5C 172.297,147.604 170.297,148.27 168.5,149.5C 166.821,149.285 165.821,149.952 165.5,151.5C 164.33,153.279 162.664,154.279 160.5,154.5C 158.219,154.077 156.552,154.744 155.5,156.5C 154.158,158.864 152.325,159.53 150,158.5C 143.127,160.448 136.293,162.448 129.5,164.5C 116.18,165.571 102.847,165.738 89.5,165C 79.4381,162.435 69.1048,160.269 58.5,158.5C 51.7416,156.286 45.4083,153.286 39.5,149.5C 35.5203,143.887 30.8537,138.887 25.5,134.5C 17.1162,116.27 16.2829,97.6031 23,78.5C 28.9575,68.2585 36.1241,58.9252 44.5,50.5C 47.8647,49.9676 50.1981,48.1342 51.5,45C 56.2705,42.7099 60.6038,39.8765 64.5,36.5C 73.8795,32.8422 83.5462,29.0088 93.5,25C 95.4406,24.2571 97.2739,24.4238 99,25.5C 100.87,24.2565 103.036,23.5899 105.5,23.5C 107.759,23.5323 109.925,23.8656 112,24.5C 142.244,20.0308 167.077,29.6974 186.5,53.5C 187.674,57.8211 189.841,61.4878 193,64.5C 193.494,66.1341 193.66,67.8008 193.5,69.5C 194.5,69.5 195.5,69.5 196.5,69.5C 196.216,71.4147 196.549,73.0813 197.5,74.5 Z M 117.5,50.5 C 133.755,47.5757 147.255,51.5757 158,62.5C 158.928,67.3794 160.095,72.2127 161.5,77C 160.333,81.0022 159.333,85.0022 158.5,89C 158.833,89.3333 159.167,89.6667 159.5,90C 157.686,93.308 155.686,96.4747 153.5,99.5C 152.311,100.429 150.978,100.762 149.5,100.5C 149.762,101.978 149.429,103.311 148.5,104.5C 145.848,105.653 143.848,107.487 142.5,110C 139.499,109.906 137.499,111.239 136.5,114C 132.673,115.79 128.673,116.956 124.5,117.5C 124.5,118.5 124.5,119.5 124.5,120.5C 120.873,121.429 117.207,122.263 113.5,123C 112.965,125.109 111.965,125.609 110.5,124.5C 104.098,125.891 97.7643,127.558 91.5,129.5C 77.9446,131.97 65.6112,129.303 54.5,121.5C 53.3468,118.848 51.5134,116.848 49,115.5C 44.3861,105.434 44.3861,95.4344 49,85.5C 49.3333,85.8333 49.6667,86.1667 50,86.5C 51.7624,84.0644 53.0958,81.3977 54,78.5C 56.9029,77.9314 58.9029,76.2648 60,73.5C 60.414,73.9574 60.914,74.2907 61.5,74.5C 64.2124,71.7231 67.0457,69.0564 70,66.5C 72.8182,66.6851 75.3182,65.5184 77.5,63C 81.7823,61.7245 85.949,60.2245 90,58.5C 91.3639,59.2583 92.5305,58.7583 93.5,57C 97.6882,56.7787 101.355,55.4454 104.5,53C 109.015,52.3855 113.348,51.5522 117.5,50.5 Z"/></g>
<g><path style="opacity:0.034" fill="#e9b12f" d="M 190.5,37.5 C 196.14,37.4226 198.14,39.9226 196.5,45C 194.888,45.7203 193.388,45.5536 192,44.5C 191.023,42.26 190.523,39.9267 190.5,37.5 Z"/></g>
<g><path style="opacity:0.061" fill="#252424" d="M 221.5,37.5 C 226.914,37.9208 227.914,40.4208 224.5,45C 219.917,45.9337 218.417,44.1004 220,39.5C 220.717,38.9558 221.217,38.2891 221.5,37.5 Z"/></g>
<g><path style="opacity:0.004" fill="#e9b12f" d="M 37.5,42.5 C 38.5,42.5 39.5,42.5 40.5,42.5C 40.5,43.5 40.5,44.5 40.5,45.5C 39.5,45.5 38.5,45.5 37.5,45.5C 37.5,44.5 37.5,43.5 37.5,42.5 Z"/></g>
<g><path style="opacity:0.007" fill="#e9b12f" d="M 197.5,55.5 C 198.5,55.5 199.5,55.5 200.5,55.5C 200.5,56.5 200.5,57.5 200.5,58.5C 197.433,58.8795 196.433,57.8795 197.5,55.5 Z"/></g>
<g><path style="opacity:0.009" fill="#252424" d="M 215.5,55.5 C 217.167,55.5 218.833,55.5 220.5,55.5C 220.809,59.3428 219.309,60.6761 216,59.5C 215.51,58.2068 215.343,56.8734 215.5,55.5 Z"/></g>
<g><path style="opacity:0.015" fill="#252424" d="M 216.5,72.5 C 217.822,72.33 218.989,72.6634 220,73.5C 220.495,75.4727 220.662,77.4727 220.5,79.5C 219.167,79.5 217.833,79.5 216.5,79.5C 216.5,77.1667 216.5,74.8333 216.5,72.5 Z"/></g>
<g><path style="opacity:0.01" fill="#e9b12f" d="M 70.5,74.5 C 73.5517,75.7767 74.8851,78.11 74.5,81.5C 73.325,81.719 72.325,81.3857 71.5,80.5C 70.6518,78.5914 70.3184,76.5914 70.5,74.5 Z"/></g>
<g><path style="opacity:0.009" fill="#f0b32e" d="M 197.5,74.5 C 198.189,73.2264 199.023,73.2264 200,74.5C 200.667,75.8333 200.667,77.1667 200,78.5C 199.722,77.5842 199.222,76.9175 198.5,76.5C 198.672,75.5084 198.338,74.8417 197.5,74.5 Z"/></g>
<g><path style="opacity:0.054" fill="#e9b12f" d="M 6.5,82.5 C 8.5,82.5 10.5,82.5 12.5,82.5C 12.6621,84.5273 12.4955,86.5273 12,88.5C 10,91.1667 8,91.1667 6,88.5C 5.32239,86.4024 5.48905,84.4024 6.5,82.5 Z"/></g>
<g><path style="opacity:0.004" fill="#e9b12f" d="M 87.5,85.5 C 89.4646,85.9483 89.7979,86.9483 88.5,88.5C 87.6143,87.675 87.281,86.675 87.5,85.5 Z"/></g>
<g><path style="opacity:0.027" fill="#e9b12f" d="M 99.5,108.5 C 101.676,109.713 102.009,111.38 100.5,113.5C 96.8192,116.732 94.9859,116.066 95,111.5C 96.6516,110.601 98.1516,109.601 99.5,108.5 Z"/></g>
<g><path style="opacity:0.014" fill="#252424" d="M 80.5,119.5 C 81.7079,120.234 83.0413,120.567 84.5,120.5C 82.3658,127.347 81.0325,127.014 80.5,119.5 Z"/></g>
<g><path style="opacity:0.004" fill="#e9b12f" d="M 14.5,125.5 C 15.7251,126.152 16.3917,127.319 16.5,129C 16.1667,130.167 15.8333,131.333 15.5,132.5C 14.5258,130.257 14.1924,127.924 14.5,125.5 Z"/></g>
<g><path style="opacity:0.009" fill="#e8b331" d="M 168.5,149.5 C 168.918,150.222 169.584,150.722 170.5,151C 169.383,152.892 167.716,153.725 165.5,153.5C 166.506,152.604 166.506,151.938 165.5,151.5C 165.821,149.952 166.821,149.285 168.5,149.5 Z"/></g>
<g><path style="opacity:0.004" fill="#c3a538" d="M 165.5,153.5 C 164.833,154.167 164.833,154.167 165.5,153.5 Z"/></g>
<g><path style="opacity:0.106" fill="#bfa73e" d="M 160.5,154.5 C 158.972,155.309 157.306,155.976 155.5,156.5C 156.552,154.744 158.219,154.077 160.5,154.5 Z"/></g>
<g><path style="opacity:0.008" fill="#f5b52d" d="M 157.5,157.5 C 158.251,156.427 159.251,156.26 160.5,157C 159.552,157.483 158.552,157.649 157.5,157.5 Z"/></g>
<g><path style="opacity:0.027" fill="#252424" d="M 180.5,156.5 C 181.5,156.5 182.5,156.5 183.5,156.5C 183.823,160.226 183.489,163.893 182.5,167.5C 181.914,167.709 181.414,168.043 181,168.5C 177.889,164.7 177.722,160.7 180.5,156.5 Z"/></g>
<g><path style="opacity:0.009" fill="#e9b12f" d="M 233.5,162.5 C 233.5,164.167 233.5,165.833 233.5,167.5C 232.167,165.833 232.167,164.167 233.5,162.5 Z"/></g>
<g><path style="opacity:0.015" fill="#e9b12f" d="M 151.5,164.5 C 153.167,164.5 154.833,164.5 156.5,164.5C 156.716,169.587 154.882,170.587 151,167.5C 150.53,166.423 150.697,165.423 151.5,164.5 Z"/></g>
<g><path style="opacity:0.006" fill="#e9b12f" d="M 86.5,183.5 C 85.1667,183.5 83.8333,183.5 82.5,183.5C 84.374,179.835 85.7073,179.835 86.5,183.5 Z"/></g>
<g><path style="opacity:0.029" fill="#252424" d="M 202.5,183.5 C 200.833,183.5 199.167,183.5 197.5,183.5C 197.5,182.5 197.5,181.5 197.5,180.5C 200.285,179.916 201.952,180.916 202.5,183.5 Z"/></g>
<g><path style="opacity:0.014" fill="#e9b12f" d="M 219.5,183.5 C 217.833,183.5 216.167,183.5 214.5,183.5C 215.754,180.733 217.754,180.067 220.5,181.5C 220.137,182.183 219.804,182.85 219.5,183.5 Z"/></g>
</svg>
