<?xml version="1.0" encoding="UTF-8"?>
<!DOCTYPE svg PUBLIC "-//W3C//DTD SVG 1.1//EN" "http://www.w3.org/Graphics/SVG/1.1/DTD/svg11.dtd">
<svg xmlns="http://www.w3.org/2000/svg" version="1.1" width="171px" height="178px" style="shape-rendering:geometricPrecision; text-rendering:geometricPrecision; image-rendering:optimizeQuality; fill-rule:evenodd; clip-rule:evenodd" xmlns:xlink="http://www.w3.org/1999/xlink">
<g><path style="opacity:0.022" fill="#242224" d="M 20.5,-0.5 C 22.1667,-0.5 23.8333,-0.5 25.5,-0.5C 26.3007,1.04181 26.634,2.70848 26.5,4.5C 24.4727,4.66212 22.4727,4.49546 20.5,4C 19.2721,2.50978 19.2721,1.00978 20.5,-0.5 Z"/></g>
<g><path style="opacity:0.016" fill="#e9b12f" d="M 158.5,-0.5 C 159.167,-0.5 159.833,-0.5 160.5,-0.5C 163.302,1.76442 162.969,3.43109 159.5,4.5C 156.031,3.43109 155.698,1.76442 158.5,-0.5 Z"/></g>
<g><path style="opacity:0.032" fill="#252424" d="M 120.5,2.5 C 124.909,1.89899 126.242,3.56566 124.5,7.5C 120.157,8.51912 118.823,6.85246 120.5,2.5 Z"/></g>
<g><path style="opacity:0.009" fill="#e6b030" d="M 32.5,6.5 C 32.7678,8.09903 32.4345,9.43236 31.5,10.5C 29.7909,10.3921 27.7909,10.2254 25.5,10C 26.8333,9 26.8333,8 25.5,7C 27.8098,6.50335 30.1432,6.33669 32.5,6.5 Z"/></g>
<g><path style="opacity:0.019" fill="#eab130" d="M 148.5,6.5 C 152.23,8.88265 152.397,11.5493 149,14.5C 147.255,11.9904 147.089,9.32373 148.5,6.5 Z"/></g>
<g><path style="opacity:0.067" fill="#252424" d="M 135.5,8.5 C 137.167,8.5 138.833,8.5 140.5,8.5C 141.168,13.1606 139.168,15.1606 134.5,14.5C 134.517,12.4352 134.85,10.4352 135.5,8.5 Z"/></g>
<g><path style="opacity:0.016" fill="#2a2725" d="M 32.5,6.5 C 35.5531,7.27954 37.2197,9.27954 37.5,12.5C 35.9255,13.6309 34.2588,13.7975 32.5,13C 31.7476,12.3292 31.4142,11.4959 31.5,10.5C 32.4345,9.43236 32.7678,8.09903 32.5,6.5 Z"/></g>
<g><path style="opacity:0.046" fill="#252424" d="M 69.5,14.5 C 73.1252,14.6193 75.4585,16.4527 76.5,20C 75.9747,20.6924 75.3081,21.1924 74.5,21.5C 71.6829,20.9049 69.3495,19.5716 67.5,17.5C 68.1925,16.4822 68.8592,15.4822 69.5,14.5 Z"/></g>
<g><path style="opacity:0.004" fill="#252424" d="M -0.5,16.5 C 0.833333,17.1667 0.833333,17.1667 -0.5,16.5 Z"/></g>
<g><path style="opacity:0.023" fill="#252424" d="M 142.5,18.5 C 144.379,19.3414 146.379,19.6747 148.5,19.5C 149.052,21.3307 149.052,22.9974 148.5,24.5C 146.556,23.8108 144.556,23.3108 142.5,23C 141.272,21.5098 141.272,20.0098 142.5,18.5 Z"/></g>
<g><path style="opacity:0.027" fill="#e9b130" d="M 39.5,23.5 C 43.8414,23.8495 45.5081,26.1829 44.5,30.5C 39.2221,30.5716 37.5554,28.2383 39.5,23.5 Z"/></g>
<g><path style="opacity:0.005" fill="#e9b131" d="M 13.5,25.5 C 16.2744,28.1108 15.9411,30.4442 12.5,32.5C 12.1667,32.3333 11.8333,32.1667 11.5,32C 12.2301,29.846 12.8968,27.6794 13.5,25.5 Z"/></g>
<g><path style="opacity:0.944" fill="#f5a906" d="M 36.5,117.5 C 34.8784,118.122 33.5451,119.122 32.5,120.5C 31.8333,121.5 31.1667,122.5 30.5,123.5C 28.2201,126.415 25.2201,128.582 21.5,130C 20.6634,131.011 20.33,132.178 20.5,133.5C 17.4124,133.197 15.7458,134.53 15.5,137.5C 12.4127,139.017 9.07936,139.684 5.5,139.5C 8.16995,107.484 10.8366,75.4838 13.5,43.5C 14.1667,43.5 14.5,43.1667 14.5,42.5C 15.5573,41.794 15.2239,41.4607 13.5,41.5C 14.6125,37.2112 15.6125,32.8779 16.5,28.5C 50.8009,32.4651 85.1342,36.1317 119.5,39.5C 119.06,44.4523 116.394,48.2857 111.5,51C 112.591,53.0639 112.758,55.2305 112,57.5C 109.978,58.9909 108.312,58.6576 107,56.5C 102.739,59.5918 98.9054,63.2584 95.5,67.5C 94.3112,68.4287 92.9778,68.762 91.5,68.5C 91.6495,69.552 91.4828,70.552 91,71.5C 86.6694,74.6643 82.8361,78.331 79.5,82.5C 75.9704,85.1955 72.3037,87.6955 68.5,90C 66.9632,91.1096 66.2965,92.6096 66.5,94.5C 61.2852,96.9345 56.6185,100.101 52.5,104C 50.0576,106.323 48.0576,108.823 46.5,111.5C 43.3241,111.67 41.3241,113.337 40.5,116.5C 39.0153,115.567 37.6819,115.9 36.5,117.5 Z"/></g>
<g><path style="opacity:0.038" fill="#262425" d="M 133.5,36.5 C 134.833,36.5 136.167,36.5 137.5,36.5C 138.575,40.938 136.908,42.938 132.5,42.5C 132.325,40.3792 132.659,38.3792 133.5,36.5 Z"/></g>
<g><path style="opacity:0.01" fill="#e9b12f" d="M 170.5,44.5 C 170.5,45.1667 170.5,45.8333 170.5,46.5C 169.198,47.8069 167.865,47.8069 166.5,46.5C 165.77,44.6587 165.103,42.8254 164.5,41C 166.134,40.5065 167.801,40.3398 169.5,40.5C 169.232,42.099 169.566,43.4324 170.5,44.5 Z"/></g>
<g><path style="opacity:0.004" fill="#1b1a27" d="M 13.5,41.5 C 13.5,42.1667 13.8333,42.5 14.5,42.5C 14.5,43.1667 14.1667,43.5 13.5,43.5C 12.7321,44.2625 12.2321,45.2625 12,46.5C 11.8333,45.6667 11.6667,44.8333 11.5,44C 11.6842,42.6244 12.3509,41.7911 13.5,41.5 Z"/></g>
<g><path style="opacity:0.07" fill="#262425" d="M 0.5,48.5 C 5.29364,47.6269 7.62697,49.6269 7.5,54.5C 2.70636,55.3731 0.373025,53.3731 0.5,48.5 Z"/></g>
<g><path style="opacity:0.925" fill="#bd3f33" d="M 138.5,48.5 C 138.025,51.0821 138.692,53.0821 140.5,54.5C 138.029,61.9307 137.029,69.5974 137.5,77.5C 135.403,78.8786 135.07,80.5453 136.5,82.5C 136.865,94.9769 135.698,107.31 133,119.5C 131.905,132.826 130.905,146.159 130,159.5C 129.057,161.954 127.224,162.954 124.5,162.5C 116.404,161.857 108.404,160.857 100.5,159.5C 99.1667,158.167 97.8333,158.167 96.5,159.5C 87.9295,158.029 79.2628,157.029 70.5,156.5C 68.5,153.833 66.5,153.833 64.5,156.5C 50.6914,153.975 36.8581,152.642 23,152.5C 21.5,152.333 20.6667,151.5 20.5,150C 33.2579,137.648 45.9245,125.314 58.5,113C 64.0544,109.601 68.7211,105.434 72.5,100.5C 73.1667,100.5 73.5,100.167 73.5,99.5C 74.4916,99.6716 75.1583,99.3382 75.5,98.5C 76.1667,98.5 76.5,98.1667 76.5,97.5C 95.6181,81.2274 114.951,65.0608 134.5,49C 135.793,48.51 137.127,48.3433 138.5,48.5 Z"/></g>
<g><path style="opacity:0.089" fill="#df9432" d="M 138.5,48.5 C 140.074,50.1016 140.741,52.1016 140.5,54.5C 138.692,53.0821 138.025,51.0821 138.5,48.5 Z"/></g>
<g><path style="opacity:0.021" fill="#e9b12f" d="M 148.5,51.5 C 152.323,51.1669 153.823,52.8336 153,56.5C 151.026,56.3528 149.026,56.0195 147,55.5C 146.7,53.9343 147.2,52.601 148.5,51.5 Z"/></g>
<g><path style="opacity:0.064" fill="#2a2425" d="M 137.5,77.5 C 138.552,77.7711 139.885,77.9378 141.5,78C 142.833,79.3333 142.833,80.6667 141.5,82C 139.866,82.4935 138.199,82.6602 136.5,82.5C 135.07,80.5453 135.403,78.8786 137.5,77.5 Z"/></g>
<g><path style="opacity:0.011" fill="#252424" d="M 143.5,90.5 C 145.833,90.5 148.167,90.5 150.5,90.5C 150.67,91.8221 150.337,92.9887 149.5,94C 147.527,94.4955 145.527,94.6621 143.5,94.5C 143.5,93.1667 143.5,91.8333 143.5,90.5 Z"/></g>
<g><path style="opacity:0.024" fill="#212224" d="M 76.5,97.5 C 75.8333,97.5 75.5,97.8333 75.5,98.5C 74.5084,98.3284 73.8417,98.6618 73.5,99.5C 73.5,100.167 73.1667,100.5 72.5,100.5C 71.7611,100.631 71.0944,100.464 70.5,100C 71.8613,98.4157 72.528,96.5824 72.5,94.5C 73.8333,94.5 75.1667,94.5 76.5,94.5C 76.5,95.5 76.5,96.5 76.5,97.5 Z"/></g>
<g><path style="opacity:0.008" fill="#212324" d="M 58.5,105.5 C 59.6491,105.791 60.3158,106.624 60.5,108C 59.802,112.032 58.4687,112.365 56.5,109C 56.9783,107.697 57.645,106.531 58.5,105.5 Z"/></g>
<g><path style="opacity:0.019" fill="#e9b12f" d="M 170.5,113.5 C 170.5,115.5 170.5,117.5 170.5,119.5C 169.007,118.688 168.34,117.355 168.5,115.5C 168.233,113.024 168.899,112.357 170.5,113.5 Z"/></g>
<g><path style="opacity:0.063" fill="#5f471c" d="M 36.5,117.5 C 36.1667,118.167 35.8333,118.833 35.5,119.5C 34.791,120.404 33.791,120.737 32.5,120.5C 33.5451,119.122 34.8784,118.122 36.5,117.5 Z"/></g>
<g><path style="opacity:0.047" fill="#222025" d="M 35.5,119.5 C 37.8075,120.405 37.8075,121.738 35.5,123.5C 33.6837,124.735 32.017,124.735 30.5,123.5C 31.1667,122.5 31.8333,121.5 32.5,120.5C 33.791,120.737 34.791,120.404 35.5,119.5 Z"/></g>
<g><path style="opacity:0.036" fill="#eab030" d="M 70.5,156.5 C 68.2355,156.441 67.9022,157.274 69.5,159C 68.8183,162.732 67.3183,163.232 65,160.5C 64.9378,158.885 64.7711,157.552 64.5,156.5C 66.5,153.833 68.5,153.833 70.5,156.5 Z"/></g>
<g><path style="opacity:0.026" fill="#ebb430" d="M 85.5,165.5 C 85.0651,163.703 85.0651,161.703 85.5,159.5C 91.587,158.869 92.587,160.536 88.5,164.5C 87.5832,165.127 86.5832,165.461 85.5,165.5 Z"/></g>
<g><path style="opacity:0.041" fill="#222324" d="M 100.5,159.5 C 100.062,159.435 99.7284,159.601 99.5,160C 103.307,161.939 103.307,163.773 99.5,165.5C 96.7736,164.056 95.7736,162.056 96.5,159.5C 97.8333,158.167 99.1667,158.167 100.5,159.5 Z"/></g>
<g><path style="opacity:0.004" fill="#e9b12f" d="M 85.5,165.5 C 84.8333,166.167 84.8333,166.167 85.5,165.5 Z"/></g>
<g><path style="opacity:0.032" fill="#e9b12f" d="M 134.5,165.5 C 136.199,165.34 137.866,165.506 139.5,166C 138.22,168.132 138.22,170.298 139.5,172.5C 137.114,172.676 134.448,172.676 131.5,172.5C 131.5,170.5 131.5,168.5 131.5,166.5C 132.791,166.737 133.791,166.404 134.5,165.5 Z"/></g>
<g><path style="opacity:0.037" fill="#e9b12f" d="M 58.5,177.5 C 56.8333,177.5 55.1667,177.5 53.5,177.5C 51.8365,174.491 52.6698,172.491 56,171.5C 59.5347,172.384 60.3681,174.384 58.5,177.5 Z"/></g>
<g><path style="opacity:0.006" fill="#252424" d="M 160.5,177.5 C 159.5,177.5 158.5,177.5 157.5,177.5C 157.389,176.883 157.056,176.383 156.5,176C 158.167,174.833 159.833,173.667 161.5,172.5C 162.672,172.919 163.672,173.585 164.5,174.5C 163.099,175.521 161.765,176.521 160.5,177.5 Z"/></g>
</svg>
