<?xml version="1.0" encoding="UTF-8"?>
<!DOCTYPE svg PUBLIC "-//W3C//DTD SVG 1.1//EN" "http://www.w3.org/Graphics/SVG/1.1/DTD/svg11.dtd">
<svg xmlns="http://www.w3.org/2000/svg" version="1.1" width="186px" height="170px" style="shape-rendering:geometricPrecision; text-rendering:geometricPrecision; image-rendering:optimizeQuality; fill-rule:evenodd; clip-rule:evenodd" xmlns:xlink="http://www.w3.org/1999/xlink">
<g><path style="opacity:0.01" fill="#252424" d="M 123.5,-0.5 C 125.167,-0.5 126.833,-0.5 128.5,-0.5C 126.297,2.88449 124.63,2.88449 123.5,-0.5 Z"/></g>
<g><path style="opacity:0.036" fill="#222124" d="M 76.5,8.5 C 73.4538,9.36235 70.6205,9.36235 68,8.5C 67.51,7.20677 67.3433,5.87344 67.5,4.5C 69.8695,4.14888 72.2028,3.98221 74.5,4C 76.0368,5.10963 76.7035,6.60963 76.5,8.5 Z"/></g>
<g><path style="opacity:0.015" fill="#e9b12f" d="M 172.5,3.5 C 174.977,3.05078 176.977,3.71745 178.5,5.5C 178.291,6.08605 177.957,6.58605 177.5,7C 175.527,7.49546 173.527,7.66212 171.5,7.5C 171.433,6.04125 171.766,4.70792 172.5,3.5 Z"/></g>
<g><path style="opacity:0.041" fill="#252424" d="M 116.5,4.5 C 120.161,4.35012 121.161,5.85012 119.5,9C 118.552,9.48278 117.552,9.64945 116.5,9.5C 116.985,14.1585 115.152,15.4919 111,13.5C 109.418,11.3763 109.251,9.20963 110.5,7C 112.974,6.96331 114.974,6.12997 116.5,4.5 Z"/></g>
<g><path style="opacity:0.004" fill="#050623" d="M 76.5,8.5 C 77.2389,8.36899 77.9056,8.53566 78.5,9C 77.5632,9.69169 76.8966,9.52502 76.5,8.5 Z"/></g>
<g><path style="opacity:0.021" fill="#eab130" d="M 131.5,9.5 C 132.5,9.5 133.5,9.5 134.5,9.5C 134.663,11.8568 134.497,14.1902 134,16.5C 133.586,16.9574 133.086,17.2907 132.5,17.5C 130.341,15.0456 130.008,12.3789 131.5,9.5 Z"/></g>
<g><path style="opacity:0.004" fill="#e9b12f" d="M 140.5,9.5 C 141.833,9.5 143.167,9.5 144.5,9.5C 144.5,10.8333 144.5,12.1667 144.5,13.5C 143.448,13.3505 142.448,13.5172 141.5,14C 142.654,14.9138 142.487,15.7471 141,16.5C 140.5,16 140,15.5 139.5,15C 140.406,13.3005 140.739,11.4672 140.5,9.5 Z"/></g>
<g><path style="opacity:0.014" fill="#ebb230" d="M 74.5,11.5 C 76.2726,12.3143 76.7726,13.6476 76,15.5C 74.9887,16.3366 73.8221,16.67 72.5,16.5C 72.3653,14.4458 73.032,12.7791 74.5,11.5 Z"/></g>
<g><path style="opacity:0.006" fill="#e9b12f" d="M 2.5,14.5 C 3.5,14.5 4.5,14.5 5.5,14.5C 5.5,15.5 5.5,16.5 5.5,17.5C 4.5,17.5 3.5,17.5 2.5,17.5C 2.5,16.5 2.5,15.5 2.5,14.5 Z"/></g>
<g><path style="opacity:0.033" fill="#262324" d="M 56.5,19.5 C 60.1921,19.3243 62.1921,20.9909 62.5,24.5C 60.1432,24.6633 57.8098,24.4966 55.5,24C 54.4186,22.2894 54.752,20.7894 56.5,19.5 Z"/></g>
<g><path style="opacity:0.921" fill="#be3f34" d="M 106.5,56.5 C 84.0678,84.9825 60.9011,112.983 37,140.5C 35.3005,141.406 33.4672,141.739 31.5,141.5C 29.3324,127.03 27.9991,112.363 27.5,97.5C 30.0479,95.9622 30.0479,94.2956 27.5,92.5C 26.9025,84.7873 26.2358,77.1207 25.5,69.5C 26.162,67.6965 26.4954,65.6965 26.5,63.5C 26.4609,61.0478 25.7943,59.0478 24.5,57.5C 23.8866,47.5115 23.5533,37.5115 23.5,27.5C 38.0153,26.9481 52.3486,25.9481 66.5,24.5C 68.8311,25.9952 70.8311,25.6618 72.5,23.5C 92.2848,23.2347 111.951,21.9014 131.5,19.5C 131.785,21.288 131.452,22.9547 130.5,24.5C 122.091,34.9023 114.091,45.569 106.5,56.5 Z"/></g>
<g><path style="opacity:0.021" fill="#e9b12f" d="M 185.5,20.5 C 185.5,22.5 185.5,24.5 185.5,26.5C 183.414,25.8515 182.414,24.3515 182.5,22C 182.682,19.4219 183.682,18.9219 185.5,20.5 Z"/></g>
<g><path style="opacity:0.018" fill="#eab12f" d="M 139.5,20.5 C 143.529,20.666 144.862,22.4993 143.5,26C 141.322,26.1652 139.489,25.3318 138,23.5C 137.761,22.212 138.261,21.212 139.5,20.5 Z"/></g>
<g><path style="opacity:0.094" fill="#212324" d="M 72.5,23.5 C 70.8311,25.6618 68.8311,25.9952 66.5,24.5C 66.736,22.0268 68.0693,20.3601 70.5,19.5C 73.159,20.1019 73.8256,21.4352 72.5,23.5 Z"/></g>
<g><path style="opacity:0.021" fill="#252324" d="M 149.5,24.5 C 151.199,24.3398 152.866,24.5065 154.5,25C 153.577,27.0408 153.244,29.2075 153.5,31.5C 152.178,31.67 151.011,31.3366 150,30.5C 149.505,28.5273 149.338,26.5273 149.5,24.5 Z"/></g>
<g><path style="opacity:0.026" fill="#e9b12f" d="M -0.5,37.5 C -0.5,35.5 -0.5,33.5 -0.5,31.5C 0.707917,30.7659 2.04125,30.4326 3.5,30.5C 3.3215,33.2165 2.8215,35.8832 2,38.5C 1.32924,37.7476 0.495904,37.4142 -0.5,37.5 Z"/></g>
<g><path style="opacity:0.942" fill="#0f8282" d="M 112.5,64.5 C 113.167,64.5 113.5,64.1667 113.5,63.5C 116.831,60.6946 119.831,57.5279 122.5,54C 121.549,53.2825 121.383,52.4491 122,51.5C 129.818,45.5227 136.318,38.5227 141.5,30.5C 143.833,30.5 146.167,30.5 148.5,30.5C 150.225,35.9993 151.225,41.666 151.5,47.5C 152.258,67.8361 153.091,88.1694 154,108.5C 154.585,110.129 155.419,111.629 156.5,113C 155.704,114.092 155.037,115.259 154.5,116.5C 156.152,123.044 157.152,129.711 157.5,136.5C 157.32,137.554 156.987,138.554 156.5,139.5C 132.894,142.811 109.394,144.811 86,145.5C 74.4779,146.158 62.9779,146.158 51.5,145.5C 53.7311,139.99 56.7311,134.99 60.5,130.5C 64.14,126.025 67.9733,121.691 72,117.5C 72.8624,115.913 73.5291,114.246 74,112.5C 77.0001,110.096 79.6668,107.43 82,104.5C 82.5573,102.385 83.3906,100.385 84.5,98.5C 90.0376,92.6385 95.7043,86.8052 101.5,81C 100.833,80.6667 100.167,80.3333 99.5,80C 102.613,76.8874 105.779,73.7208 109,70.5C 109.49,69.2068 109.657,67.8734 109.5,66.5C 111.179,66.7148 112.179,66.0481 112.5,64.5 Z"/></g>
<g><path style="opacity:0.031" fill="#252424" d="M 180.5,32.5 C 181.833,32.5 183.167,32.5 184.5,32.5C 185.113,36.5123 183.446,38.5123 179.5,38.5C 179.517,36.4352 179.85,34.4352 180.5,32.5 Z"/></g>
<g><path style="opacity:0.038" fill="#252424" d="M 167.5,35.5 C 173.236,35.316 174.403,37.316 171,41.5C 169.581,40.5399 168.081,39.7065 166.5,39C 167.337,37.9887 167.67,36.8221 167.5,35.5 Z"/></g>
<g><path style="opacity:0.028" fill="#e9b12f" d="M -0.5,49.5 C -0.5,48.8333 -0.5,48.1667 -0.5,47.5C 0.910828,46.0924 2.57749,45.0924 4.5,44.5C 8.37761,46.4008 8.37761,48.2341 4.5,50C 2.73498,50.6397 1.06831,50.4731 -0.5,49.5 Z"/></g>
<g><path style="opacity:0.014" fill="#222125" d="M 106.5,56.5 C 111.37,56.902 112.37,58.902 109.5,62.5C 109.179,60.9519 108.179,60.2852 106.5,60.5C 106.5,59.1667 106.5,57.8333 106.5,56.5 Z"/></g>
<g><path style="opacity:0.07" fill="#252424" d="M 6.5,59.5 C 9.02092,61.0304 10.0209,63.3637 9.5,66.5C 4.87749,67.5918 3.04416,65.9252 4,61.5C 4.9947,60.9341 5.82803,60.2674 6.5,59.5 Z"/></g>
<g><path style="opacity:0.029" fill="#e9b12f" d="M 185.5,61.5 C 185.5,62.8333 185.5,64.1667 185.5,65.5C 182.946,66.388 180.279,66.7214 177.5,66.5C 178.159,62.0061 180.825,60.3395 185.5,61.5 Z"/></g>
<g><path style="opacity:0.007" fill="#eab230" d="M 21.5,62.5 C 22.2674,63.172 22.9341,64.0053 23.5,65C 21.9387,65.1881 21.272,64.3547 21.5,62.5 Z"/></g>
<g><path style="opacity:0.282" fill="#d57a33" d="M 24.5,57.5 C 25.7943,59.0478 26.4609,61.0478 26.5,63.5C 26.4954,65.6965 26.162,67.6965 25.5,69.5C 24.5701,65.6002 24.2367,61.6002 24.5,57.5 Z"/></g>
<g><path style="opacity:0.012" fill="#e4ae2f" d="M 106.5,60.5 C 108.179,60.2852 109.179,60.9519 109.5,62.5C 108.082,67.9627 106.749,67.796 105.5,62C 105.57,61.2352 105.903,60.7352 106.5,60.5 Z"/></g>
<g><path style="opacity:0.004" fill="#141623" d="M 113.5,63.5 C 113.5,64.1667 113.167,64.5 112.5,64.5C 111.766,63.2921 111.433,61.9587 111.5,60.5C 112.552,60.3505 113.552,60.5172 114.5,61C 113.748,61.6708 113.414,62.5041 113.5,63.5 Z"/></g>
<g><path style="opacity:0.007" fill="#e9b12f" d="M 169.5,74.5 C 171.5,74.5 173.5,74.5 175.5,74.5C 175.5,75.8333 175.5,77.1667 175.5,78.5C 173.5,78.5 171.5,78.5 169.5,78.5C 169.5,77.1667 169.5,75.8333 169.5,74.5 Z"/></g>
<g><path style="opacity:0.675" fill="#d67e32" d="M 27.5,92.5 C 30.0479,94.2956 30.0479,95.9622 27.5,97.5C 27.5,95.8333 27.5,94.1667 27.5,92.5 Z"/></g>
<g><path style="opacity:0.004" fill="#487b51" d="M 154.5,100.5 C 155.598,101.601 155.765,102.934 155,104.5C 154.51,103.207 154.343,101.873 154.5,100.5 Z"/></g>
<g><path style="opacity:0.066" fill="#252424" d="M 185.5,149.5 C 185.5,151.833 185.5,154.167 185.5,156.5C 183.833,156.5 182.167,156.5 180.5,156.5C 180.5,154.167 180.5,151.833 180.5,149.5C 182.167,149.5 183.833,149.5 185.5,149.5 Z"/></g>
<g><path style="opacity:0.03" fill="#e9b12f" d="M 31.5,151.5 C 36.0977,151.861 37.0977,153.694 34.5,157C 33.2068,157.49 31.8734,157.657 30.5,157.5C 30.3253,155.379 30.6586,153.379 31.5,151.5 Z"/></g>
<g><path style="opacity:0.036" fill="#e9b02f" d="M 59.5,169.5 C 58.1667,169.5 56.8333,169.5 55.5,169.5C 52.9503,165.098 53.617,161.098 57.5,157.5C 61.3883,160.944 62.0549,164.944 59.5,169.5 Z"/></g>
<g><path style="opacity:0.005" fill="#e9b12f" d="M 157.5,157.5 C 159.812,158.32 162.146,159.153 164.5,160C 163.128,160.402 161.795,160.902 160.5,161.5C 159.088,160.194 157.421,159.36 155.5,159C 156.416,158.722 157.082,158.222 157.5,157.5 Z"/></g>
<g><path style="opacity:0.011" fill="#252424" d="M 137.5,159.5 C 138.239,159.369 138.906,159.536 139.5,160C 138.703,163.241 136.703,165.408 133.5,166.5C 132.09,166.132 131.09,165.299 130.5,164C 132.898,162.476 135.231,160.976 137.5,159.5 Z"/></g>
<g><path style="opacity:0.045" fill="#252424" d="M 85.5,160.5 C 87.2624,160.357 88.9291,160.691 90.5,161.5C 94.6895,168.427 93.0228,169.594 85.5,165C 84.2721,163.51 84.2721,162.01 85.5,160.5 Z"/></g>
<g><path style="opacity:0.058" fill="#242225" d="M 50.5,169.5 C 48.8333,169.5 47.1667,169.5 45.5,169.5C 43.9134,165.082 45.58,163.415 50.5,164.5C 51.0715,166.36 51.0715,168.027 50.5,169.5 Z"/></g>
</svg>
