<?xml version="1.0" encoding="UTF-8"?>
<!DOCTYPE svg PUBLIC "-//W3C//DTD SVG 1.1//EN" "http://www.w3.org/Graphics/SVG/1.1/DTD/svg11.dtd">
<svg xmlns="http://www.w3.org/2000/svg" version="1.1" width="255px" height="192px" style="shape-rendering:geometricPrecision; text-rendering:geometricPrecision; image-rendering:optimizeQuality; fill-rule:evenodd; clip-rule:evenodd" xmlns:xlink="http://www.w3.org/1999/xlink">
<g><path style="opacity:0.008" fill="#252424" d="M 193.5,0.5 C 193.5,0.166667 193.5,-0.166667 193.5,-0.5C 196.167,-0.5 198.833,-0.5 201.5,-0.5C 199.282,1.84408 196.615,2.17742 193.5,0.5 Z"/></g>
<g><path style="opacity:0.004" fill="#252424" d="M 193.5,0.5 C 193.103,1.52502 192.437,1.69169 191.5,1C 192.094,0.535656 192.761,0.368989 193.5,0.5 Z"/></g>
<g><path style="opacity:0.023" fill="#e9b12f" d="M 205.5,2.5 C 206.708,3.23411 208.041,3.56745 209.5,3.5C 209.5,6.16667 209.5,8.83333 209.5,11.5C 208.167,11.5 206.833,11.5 205.5,11.5C 205.5,8.5 205.5,5.5 205.5,2.5 Z"/></g>
<g><path style="opacity:0.012" fill="#ecb430" d="M 124.5,5.5 C 126.085,6.00238 126.585,7.00238 126,8.5C 123.36,11.4383 120.86,11.6049 118.5,9C 120.211,7.2243 122.211,6.05763 124.5,5.5 Z"/></g>
<g><path style="opacity:0.016" fill="#e9b12f" d="M 25.5,8.5 C 26.7659,12.4251 25.0992,14.0918 20.5,13.5C 20.5,12.1667 20.5,10.8333 20.5,9.5C 22.4147,9.78448 24.0813,9.45115 25.5,8.5 Z"/></g>
<g><path style="opacity:0.014" fill="#2f2926" d="M 113.5,16.5 C 113.5,15.5 113.5,14.5 113.5,13.5C 114.274,12.8529 115.274,12.5195 116.5,12.5C 118.319,12.3422 119.652,13.0089 120.5,14.5C 118.298,16.4297 115.965,17.0964 113.5,16.5 Z"/></g>
<g><path style="opacity:0.019" fill="#ecb330" d="M 113.5,13.5 C 113.5,14.5 113.5,15.5 113.5,16.5C 113.539,18.3588 112.706,19.6921 111,20.5C 109.259,18.4588 109.092,16.2921 110.5,14C 111.448,13.5172 112.448,13.3505 113.5,13.5 Z"/></g>
<g><path style="opacity:0.036" fill="#e9b12f" d="M 5.5,14.5 C 10.1225,13.4082 11.9558,15.0748 11,19.5C 9.13163,20.6719 7.29829,20.5053 5.5,19C 4.27207,17.5098 4.27207,16.0098 5.5,14.5 Z"/></g>
<g><path style="opacity:0.062" fill="#e9b12f" d="M 223.5,14.5 C 226.876,15.3876 229.543,17.221 231.5,20C 230.831,21.8475 229.497,23.0142 227.5,23.5C 225.591,22.6518 223.591,22.3184 221.5,22.5C 221.481,20.9397 221.148,19.4397 220.5,18C 221.071,16.4009 222.071,15.2342 223.5,14.5 Z"/></g>
<g><path style="opacity:0.026" fill="#e9b12f" d="M 74.5,20.5 C 77.6802,20.1762 78.8469,21.5096 78,24.5C 75.7871,25.8019 73.4537,26.8019 71,27.5C 70.3076,26.9747 69.8076,26.3081 69.5,25.5C 70.5774,23.1322 72.2441,21.4655 74.5,20.5 Z"/></g>
<g><path style="opacity:0.017" fill="#e9b12f" d="M -0.5,25.5 C 1.66485,25.1159 3.33152,25.7826 4.5,27.5C 3.33152,29.2174 1.66485,29.8841 -0.5,29.5C -0.5,28.1667 -0.5,26.8333 -0.5,25.5 Z"/></g>
<g><path style="opacity:0.007" fill="#e9b12f" d="M 164.5,27.5 C 165.721,26.5354 167.054,26.702 168.5,28C 167.072,28.5791 165.738,28.4124 164.5,27.5 Z"/></g>
<g><path style="opacity:0.039" fill="#252424" d="M 105.5,29.5 C 109.355,31.2689 109.355,33.4356 105.5,36C 104.207,36.49 102.873,36.6567 101.5,36.5C 101.5,34.5 101.5,32.5 101.5,30.5C 103.099,30.7678 104.432,30.4345 105.5,29.5 Z"/></g>
<g><path style="opacity:0.826" fill="#e9b02f" d="M 149.5,70.5 C 148.207,68.7041 146.707,67.0375 145,65.5C 144.178,63.2115 143.511,60.8782 143,58.5C 141.951,60.1066 140.451,60.7733 138.5,60.5C 138.151,57.9552 138.984,55.9552 141,54.5C 141.333,55.1667 141.667,55.8333 142,56.5C 143.888,40.7775 152.722,31.7775 168.5,29.5C 180.456,30.9464 187.956,37.6131 191,49.5C 191.374,51.898 191.374,54.2313 191,56.5C 191.667,55.8333 192.333,55.1667 193,54.5C 195.582,56.2278 197.082,58.5611 197.5,61.5C 195.027,62.3086 192.694,62.642 190.5,62.5C 189.719,61.2713 189.219,59.938 189,58.5C 186.98,64.5217 183.147,69.0217 177.5,72C 167.739,77.1058 158.406,76.6058 149.5,70.5 Z"/></g>
<g><path style="opacity:0.007" fill="#252424" d="M 130.5,31.5 C 131.873,31.3433 133.207,31.51 134.5,32C 134.507,33.5827 134.174,35.2494 133.5,37C 134.167,37.3333 134.833,37.6667 135.5,38C 134.056,38.7805 132.723,38.6139 131.5,37.5C 130.652,35.5914 130.318,33.5914 130.5,31.5 Z"/></g>
<g><path style="opacity:0.022" fill="#252424" d="M 194.5,33.5 C 197.91,33.3838 199.244,35.0504 198.5,38.5C 194.745,38.4369 193.412,36.7702 194.5,33.5 Z"/></g>
<g><path style="opacity:0.027" fill="#e9b12f" d="M 208.5,35.5 C 211.91,35.3838 213.244,37.0504 212.5,40.5C 210.833,40.5 209.167,40.5 207.5,40.5C 207.366,38.7085 207.699,37.0418 208.5,35.5 Z"/></g>
<g><path style="opacity:0.019" fill="#e9b12f" d="M 8.5,41.5 C 12.3281,42.2068 13.9948,44.5401 13.5,48.5C 9.1965,48.2648 7.52984,45.9315 8.5,41.5 Z"/></g>
<g><path style="opacity:0.016" fill="#252424" d="M 46.5,44.5 C 47.8333,44.5 49.1667,44.5 50.5,44.5C 50.6633,46.8568 50.4966,49.1902 50,51.5C 48.575,50.7877 47.075,50.621 45.5,51C 46.1689,48.7377 46.5023,46.571 46.5,44.5 Z"/></g>
<g><path style="opacity:0.007" fill="#e9b12f" d="M 56.5,44.5 C 58.9754,45.6874 59.9754,47.6874 59.5,50.5C 55.5564,50.1156 54.5564,48.1156 56.5,44.5 Z"/></g>
<g><path style="opacity:0.012" fill="#e9b12f" d="M 129.5,46.5 C 130.922,46.7086 132.255,47.2086 133.5,48C 132.949,49.3985 132.616,50.7318 132.5,52C 128.537,52.1177 127.537,50.2843 129.5,46.5 Z"/></g>
<g><path style="opacity:0.004" fill="#e9b12f" d="M 67.5,53.5 C 66.8333,52.1667 66.8333,52.1667 67.5,53.5 Z"/></g>
<g><path style="opacity:0.047" fill="#252424" d="M 34.5,53.5 C 36.6648,53.1159 38.3315,53.7826 39.5,55.5C 38.7868,57.7759 38.2868,60.1093 38,62.5C 36.6667,63.8333 35.3333,63.8333 34,62.5C 33.3658,59.4453 33.5325,56.4453 34.5,53.5 Z"/></g>
<g><path style="opacity:0.026" fill="#e9b12f" d="M 67.5,53.5 C 69.9115,53.1367 71.4115,54.1367 72,56.5C 72.6667,58.5 72.6667,60.5 72,62.5C 69.9098,63.7908 68.5764,63.1242 68,60.5C 67.5034,58.1902 67.3367,55.8568 67.5,53.5 Z"/></g>
<g><path style="opacity:0.103" fill="#232224" d="M 110.5,58.5 C 109.662,58.8417 109.328,59.5084 109.5,60.5C 105.022,60.642 102.022,58.642 100.5,54.5C 103.19,53.3977 105.857,53.5644 108.5,55C 109.823,55.8159 110.489,56.9826 110.5,58.5 Z"/></g>
<g><path style="opacity:0.031" fill="#252424" d="M 6.5,54.5 C 7.83333,54.5 9.16667,54.5 10.5,54.5C 11.1126,58.5123 9.44589,60.5123 5.5,60.5C 5.51715,58.4352 5.85048,56.4352 6.5,54.5 Z"/></g>
<g><path style="opacity:0.038" fill="#252424" d="M 254.5,56.5 C 254.5,59.5 254.5,62.5 254.5,65.5C 252.583,63.3251 251.25,60.6584 250.5,57.5C 250.667,56.8333 250.833,56.1667 251,55.5C 252.011,56.3366 253.178,56.67 254.5,56.5 Z"/></g>
<g><path style="opacity:0.021" fill="#e9b130" d="M 109.5,60.5 C 109.328,59.5084 109.662,58.8417 110.5,58.5C 112.918,56.9848 114.585,57.6514 115.5,60.5C 113.21,62.9513 111.21,62.9513 109.5,60.5 Z"/></g>
<g><path style="opacity:0.005" fill="#e9b12f" d="M 67.5,70.5 C 65.8333,70.5 64.1667,70.5 62.5,70.5C 62.5,69.5 62.5,68.5 62.5,67.5C 63.8221,67.67 64.9887,67.3366 66,66.5C 68.012,67.5665 68.512,68.8998 67.5,70.5 Z"/></g>
<g><path style="opacity:0.018" fill="#e9b12f" d="M 240.5,66.5 C 245.27,67.9067 246.936,70.9067 245.5,75.5C 242.939,73.8997 240.939,71.733 239.5,69C 239.743,68.0979 240.077,67.2646 240.5,66.5 Z"/></g>
<g><path style="opacity:0.024" fill="#e9b12f" d="M 149.5,70.5 C 151.038,72.5514 150.704,74.218 148.5,75.5C 146.554,73.9563 146.054,71.9563 147,69.5C 147.671,70.2524 148.504,70.5858 149.5,70.5 Z"/></g>
<g><path style="opacity:0.004" fill="#e9b12f" d="M 67.5,70.5 C 68.2389,70.369 68.9056,70.5357 69.5,71C 68.5632,71.6917 67.8966,71.525 67.5,70.5 Z"/></g>
<g><path style="opacity:0.061" fill="#252424" d="M 205.5,73.5 C 206.5,73.5 207.5,73.5 208.5,73.5C 211.26,79.8455 209.26,82.5122 202.5,81.5C 202.018,78.1694 203.018,75.5027 205.5,73.5 Z"/></g>
<g><path style="opacity:0.019" fill="#e9b12f" d="M 176.5,78.5 C 181.42,79.7171 181.753,81.7171 177.5,84.5C 174.529,82.6621 174.195,80.6621 176.5,78.5 Z"/></g>
<g><path style="opacity:0.026" fill="#e9b12f" d="M 11.5,82.5 C 13.5822,83.5849 13.9156,85.0849 12.5,87C 9.64917,88.2886 6.64917,88.7886 3.5,88.5C 3.2965,86.6096 3.96317,85.1096 5.5,84C 7.70779,83.8091 9.70779,83.3091 11.5,82.5 Z"/></g>
<g><path style="opacity:0.022" fill="#252424" d="M 163.5,82.5 C 166.764,82.7264 167.764,84.2264 166.5,87C 162.707,87.4866 161.707,85.9866 163.5,82.5 Z"/></g>
<g><path style="opacity:0.029" fill="#252424" d="M 36.5,83.5 C 37.6453,87.3112 37.8119,91.3112 37,95.5C 35.4126,96.727 34.0793,96.3937 33,94.5C 32.5017,91.1832 32.335,87.8499 32.5,84.5C 34.099,84.7678 35.4324,84.4345 36.5,83.5 Z"/></g>
<g><path style="opacity:0.028" fill="#eab130" d="M 201.5,94.5 C 205.534,94.6721 209.534,95.1721 213.5,96C 215.363,97.4178 215.863,99.2511 215,101.5C 210.611,100.325 206.111,99.6586 201.5,99.5C 201.5,97.8333 201.5,96.1667 201.5,94.5 Z"/></g>
<g><path style="opacity:0.02" fill="#eab130" d="M 245.5,94.5 C 248.997,94.995 249.997,96.8283 248.5,100C 246.975,101.009 245.308,101.509 243.5,101.5C 243.166,98.812 243.832,96.4786 245.5,94.5 Z"/></g>
<g><path style="opacity:0.006" fill="#e9b12f" d="M -0.5,96.5 C 0.586173,96.62 1.25284,97.2867 1.5,98.5C 1.25284,99.7133 0.586173,100.38 -0.5,100.5C -0.5,99.1667 -0.5,97.8333 -0.5,96.5 Z"/></g>
<g><path style="opacity:0.014" fill="#efb22e" d="M 70.5,100.5 C 73.0888,101.648 74.7555,103.648 75.5,106.5C 70.3266,107.652 68.6599,105.652 70.5,100.5 Z"/></g>
<g><path style="opacity:0.868" fill="#bd3e33" d="M 220.5,145.5 C 220.324,141.808 221.991,139.808 225.5,139.5C 226.882,134.595 229.715,130.595 234,127.5C 235.841,121.506 233.674,119.173 227.5,120.5C 227.663,122.857 227.497,125.19 227,127.5C 223.915,132 221.082,136.667 218.5,141.5C 217.311,142.429 215.978,142.762 214.5,142.5C 213.833,142.5 213.5,142.833 213.5,143.5C 208.217,140.281 204.883,135.614 203.5,129.5C 203.784,127.585 203.451,125.919 202.5,124.5C 206.394,106.782 217.394,98.9487 235.5,101C 256.259,114.644 256.592,128.644 236.5,143C 231.318,144.803 225.984,145.636 220.5,145.5 Z"/></g>
<g><path style="opacity:0.02" fill="#e9b12f" d="M 113.5,103.5 C 116.564,103.144 119.231,103.977 121.5,106C 122.38,107.356 122.714,108.856 122.5,110.5C 119.148,110.216 116.148,109.05 113.5,107C 112.829,106.014 112.829,104.847 113.5,103.5 Z"/></g>
<g><path style="opacity:0.942" fill="#0f8282" d="M 134.5,119.5 C 136.425,121.769 138.425,124.103 140.5,126.5C 140.833,128.167 141.167,129.833 141.5,131.5C 139.168,138.956 137.668,146.622 137,154.5C 135.64,156.105 134.14,157.605 132.5,159C 115.17,159.5 97.8365,159.667 80.5,159.5C 72.4467,158.344 64.1133,157.511 55.5,157C 49.6511,153.222 46.9844,147.722 47.5,140.5C 46.5,140.5 45.5,140.5 44.5,140.5C 44.3336,132.826 44.5003,125.159 45,117.5C 48.5251,110.569 54.1917,107.236 62,107.5C 70.0897,108.146 78.0897,109.146 86,110.5C 87.813,109.391 88.6463,110.058 88.5,112.5C 102.719,112.505 116.552,114.505 130,118.5C 131.963,116.984 133.463,117.317 134.5,119.5 Z"/></g>
<g><path style="opacity:0.014" fill="#161f22" d="M 201.5,109.5 C 206.334,110.682 206.667,112.682 202.5,115.5C 200.454,113.719 200.12,111.719 201.5,109.5 Z"/></g>
<g><path style="opacity:0.008" fill="#252424" d="M 16.5,112.5 C 17.8967,112.205 19.3967,111.871 21,111.5C 20.8651,113.425 20.6984,115.425 20.5,117.5C 19.1667,117.5 17.8333,117.5 16.5,117.5C 17.0965,115.602 17.0965,113.935 16.5,112.5 Z"/></g>
<g><path style="opacity:0.004" fill="#febc24" d="M 134.5,118.5 C 135.833,119.167 135.833,119.167 134.5,118.5 Z"/></g>
<g><path style="opacity:0.004" fill="#ddae33" d="M 137.5,120.5 C 138.833,121.167 138.833,121.167 137.5,120.5 Z"/></g>
<g><path style="opacity:0.033" fill="#202224" d="M 202.5,124.5 C 203.451,125.919 203.784,127.585 203.5,129.5C 199.418,128.993 198.252,126.993 200,123.5C 200.671,124.252 201.504,124.586 202.5,124.5 Z"/></g>
<g><path style="opacity:0.022" fill="#252424" d="M 179.5,128.5 C 184.082,129.578 184.415,131.411 180.5,134C 179.167,134.667 177.833,134.667 176.5,134C 177.223,131.982 178.223,130.148 179.5,128.5 Z"/></g>
<g><path style="opacity:1" fill="#9b3930" d="M 220.5,145.5 C 220.167,145.5 219.833,145.5 219.5,145.5C 218.087,144.065 216.42,143.065 214.5,142.5C 215.978,142.762 217.311,142.429 218.5,141.5C 221.082,136.667 223.915,132 227,127.5C 227.497,125.19 227.663,122.857 227.5,120.5C 233.674,119.173 235.841,121.506 234,127.5C 229.715,130.595 226.882,134.595 225.5,139.5C 221.991,139.808 220.324,141.808 220.5,145.5 Z"/></g>
<g><path style="opacity:0.045" fill="#eab130" d="M 246.5,138.5 C 251.5,137.5 253.5,139.5 252.5,144.5C 250.833,144.5 249.167,144.5 247.5,144.5C 247.167,142.5 246.833,140.5 246.5,138.5 Z"/></g>
<g><path style="opacity:0.049" fill="#242324" d="M 214.5,142.5 C 216.42,143.065 218.087,144.065 219.5,145.5C 218.548,149.12 216.215,150.787 212.5,150.5C 213.332,148.001 213.665,145.668 213.5,143.5C 213.5,142.833 213.833,142.5 214.5,142.5 Z"/></g>
<g><path style="opacity:0.012" fill="#252424" d="M 177.5,147.5 C 178.675,147.281 179.675,147.614 180.5,148.5C 181.115,150.116 182.115,151.449 183.5,152.5C 182.38,154.596 180.88,154.93 179,153.5C 177.872,151.655 177.372,149.655 177.5,147.5 Z"/></g>
<g><path style="opacity:0.056" fill="#e9b030" d="M 220.5,150.5 C 228.623,154.346 228.457,158.013 220,161.5C 216.785,157.719 216.952,154.052 220.5,150.5 Z"/></g>
<g><path style="opacity:0.034" fill="#252424" d="M 205.5,154.5 C 208.656,154.529 210.322,156.196 210.5,159.5C 210.291,160.086 209.957,160.586 209.5,161C 207.168,160.351 204.834,160.518 202.5,161.5C 201.692,161.192 201.025,160.692 200.5,160C 201.369,157.345 203.036,155.512 205.5,154.5 Z"/></g>
<g><path style="opacity:0.047" fill="#e9b12f" d="M 27.5,157.5 C 28.2389,157.369 28.9056,157.536 29.5,158C 28.7362,160.069 28.2362,162.236 28,164.5C 27.3632,166.303 26.1965,167.636 24.5,168.5C 21.1612,163.463 22.1612,159.796 27.5,157.5 Z"/></g>
<g><path style="opacity:0.004" fill="#fcc130" d="M 50.5,161.5 C 51.8333,162.167 51.8333,162.167 50.5,161.5 Z"/></g>
<g><path style="opacity:0.097" fill="#252324" d="M 80.5,159.5 C 81.8853,162.546 81.7186,165.546 80,168.5C 76.1686,166.68 75.002,163.847 76.5,160C 77.7932,159.51 79.1266,159.343 80.5,159.5 Z"/></g>
<g><path style="opacity:0.024" fill="#eab130" d="M 50.5,162.5 C 50.4329,168.055 47.7662,171.221 42.5,172C 43.6031,168.961 45.1031,166.127 47,163.5C 48.0113,162.663 49.1779,162.33 50.5,162.5 Z"/></g>
<g><path style="opacity:0.044" fill="#252324" d="M 54.5,161.5 C 58.6721,162.973 60.6721,165.973 60.5,170.5C 59.1779,170.33 58.0113,170.663 57,171.5C 55.851,169.01 54.6844,166.51 53.5,164C 53.7432,163.098 54.0766,162.265 54.5,161.5 Z"/></g>
<g><path style="opacity:0.053" fill="#252424" d="M 232.5,162.5 C 238.168,161.641 239.501,163.474 236.5,168C 233.303,170.63 231.303,169.963 230.5,166C 230.978,164.697 231.645,163.531 232.5,162.5 Z"/></g>
<g><path style="opacity:0.058" fill="#252424" d="M 6.5,171.5 C 12.1878,170.531 15.1878,172.864 15.5,178.5C 12.5,178.5 9.5,178.5 6.5,178.5C 6.5,176.167 6.5,173.833 6.5,171.5 Z"/></g>
<g><path style="opacity:0.051" fill="#262425" d="M 235.5,173.5 C 236.5,173.5 237.5,173.5 238.5,173.5C 238.5,175.5 238.5,177.5 238.5,179.5C 235.712,179.923 233.712,178.923 232.5,176.5C 233.34,175.265 234.34,174.265 235.5,173.5 Z"/></g>
<g><path style="opacity:0.069" fill="#252424" d="M 89.5,177.5 C 90.7079,178.234 92.0413,178.567 93.5,178.5C 93.5,180.167 93.5,181.833 93.5,183.5C 91.4727,183.662 89.4727,183.495 87.5,183C 86.6198,181.644 86.2865,180.144 86.5,178.5C 87.791,178.737 88.791,178.404 89.5,177.5 Z"/></g>
<g><path style="opacity:0.04" fill="#e9b030" d="M 225.5,179.5 C 228.022,179.128 230.022,179.961 231.5,182C 230.033,184.186 228.033,184.852 225.5,184C 224.272,182.51 224.272,181.01 225.5,179.5 Z"/></g>
<g><path style="opacity:0.046" fill="#2b2725" d="M 214.5,180.5 C 214.12,182.698 214.787,184.365 216.5,185.5C 216.747,187.858 216.081,189.858 214.5,191.5C 213.167,191.5 211.833,191.5 210.5,191.5C 209.508,188.221 209.341,184.888 210,181.5C 211.226,179.452 212.726,179.119 214.5,180.5 Z"/></g>
<g><path style="opacity:0.043" fill="#efb530" d="M 216.5,185.5 C 214.787,184.365 214.12,182.698 214.5,180.5C 218.192,179.578 219.859,181.245 219.5,185.5C 218.5,185.5 217.5,185.5 216.5,185.5 Z"/></g>
</svg>
