<svg width="36" height="19" viewBox="0 0 36 19" fill="none" xmlns="http://www.w3.org/2000/svg">
<path d="M0 17.5C0 16.6716 0.671573 16 1.5 16H34.5C35.3284 16 36 16.6716 36 17.5V17.5C36 18.3284 35.3284 19 34.5 19H1.5C0.671574 19 0 18.3284 0 17.5V17.5Z" fill="white"/>
<path d="M0 9.5C0 8.67157 0.671573 8 1.5 8H34.5C35.3284 8 36 8.67157 36 9.5V9.5C36 10.3284 35.3284 11 34.5 11H1.5C0.671574 11 0 10.3284 0 9.5V9.5Z" fill="white"/>
<path d="M0 1.5C0 0.671573 0.671573 0 1.5 0H34.5C35.3284 0 36 0.671573 36 1.5V1.5C36 2.32843 35.3284 3 34.5 3H1.5C0.671574 3 0 2.32843 0 1.5V1.5Z" fill="white"/>
</svg>
