<svg width="724" height="724" viewBox="0 0 724 724" fill="none" xmlns="http://www.w3.org/2000/svg">
<g clip-path="url(#clip0_643_17)">
<path opacity="0.973" fill-rule="evenodd" clip-rule="evenodd" d="M24.4498 331.623C29.002 327.22 33.5542 322.817 38.1064 318.413C52.5971 309.96 67.5799 309.148 83.0543 315.978C112.631 288.065 141.977 259.911 171.091 231.517C166.1 226.596 161.352 221.449 156.851 216.075C155.154 211.894 155.105 207.768 156.703 203.697C173.953 187.011 191.204 170.325 208.454 153.639C212.576 152.177 216.698 152.363 220.821 154.198C226.041 158.876 231.028 163.792 235.78 168.945C265.607 140.326 295.199 111.469 324.56 82.3739C318.248 66.6809 319.557 51.7337 328.488 37.5318C333.04 33.1287 337.593 28.725 342.145 24.322C358.79 15.6409 375.287 15.915 391.635 25.145C396.27 29.9368 400.905 34.7285 405.54 39.5203C417.562 66.0064 411.429 87.4739 387.143 103.924C373.581 110.77 359.904 111.014 346.113 104.656C332.711 116.691 319.774 129.206 307.299 142.199C392.572 123.641 465.752 145.838 526.84 208.791C529.376 218.824 525.724 225.836 515.882 229.825C512.518 230.624 509.222 230.333 505.995 228.954C454.348 178.292 393.144 158.887 322.383 170.738C300.95 175.459 280.666 183.254 261.528 194.125C264.386 198.271 267.503 202.213 270.879 205.949C272.698 209.987 272.631 213.993 270.679 217.968C253.892 235.134 236.642 251.82 218.928 268.027C214.89 269.845 210.884 269.779 206.909 267.827C203.287 264.328 199.451 261.082 195.402 258.088C157.903 322.915 155.982 388.771 189.641 455.656C199.335 472.335 210.628 487.845 223.52 502.188C226.246 511.259 223.304 518.046 214.695 522.55C210.657 524.369 206.651 524.302 202.676 522.35C141.521 459.477 121.53 385.832 142.702 301.412C129.54 313.216 116.842 325.498 104.607 338.26C113.757 366.35 104.928 386.948 78.1202 400.054C63.9064 404.127 50.377 402.605 37.5318 395.489C32.8968 390.697 28.2618 385.906 23.6268 381.114C14.9457 364.468 15.22 347.971 24.4498 331.623ZM192.654 210.66C199.842 203.707 207.03 196.755 214.217 189.802C221.17 196.99 228.122 204.177 235.075 211.365C227.887 218.318 220.7 225.27 213.512 232.223C206.559 225.035 199.607 217.847 192.654 210.66ZM49.5964 350.429C58.8311 339.62 67.6667 339.885 76.1034 351.223C78.6637 362.306 74.3081 369.07 63.0363 371.515C51.3544 368.922 46.8745 361.893 49.5964 350.429ZM352.916 57.0325C362.15 46.2241 370.986 46.4886 379.423 57.8269C381.983 68.91 377.627 75.6744 366.356 78.1186C354.674 75.5258 350.194 68.4969 352.916 57.0325Z" fill="black" fill-opacity="0.12"/>
<path opacity="0.976" fill-rule="evenodd" clip-rule="evenodd" d="M607.549 479.932C561.548 524.428 515.547 568.924 469.546 613.421C465.424 614.882 461.302 614.696 457.179 612.861C440.013 596.075 423.327 578.824 407.121 561.11C404.797 553.552 406.672 547.1 412.747 541.756C397.614 537.378 382.482 533.002 367.35 528.625C332.541 514.105 309.86 488.74 299.31 452.529C286.813 395.981 274.317 339.432 261.82 282.884C258.989 272.343 262.65 264.86 272.802 260.436C276.591 260.264 280.357 260.562 284.102 261.331C340.203 275.701 396.306 290.071 452.407 304.441C488.246 316.189 512.843 339.701 526.198 374.974C530.07 390.243 533.94 405.513 537.812 420.782C543.355 414.888 549.866 413.229 557.343 415.803C574.508 432.589 591.194 449.84 607.401 467.554C609.097 471.735 609.147 475.861 607.549 479.932ZM303.176 326.358C322.898 345.073 342.021 364.604 360.546 384.949C350.467 412.719 358.607 433.599 384.964 447.589C411.551 455.071 431.26 446.442 444.092 421.698C451.207 399.875 445.614 381.866 427.31 367.672C413.234 358.29 398.406 356.865 382.828 363.396C363.345 344.214 344.341 324.567 325.817 304.457C364.55 314.295 403.282 324.133 442.015 333.971C473.292 343.627 492.511 364.456 499.674 396.456C503.527 412.954 507.615 429.405 511.936 445.811C488.425 470.408 463.987 494.046 438.622 516.727C422.369 511.862 406.063 507.23 389.703 502.83C362.585 495.813 343.526 479.467 332.527 453.789C322.425 411.312 312.641 368.835 303.176 326.358ZM388.255 398.493C397.489 387.684 406.326 387.949 414.762 399.287C417.323 410.37 412.967 417.135 401.695 419.579C390.013 416.986 385.533 409.957 388.255 398.493ZM442.925 555.694C478.863 520.932 514.801 486.169 550.74 451.407C557.692 458.594 564.645 465.782 571.597 472.97C535.659 507.732 499.72 542.495 463.782 577.257C456.83 570.07 449.877 562.882 442.925 555.694Z" fill="black" fill-opacity="0.12"/>
</g>
<defs>
<clipPath id="clip0_643_17">
<rect width="512" height="512" fill="white" transform="translate(0 355.969) rotate(-44.0473)"/>
</clipPath>
</defs>
</svg>
