<?xml version="1.0" standalone="no"?>
<!DOCTYPE svg PUBLIC "-//W3C//DTD SVG 20010904//EN"
 "http://www.w3.org/TR/2001/REC-SVG-20010904/DTD/svg10.dtd">
<svg version="1.0" xmlns="http://www.w3.org/2000/svg"
 width="408.000000pt" height="273.000000pt" viewBox="0 0 408.000000 273.000000"
 preserveAspectRatio="xMidYMid meet">

<g transform="translate(0.000000,273.000000) scale(0.100000,-0.100000)"
fill="#000000" stroke="none">
<path d="M717 2724 c-4 -4 -7 -137 -7 -295 l0 -288 23 -18 c13 -10 110 -72
215 -138 105 -66 191 -123 189 -127 -1 -4 -96 -67 -212 -141 l-210 -133 -3
-292 -2 -291 33 -6 c19 -4 225 -5 458 -3 l424 3 160 106 c88 58 184 120 212
138 l53 33 206 -136 206 -137 450 1 c248 0 454 3 459 6 11 6 12 565 1 579 -4
6 -43 33 -87 59 -107 65 -318 198 -328 206 -4 4 38 36 93 71 56 35 137 88 181
117 43 28 82 52 87 52 4 0 20 11 35 26 l27 25 -2 292 -3 292 -448 3 -447 2
-210 -140 c-115 -77 -214 -141 -219 -142 -8 -3 -79 43 -376 238 l-60 39 -446
3 c-245 1 -448 -1 -452 -4z m1116 -169 l197 -130 0 -267 c0 -148 -3 -268 -7
-268 -3 0 -49 28 -102 63 -53 35 -144 95 -203 133 l-107 69 -1 268 c0 212 3
268 13 265 7 -2 101 -61 210 -133z m635 -137 l-3 -273 -120 -80 c-66 -44 -157
-104 -203 -132 l-82 -53 0 274 0 273 183 118 c100 65 189 124 197 131 8 8 18
14 22 14 5 0 7 -123 6 -272z m-833 -304 c67 -47 327 -216 341 -221 49 -19 -26
-23 -395 -23 l-408 0 -129 81 c-184 116 -284 181 -284 186 0 2 190 2 423 1
410 -3 423 -4 452 -24z m1690 8 c-6 -5 -59 -39 -120 -77 -60 -37 -128 -80
-150 -95 -22 -14 -61 -38 -87 -53 l-47 -27 -412 2 -412 3 162 108 c89 59 165
107 169 107 4 0 18 9 32 20 24 19 44 20 450 20 233 0 420 -4 415 -8z m-1315
-276 c0 -2 -42 -29 -92 -61 -88 -55 -190 -120 -269 -172 l-35 -23 -424 0 -424
0 174 110 c96 60 189 118 205 129 29 19 49 20 448 20 229 1 417 -1 417 -3z
m1107 -123 c112 -69 203 -129 203 -132 0 -3 -189 -5 -420 -3 l-421 2 -112 72
c-165 105 -277 179 -277 184 0 2 185 4 412 4 l411 0 204 -127z m-824 -43 l177
-115 0 -267 c0 -148 -2 -268 -5 -268 -7 0 -54 30 -247 157 l-158 104 0 271 0
270 29 -19 c15 -10 107 -70 204 -133z m-263 -127 l0 -268 -194 -122 c-106 -68
-201 -125 -210 -129 -15 -6 -16 15 -14 262 l3 268 200 127 c110 70 203 128
208 128 4 1 7 -119 7 -266z"/>
<path d="M860 788 c-54 -28 -80 -62 -87 -114 -11 -84 36 -138 147 -169 99 -28
110 -35 110 -66 0 -35 -13 -43 -72 -42 -33 0 -62 9 -94 28 l-48 28 -32 -39
c-39 -46 -36 -52 45 -91 73 -36 186 -40 241 -7 52 30 80 78 80 137 0 44 -4 54
-38 87 -27 27 -55 43 -97 55 -121 33 -148 54 -121 91 23 31 91 22 178 -24 4
-2 19 16 35 39 l27 41 -23 19 c-30 24 -113 49 -166 49 -23 0 -60 -10 -85 -22z"/>
<path d="M2114 792 c-75 -36 -108 -106 -85 -182 15 -52 48 -75 147 -106 83
-25 114 -44 114 -68 0 -46 -93 -53 -172 -12 l-52 27 -32 -38 c-38 -45 -35 -51
44 -90 74 -36 187 -40 242 -7 50 29 80 78 80 130 0 87 -26 112 -165 159 -82
27 -90 32 -93 57 -6 52 71 60 148 16 l34 -20 28 34 c15 18 27 40 25 48 -4 25
-92 62 -160 67 -47 3 -72 -1 -103 -15z"/>
<path d="M3213 797 c-110 -42 -173 -133 -173 -246 0 -191 179 -310 363 -241
210 79 224 367 22 472 -48 25 -164 34 -212 15z m167 -119 c92 -63 92 -194 0
-256 -29 -20 -44 -23 -88 -20 -45 4 -59 10 -89 41 -31 30 -37 44 -41 90 -8
101 46 167 139 167 31 0 57 -7 79 -22z"/>
<path d="M10 550 l0 -250 153 0 c128 0 159 3 194 20 96 43 112 169 28 224
l-25 17 25 33 c49 64 26 153 -48 187 -35 15 -66 19 -184 19 l-143 0 0 -250z
m270 130 c11 -11 20 -24 20 -30 0 -5 -9 -19 -20 -30 -16 -16 -33 -20 -90 -20
l-70 0 0 50 0 50 70 0 c57 0 74 -4 90 -20z m28 -192 c19 -19 15 -66 -7 -78
-11 -5 -56 -10 -100 -10 l-81 0 0 50 0 50 88 0 c55 0 92 -4 100 -12z"/>
<path d="M540 550 l0 -250 60 0 60 0 0 250 0 250 -60 0 -60 0 0 -250z"/>
<path d="M1250 550 l0 -250 60 0 60 0 0 78 c0 70 3 81 24 101 14 13 29 20 35
17 5 -4 40 -49 77 -101 l67 -95 69 0 c53 0 67 3 62 13 -4 6 -33 46 -64 87 -31
41 -75 100 -97 130 l-40 56 97 104 98 105 -66 3 -67 3 -97 -103 -97 -103 -1
103 0 102 -60 0 -60 0 0 -250z"/>
<path d="M1790 550 l0 -250 60 0 60 0 0 250 0 250 -60 0 -60 0 0 -250z"/>
<path d="M2500 550 l0 -250 60 0 60 0 0 100 0 100 95 0 94 0 3 -97 3 -98 58
-3 57 -3 0 251 0 250 -60 0 -60 0 0 -95 0 -95 -95 0 -95 0 0 95 0 95 -60 0
-60 0 0 -250z"/>
<path d="M3680 550 l0 -250 55 0 54 0 3 73 3 72 80 6 c119 8 173 44 196 130
22 84 -20 173 -97 205 -23 10 -75 14 -164 14 l-130 0 0 -250z m260 125 c28
-25 26 -70 -5 -100 -20 -21 -34 -25 -85 -25 l-60 0 0 68 c0 38 3 72 8 76 14
15 120 1 142 -19z"/>
<path d="M0 210 l0 -30 2015 0 2015 0 0 30 0 30 -2015 0 -2015 0 0 -30z"/>
<path d="M1052 114 c-22 -15 -30 -57 -14 -80 15 -23 50 -34 77 -24 31 12 24
33 -9 24 -26 -6 -49 16 -44 43 2 13 13 18 35 19 39 0 53 11 33 24 -22 14 -53
12 -78 -6z"/>
<path d="M1176 111 c-11 -12 -16 -31 -14 -52 7 -73 109 -73 116 0 6 61 -62 96
-102 52z m69 -46 c0 -35 -24 -45 -49 -20 -22 22 -4 58 27 53 17 -2 22 -10 22
-33z"/>
<path d="M1310 70 c0 -49 3 -60 16 -60 13 0 15 7 11 30 -7 34 0 38 19 13 12
-17 14 -17 28 2 15 19 15 19 16 -12 0 -23 5 -33 15 -33 12 0 15 13 15 60 0 66
-15 79 -45 38 l-16 -23 -16 23 c-28 41 -43 28 -43 -38z"/>
<path d="M1460 70 c0 -47 3 -60 15 -60 10 0 15 10 15 32 0 30 1 31 14 12 15
-19 15 -19 30 1 15 19 15 19 16 -12 0 -23 5 -33 15 -33 12 0 15 13 15 60 0 66
-14 78 -44 38 l-16 -23 -16 23 c-30 40 -44 28 -44 -38z"/>
<path d="M1610 70 l0 -60 45 0 c25 0 45 5 45 10 0 6 -13 10 -30 10 -20 0 -30
5 -30 15 0 9 9 15 25 15 14 0 25 5 25 10 0 6 -11 10 -25 10 -14 0 -25 5 -25
10 0 6 14 10 30 10 20 0 30 5 30 15 0 11 -12 15 -45 15 l-45 0 0 -60z"/>
<path d="M1727 123 c-4 -3 -7 -30 -7 -60 0 -38 4 -53 14 -53 7 0 17 10 20 23
l7 22 16 -23 c8 -12 25 -22 36 -22 18 0 19 1 4 18 -13 14 -13 20 -2 35 14 19
10 46 -9 59 -14 10 -70 10 -79 1z m71 -35 c-7 -20 -48 -23 -48 -4 0 11 9 16
26 16 16 0 24 -5 22 -12z"/>
<path d="M1867 112 c-47 -52 4 -126 69 -101 33 12 23 24 -19 24 -29 0 -32 3
-32 30 0 28 3 30 33 28 26 -1 32 3 30 15 -5 25 -60 28 -81 4z"/>
<path d="M1980 70 l0 -60 45 0 c25 0 45 5 45 10 0 6 -13 10 -30 10 -20 0 -30
5 -30 15 0 9 9 15 25 15 14 0 25 5 25 10 0 6 -11 10 -25 10 -14 0 -25 5 -25
10 0 6 14 10 30 10 20 0 30 5 30 15 0 11 -12 15 -45 15 l-45 0 0 -60z"/>
<path d="M2161 104 c-24 -30 -25 -38 -10 -65 14 -27 53 -41 84 -29 19 7 25 17
25 40 0 25 -4 30 -24 30 -29 0 -44 -18 -22 -26 22 -9 20 -24 -4 -24 -25 0 -41
30 -28 53 6 12 19 17 36 15 19 -2 27 2 27 12 0 9 -12 16 -31 18 -25 2 -37 -3
-53 -24z"/>
<path d="M2287 123 c-4 -3 -7 -30 -7 -60 l0 -53 50 0 c28 0 50 5 50 10 0 6
-16 10 -36 10 -42 0 -43 23 -1 28 37 4 34 22 -3 22 -40 0 -39 18 2 22 51 5 47
28 -4 28 -25 0 -48 -3 -51 -7z"/>
<path d="M2407 123 c-4 -3 -7 -30 -7 -60 0 -40 4 -53 15 -53 10 0 15 10 15 33
l1 32 28 -32 c41 -48 51 -43 51 28 0 44 -3 60 -12 57 -7 -3 -15 -17 -18 -32
l-5 -28 -23 31 c-23 31 -33 37 -45 24z"/>
<path d="M2540 70 l0 -60 45 0 c25 0 45 5 45 10 0 6 -13 10 -30 10 -20 0 -30
5 -30 15 0 9 9 15 25 15 14 0 25 5 25 10 0 6 -11 10 -25 10 -14 0 -25 5 -25
10 0 6 14 10 30 10 20 0 30 5 30 15 0 11 -12 15 -45 15 l-45 0 0 -60z"/>
<path d="M2660 71 c0 -48 3 -61 15 -61 9 0 15 9 15 22 l0 21 23 -21 c30 -29
52 -30 37 -2 -8 14 -7 25 2 40 20 31 -1 54 -51 58 l-41 3 0 -60z m70 14 c0 -8
-9 -15 -20 -15 -11 0 -20 7 -20 15 0 8 9 15 20 15 11 0 20 -7 20 -15z"/>
<path d="M2802 77 c-26 -62 -27 -67 -7 -67 8 0 15 5 15 10 0 6 14 10 30 10 17
0 30 -4 30 -10 0 -5 7 -10 15 -10 19 0 19 -3 -10 64 -14 31 -31 56 -38 56 -7
0 -23 -24 -35 -53z m48 -18 c0 -5 -7 -9 -15 -9 -15 0 -20 12 -9 23 8 8 24 -1
24 -14z"/>
<path d="M2920 70 l0 -60 45 0 c25 0 45 5 45 10 0 6 -13 10 -30 10 -29 0 -30
1 -30 50 0 38 -4 50 -15 50 -12 0 -15 -13 -15 -60z"/>
</g>
</svg>
