<?xml version="1.0" standalone="no"?>
<!DOCTYPE svg PUBLIC "-//W3C//DTD SVG 20010904//EN"
 "http://www.w3.org/TR/2001/REC-SVG-20010904/DTD/svg10.dtd">
<svg version="1.0" xmlns="http://www.w3.org/2000/svg"
 width="405.000000pt" height="176.000000pt" viewBox="0 0 405.000000 176.000000"
 preserveAspectRatio="xMidYMid meet">

<g transform="translate(0.000000,176.000000) scale(0.100000,-0.100000)"
fill="#000000" stroke="none">
<path d="M2210 1708 l0 -58 -55 0 -55 0 0 50 0 50 -35 0 -35 0 0 -50 0 -50
-60 0 c-50 0 -60 -3 -60 -17 0 -12 -9 -7 -30 19 -17 20 -56 49 -86 64 -50 24
-70 28 -185 32 l-129 5 0 -303 0 -302 128 4 c142 4 199 22 259 80 66 64 95
192 70 311 l-8 37 51 0 50 0 0 -215 0 -215 35 0 35 0 0 215 0 215 55 0 55 0 0
-215 0 -215 35 0 35 0 2 218 3 217 170 -190 c94 -104 185 -205 202 -225 l32
-35 1 308 0 307 -35 0 -35 0 -2 -221 -3 -221 -190 213 c-104 117 -195 220
-202 228 -10 13 -12 6 -13 -41z m-460 -49 c60 -27 79 -45 106 -104 41 -87 29
-196 -29 -262 -48 -55 -97 -73 -199 -73 l-88 0 0 230 0 230 83 0 c61 0 94 -6
127 -21z"/>
<path d="M400 1450 l0 -300 180 0 180 0 0 35 0 35 -145 0 -145 0 0 265 0 265
-35 0 -35 0 0 -300z"/>
<path d="M830 1450 l0 -300 175 0 175 0 0 35 0 35 -142 0 -143 0 2 102 1 103
121 3 121 3 0 29 0 30 -119 0 -120 0 -3 95 -3 95 143 0 142 0 0 35 0 35 -175
0 -175 0 0 -300z"/>
<path d="M2800 1450 l0 -300 175 0 175 0 0 35 0 35 -140 0 -140 0 0 105 0 105
125 0 125 0 0 30 0 30 -125 0 -125 0 0 95 0 95 138 0 c76 0 141 2 144 5 2 3 3
18 0 35 l-4 30 -174 0 -174 0 0 -300z"/>
<path d="M3250 1450 l0 -300 30 0 30 0 0 115 0 115 59 0 59 0 82 -115 c81
-114 82 -115 121 -115 48 0 50 -5 -55 135 -64 85 -73 101 -59 110 72 45 103
95 103 164 0 51 -15 89 -48 125 -48 51 -95 66 -214 66 l-108 0 0 -300z m266
196 c29 -29 34 -41 34 -80 0 -39 -6 -52 -34 -84 -34 -36 -36 -37 -120 -41
l-86 -3 0 121 0 121 86 0 c84 0 87 -1 120 -34z"/>
<path d="M43 1052 l-43 -3 0 -150 0 -149 61 0 c113 0 169 50 169 151 0 108
-65 160 -187 151z m103 -51 c20 -12 37 -34 44 -56 27 -82 -21 -154 -109 -163
l-50 -4 -3 117 c-2 64 -1 119 1 121 12 12 90 2 117 -15z"/>
<path d="M277 1054 c-4 -4 -7 -74 -7 -156 l0 -148 95 0 c78 0 95 3 95 15 0 12
-15 15 -75 15 l-75 0 0 55 0 55 65 0 c51 0 65 3 65 15 0 12 -14 15 -65 15
l-65 0 0 50 0 49 73 3 c56 2 72 6 72 18 0 12 -17 16 -85 18 -47 1 -89 0 -93
-4z"/>
<path d="M544 1046 c-39 -17 -61 -65 -44 -96 7 -12 40 -35 74 -50 34 -16 68
-35 75 -44 17 -21 6 -51 -25 -64 -35 -17 -54 -15 -92 8 -35 22 -55 19 -45 -6
15 -40 109 -57 162 -29 32 16 41 33 41 75 0 33 -14 46 -94 85 -33 17 -62 37
-64 46 -8 42 72 66 109 33 23 -20 43 -10 29 16 -9 17 -59 40 -84 40 -6 -1 -25
-7 -42 -14z"/>
<path d="M837 1054 c-4 -4 -7 -74 -7 -156 l0 -148 95 0 c78 0 95 3 95 15 0 12
-15 15 -75 15 l-75 0 0 55 0 55 65 0 c51 0 65 3 65 15 0 12 -14 15 -65 15
l-65 0 0 50 0 49 73 3 c56 2 72 6 72 18 0 12 -17 16 -85 18 -47 1 -89 0 -93
-4z"/>
<path d="M1070 907 c0 -133 2 -157 15 -157 12 0 15 19 15 111 0 61 4 109 8
107 5 -1 50 -49 102 -105 51 -57 97 -103 102 -103 5 0 7 65 6 147 -3 130 -5
148 -20 151 -15 3 -18 -9 -20 -111 l-3 -115 -75 84 c-41 46 -87 99 -102 116
l-28 32 0 -157z"/>
<path d="M1350 1040 c0 -17 7 -20 45 -20 l45 0 0 -135 c0 -113 2 -135 15 -135
13 0 15 22 15 135 l0 135 45 0 c38 0 45 3 45 20 0 19 -7 20 -105 20 -98 0
-105 -1 -105 -20z"/>
<path d="M1600 906 c0 -132 2 -156 15 -156 12 0 15 13 15 60 0 60 0 60 30 60
25 0 36 -9 70 -60 27 -40 47 -60 61 -60 23 0 22 3 -28 72 l-33 46 30 30 c39
40 40 81 1 124 -25 29 -35 32 -95 36 l-66 4 0 -156z m143 82 l21 -28 -21 -27
c-16 -22 -29 -29 -67 -31 l-46 -3 0 61 0 61 46 -3 c38 -2 51 -9 67 -30z"/>
<path d="M1850 905 l0 -155 90 0 c73 0 90 3 90 15 0 12 -15 15 -75 15 l-75 0
0 55 0 55 65 0 c51 0 65 3 65 15 0 12 -14 15 -65 15 l-65 0 0 50 0 50 75 0
c68 0 75 2 75 20 0 19 -7 20 -90 20 l-90 0 0 -155z"/>
<path d="M2077 1053 c-4 -3 -7 -73 -7 -155 0 -141 1 -148 20 -148 18 0 20 7
20 54 l0 53 52 6 c61 8 98 31 111 71 14 41 -13 93 -58 112 -35 14 -126 19
-138 7z m145 -50 c25 -23 23 -68 -4 -87 -12 -9 -42 -16 -65 -16 l-43 0 0 60 0
60 47 0 c29 0 53 -6 65 -17z"/>
<path d="M2320 905 c0 -131 2 -155 15 -155 12 0 15 13 15 60 0 60 0 60 30 60
25 0 36 -9 70 -60 27 -40 47 -60 61 -60 23 0 22 3 -28 72 l-33 46 30 30 c72
72 8 162 -115 162 l-45 0 0 -155z m143 83 l21 -28 -21 -27 c-16 -22 -29 -29
-67 -31 l-46 -3 0 61 0 61 46 -3 c38 -2 51 -9 67 -30z"/>
<path d="M2560 905 l0 -155 90 0 c72 0 90 3 90 15 0 11 -17 15 -72 17 l-73 3
0 50 0 50 63 3 c45 2 62 7 62 17 0 10 -17 15 -62 17 l-63 3 -3 48 -3 47 75 0
c69 0 76 2 76 20 0 19 -7 20 -90 20 l-90 0 0 -155z"/>
<path d="M2790 905 c0 -148 1 -155 20 -155 19 0 20 7 20 113 l1 112 32 -35
c17 -19 65 -71 104 -115 l73 -80 0 158 c0 146 -1 158 -17 155 -16 -3 -19 -19
-23 -112 l-5 -110 -99 112 c-54 62 -100 112 -102 112 -2 0 -4 -70 -4 -155z"/>
<path d="M3097 1054 c-4 -4 -7 -74 -7 -156 l0 -148 95 0 c78 0 95 3 95 15 0
12 -15 15 -75 15 l-75 0 0 55 0 55 65 0 c51 0 65 3 65 15 0 12 -14 15 -65 15
l-65 0 0 50 0 49 73 3 c56 2 72 6 72 18 0 12 -17 16 -85 18 -47 1 -89 0 -93
-4z"/>
<path d="M3320 950 c0 -119 10 -155 52 -184 28 -20 80 -20 117 -1 46 23 61 69
61 189 0 99 -1 106 -20 106 -19 0 -20 -7 -20 -114 0 -94 -3 -118 -17 -135 -26
-31 -73 -37 -103 -13 -23 19 -25 28 -30 138 -4 103 -7 119 -22 122 -16 3 -18
-7 -18 -108z"/>
<path d="M3600 906 c0 -132 2 -156 15 -156 12 0 15 13 15 60 0 60 0 60 30 60
25 0 36 -9 70 -60 27 -40 47 -60 61 -60 23 0 22 3 -28 72 l-33 46 30 30 c39
40 40 81 1 124 -25 29 -35 32 -95 36 l-66 4 0 -156z m143 82 l21 -28 -21 -27
c-16 -22 -29 -29 -67 -31 l-46 -3 0 61 0 61 46 -3 c38 -2 51 -9 67 -30z"/>
<path d="M3893 1046 c-34 -15 -53 -42 -53 -74 0 -25 50 -68 89 -77 30 -6 81
-46 81 -64 0 -5 -12 -19 -27 -31 -32 -25 -83 -22 -114 6 -17 16 -39 12 -39 -7
0 -19 65 -49 108 -49 35 0 49 6 77 34 19 18 35 41 35 51 0 23 -45 64 -89 82
-67 26 -81 36 -81 58 0 11 5 26 12 33 17 17 69 15 97 -4 33 -23 48 -4 18 24
-30 28 -74 35 -114 18z"/>
<path d="M1145 718 c-3 -8 -4 -92 -3 -188 l3 -175 25 0 25 0 3 112 c3 111 3
113 27 119 68 17 95 -21 95 -136 0 -55 4 -70 20 -85 16 -15 26 -17 47 -9 32
11 44 35 14 27 -14 -3 -21 0 -22 8 -2 18 -4 62 -7 117 -2 34 -9 51 -33 74 -28
29 -34 30 -87 25 l-57 -5 0 62 c0 56 -2 61 -23 64 -12 2 -24 -3 -27 -10z"/>
<path d="M909 701 c-84 -17 -149 -92 -149 -172 0 -40 29 -107 56 -131 76 -67
233 -62 279 8 20 31 11 31 -27 -1 -59 -50 -130 -45 -189 14 -99 99 -65 261 54
261 46 0 67 -13 67 -42 0 -22 23 -24 39 -4 19 23 -3 53 -47 66 -20 5 -39 9
-42 9 -3 -1 -21 -4 -41 -8z"/>
<path d="M2103 674 c-3 -9 0 -20 7 -24 7 -4 9 -13 5 -20 -5 -8 -1 -11 10 -8
23 4 40 31 32 52 -8 21 -46 21 -54 0z"/>
<path d="M1942 661 c14 -23 -3 -51 -33 -51 -26 0 -32 -17 -9 -23 18 -5 20 -14
20 -105 0 -93 2 -102 22 -116 12 -9 32 -16 44 -16 27 0 84 46 84 67 0 11 -7 8
-25 -11 -16 -18 -33 -26 -48 -24 -21 3 -22 8 -25 106 l-3 102 41 0 c22 0 40 5
40 10 0 6 -18 10 -39 10 -34 0 -38 3 -34 20 6 23 -12 50 -33 50 -11 0 -12 -4
-2 -19z"/>
<path d="M1537 600 c-30 -24 -37 -25 -37 -4 0 10 -7 14 -22 12 -22 -3 -23 -6
-23 -128 0 -122 1 -125 23 -128 21 -3 22 -1 22 93 0 89 2 98 25 120 28 29 40
31 49 10 7 -19 35 -19 42 0 8 19 -13 45 -36 45 -9 0 -29 -9 -43 -20z"/>
<path d="M1688 594 c-78 -42 -77 -188 2 -229 58 -30 140 -12 174 37 29 41 17
53 -15 15 -25 -31 -37 -37 -68 -37 -27 0 -44 7 -61 25 -27 29 -29 26 33 49 33
12 55 29 68 50 25 41 24 52 -6 81 -28 29 -84 33 -127 9z m80 -16 c13 -13 16
-47 6 -72 -3 -9 -22 -25 -41 -37 -41 -26 -53 -17 -53 41 0 63 52 104 88 68z"/>
<path d="M2105 598 c-3 -8 -4 -66 -3 -129 l3 -114 25 0 25 0 0 125 c0 122 -1
125 -23 128 -12 2 -24 -3 -27 -10z"/>
<path d="M2264 591 c-73 -45 -70 -179 5 -224 16 -9 50 -17 76 -17 40 0 52 5
81 34 19 19 34 42 34 53 -1 17 -2 17 -15 -2 -45 -64 -97 -74 -142 -29 l-27 27
52 19 c87 32 118 96 66 137 -34 26 -89 27 -130 2z m91 -21 c15 -16 17 -26 9
-47 -8 -25 -65 -73 -85 -73 -4 0 -10 18 -14 39 -13 79 45 131 90 81z"/>
<path d="M2494 597 c-2 -7 -3 -65 -2 -128 l3 -114 25 0 25 0 3 112 c3 111 3
113 27 119 39 10 75 -4 85 -32 6 -14 10 -56 10 -94 0 -86 22 -120 66 -105 31
11 46 36 16 28 -17 -4 -20 3 -25 83 -5 83 -7 90 -36 116 -33 30 -85 37 -121
18 -13 -7 -21 -7 -25 0 -9 14 -45 12 -51 -3z"/>
<path d="M2812 590 c-26 -25 -30 -81 -7 -100 9 -7 44 -23 78 -34 43 -15 63
-28 66 -41 5 -26 -25 -45 -72 -45 -47 0 -75 14 -87 43 l-9 22 0 -22 c-1 -37
44 -63 108 -63 73 1 105 23 105 74 0 46 -8 54 -91 80 -45 15 -69 28 -71 40
-10 49 67 63 117 20 38 -31 42 -13 5 21 -35 33 -110 35 -142 5z"/>
<path d="M1900 225 c-10 -12 -10 -18 1 -31 11 -14 13 -14 21 0 13 23 37 20 80
-10 48 -34 48 -44 0 -31 -47 13 -102 3 -137 -25 -34 -26 -50 -65 -34 -84 18
-22 39 -17 39 9 0 62 70 97 156 78 30 -7 56 -16 59 -21 6 -10 -74 -80 -92 -80
-26 0 -27 32 -2 51 21 16 22 18 6 24 -46 18 -63 -51 -21 -84 38 -30 59 -26
107 19 38 34 48 39 78 34 45 -8 77 22 59 56 -10 18 -18 21 -48 17 -21 -3 -46
-8 -58 -12 -16 -5 -32 3 -68 34 -78 68 -122 85 -146 56z m300 -109 c0 -16 -27
-29 -41 -20 -13 8 9 34 27 34 8 0 14 -6 14 -14z"/>
<path d="M245 100 c9 -14 1451 -14 1460 0 4 7 -242 10 -730 10 -488 0 -734 -3
-730 -10z"/>
<path d="M2330 100 c0 -7 250 -10 730 -10 480 0 730 3 730 10 0 7 -250 10
-730 10 -480 0 -730 -3 -730 -10z"/>
</g>
</svg>
