<?xml version="1.0" standalone="no"?>
<!DOCTYPE svg PUBLIC "-//W3C//DTD SVG 20010904//EN"
 "http://www.w3.org/TR/2001/REC-SVG-20010904/DTD/svg10.dtd">
<svg version="1.0" xmlns="http://www.w3.org/2000/svg"
 width="345.000000pt" height="241.000000pt" viewBox="0 0 345.000000 241.000000"
 preserveAspectRatio="xMidYMid meet">

<g transform="translate(0.000000,241.000000) scale(0.100000,-0.100000)"
fill="#000000" stroke="none">
<path d="M1490 2404 c-475 -42 -869 -155 -1114 -318 -94 -63 -216 -186 -265
-269 -132 -224 -140 -548 -20 -831 125 -295 484 -621 904 -822 347 -166 586
-191 993 -103 288 62 474 152 919 445 293 193 463 401 523 643 67 264 -39 675
-236 919 -157 193 -328 269 -717 318 -117 14 -870 28 -987 18z m649 -64 c403
-42 891 -299 1002 -527 31 -63 38 -177 14 -226 -22 -47 -45 -49 -45 -4 0 21 8
41 20 52 30 27 24 42 -19 49 -31 5 -41 12 -51 36 -19 45 -27 45 -50 0 -15 -28
-27 -40 -43 -40 -12 0 -29 -5 -37 -10 -12 -8 -10 -14 13 -38 27 -28 37 -72 17
-72 -6 0 -84 71 -173 158 -340 329 -579 502 -736 532 -248 47 -587 -56 -930
-280 -148 -97 -205 -140 -360 -273 -125 -107 -178 -140 -217 -135 -32 4 -32
22 0 26 25 3 79 49 311 263 179 164 407 311 611 392 231 93 432 121 673 97z
m-1294 -928 c23 -89 44 -164 46 -167 3 -2 19 56 37 128 19 73 38 149 43 170 8
30 14 37 35 37 l24 0 -2 -272 -3 -273 -22 -3 c-22 -3 -23 -3 -25 170 l-3 173
-35 -134 c-19 -74 -40 -136 -46 -138 -11 -4 -74 201 -74 240 0 9 -4 17 -10 17
-6 0 -10 -62 -10 -166 l0 -165 -22 3 -23 3 -3 260 c-1 143 0 266 3 273 3 7 15
12 27 10 19 -3 26 -21 63 -166z m1163 156 c7 -7 12 -40 12 -80 0 -61 -2 -68
-20 -68 -18 0 -20 7 -20 60 l0 60 -65 0 -65 0 0 -235 0 -236 63 3 62 3 3 68
c3 59 5 67 22 67 18 0 20 -7 20 -80 0 -95 -5 -100 -105 -100 -112 0 -105 -19
-105 279 0 142 3 261 7 264 12 12 178 8 191 -5z m142 -91 c0 -57 2 -106 5
-109 3 -3 28 -1 57 3 88 14 88 13 88 -171 0 -161 -5 -185 -36 -159 -12 10 -15
38 -13 148 l1 136 -51 3 -50 3 -3 -148 c-3 -124 -5 -148 -18 -148 -13 0 -15
38 -18 273 -2 267 -2 272 18 272 19 0 20 -6 20 -103z m911 73 c30 -16 23 -30
-16 -30 -44 0 -49 29 -7 39 2 1 12 -4 23 -9z m-636 -70 c0 -20 -6 -26 -27 -28
-25 -3 -28 0 -28 28 0 28 3 31 28 28 21 -2 27 -8 27 -28z m-855 -116 c7 -7 10
-69 8 -170 -3 -141 -5 -159 -20 -162 -16 -3 -18 11 -20 145 l-3 148 -52 3 -52
3 -3 -148 c-3 -140 -4 -148 -23 -148 -19 0 -20 8 -23 160 -1 87 -1 164 1 170
6 13 173 13 187 -1z m848 8 c9 -7 12 -48 10 -173 l-3 -164 -27 -3 -28 -3 0
169 c0 93 3 172 7 175 9 9 25 9 41 -1z m270 -5 c9 -6 12 -47 12 -148 0 -135
-1 -141 -25 -164 -19 -20 -34 -25 -74 -25 l-50 0 -3 -62 c-2 -50 -6 -63 -20
-66 -17 -3 -18 13 -18 235 l0 238 83 0 c45 0 88 -4 95 -8z m-1390 -9 c8 -8 12
-57 12 -154 0 -172 -1 -174 -96 -174 -106 0 -104 -3 -104 165 0 79 3 150 6
159 5 13 23 16 88 16 50 0 87 -5 94 -12z m1656 -4 c3 -9 6 -31 6 -50 0 -27 -4
-34 -19 -34 -15 0 -21 8 -23 33 -3 31 -5 32 -48 32 -43 0 -45 -1 -48 -31 -3
-28 4 -37 67 -88 l71 -57 0 -54 c0 -43 -4 -56 -19 -65 -27 -14 -134 -13 -149
2 -7 7 -12 34 -12 61 0 41 3 48 18 45 12 -2 18 -14 20 -41 l3 -38 47 3 c45 3
47 5 50 34 3 29 -4 38 -67 90 l-71 58 0 51 c0 29 3 55 7 58 3 4 41 7 84 7 61
0 78 -3 83 -16z m-2410 -315 c21 -11 131 -114 244 -228 284 -286 446 -401 632
-447 118 -30 314 -26 452 9 270 67 501 189 802 424 135 105 207 149 231 139
27 -10 16 -23 -48 -60 -35 -21 -113 -78 -173 -128 -307 -254 -668 -436 -954
-483 -313 -50 -772 26 -1040 172 -206 112 -322 278 -323 458 -1 64 10 94 51
138 31 33 72 35 126 6z"/>
<path d="M2550 1200 l0 -130 39 0 c64 0 71 14 71 146 l0 114 -55 0 -55 0 0
-130z"/>
<path d="M1160 1205 l0 -135 50 0 50 0 0 135 0 135 -50 0 -50 0 0 -135z"/>
</g>
</svg>
