<?xml version="1.0" standalone="no"?>
<!DOCTYPE svg PUBLIC "-//W3C//DTD SVG 20010904//EN"
 "http://www.w3.org/TR/2001/REC-SVG-20010904/DTD/svg10.dtd">
<svg version="1.0" xmlns="http://www.w3.org/2000/svg"
 width="577.000000pt" height="168.000000pt" viewBox="0 0 577.000000 168.000000"
 preserveAspectRatio="xMidYMid meet">

<g transform="translate(0.000000,168.000000) scale(0.100000,-0.100000)"
fill="#000000" stroke="none">
<path d="M650 1666 c0 -8 -7 -16 -15 -20 -10 -3 -15 -19 -15 -44 0 -23 -6 -45
-15 -52 -8 -7 -15 -19 -15 -28 0 -8 -8 -24 -17 -34 -9 -11 -16 -32 -15 -48 1
-18 -7 -39 -23 -59 -25 -29 -29 -30 -118 -33 l-92 -3 -3 -57 c-2 -34 -9 -61
-17 -68 -10 -8 -15 -31 -15 -65 0 -35 -5 -57 -15 -65 -14 -11 -22 -80 -10 -80
16 0 77 38 134 83 35 27 71 50 80 51 23 1 29 -61 6 -66 -19 -4 -194 -130 -195
-140 0 -4 44 -9 98 -10 78 -2 97 -6 97 -18 0 -12 -23 -16 -125 -20 -154 -6
-170 -15 -170 -96 0 -34 -5 -56 -15 -64 -10 -8 -15 -30 -15 -63 0 -39 -5 -56
-22 -74 -18 -19 -20 -28 -12 -41 17 -27 42 -26 76 3 18 15 41 31 52 36 12 5
62 34 111 65 115 72 171 104 184 104 6 0 11 -9 11 -20 0 -13 -20 -30 -62 -55
-35 -20 -101 -60 -149 -89 -128 -80 -178 -106 -200 -106 -25 0 -35 -25 -19
-45 11 -13 89 -15 576 -15 417 0 565 3 570 12 8 13 -39 58 -61 58 -15 0 -119
53 -145 74 -8 7 -64 41 -123 76 -73 43 -107 69 -105 79 6 32 40 20 165 -57
169 -104 217 -132 231 -132 18 0 15 75 -3 90 -10 8 -15 31 -15 66 0 40 -4 55
-17 63 -12 6 -16 20 -15 43 2 26 -4 40 -25 61 -27 25 -35 26 -133 29 -85 2
-105 6 -105 18 0 12 17 15 88 16 48 1 91 5 94 8 9 9 -28 46 -46 46 -9 0 -39
19 -66 43 -28 24 -58 46 -67 50 -26 9 -24 57 2 57 18 0 98 -49 142 -88 10 -8
24 -12 33 -9 19 8 20 46 0 53 -11 5 -15 21 -15 60 0 42 -5 58 -20 71 -16 14
-20 30 -20 75 l0 58 -88 0 c-90 0 -112 8 -112 41 0 9 -7 22 -15 29 -9 7 -15
29 -15 52 0 25 -5 41 -15 44 -8 4 -15 16 -15 29 0 12 -9 30 -20 40 -13 12 -20
31 -20 57 l0 38 -50 0 c-36 0 -50 -4 -50 -14z m70 -60 c0 -13 7 -29 15 -36 8
-7 15 -23 15 -36 0 -13 9 -32 20 -41 12 -11 20 -30 20 -49 0 -17 7 -37 15 -44
8 -7 15 -27 15 -44 0 -18 7 -41 15 -52 8 -10 15 -35 15 -54 0 -33 17 -92 32
-115 12 -19 1 -169 -16 -209 -9 -21 -16 -53 -16 -70 0 -17 -7 -40 -15 -50 -8
-11 -15 -30 -15 -42 0 -12 -6 -27 -14 -34 -8 -6 -16 -26 -18 -43 -2 -20 -8
-32 -18 -32 -20 0 -18 66 3 120 22 54 22 187 2 219 -9 13 -18 53 -22 90 -3 36
-12 71 -19 77 -8 6 -14 29 -14 50 0 21 -5 41 -11 45 -18 11 -49 -37 -49 -77 0
-21 -9 -47 -20 -62 -16 -20 -20 -40 -20 -107 0 -45 -5 -91 -11 -102 -8 -14 -8
-23 0 -31 6 -6 11 -49 11 -99 0 -72 -3 -88 -15 -88 -9 0 -15 9 -15 24 0 13 -7
29 -15 36 -8 7 -15 26 -15 42 0 17 -9 43 -20 58 -19 27 -21 43 -20 201 2 149
4 177 21 208 10 20 19 50 19 67 0 17 7 37 15 44 8 7 15 27 15 45 0 18 7 38 15
45 8 7 15 21 15 32 0 11 9 31 20 45 11 14 20 35 20 46 0 21 26 46 48 47 6 0
12 -11 12 -24z"/>
<path d="M1692 1378 c-7 -7 -12 -29 -12 -49 0 -24 -5 -39 -15 -43 -11 -4 -15
-21 -15 -59 0 -36 -5 -59 -15 -67 -8 -7 -15 -27 -15 -45 0 -18 -9 -44 -20 -58
-14 -18 -20 -40 -20 -76 0 -37 -4 -53 -15 -57 -17 -7 -22 -94 -5 -95 6 0 46
-1 90 -1 71 -1 84 2 105 22 20 19 25 33 25 75 0 42 5 56 24 74 23 22 33 23
136 22 73 -1 117 2 126 10 19 16 19 103 -1 119 -10 8 -45 11 -112 8 l-98 -3
-3 48 c-2 33 1 47 10 48 7 0 72 1 143 2 l130 2 5 53 c9 85 18 82 -223 82 -152
0 -216 -3 -225 -12z"/>
<path d="M2345 1370 c-10 -11 -28 -20 -40 -20 -13 0 -25 -6 -28 -14 -3 -8 -18
-16 -34 -18 -21 -2 -29 -9 -32 -28 -1 -14 -18 -40 -37 -58 -19 -18 -34 -41
-34 -51 0 -10 -7 -24 -15 -31 -11 -9 -15 -35 -15 -109 l0 -97 59 -58 58 -58
151 0 150 0 36 36 c38 39 43 41 66 26 12 -7 12 -12 -5 -29 -10 -12 -15 -24
-12 -28 4 -3 61 -6 127 -5 l120 0 65 67 c66 66 85 73 85 31 0 -13 7 -29 15
-36 8 -7 15 -23 15 -36 0 -13 3 -24 8 -25 57 -5 170 -2 180 5 18 13 15 40 -8
61 -11 10 -20 26 -20 35 0 10 -7 23 -15 30 -8 7 -15 20 -15 30 0 10 -7 23 -15
30 -8 7 -15 29 -15 48 0 32 11 48 103 141 56 58 106 106 112 106 5 0 12 -13
15 -30 l5 -30 75 0 c63 0 75 -3 78 -18 2 -9 -4 -20 -12 -23 -12 -5 -16 -20
-16 -59 0 -34 -5 -57 -15 -65 -10 -8 -15 -30 -15 -65 0 -35 -5 -57 -15 -65 -8
-7 -15 -27 -15 -46 0 -18 -7 -40 -16 -48 -31 -32 -12 -39 97 -39 l104 0 6 41
c3 23 13 50 22 60 11 12 17 36 17 69 0 33 5 55 15 63 8 7 15 27 15 45 0 18 7
38 15 45 9 7 15 29 15 51 0 21 5 41 12 45 6 4 50 8 97 8 l86 1 3 42 c2 23 10
47 18 53 7 7 14 19 14 26 0 12 -67 14 -402 14 l-401 0 -29 -32 c-15 -17 -28
-39 -28 -48 0 -9 -10 -26 -23 -38 l-23 -22 -22 23 c-12 13 -22 30 -22 39 0 9
-12 30 -27 47 -26 30 -30 31 -108 31 -113 0 -132 -23 -70 -83 19 -19 35 -43
35 -54 0 -11 7 -26 15 -33 8 -7 15 -20 15 -30 0 -10 7 -23 15 -30 8 -7 15 -16
15 -19 0 -13 -204 -211 -217 -211 -20 0 -15 38 7 57 11 10 20 28 20 41 0 12 7
25 15 28 12 5 15 27 15 111 l0 105 -60 59 -60 59 -129 0 c-115 0 -130 -2 -146
-20z m169 -139 c23 -22 26 -32 26 -97 0 -53 -4 -73 -14 -77 -8 -3 -16 -18 -18
-34 -2 -22 -9 -29 -31 -31 -16 -2 -31 -10 -34 -18 -9 -23 -82 -18 -110 8 -20
18 -23 31 -23 87 l0 66 60 61 c68 70 99 77 144 35z"/>
<path d="M4007 1383 c-4 -3 -7 -16 -7 -28 0 -13 -7 -28 -15 -35 -9 -8 -15 -30
-15 -60 0 -32 -6 -55 -20 -73 -11 -14 -20 -39 -20 -55 0 -16 -7 -35 -15 -42
-10 -8 -15 -30 -15 -65 0 -35 -5 -57 -15 -65 -16 -13 -22 -129 -7 -131 61 -4
175 -2 179 3 2 5 6 18 8 30 3 12 11 26 20 30 11 7 15 26 15 67 0 43 4 60 15
65 16 6 44 -2 46 -13 3 -28 10 -45 23 -60 9 -10 16 -31 16 -48 0 -18 9 -38 25
-53 21 -20 34 -23 105 -22 44 0 85 1 90 1 16 1 12 77 -5 91 -8 7 -15 22 -15
34 0 12 -9 29 -20 39 -11 9 -20 23 -20 30 0 18 50 64 75 69 11 2 21 12 23 23
2 11 10 27 18 36 9 9 17 50 21 98 6 80 5 82 -22 111 l-29 30 -216 0 c-119 0
-220 -3 -223 -7z m311 -137 c20 -12 13 -41 -15 -67 -24 -21 -38 -25 -88 -24
-33 0 -66 4 -72 8 -20 13 -15 39 11 66 22 23 33 26 89 25 35 0 69 -4 75 -8z"/>
<path d="M4730 1370 c-6 -11 -21 -20 -33 -20 -13 0 -48 -27 -94 -72 -64 -64
-73 -77 -73 -109 0 -20 -7 -42 -15 -49 -11 -9 -15 -33 -15 -85 0 -56 4 -74 15
-79 8 -3 15 -16 15 -29 0 -29 39 -67 68 -67 11 0 25 -7 30 -16 13 -23 275 -24
301 0 10 9 24 16 33 16 21 0 128 109 128 130 0 9 9 25 21 36 19 17 21 27 17
130 -2 89 -7 116 -21 131 -9 11 -17 29 -17 41 0 16 -6 22 -23 22 -13 0 -32 9
-42 20 -16 18 -31 20 -151 20 -123 0 -134 -2 -144 -20z m188 -124 c7 -4 12
-18 12 -31 0 -12 7 -25 15 -29 8 -3 15 -17 15 -31 0 -14 -7 -28 -15 -31 -10
-4 -15 -19 -15 -43 0 -30 -8 -44 -43 -79 -39 -39 -47 -42 -95 -42 -44 0 -57 4
-77 26 -32 35 -35 104 -5 134 11 11 20 28 20 37 0 10 18 35 40 58 36 36 44 40
88 39 26 0 53 -4 60 -8z"/>
<path d="M5187 1365 c-24 -21 -28 -31 -25 -68 l3 -42 65 -2 c36 0 71 -1 78 -2
17 -1 15 -58 -3 -65 -11 -4 -15 -21 -15 -65 0 -43 -4 -60 -15 -65 -11 -4 -15
-20 -15 -57 0 -36 -6 -58 -20 -76 -22 -28 -25 -55 -11 -81 7 -14 23 -17 93
-15 45 1 86 2 91 2 4 1 7 12 7 24 0 13 9 32 20 42 15 14 20 31 20 72 0 38 4
55 15 59 10 4 15 20 15 44 0 21 7 43 15 50 10 8 15 31 15 66 0 30 5 56 12 60
6 4 50 8 97 8 84 1 86 2 89 26 2 14 10 30 18 37 9 7 14 23 12 40 l-3 28 -265
2 -265 3 -28 -25z"/>
<path d="M2387 623 c-4 -3 -7 -26 -7 -50 l0 -43 1223 2 1222 3 0 45 0 45
-1216 3 c-668 1 -1219 -1 -1222 -5z"/>
<path d="M5297 494 c-4 -4 -7 -40 -7 -81 0 -56 -4 -75 -15 -79 -11 -5 -15 -23
-15 -77 0 -50 -5 -75 -16 -88 -21 -23 -29 -91 -14 -118 9 -18 19 -22 48 -19
36 3 37 5 40 44 2 26 11 49 23 59 15 15 19 31 19 85 0 49 4 71 15 80 13 10 15
32 13 104 l-3 91 -40 3 c-23 2 -44 0 -48 -4z"/>
<path d="M1850 373 c0 -46 -4 -62 -20 -76 -16 -14 -20 -29 -20 -86 0 -49 -4
-72 -15 -81 -10 -8 -15 -31 -15 -71 l0 -59 50 0 50 0 0 59 c0 40 5 63 15 71
11 9 15 32 15 81 0 56 4 72 21 87 16 16 20 29 17 73 l-3 54 -47 3 -48 3 0 -58z"/>
<path d="M4105 419 c-13 -20 4 -59 25 -59 19 0 40 33 40 61 0 13 -57 11 -65
-2z"/>
<path d="M94 391 c-2 -2 -4 -14 -4 -26 0 -13 -7 -28 -15 -35 -10 -8 -15 -30
-15 -63 0 -33 -6 -57 -17 -69 -12 -13 -16 -33 -14 -62 1 -29 -3 -48 -13 -59
-9 -9 -16 -29 -16 -46 0 -28 3 -31 30 -31 17 0 30 5 30 10 0 26 57 77 160 144
47 30 101 67 121 81 20 15 46 32 57 38 12 7 49 31 82 55 33 23 64 42 68 42 4
0 13 -9 19 -20 11 -17 6 -23 -55 -65 -112 -76 -251 -169 -288 -191 -45 -27
-84 -64 -84 -81 0 -11 50 -13 273 -11 l272 3 0 189 c0 167 -2 190 -17 200 -13
8 -22 6 -41 -12 -21 -20 -24 -20 -38 -6 -13 13 -54 16 -253 17 -131 1 -240 0
-242 -2z"/>
<path d="M732 388 c-9 -9 -12 -65 -12 -200 l0 -188 279 0 c177 0 282 4 286 10
3 6 -2 13 -12 17 -10 4 -23 13 -28 20 -6 8 -20 19 -32 26 -20 11 -136 88 -236
156 -21 14 -46 31 -55 36 -9 6 -33 22 -53 38 -20 15 -41 27 -45 27 -5 1 -18
15 -29 33 -22 35 -44 44 -63 25z"/>
<path d="M841 385 c0 -5 86 -66 192 -135 238 -154 277 -183 302 -221 11 -16
27 -28 35 -27 20 4 15 145 -6 169 -8 8 -14 32 -14 51 0 22 -6 38 -15 41 -10 4
-15 25 -17 68 l-3 61 -237 2 c-153 0 -238 -3 -237 -9z"/>
<path d="M2387 393 c-4 -3 -7 -14 -7 -23 0 -9 -9 -25 -20 -35 -18 -17 -20 -31
-20 -177 l0 -158 86 0 85 0 -3 47 c-3 44 -5 48 -33 53 -29 5 -30 6 -30 65 l0
60 48 3 47 3 0 -89 c0 -67 4 -93 15 -102 8 -7 15 -19 15 -26 0 -11 24 -14 114
-14 l113 0 7 47 c3 25 4 49 1 52 -3 3 -30 -3 -59 -13 -32 -11 -65 -16 -80 -12
-28 7 -61 49 -51 66 3 5 43 10 91 10 106 0 134 14 134 70 0 24 -5 40 -14 43
-8 3 -16 18 -18 34 l-3 28 -89 3 c-73 2 -92 0 -108 -15 -18 -16 -21 -17 -32
-1 -7 9 -29 18 -51 20 -31 2 -41 8 -43 23 -3 11 -9 26 -14 33 -11 13 -70 17
-81 5z m341 -145 c25 -25 13 -38 -34 -38 -50 0 -56 16 -13 37 30 16 32 16 47
1z"/>
<path d="M3877 393 c-4 -3 -7 -14 -7 -23 0 -9 -13 -29 -30 -45 -29 -28 -40
-65 -20 -65 16 0 12 -86 -5 -100 -28 -23 -18 -72 26 -118 38 -40 42 -42 100
-42 l60 0 -3 48 -3 47 -45 5 c-40 4 -45 8 -48 33 -2 18 2 29 12 33 11 4 16 19
16 44 0 43 20 65 52 57 34 -9 52 6 44 36 -4 16 -14 27 -28 29 -13 2 -24 11
-26 23 -2 11 -9 26 -14 33 -11 13 -70 17 -81 5z"/>
<path d="M5025 350 c-9 -10 -27 -20 -39 -22 -15 -2 -22 -11 -24 -31 l-3 -28
63 7 c51 5 66 3 77 -9 19 -24 7 -34 -51 -40 -59 -6 -90 -20 -130 -58 -23 -21
-28 -35 -28 -71 0 -43 15 -71 36 -67 22 4 34 -2 34 -16 0 -25 66 -20 73 5 4
17 11 19 51 14 57 -8 76 6 76 56 0 24 5 40 15 44 11 4 15 23 15 79 0 73 0 73
-42 114 -49 46 -94 55 -123 23z m62 -196 c9 -23 -19 -45 -64 -51 -42 -5 -57 4
-47 30 12 33 100 50 111 21z"/>
<path d="M4724 345 c-5 -11 -22 -15 -65 -15 -51 0 -59 -3 -59 -19 0 -10 -9
-30 -20 -44 -15 -19 -20 -40 -20 -90 0 -46 -4 -68 -16 -77 -8 -8 -14 -25 -12
-39 2 -21 9 -27 36 -29 37 -4 62 12 62 38 0 10 7 23 15 30 8 7 15 34 17 68 3
48 6 57 23 60 11 2 29 13 41 23 28 26 34 16 34 -52 0 -42 -4 -60 -16 -67 -11
-6 -14 -21 -12 -53 3 -42 5 -44 36 -47 51 -5 65 12 57 70 -5 38 -2 57 15 92
14 30 20 59 18 88 -3 43 -3 43 -46 46 -26 2 -45 9 -49 18 -7 18 -32 18 -39 -1z"/>
<path d="M2017 323 c-4 -3 -7 -23 -7 -43 0 -21 -7 -43 -15 -50 -10 -8 -15 -31
-15 -67 0 -38 -4 -55 -15 -59 -11 -4 -15 -21 -15 -56 l0 -49 48 3 c43 3 47 5
50 30 2 14 10 32 18 38 9 8 14 31 14 65 0 47 4 56 31 79 24 21 34 24 50 16 25
-14 25 -64 -1 -97 -20 -26 -25 -68 -14 -110 5 -19 13 -23 50 -23 l44 0 0 58
c0 46 4 63 20 77 16 15 20 31 20 83 0 57 -3 68 -26 88 -23 22 -34 24 -128 24
-56 0 -106 -3 -109 -7z"/>
<path d="M2910 276 c0 -37 -5 -60 -16 -71 -10 -10 -19 -39 -21 -73 -3 -34 -11
-60 -19 -65 -8 -4 -14 -21 -14 -37 0 -29 1 -30 50 -30 36 0 50 4 50 14 0 8 7
16 15 20 11 4 15 23 15 78 0 64 3 76 25 96 20 20 33 23 82 20 57 -3 58 -3 61
-35 2 -21 -4 -42 -18 -61 -16 -22 -21 -40 -18 -78 l3 -49 48 -3 47 -3 0 59 c0
46 4 63 20 77 13 12 20 31 20 57 l0 39 48 -3 c39 -2 48 -7 50 -24 2 -11 -6
-28 -18 -39 -17 -15 -20 -30 -20 -92 l0 -73 50 0 50 0 0 74 c0 51 4 77 14 85
8 7 17 28 21 48 5 28 2 40 -14 57 -12 12 -21 32 -21 44 0 21 -4 22 -110 22
-89 0 -112 -3 -116 -15 -4 -8 -12 -15 -19 -15 -7 0 -15 7 -19 15 -4 12 -27 15
-116 15 l-110 0 0 -54z"/>
<path d="M3507 323 c-10 -9 -9 -71 1 -77 4 -2 34 2 67 10 67 15 98 11 93 -14
-3 -17 -17 -20 -138 -37 -54 -8 -60 -11 -60 -34 0 -10 -7 -24 -15 -31 -24 -20
-18 -54 15 -86 16 -16 30 -35 30 -41 0 -10 30 -13 115 -13 l115 0 0 56 c0 41
5 63 20 81 30 39 28 129 -5 166 -23 26 -27 27 -128 27 -57 0 -107 -3 -110 -7z
m159 -175 c4 -6 -5 -21 -21 -35 -33 -29 -98 -29 -103 -1 -6 34 105 66 124 36z"/>
<path d="M4237 292 c-29 -29 -37 -46 -37 -74 0 -19 -7 -41 -15 -48 -19 -16
-19 -54 -1 -70 8 -6 16 -24 18 -38 2 -22 8 -26 26 -24 17 1 25 -4 29 -18 5
-18 14 -20 73 -20 60 0 68 2 73 21 4 15 11 19 24 15 23 -7 59 27 68 66 4 15
13 32 21 39 9 8 14 33 14 78 0 56 -4 69 -24 89 -22 20 -34 22 -128 22 l-104 0
-37 -38z m177 -28 c12 -5 16 -20 16 -59 0 -48 -4 -57 -39 -94 -22 -23 -42 -41
-45 -41 -10 0 -86 85 -86 98 0 7 9 20 20 29 11 10 20 27 20 39 0 11 3 24 7 27
8 9 86 9 107 1z"/>
<path d="M4091 291 c-12 -16 -21 -38 -21 -48 0 -11 -9 -28 -21 -39 -18 -16
-20 -28 -17 -109 l3 -90 33 -3 c24 -2 32 1 32 13 0 8 7 18 15 21 11 5 15 23
15 77 0 48 5 76 15 86 19 22 22 85 6 105 -20 23 -37 20 -60 -13z"/>
</g>
</svg>
