<?xml version="1.0" standalone="no"?>
<!DOCTYPE svg PUBLIC "-//W3C//DTD SVG 20010904//EN"
 "http://www.w3.org/TR/2001/REC-SVG-20010904/DTD/svg10.dtd">
<svg version="1.0" xmlns="http://www.w3.org/2000/svg"
 width="219.000000pt" height="172.000000pt" viewBox="0 0 219.000000 172.000000"
 preserveAspectRatio="xMidYMid meet">

<g transform="translate(0.000000,172.000000) scale(0.100000,-0.100000)"
fill="#000000" stroke="none">
<path d="M0 860 l0 -860 255 0 c221 0 255 2 255 15 0 8 -22 46 -48 83 -80 110
-121 184 -157 278 -59 159 -68 221 -68 489 0 215 2 250 23 334 35 147 104 299
183 403 18 24 43 60 56 81 l23 37 -261 0 -261 0 0 -860z"/>
<path d="M970 1712 c0 -5 -23 -37 -50 -71 -28 -34 -48 -66 -45 -71 3 -5 21
-14 40 -20 33 -11 35 -10 79 36 l45 47 57 -5 c49 -4 62 -10 85 -36 16 -18 32
-44 35 -59 9 -37 49 -117 87 -173 38 -55 176 -200 192 -200 12 0 45 61 45 83
0 7 -13 23 -29 34 -37 28 -107 127 -167 235 -25 48 -69 114 -96 147 l-50 61
-114 0 c-63 0 -114 -4 -114 -8z"/>
<path d="M1700 1710 c0 -6 20 -35 44 -65 80 -98 163 -255 187 -355 29 -116 52
-306 51 -425 0 -132 -26 -331 -58 -445 -30 -106 -109 -244 -201 -354 -18 -22
-33 -46 -33 -53 0 -10 47 -13 234 -13 129 0 241 3 250 6 14 6 16 91 16 860 l0
854 -245 0 c-159 0 -245 -4 -245 -10z"/>
<path d="M590 1549 c-32 -13 -78 -56 -97 -93 -10 -19 -14 -58 -14 -123 0 -52
2 -97 4 -100 7 -7 77 30 78 41 0 6 0 32 -1 58 -2 61 25 101 84 123 50 19 111
11 192 -24 92 -41 158 -55 266 -55 63 -1 111 3 118 10 7 7 6 22 -3 50 l-14 39
-104 2 c-91 2 -120 7 -232 42 -133 42 -222 52 -277 30z"/>
<path d="M1430 1553 c-49 -6 -54 -15 -34 -57 17 -35 19 -36 76 -36 70 0 112
-19 133 -60 22 -43 19 -70 -24 -177 -22 -54 -45 -126 -51 -160 -13 -63 -10
-246 3 -259 4 -4 28 2 52 14 l45 22 1 92 c0 93 17 172 55 268 26 67 26 223 -1
270 -36 63 -145 98 -255 83z"/>
<path d="M745 1354 c-37 -56 -71 -82 -177 -137 -209 -109 -278 -177 -278 -277
0 -70 37 -124 133 -195 43 -32 50 -28 62 33 6 32 2 39 -34 75 -69 66 -67 116
5 183 31 28 73 52 130 73 64 24 101 47 154 93 60 51 130 133 130 152 0 4 -88
47 -94 46 0 0 -14 -21 -31 -46z"/>
<path d="M1695 1118 c-7 -40 -6 -44 33 -77 80 -71 83 -115 12 -182 -27 -26
-62 -50 -77 -54 -81 -20 -174 -79 -262 -166 -50 -50 -91 -96 -91 -104 0 -7 21
-21 46 -31 l47 -18 22 27 c13 14 29 34 37 44 26 37 95 83 205 137 128 63 173
99 202 160 48 99 15 198 -93 277 -55 41 -73 38 -81 -13z"/>
<path d="M714 1115 c-19 -21 -34 -47 -34 -61 0 -15 -6 -24 -15 -24 -9 0 -15 9
-15 25 0 30 -14 31 -64 7 l-38 -19 -1 -114 c-2 -102 -5 -121 -31 -179 -25 -56
-29 -81 -33 -181 -6 -131 3 -160 59 -202 51 -38 102 -50 176 -44 84 8 92 17
64 64 -21 37 -23 38 -70 35 -61 -4 -102 15 -131 61 -19 31 -19 36 -6 95 8 34
27 90 41 125 32 76 56 205 48 258 -8 49 4 49 37 0 31 -45 54 -50 174 -42 79 6
80 6 85 36 4 26 10 30 42 33 34 3 38 0 52 -32 l15 -36 105 0 c93 0 109 3 126
20 24 24 26 57 4 81 -14 16 -14 20 2 44 36 55 -13 91 -111 83 l-40 -3 -3 -85
c-2 -95 -8 -130 -21 -130 -5 0 -12 12 -15 28 -15 63 -49 168 -59 180 -6 8 -25
12 -46 10 -30 -3 -37 -8 -45 -33 -16 -55 -65 -160 -77 -164 -7 -2 -10 11 -9
35 3 63 3 64 -40 64 -45 0 -66 -25 -37 -42 38 -21 4 -58 -33 -38 -45 24 -48
86 -7 115 12 8 43 15 70 15 44 0 48 2 45 23 -3 20 -9 22 -66 25 -62 3 -65 2
-98 -33z m314 -48 c3 -22 -1 -27 -17 -27 -21 0 -26 15 -15 45 9 23 29 13 32
-18z m225 27 c11 -11 -5 -34 -24 -34 -12 0 -19 7 -19 20 0 19 28 28 43 14z
m-9 -80 c21 -8 21 -40 0 -48 -21 -8 -34 1 -34 23 0 28 9 34 34 25z"/>
<path d="M1373 1135 c-36 -25 -29 -63 18 -111 47 -48 44 -66 -8 -62 -20 2 -37
-1 -39 -7 -14 -39 86 -56 125 -21 30 27 26 56 -14 103 -43 51 -44 63 -4 63 26
0 30 3 27 23 -2 18 -10 23 -43 25 -25 2 -49 -3 -62 -13z"/>
<path d="M1010 807 c-47 -16 -62 -48 -57 -124 4 -87 22 -105 101 -101 58 3 61
4 61 28 0 23 -3 25 -38 22 -49 -5 -77 19 -77 64 0 45 41 78 87 69 30 -5 33 -4
33 18 0 37 -45 46 -110 24z"/>
<path d="M1160 726 c0 -46 -3 -98 -6 -115 -7 -32 -6 -32 27 -29 l34 3 3 113 3
112 -31 0 -30 0 0 -84z"/>
<path d="M658 681 l-16 -39 47 -49 c55 -57 125 -161 175 -261 20 -40 58 -95
84 -121 42 -44 53 -50 104 -56 89 -11 131 0 180 50 24 24 51 56 60 73 21 35
12 48 -40 58 -25 5 -33 2 -47 -20 -43 -65 -125 -83 -185 -42 -38 25 -51 48
-69 111 -19 71 -84 167 -170 252 -46 46 -90 83 -96 83 -7 0 -19 -18 -27 -39z"/>
<path d="M1650 638 c-19 -12 -37 -23 -39 -25 -2 -1 -3 -32 -2 -67 2 -54 -2
-68 -21 -91 -35 -40 -94 -43 -183 -10 -182 68 -185 69 -307 69 -138 1 -154 -6
-135 -64 l12 -35 120 -6 c106 -6 135 -11 240 -48 152 -52 219 -55 287 -12 68
43 91 98 87 206 -2 46 -9 89 -14 94 -7 7 -22 3 -45 -11z"/>
</g>
</svg>
