<?xml version="1.0" standalone="no"?>
<!DOCTYPE svg PUBLIC "-//W3C//DTD SVG 20010904//EN"
 "http://www.w3.org/TR/2001/REC-SVG-20010904/DTD/svg10.dtd">
<svg version="1.0" xmlns="http://www.w3.org/2000/svg"
 width="3694.000000pt" height="1847.000000pt" viewBox="0 0 3694.000000 1847.000000"
 preserveAspectRatio="xMidYMid meet">

<g transform="translate(0.000000,1847.000000) scale(0.100000,-0.100000)"
fill="#000000" stroke="none">
<path d="M17590 18460 c-537 -15 -1246 -48 -1680 -80 -151 -11 -336 -25 -410
-30 -504 -37 -1371 -133 -2000 -220 -710 -99 -1550 -246 -2200 -384 -91 -19
-199 -42 -240 -51 -362 -77 -1054 -247 -1465 -362 -110 -30 -213 -59 -230 -63
-31 -8 -214 -61 -365 -106 -1631 -488 -3171 -1130 -4415 -1842 -312 -178 -752
-450 -950 -587 -33 -23 -105 -72 -159 -110 -873 -600 -1653 -1316 -2212 -2030
-669 -854 -1085 -1776 -1213 -2690 -38 -266 -46 -388 -45 -675 0 -286 7 -387
45 -665 104 -758 416 -1539 912 -2279 63 -94 231 -328 278 -386 318 -395 465
-557 809 -894 1336 -1308 3345 -2461 5795 -3326 460 -162 1174 -389 1545 -490
36 -9 139 -38 230 -63 824 -228 1685 -421 2720 -607 897 -162 2241 -333 3135
-400 77 -6 257 -19 400 -30 273 -21 829 -50 1345 -72 195 -8 645 -13 1250 -13
605 0 1055 5 1250 13 516 22 1072 51 1345 72 143 11 323 24 400 30 534 40
1356 131 2030 225 1327 186 2702 468 3875 795 102 29 194 54 205 57 11 3 63
18 115 33 52 15 145 42 205 60 135 39 641 199 785 247 1288 432 2417 916 3435
1473 1653 904 2949 1982 3766 3135 550 776 894 1596 1008 2405 41 288 46 363
46 685 0 321 -5 391 -46 678 -119 846 -476 1679 -1066 2490 -112 154 -112 153
-284 362 -173 210 -256 301 -479 529 -635 648 -1344 1201 -2279 1777 -78 49
-144 89 -146 89 -2 0 -39 22 -82 48 -43 26 -105 63 -138 81 -33 19 -76 43 -95
54 -319 182 -859 461 -1180 610 -345 160 -629 286 -790 352 -30 13 -134 55
-230 94 -245 101 -772 303 -860 331 -14 5 -90 31 -170 60 -316 112 -893 299
-1205 390 -60 17 -137 40 -170 50 -373 117 -1336 359 -1950 490 -1399 299
-2973 528 -4325 630 -648 49 -1108 75 -1765 100 -358 14 -1701 20 -2085 10z
m1760 -1460 c1092 -29 1986 -86 2925 -185 1868 -197 3684 -542 5230 -992 105
-30 210 -61 235 -68 405 -115 1257 -404 1680 -570 639 -250 1038 -425 1525
-665 1061 -525 1912 -1078 2632 -1708 195 -171 512 -485 664 -657 698 -794
1094 -1597 1211 -2455 30 -223 33 -691 5 -900 -57 -424 -166 -798 -350 -1195
-48 -106 -196 -382 -242 -455 -278 -437 -500 -718 -850 -1078 -525 -541 -1280
-1122 -2030 -1562 -338 -199 -631 -358 -980 -533 -204 -101 -663 -317 -775
-363 -30 -12 -93 -39 -140 -59 -93 -41 -108 -47 -385 -160 -315 -128 -717
-278 -1080 -401 -190 -65 -782 -253 -885 -282 -19 -5 -120 -35 -225 -65 -1373
-401 -3049 -735 -4680 -931 -1459 -176 -2819 -256 -4365 -256 -1546 0 -2895
79 -4365 256 -566 68 -1191 161 -1755 260 -850 150 -1631 322 -2510 555 -529
140 -1382 406 -1840 574 -36 13 -114 42 -175 64 -1624 590 -3058 1357 -4125
2207 -629 500 -1130 1031 -1507 1594 -643 960 -868 2005 -653 3021 356 1675
1884 3243 4370 4485 303 151 351 174 610 291 904 408 1957 787 3010 1083 63
18 144 41 180 51 209 58 555 147 870 222 900 215 1634 357 2655 511 359 55
909 126 1195 156 52 5 179 18 281 30 282 30 776 73 1084 95 626 43 1142 68
1740 84 436 12 1392 12 1815 1z"/>
<path d="M9260 9230 l0 -3080 725 0 725 0 2 1742 3 1743 145 -223 c80 -122
190 -291 245 -375 55 -84 148 -227 207 -317 146 -225 276 -424 403 -617 l106
-163 517 0 517 1 58 92 c67 105 91 143 387 597 273 420 315 484 390 600 142
220 250 384 260 394 7 7 9 -547 8 -1727 l-3 -1737 728 0 727 0 0 3075 0 3075
-730 0 -730 0 -86 -132 c-48 -73 -220 -338 -382 -588 -162 -250 -345 -531
-407 -625 -61 -93 -252 -387 -424 -653 -257 -395 -316 -481 -327 -470 -11 12
-138 205 -314 478 -34 52 -87 134 -118 182 -31 48 -176 271 -322 495 -246 380
-341 526 -589 905 -53 81 -134 206 -180 278 l-84 130 -728 0 -729 0 0 -3080z"/>
<path d="M16140 11580 l0 -730 940 0 940 0 0 -2350 0 -2350 728 2 727 3 3
2348 2 2347 935 0 935 0 0 730 0 730 -2605 0 -2605 0 0 -730z"/>
<path d="M22080 9235 l0 -3075 730 0 730 0 0 1827 c0 1776 1 1827 18 1808 11
-11 135 -182 277 -380 142 -198 572 -794 955 -1325 383 -531 784 -1086 890
-1235 107 -148 208 -288 225 -311 16 -22 55 -75 85 -118 57 -79 100 -139 159
-219 l35 -47 728 0 728 0 0 3075 0 3075 -730 0 -730 0 2 -1825 c2 -1004 1
-1825 -2 -1825 -4 0 -459 627 -554 763 -16 23 -50 71 -77 107 -26 36 -57 79
-69 95 -11 17 -51 71 -88 122 -37 51 -85 118 -107 149 -22 31 -60 84 -85 118
-25 33 -73 99 -106 146 -34 47 -277 384 -540 750 -264 366 -599 830 -745 1032
l-264 367 -732 1 -733 0 0 -3075z"/>
</g>
</svg>
