<?xml version="1.0" standalone="no"?>
<!DOCTYPE svg PUBLIC "-//W3C//DTD SVG 20010904//EN"
 "http://www.w3.org/TR/2001/REC-SVG-20010904/DTD/svg10.dtd">
<svg version="1.0" xmlns="http://www.w3.org/2000/svg"
 width="562.000000pt" height="106.000000pt" viewBox="0 0 562.000000 106.000000"
 preserveAspectRatio="xMidYMid meet">

<g transform="translate(0.000000,106.000000) scale(0.100000,-0.100000)"
fill="#000000" stroke="none">
<path d="M12 1052 c-10 -7 -12 -119 -10 -528 l3 -519 70 0 70 0 3 519 c2 409
0 521 -10 528 -7 4 -35 8 -63 8 -27 0 -56 -4 -63 -8z"/>
<path d="M635 1048 c-16 -6 -40 -14 -52 -19 -12 -4 -39 -32 -61 -61 -21 -29
-92 -125 -157 -213 -65 -88 -129 -173 -144 -188 l-25 -28 25 -22 c15 -12 37
-38 50 -57 13 -19 26 -37 29 -40 3 -3 30 -39 60 -80 30 -41 57 -77 60 -80 3
-3 24 -30 45 -60 22 -30 48 -64 57 -75 9 -11 27 -36 40 -55 15 -22 41 -42 71
-54 42 -18 52 -18 84 -7 21 8 43 19 50 26 11 12 54 107 216 475 30 69 69 159
86 201 32 76 56 118 63 109 6 -7 55 -117 193 -435 127 -290 125 -288 140 -315
24 -44 58 -62 122 -64 53 -1 58 1 55 19 -4 20 -36 98 -93 223 -16 34 -29 64
-29 67 0 2 -16 38 -35 79 -19 42 -35 79 -35 81 0 3 -13 34 -28 68 -16 34 -69
153 -118 265 -56 129 -96 207 -110 217 -42 27 -114 23 -143 -7 -12 -13 -60
-111 -107 -218 -46 -107 -101 -231 -121 -275 -20 -44 -42 -95 -49 -112 -72
-172 -97 -223 -108 -223 -6 0 -40 41 -75 90 -35 49 -70 97 -77 107 -80 104
-113 156 -107 166 4 7 81 112 172 235 92 123 171 230 176 238 21 31 -53 44
-120 22z"/>
<path d="M2621 1038 c-118 -18 -218 -94 -273 -206 -30 -60 -33 -75 -33 -157 0
-78 4 -98 29 -152 35 -77 114 -154 193 -190 73 -33 190 -37 268 -10 150 52
247 191 247 352 0 90 -17 145 -69 219 -75 107 -224 166 -362 144z m174 -122
c52 -24 102 -72 132 -129 13 -23 18 -55 18 -112 0 -88 -11 -117 -68 -181 -93
-107 -272 -112 -377 -12 -58 56 -80 107 -80 191 0 80 15 120 67 177 79 88 204
115 308 66z"/>
<path d="M1780 674 l0 -364 50 0 50 0 0 150 0 150 145 0 145 0 0 53 0 52 -142
0 -143 0 -3 107 -3 108 173 2 173 3 0 50 0 50 -222 1 -223 2 0 -364z"/>
<path d="M3180 796 c0 -283 7 -318 77 -396 136 -151 375 -122 471 57 l32 61 0
260 0 259 -47 -1 -48 -1 -5 -257 -5 -256 -30 -38 c-42 -51 -89 -74 -153 -74
-56 0 -113 23 -145 58 -40 44 -46 87 -47 333 l0 236 -50 2 -50 1 0 -244z"/>
<path d="M3850 1028 c0 -7 162 -232 234 -323 l31 -40 5 -175 5 -175 53 -3 52
-3 0 169 0 170 140 189 c77 103 140 191 140 195 0 11 -110 0 -125 -12 -8 -7
-56 -68 -107 -136 -51 -68 -96 -124 -100 -124 -5 0 -53 61 -108 135 -66 89
-107 136 -120 137 -63 5 -100 3 -100 -4z"/>
<path d="M4732 1028 c-5 -7 -25 -51 -45 -98 -19 -47 -60 -141 -90 -210 -143
-323 -174 -399 -169 -404 12 -13 78 -4 98 12 11 9 74 140 139 290 89 204 121
269 128 257 5 -9 58 -130 119 -268 60 -139 119 -262 130 -274 16 -17 33 -23
65 -23 24 0 43 2 43 4 0 2 -33 80 -74 173 -274 627 -235 553 -290 553 -24 0
-48 -6 -54 -12z"/>
<path d="M5072 988 l3 -53 113 -3 113 -3 -1 -307 -1 -307 50 -3 51 -3 0 310 0
310 108 3 107 3 3 53 3 52 -276 0 -276 0 3 -52z"/>
<path d="M4755 658 c-28 -16 -35 -28 -35 -65 0 -42 35 -68 80 -58 53 12 68 75
27 113 -26 25 -43 27 -72 10z"/>
<path d="M1082 489 c-57 -17 -89 -97 -61 -152 42 -80 152 -88 203 -15 39 55 3
149 -62 168 -20 5 -39 10 -42 9 -3 0 -20 -5 -38 -10z"/>
<path d="M1797 133 c-11 -10 -8 -123 3 -123 6 0 10 11 10 24 0 21 6 25 33 28
25 2 33 8 35 26 2 13 -2 30 -8 38 -13 14 -61 19 -73 7z m63 -33 c0 -15 -7 -20
-25 -20 -18 0 -25 5 -25 20 0 15 7 20 25 20 18 0 25 -5 25 -20z"/>
<path d="M1987 133 c-11 -10 -8 -123 3 -123 6 0 10 11 10 25 0 15 6 25 14 25
7 0 21 -11 30 -25 9 -14 21 -25 26 -25 6 0 3 11 -6 25 -15 23 -15 27 -1 43 15
16 15 20 1 40 -15 21 -62 31 -77 15z m63 -33 c0 -15 -7 -20 -25 -20 -18 0 -25
5 -25 20 0 15 7 20 25 20 18 0 25 -5 25 -20z"/>
<path d="M2179 135 c0 -3 -1 -31 -1 -62 l-1 -58 44 -2 c41 -1 42 -1 9 5 -43 9
-56 42 -16 42 35 0 42 18 9 22 -17 2 -29 10 -31 21 -3 13 3 17 27 17 17 0 31
5 31 10 0 10 -69 15 -71 5z"/>
<path d="M2373 133 c-7 -2 -13 -16 -13 -29 0 -19 8 -29 35 -40 19 -8 35 -19
35 -24 0 -18 -32 -24 -52 -11 -30 19 -34 5 -4 -14 24 -16 28 -16 52 -1 32 22
27 36 -19 61 -20 11 -37 24 -37 28 0 15 33 20 51 8 21 -13 26 -2 7 17 -12 12
-33 14 -55 5z"/>
<path d="M2540 130 c0 -5 7 -10 15 -10 12 0 15 -13 15 -55 0 -30 5 -55 10 -55
6 0 10 23 10 51 0 42 3 52 20 56 36 9 21 23 -25 23 -25 0 -45 -4 -45 -10z"/>
<path d="M2741 79 c-13 -33 -20 -63 -17 -66 3 -3 8 2 12 11 8 21 64 22 64 1 0
-8 5 -15 10 -15 6 0 10 3 10 6 0 17 -43 124 -50 124 -4 0 -17 -27 -29 -61z"/>
<path d="M2900 130 c0 -5 9 -10 20 -10 18 0 20 -7 20 -55 0 -30 5 -55 10 -55
6 0 10 25 10 55 0 48 2 55 20 55 11 0 20 5 20 10 0 6 -22 10 -50 10 -27 0 -50
-4 -50 -10z"/>
<path d="M3100 76 c0 -37 4 -66 10 -66 6 0 10 26 10 59 0 33 -4 63 -10 66 -6
4 -10 -18 -10 -59z"/>
<path d="M3246 127 c-25 -18 -25 -80 -1 -107 23 -26 39 -25 65 2 24 26 26 65
4 96 -17 25 -42 28 -68 9z m52 -19 c26 -26 8 -88 -25 -88 -23 0 -38 46 -25 75
13 27 31 32 50 13z"/>
<path d="M3437 133 c-11 -10 -8 -123 2 -123 6 0 11 19 13 43 l3 42 29 -43 c16
-23 33 -42 37 -42 5 0 9 30 9 66 0 41 -4 63 -10 59 -5 -3 -10 -25 -10 -48 l0
-41 -30 47 c-31 49 -33 51 -43 40z"/>
<path d="M3769 135 c0 -3 -1 -31 -1 -62 -1 -56 0 -58 27 -61 59 -7 91 78 43
112 -21 15 -67 22 -69 11z m59 -27 c21 -21 15 -68 -10 -77 -32 -12 -38 -6 -38
45 0 36 3 44 18 44 10 0 23 -5 30 -12z"/>
<path d="M3967 133 c-4 -3 -7 -33 -7 -65 l0 -58 43 1 c38 1 39 2 12 8 -42 9
-44 36 -3 46 l33 9 -32 3 c-25 3 -33 9 -33 24 0 14 7 19 30 19 17 0 30 5 30
10 0 11 -63 14 -73 3z"/>
<path d="M4282 128 c-21 -21 -13 -44 24 -61 36 -18 41 -39 10 -45 -10 -2 -24
5 -31 15 -13 16 -14 16 -15 1 0 -22 35 -41 59 -33 42 13 32 57 -16 76 -13 5
-23 15 -23 24 0 18 31 20 48 3 9 -9 12 -8 12 4 0 26 -47 37 -68 16z"/>
<path d="M4460 75 l0 -65 43 1 c42 2 42 2 8 8 -41 7 -54 41 -16 41 13 0 27 5
30 10 4 6 -5 10 -19 10 -19 0 -26 5 -26 20 0 16 7 20 30 20 17 0 30 5 30 10 0
6 -18 10 -40 10 l-40 0 0 -65z"/>
<path d="M4640 75 c0 -37 4 -65 10 -65 6 0 10 11 10 25 0 16 6 25 15 25 9 0
21 -11 27 -25 6 -14 15 -25 20 -25 5 0 4 10 -3 21 -7 15 -8 28 -1 43 5 12 6
31 1 44 -7 17 -16 22 -44 22 l-35 0 0 -65z m65 25 c0 -8 -10 -16 -22 -18 -18
-3 -23 2 -23 18 0 16 5 21 23 18 12 -2 22 -10 22 -18z"/>
<path d="M4824 119 c18 -64 39 -110 49 -106 11 3 45 89 46 116 1 24 -15 -1
-29 -41 -6 -21 -15 -38 -19 -38 -4 0 -13 18 -20 40 -13 42 -38 70 -27 29z"/>
<path d="M5027 133 c-11 -10 -8 -111 3 -118 6 -4 10 18 10 59 0 66 -1 72 -13
59z"/>
<path d="M5167 122 c-23 -25 -21 -78 3 -102 11 -11 24 -20 29 -20 16 0 56 38
48 46 -4 4 -13 0 -20 -10 -7 -10 -22 -16 -33 -14 -15 3 -19 12 -19 48 0 39 3
45 23 48 13 2 24 -3 28 -12 3 -9 10 -13 16 -10 13 8 -21 44 -42 44 -9 0 -24
-8 -33 -18z"/>
<path d="M5350 75 l0 -65 43 2 c36 1 38 2 10 5 -25 3 -33 9 -33 24 0 12 7 19
19 19 11 0 23 5 26 10 4 6 -5 10 -19 10 -19 0 -26 5 -26 20 0 16 7 20 30 20
17 0 30 5 30 10 0 6 -18 10 -40 10 l-40 0 0 -65z"/>
<path d="M5542 128 c-20 -20 -14 -38 23 -59 19 -12 35 -25 35 -30 0 -16 -30
-22 -45 -9 -9 7 -19 10 -23 6 -12 -13 31 -37 52 -30 48 15 45 46 -7 72 -15 7
-27 20 -27 28 0 17 31 19 48 2 6 -6 15 -8 19 -4 10 9 -25 36 -47 36 -9 0 -21
-5 -28 -12z"/>
</g>
</svg>
