<?xml version="1.0" standalone="no"?>
<!DOCTYPE svg PUBLIC "-//W3C//DTD SVG 20010904//EN"
 "http://www.w3.org/TR/2001/REC-SVG-20010904/DTD/svg10.dtd">
<svg version="1.0" xmlns="http://www.w3.org/2000/svg"
 width="417.000000pt" height="193.000000pt" viewBox="0 0 417.000000 193.000000"
 preserveAspectRatio="xMidYMid meet">

<g transform="translate(0.000000,193.000000) scale(0.100000,-0.100000)"
fill="#000000" stroke="none">
<path d="M1949 1896 c-54 -52 -87 -93 -94 -116 -4 -14 -15 -33 -24 -44 -11
-13 -17 -43 -19 -106 -3 -73 0 -95 18 -136 12 -27 30 -67 39 -89 32 -72 41
-89 70 -136 50 -80 82 -190 79 -267 l-3 -67 -47 -3 -48 -3 0 63 c0 58 -17 124
-52 198 -17 34 -77 92 -88 85 -6 -4 -10 -29 -10 -57 0 -63 -27 -170 -46 -181
-8 -4 -14 -12 -14 -18 0 -11 -36 -53 -107 -125 -29 -30 -53 -58 -53 -64 0 -5
-4 -10 -10 -10 -5 0 -10 8 -10 18 0 27 -51 45 -97 33 -42 -12 -113 -56 -113
-71 0 -6 -4 -10 -10 -10 -5 0 -10 13 -10 30 0 23 -5 31 -24 36 -14 3 -33 4
-43 2 -17 -3 -18 -21 -18 -313 l0 -310 40 0 40 0 7 195 c8 255 11 269 59 319
37 38 43 41 94 41 58 0 66 -9 46 -48 -34 -63 -56 -232 -32 -246 5 -4 12 -28
16 -56 4 -27 13 -54 20 -60 8 -6 17 -24 20 -40 3 -16 13 -34 21 -41 8 -6 14
-16 14 -22 0 -5 20 -30 45 -54 25 -24 45 -48 45 -53 0 -5 11 -12 25 -16 14 -3
25 -9 25 -13 0 -12 108 -91 124 -91 20 0 21 16 1 24 -8 3 -15 10 -15 17 0 6
-9 24 -20 39 -11 15 -21 42 -23 59 -4 31 -32 71 -50 71 -11 0 -51 42 -94 97
-48 62 -68 210 -40 298 41 132 154 226 294 246 118 17 184 -2 279 -78 23 -18
44 -33 48 -33 3 0 6 23 6 50 l0 50 45 0 c42 0 44 1 33 19 -9 15 -8 31 6 78 34
113 39 154 26 216 -12 60 -63 166 -106 222 -13 18 -24 35 -24 38 0 11 -64 97
-72 97 -4 0 -8 7 -8 15 0 7 -6 18 -14 22 -7 4 -21 23 -30 41 -9 17 -21 32 -26
32 -6 0 -10 8 -10 18 0 10 -5 23 -11 29 -17 17 -38 120 -32 157 7 43 -7 51
-38 22z"/>
<path d="M3089 938 c-1 -90 -1 -171 0 -180 3 -24 -22 -23 -45 3 -71 79 -197
126 -303 113 -175 -21 -321 -175 -321 -337 1 -137 114 -274 258 -311 76 -20
114 -20 194 0 75 19 122 46 162 91 43 50 56 44 56 -28 l0 -60 43 3 42 3 1 70
c1 39 2 116 3 173 0 60 5 102 11 102 6 0 10 -17 10 -38 0 -95 82 -241 160
-285 94 -53 227 -58 325 -11 32 15 145 134 145 152 0 8 -49 32 -66 32 -7 0
-21 -16 -33 -35 -11 -19 -42 -49 -68 -65 -43 -28 -54 -30 -137 -30 -90 0 -92
1 -140 38 -56 42 -97 112 -93 157 l2 30 275 5 275 5 3 42 c4 52 -25 119 -82
189 -47 59 -76 77 -162 100 -56 15 -68 15 -135 1 -124 -25 -190 -83 -243 -212
-13 -33 -29 -61 -35 -63 -13 -4 -13 7 -15 298 l-1 205 -42 3 -43 3 -1 -163z
m-178 -181 c26 -15 54 -36 64 -47 22 -24 38 -25 70 -4 13 9 29 13 35 9 13 -8
12 -355 -1 -355 -4 0 -23 9 -42 20 l-35 21 -28 -29 c-63 -62 -171 -92 -259
-72 -70 15 -120 52 -161 117 -33 50 -36 62 -36 127 0 87 25 136 98 195 56 44
79 50 179 47 56 -2 81 -8 116 -29z m746 -3 c48 -30 102 -111 88 -133 -6 -11
-445 -16 -445 -6 0 22 55 107 81 126 82 58 194 63 276 13z"/>
<path d="M15 1068 c-3 -7 -4 -198 -3 -423 l3 -410 43 -3 c40 -3 42 -2 43 25 0
15 2 39 3 53 1 14 3 89 4 168 l2 142 88 0 c144 0 217 21 293 82 20 16 59 120
59 156 0 36 -44 129 -72 153 -13 11 -41 29 -63 42 -36 20 -56 22 -218 25 -140
3 -178 1 -182 -10z m336 -88 c20 -6 49 -22 64 -36 24 -22 28 -34 29 -83 1 -68
-14 -100 -57 -127 -27 -16 -51 -19 -157 -19 l-125 0 -3 115 c-5 170 -11 160
111 160 56 0 118 -5 138 -10z"/>
<path d="M3704 1056 c-3 -14 -3 -34 1 -45 6 -19 14 -21 96 -21 l89 0 2 -377 3
-378 40 0 40 0 5 375 5 375 93 3 93 3 -3 42 -3 42 -227 3 -228 2 -6 -24z"/>
<path d="M2318 889 c-16 -9 -18 -33 -18 -279 0 -149 3 -270 8 -270 13 1 62 90
62 114 0 12 5 27 12 34 20 20 23 223 4 281 -9 27 -16 63 -16 78 0 26 -15 53
-29 53 -4 0 -14 -5 -23 -11z"/>
<path d="M705 858 c-16 -6 -37 -17 -46 -24 -8 -8 -20 -14 -26 -14 -10 0 -52
-44 -93 -96 -62 -79 -73 -217 -26 -316 70 -145 235 -226 375 -184 28 8 72 29
97 46 60 40 74 39 74 -5 0 -34 1 -35 39 -35 l40 0 3 47 c2 27 1 167 -2 313
l-5 265 -35 0 c-33 0 -35 -2 -38 -37 -4 -47 -16 -48 -73 -5 -24 19 -59 39 -78
45 -41 15 -165 14 -206 0z m178 -77 c101 -24 183 -135 181 -247 -2 -93 -42
-159 -127 -208 -42 -25 -58 -28 -122 -28 -89 1 -133 23 -182 86 -47 61 -65
139 -49 210 35 147 152 221 299 187z"/>
<path d="M1953 839 c23 -14 20 -35 -13 -94 -41 -72 -124 -244 -138 -286 -7
-19 -12 -47 -12 -61 0 -37 -10 -58 -26 -58 -51 0 38 -64 111 -80 152 -34 299
58 330 206 16 78 8 204 -14 204 -5 0 -36 -26 -69 -57 -34 -32 -82 -76 -107
-98 -25 -22 -45 -46 -45 -52 0 -7 -6 -13 -13 -13 -15 0 -67 -108 -67 -139 0
-29 -15 -34 -50 -16 -35 18 -37 27 -12 63 10 15 26 43 35 62 26 57 254 300
282 300 13 0 14 4 5 20 -17 32 -87 78 -145 95 -61 17 -78 19 -52 4z"/>
<path d="M1825 825 c-60 -21 -140 -114 -156 -179 -6 -28 -15 -55 -19 -61 -4
-5 -2 -32 6 -60 7 -27 13 -60 14 -73 0 -20 54 -112 65 -112 1 0 1 26 -2 58 -8
86 22 208 60 246 9 10 17 24 17 31 0 7 6 20 13 27 12 13 51 89 61 121 6 21 -5
21 -59 2z"/>
<path d="M2167 286 c-13 -14 -29 -26 -34 -26 -6 0 -16 -7 -23 -15 -7 -8 -27
-17 -46 -21 -18 -3 -38 -12 -45 -20 -7 -8 -31 -14 -60 -14 -52 0 -67 -11 -44
-30 8 -7 15 -20 15 -30 0 -9 8 -28 18 -41 10 -13 24 -36 31 -51 23 -46 47 -36
54 22 4 37 13 57 35 78 15 15 31 35 35 45 3 9 13 17 22 17 8 0 15 6 15 14 0 8
9 16 21 18 28 4 58 53 42 69 -9 9 -18 5 -36 -15z"/>
<path d="M1808 203 c7 -3 16 -2 19 1 4 3 -2 6 -13 5 -11 0 -14 -3 -6 -6z"/>
<path d="M2228 203 c12 -2 30 -2 40 0 9 3 -1 5 -23 4 -22 0 -30 -2 -17 -4z"/>
<path d="M2124 133 c-6 -5 -16 -18 -22 -29 -10 -18 -7 -26 13 -48 28 -31 29
-31 60 -10 16 10 29 13 40 7 25 -15 77 -3 82 18 7 25 33 24 33 -1 0 -22 16
-27 23 -7 3 9 10 7 25 -7 18 -15 24 -16 37 -6 8 7 21 10 29 7 8 -3 17 -1 19 6
3 8 11 6 25 -6 26 -23 54 -19 67 11 12 26 25 29 25 4 0 -11 8 -19 23 -20 33
-4 159 -3 162 0 2 2 7 16 11 32 6 24 4 27 -12 24 -11 -2 -20 -13 -22 -26 -5
-30 -39 -30 -44 1 -3 19 -9 22 -48 22 -25 0 -49 3 -55 6 -5 3 -46 3 -90 -2
-64 -5 -82 -4 -91 7 -10 12 -13 12 -24 -1 -9 -11 -26 -13 -74 -8 -33 3 -63 10
-64 15 -2 4 -15 -1 -29 -12 -33 -26 -41 -25 -45 3 -3 23 -33 34 -54 20z"/>
<path d="M3831 127 c-1 -15 -8 -18 -33 -16 -56 4 -68 0 -68 -21 0 -26 -24 -26
-50 0 -40 40 -94 19 -104 -40 -5 -26 -4 -31 4 -19 8 14 24 17 77 15 38 -2 82
1 98 6 19 5 40 4 58 -3 20 -9 31 -9 42 1 8 7 23 9 37 4 36 -11 93 -9 92 4 -1
7 -2 21 -2 31 -2 18 -9 19 -68 16 -59 -3 -66 -2 -74 18 -7 19 -9 19 -9 4z"/>
<path d="M2868 112 c-31 -15 -36 -43 -13 -62 13 -11 20 -11 40 0 19 10 28 10
38 1 18 -15 44 -5 50 19 7 29 -19 47 -45 31 -11 -7 -21 -11 -22 -9 -2 2 -7 10
-12 19 -8 13 -13 13 -36 1z"/>
<path d="M3189 116 c-3 -3 -94 -14 -136 -15 -17 -1 -16 -13 2 -37 12 -16 16
-17 24 -4 9 12 12 12 28 -1 14 -12 43 -15 134 -14 120 2 139 6 139 31 0 8 9
14 20 14 15 0 20 -7 20 -26 0 -14 4 -23 10 -19 6 3 10 19 10 36 0 28 -2 29
-46 29 -37 0 -47 -4 -51 -20 -6 -23 -33 -28 -33 -6 0 16 -59 30 -85 20 -9 -4
-20 -2 -24 5 -4 6 -9 9 -12 7z"/>
<path d="M3495 90 c-9 -27 11 -50 41 -50 25 0 31 20 18 54 -9 24 -51 20 -59
-4z"/>
</g>
</svg>
