<?xml version="1.0" standalone="no"?>
<!DOCTYPE svg PUBLIC "-//W3C//DTD SVG 20010904//EN"
 "http://www.w3.org/TR/2001/REC-SVG-20010904/DTD/svg10.dtd">
<svg version="1.0" xmlns="http://www.w3.org/2000/svg"
 width="161.000000pt" height="236.000000pt" viewBox="0 0 161.000000 236.000000"
 preserveAspectRatio="xMidYMid meet">

<g transform="translate(0.000000,236.000000) scale(0.100000,-0.100000)"
fill="#000000" stroke="none">
<path d="M705 2349 c-193 -29 -341 -131 -412 -286 -24 -51 -27 -71 -28 -164 0
-105 0 -106 44 -195 37 -73 60 -105 135 -179 253 -251 324 -290 395 -214 49
53 26 94 -135 245 -198 184 -223 219 -232 321 -11 145 87 252 260 284 116 21
234 -12 388 -111 52 -33 103 -60 114 -61 68 -4 95 11 117 62 21 51 -6 90 -107
156 -179 116 -372 167 -539 142z"/>
<path d="M797 1829 c-9 -5 -24 -24 -33 -40 -23 -46 -5 -86 79 -166 232 -221
248 -239 271 -288 35 -74 40 -117 21 -181 -21 -73 -76 -133 -158 -170 -55 -26
-73 -29 -157 -29 -127 0 -190 23 -346 125 -61 40 -85 50 -118 50 -56 -1 -86
-25 -93 -78 -8 -56 11 -82 103 -142 148 -97 262 -137 414 -147 180 -11 332 41
445 152 158 157 177 364 48 557 -45 69 -268 289 -345 341 -43 28 -98 35 -131
16z"/>
<path d="M94 752 c-25 -17 -23 -42 7 -73 21 -22 27 -35 20 -42 -7 -7 -15 -6
-26 3 -20 17 -32 5 -15 -15 21 -25 59 -19 66 12 6 21 1 31 -25 52 -25 20 -29
29 -20 38 10 10 15 9 24 -4 8 -10 14 -12 19 -5 3 6 -1 18 -10 26 -17 18 -24
19 -40 8z"/>
<path d="M171 746 c-7 -9 -11 -37 -9 -73 3 -57 3 -58 33 -58 27 0 30 3 33 38
2 28 -1 37 -12 37 -12 0 -14 -7 -9 -30 4 -23 2 -30 -11 -30 -13 0 -16 10 -16
49 0 53 13 72 29 44 5 -10 13 -14 17 -10 11 10 -9 41 -28 45 -8 2 -20 -4 -27
-12z"/>
<path d="M250 685 c0 -43 4 -75 10 -75 6 0 10 32 10 75 0 43 -4 75 -10 75 -6
0 -10 -32 -10 -75z"/>
<path d="M340 625 c0 -13 73 -15 595 -15 522 0 595 2 595 15 0 13 -73 15 -595
15 -522 0 -595 -2 -595 -15z"/>
<path d="M84 486 c-40 -18 -64 -52 -64 -92 0 -47 27 -72 99 -92 87 -23 95 -46
15 -40 -33 3 -66 8 -74 12 -15 6 -40 -32 -40 -60 0 -21 68 -36 142 -32 64 3
73 7 99 36 57 63 27 132 -65 153 -66 14 -81 23 -71 39 8 12 72 10 106 -4 15
-7 39 28 39 58 0 33 -127 47 -186 22z"/>
<path d="M1354 486 c-40 -18 -64 -52 -64 -91 1 -45 23 -66 97 -90 86 -28 97
-49 22 -42 -30 2 -63 7 -74 11 -17 6 -23 1 -33 -27 -7 -18 -12 -36 -12 -39 0
-24 154 -37 203 -19 41 16 67 51 67 91 0 48 -29 74 -103 93 -66 18 -72 21 -62
37 8 12 73 9 107 -5 13 -5 21 2 33 31 8 20 14 38 13 39 -2 1 -18 7 -37 14 -45
15 -119 13 -157 -3z"/>
<path d="M320 335 l0 -155 55 0 55 0 0 155 0 155 -55 0 -55 0 0 -155z"/>
<path d="M480 336 l0 -156 50 0 50 0 0 40 c0 29 4 40 15 40 8 0 27 -18 41 -40
26 -38 29 -40 80 -40 30 0 54 2 54 5 0 3 -13 24 -30 46 l-30 42 25 29 c39 47
37 109 -6 153 -29 29 -32 30 -139 33 l-110 4 0 -156z m177 58 c10 -26 -11 -49
-46 -52 -30 -3 -31 -2 -31 32 0 34 2 36 35 36 24 0 38 -5 42 -16z"/>
<path d="M802 338 l3 -153 53 -3 52 -3 0 155 0 156 -55 0 -56 0 3 -152z"/>
<path d="M960 375 l0 -115 34 -37 c30 -33 39 -37 95 -41 73 -5 113 9 143 50
17 25 22 49 26 144 l5 114 -57 0 -56 0 0 -103 c0 -106 -7 -127 -41 -127 -39 0
-49 27 -49 131 l0 99 -50 0 -50 0 0 -115z"/>
<path d="M1144 126 c-3 -7 -4 -38 -2 -67 3 -47 6 -54 26 -57 22 -3 42 22 27
36 -4 4 -10 1 -12 -5 -11 -30 -23 -9 -23 37 0 46 12 67 23 38 2 -7 8 -10 12
-6 4 4 5 14 2 23 -8 19 -46 20 -53 1z"/>
<path d="M1228 73 c-16 -68 -15 -93 3 -60 12 21 39 23 39 2 0 -8 5 -15 11 -15
6 0 8 8 6 18 -3 9 -11 41 -17 70 -7 28 -15 52 -19 52 -4 0 -14 -30 -23 -67z
m32 -13 c0 -5 -4 -10 -10 -10 -5 0 -10 5 -10 10 0 6 5 10 10 10 6 0 10 -4 10
-10z"/>
<path d="M1300 71 c0 -41 4 -71 10 -71 6 0 10 11 10 24 0 16 7 27 21 31 16 5
20 14 17 43 -3 32 -7 37 -30 40 l-28 3 0 -70z m40 24 c0 -14 -4 -25 -10 -25
-5 0 -10 11 -10 25 0 14 5 25 10 25 6 0 10 -11 10 -25z"/>
<path d="M1380 70 c0 -40 4 -70 10 -70 6 0 10 30 10 70 0 40 -4 70 -10 70 -6
0 -10 -30 -10 -70z"/>
<path d="M1410 130 c0 -5 5 -10 10 -10 6 0 10 -27 10 -60 0 -33 4 -60 10 -60
6 0 10 27 10 60 0 33 4 60 10 60 6 0 10 5 10 10 0 6 -13 10 -30 10 -16 0 -30
-4 -30 -10z"/>
<path d="M1482 87 c-6 -29 -12 -61 -12 -72 1 -19 1 -19 14 -2 16 21 36 22 36
2 0 -8 5 -15 10 -15 12 0 12 5 1 50 -5 19 -12 47 -15 63 -9 41 -20 33 -34 -26z
m28 -17 c0 -11 -4 -20 -9 -20 -5 0 -7 9 -4 20 3 11 7 20 9 20 2 0 4 -9 4 -20z"/>
<path d="M1550 70 l0 -70 30 0 c17 0 30 5 30 10 0 6 -9 10 -20 10 -18 0 -20 7
-20 60 0 33 -4 60 -10 60 -6 0 -10 -30 -10 -70z"/>
<path d="M2 18 c4 -10 125 -14 551 -16 482 -2 547 0 547 13 0 13 -66 15 -551
15 -436 0 -550 -3 -547 -12z"/>
</g>
</svg>
