<?xml version="1.0" standalone="no"?>
<!DOCTYPE svg PUBLIC "-//W3C//DTD SVG 20010904//EN"
 "http://www.w3.org/TR/2001/REC-SVG-20010904/DTD/svg10.dtd">
<svg version="1.0" xmlns="http://www.w3.org/2000/svg"
 width="259.000000pt" height="225.000000pt" viewBox="0 0 259.000000 225.000000"
 preserveAspectRatio="xMidYMid meet">

<g transform="translate(0.000000,225.000000) scale(0.100000,-0.100000)"
fill="#000000" stroke="none">
<path d="M1186 2228 c-13 -13 -27 -33 -31 -45 l-6 -23 130 0 c175 0 163 10
286 -255 18 -38 51 -108 73 -155 199 -425 321 -689 327 -708 l7 -24 -79 7
c-155 13 -239 50 -336 146 -153 152 -187 361 -92 566 19 42 35 85 35 97 -1 23
-22 56 -36 56 -13 0 -69 -86 -95 -145 -138 -313 39 -692 368 -786 80 -22 247
-25 303 -5 31 12 35 17 34 47 -1 21 -75 190 -194 444 -106 226 -208 444 -227
485 -79 171 -125 259 -148 280 -29 27 -88 39 -207 39 -77 1 -90 -2 -112 -21z"/>
<path d="M975 1801 c-50 -16 -50 -16 -102 -121 -28 -58 -95 -203 -148 -322
-87 -194 -97 -222 -92 -259 14 -105 99 -151 260 -141 64 4 71 15 34 58 -20 23
-34 28 -96 33 -61 6 -77 11 -93 31 -27 33 -20 57 58 225 88 187 89 188 210
193 l96 4 -7 37 c-4 20 -9 39 -11 43 -3 5 -38 8 -79 8 l-74 0 51 111 c27 61
48 112 47 113 -2 2 -26 -4 -54 -13z"/>
<path d="M244 472 c-5 -4 -18 -29 -28 -57 -26 -71 -103 -250 -138 -318 -17
-34 -39 -62 -53 -69 -43 -20 -27 -27 54 -25 88 3 107 10 68 28 -37 17 -40 34
-16 90 l22 50 89 -3 90 -3 23 -55 24 -55 -24 -20 c-14 -12 -25 -24 -25 -28 0
-4 41 -7 90 -7 91 0 110 8 65 28 -29 13 -49 53 -140 267 -71 168 -83 189 -101
177z m38 -192 l36 -80 -74 0 c-41 0 -74 3 -74 6 0 13 62 154 68 154 4 0 24
-36 44 -80z"/>
<path d="M1755 471 c-74 -19 -142 -77 -169 -143 -22 -53 -21 -150 3 -196 25
-48 77 -97 123 -116 45 -19 186 -21 238 -3 37 13 60 46 60 90 0 33 -24 36 -41
4 -61 -117 -229 -107 -301 18 -33 58 -33 184 0 237 35 56 83 81 154 81 68 0
103 -19 130 -74 26 -50 43 -44 43 15 0 45 -3 52 -31 68 -35 20 -161 32 -209
19z"/>
<path d="M2325 472 c-6 -4 -26 -47 -44 -97 -57 -152 -127 -298 -160 -332 -17
-18 -31 -34 -31 -37 0 -7 149 0 156 7 3 3 -8 13 -25 22 -17 8 -31 19 -31 23 0
3 10 30 22 59 l22 53 88 0 88 0 26 -57 25 -58 -25 -20 c-15 -12 -26 -24 -26
-28 0 -4 41 -7 90 -7 92 0 110 8 65 28 -27 13 -61 80 -165 325 -30 70 -57 127
-60 127 -3 0 -10 -4 -15 -8z m38 -192 l36 -80 -76 0 c-56 0 -74 3 -70 13 35
89 62 147 67 147 4 0 23 -36 43 -80z"/>
<path d="M590 464 c0 -4 11 -17 25 -30 25 -23 25 -24 25 -203 0 -150 -3 -182
-16 -195 -8 -9 -20 -16 -25 -16 -5 0 -9 -4 -9 -10 0 -6 62 -10 165 -10 150 0
165 2 165 18 0 9 3 34 6 55 8 45 -5 48 -29 7 -21 -35 -82 -55 -136 -45 -61 12
-61 10 -61 212 l0 184 30 10 c52 19 33 29 -55 29 -47 0 -85 -3 -85 -6z"/>
<path d="M1010 462 c0 -5 11 -14 25 -20 14 -6 25 -17 25 -24 3 -149 -1 -373
-7 -379 -4 -4 -16 -9 -26 -11 -10 -1 -19 -7 -20 -13 -3 -11 171 -17 178 -5 3
5 -7 15 -22 22 l-28 13 -3 192 -2 191 30 10 c56 20 34 32 -60 32 -49 0 -90 -4
-90 -8z"/>
<path d="M1290 460 c0 -5 11 -12 25 -16 14 -3 27 -16 30 -28 3 -11 4 -100 3
-196 l-3 -175 -35 -17 c-19 -9 -33 -18 -30 -19 19 -6 181 -6 185 1 3 5 -7 15
-22 22 l-28 13 0 190 0 190 28 13 c47 23 30 32 -63 32 -52 0 -90 -4 -90 -10z"/>
</g>
</svg>
