<?xml version="1.0" standalone="no"?>
<!DOCTYPE svg PUBLIC "-//W3C//DTD SVG 20010904//EN"
 "http://www.w3.org/TR/2001/REC-SVG-20010904/DTD/svg10.dtd">
<svg version="1.0" xmlns="http://www.w3.org/2000/svg"
 width="450.000000pt" height="179.000000pt" viewBox="0 0 450.000000 179.000000"
 preserveAspectRatio="xMidYMid meet">

<g transform="translate(0.000000,179.000000) scale(0.100000,-0.100000)"
fill="#000000" stroke="none">
<path d="M4400 1785 c0 -10 43 -44 51 -40 17 11 -4 45 -27 45 -13 0 -24 -2
-24 -5z"/>
<path d="M4395 1720 c3 -5 8 -10 11 -10 2 0 4 5 4 10 0 6 -5 10 -11 10 -5 0
-7 -4 -4 -10z"/>
<path d="M4465 1720 c-3 -5 -1 -10 4 -10 6 0 11 5 11 10 0 6 -2 10 -4 10 -3 0
-8 -4 -11 -10z"/>
<path d="M156 1685 c-11 -31 -7 -855 5 -855 6 0 34 20 62 45 29 25 55 45 59
45 5 0 8 11 8 25 0 43 27 93 59 110 l31 16 -2 312 -3 312 -106 3 c-91 2 -108
0 -113 -13z"/>
<path d="M555 1690 c-4 -6 -9 -584 -5 -696 0 -6 26 -17 58 -23 31 -6 80 -22
109 -35 28 -13 54 -22 57 -18 3 3 6 81 6 174 0 92 3 168 8 168 4 -1 23 -23 42
-49 19 -27 97 -126 173 -220 l137 -171 89 0 c72 0 90 3 95 16 9 24 7 837 -2
852 -6 9 -36 12 -113 10 l-104 -3 -3 -222 c-1 -134 -6 -223 -12 -223 -8 0 -86
94 -180 217 -14 18 -61 78 -105 133 l-80 100 -82 0 c-45 0 -84 -4 -88 -10z"/>
<path d="M1495 1688 c-3 -7 -4 -204 -3 -438 l3 -425 110 0 110 0 3 133 3 132
99 0 c119 0 193 23 245 77 28 29 35 44 35 75 0 44 17 84 49 112 27 24 26 49
-1 132 -26 80 -87 152 -160 188 -51 26 -56 26 -270 26 -166 0 -220 -3 -223
-12z m395 -201 c48 -24 58 -133 17 -174 -13 -13 -97 -20 -174 -14 -10 1 -13
27 -13 94 0 52 3 97 7 100 11 12 137 7 163 -6z"/>
<path d="M2784 1687 c-2 -7 -2 -112 0 -233 6 -250 6 -264 3 -474 l-2 -155 110
0 110 0 5 170 5 170 150 0 150 0 5 -170 5 -170 104 -3 c77 -2 107 1 113 10 10
17 10 839 0 856 -6 9 -36 12 -113 10 l-104 -3 -5 -160 -5 -160 -150 0 -150 0
-5 160 -5 160 -108 3 c-83 2 -109 0 -113 -11z"/>
<path d="M3715 1688 c-3 -7 -4 -204 -3 -438 l3 -425 257 -3 c242 -2 260 -1
315 19 75 28 137 88 153 149 25 91 -8 193 -80 251 l-40 32 33 36 c42 46 62
114 54 186 -8 75 -42 133 -101 173 l-48 32 -269 0 c-207 0 -271 -3 -274 -12z
m452 -210 c29 -27 29 -57 2 -92 -20 -25 -24 -26 -125 -26 l-104 0 0 70 0 70
102 0 c91 0 104 -2 125 -22z m23 -328 c25 -25 26 -80 3 -109 -16 -18 -30 -21
-123 -21 -58 -1 -111 -1 -117 -1 -14 1 -19 132 -6 144 3 4 55 7 115 7 95 0
110 -2 128 -20z"/>
<path d="M2163 1306 c-29 -36 -29 -85 -3 -119 11 -14 45 -38 76 -53 98 -48
318 -44 376 7 21 18 21 20 3 15 -67 -17 -153 -26 -189 -21 -78 11 -136 27
-136 37 0 16 102 56 174 69 80 14 141 7 196 -21 38 -19 48 -32 65 -85 6 -20 7
-20 21 -1 35 49 2 119 -69 145 -40 15 -184 13 -238 -3 -54 -17 -145 -61 -154
-76 -11 -18 -41 -11 -65 15 -16 17 -26 42 -30 73 l-5 47 -22 -29z"/>
<path d="M371 1004 c-20 -15 -23 -22 -17 -60 5 -42 5 -44 -32 -61 -62 -28
-222 -206 -222 -246 0 -5 33 22 74 60 86 81 170 125 276 147 100 21 171 20
265 -4 43 -11 82 -20 87 -20 22 0 -9 24 -67 50 -80 37 -169 60 -230 60 -42 0
-47 2 -42 20 6 24 -28 70 -52 70 -9 0 -27 -7 -40 -16z"/>
<path d="M332 779 c-89 -45 -168 -109 -202 -164 -17 -27 -27 -33 -52 -33 -31
1 -68 -29 -68 -56 0 -23 31 -55 57 -58 23 -3 29 -11 44 -61 20 -67 50 -133 74
-162 18 -22 19 -27 -6 95 -22 110 5 223 75 315 42 54 55 66 120 114 89 66 76
69 -42 10z"/>
<path d="M544 754 c-141 -50 -212 -216 -150 -349 27 -60 103 -131 155 -145
124 -34 253 21 314 135 17 31 22 58 22 115 0 57 -5 84 -22 115 -63 117 -198
172 -319 129z m157 -24 c52 -15 124 -82 145 -135 24 -64 15 -162 -20 -215 -78
-118 -254 -135 -360 -34 -95 90 -87 250 17 339 61 52 136 68 218 45z"/>
<path d="M518 681 c-31 -20 -53 -44 -69 -77 -61 -124 1 -261 133 -296 86 -22
185 22 233 103 15 25 20 52 20 100 0 56 -4 72 -29 108 -44 63 -98 91 -177 91
-55 0 -73 -5 -111 -29z m132 -31 c0 -5 -7 -10 -15 -10 -8 0 -15 5 -15 10 0 6
7 10 15 10 8 0 15 -4 15 -10z m-85 -19 c-77 -35 -81 -76 -9 -106 19 -8 37 -21
40 -30 8 -19 24 -20 24 0 0 8 9 29 20 47 11 18 20 40 20 49 0 25 44 61 66 53
35 -13 64 -47 64 -75 0 -23 -11 -37 -55 -70 -51 -39 -57 -41 -68 -25 -12 16
-14 16 -26 2 -7 -9 -11 -22 -8 -30 6 -16 -11 -36 -30 -36 -7 0 -13 9 -13 20 0
11 -9 34 -19 51 -18 30 -20 30 -30 11 -6 -11 -11 -30 -11 -41 0 -12 -7 -21
-15 -21 -17 0 -17 2 -6 52 7 32 6 39 -15 57 -13 12 -24 26 -24 32 0 38 56 78
110 78 21 1 19 -2 -15 -18z m165 -171 c0 -5 -4 -10 -10 -10 -5 0 -10 5 -10 10
0 6 5 10 10 10 6 0 10 -4 10 -10z m-173 -22 c-3 -8 -6 -5 -6 6 -1 11 2 17 5
13 3 -3 4 -12 1 -19z"/>
<path d="M682 574 c-25 -63 -22 -79 17 -69 60 15 83 78 39 109 -12 9 -25 16
-28 16 -3 0 -15 -25 -28 -56z"/>
<path d="M908 514 c-3 -264 -8 -250 72 -249 l45 0 5 115 c3 63 8 115 11 115 3
0 48 -53 100 -117 93 -117 94 -118 136 -118 23 0 45 5 48 11 5 7 9 361 5 472
0 4 -27 7 -60 7 l-60 0 0 -120 c0 -66 -4 -120 -8 -120 -5 0 -51 54 -103 120
l-94 119 -47 1 -47 0 -3 -236z"/>
<path d="M1427 743 c-10 -9 -8 -456 2 -471 5 -9 25 -12 62 -10 l54 3 5 120 5
119 99 -122 99 -123 46 3 46 3 0 240 0 240 -60 0 -60 0 -5 -119 -5 -120 -70
88 c-127 160 -122 156 -169 156 -24 0 -46 -3 -49 -7z"/>
<path d="M1942 508 l3 -243 164 -3 c125 -2 166 1 173 10 12 20 9 84 -5 96 -7
6 -58 13 -113 14 l-99 3 0 35 0 35 90 5 90 5 0 50 0 50 -80 2 c-44 1 -86 2
-93 2 -9 1 -12 11 -10 29 l3 27 105 5 105 5 0 55 0 55 -168 3 -167 2 2 -242z"/>
<path d="M2455 731 c-116 -54 -172 -204 -119 -321 56 -123 180 -177 308 -134
45 16 116 75 116 98 0 6 -22 23 -49 38 l-48 28 -19 -21 c-30 -33 -72 -51 -104
-44 -33 7 -87 63 -96 100 -15 61 17 128 72 151 42 18 80 10 117 -25 l28 -26
37 21 c53 31 59 46 34 82 -49 68 -187 95 -277 53z"/>
<path d="M2777 743 c-12 -11 -8 -88 5 -101 7 -7 38 -12 70 -12 l58 0 0 -172
c0 -95 4 -179 9 -186 5 -9 25 -12 62 -10 l54 3 3 182 2 182 68 3 67 3 3 58 3
57 -199 0 c-109 0 -202 -3 -205 -7z"/>
<path d="M3237 744 c-10 -10 -8 -456 2 -472 5 -9 25 -12 62 -10 l54 3 0 240 0
240 -55 3 c-31 2 -59 0 -63 -4z"/>
<path d="M3565 731 c-46 -21 -101 -79 -123 -130 -19 -46 -19 -145 1 -192 66
-158 267 -200 387 -79 45 44 80 121 80 175 0 79 -68 188 -141 225 -50 26 -149
27 -204 1z m140 -105 c97 -41 98 -191 2 -239 -31 -16 -42 -17 -72 -7 -101 33
-111 194 -15 242 42 22 42 22 85 4z"/>
<path d="M3972 508 l3 -243 54 -3 c36 -2 57 1 63 10 5 7 7 59 6 115 -2 56 0
104 3 107 3 4 28 -22 55 -56 26 -35 71 -89 98 -121 49 -56 51 -58 95 -55 l46
3 0 240 0 240 -60 0 -60 0 -3 -117 c-1 -65 -5 -118 -9 -118 -7 0 -1 -7 -111
134 l-83 106 -50 0 -49 0 2 -242z"/>
<path d="M204 484 c-9 -78 1 -195 21 -238 16 -34 16 -36 -5 -66 -25 -35 -20
-63 14 -85 25 -16 49 -12 78 13 14 11 21 12 32 3 18 -15 150 -61 175 -61 11 0
28 -11 39 -25 25 -32 67 -33 93 -2 10 12 18 30 19 39 0 11 18 25 46 38 52 23
119 78 149 124 22 33 13 30 -45 -15 -76 -61 -184 -75 -292 -38 -63 21 -150 73
-183 109 -26 29 -38 25 -21 -7 20 -39 124 -137 166 -158 46 -23 61 -35 54 -46
-10 -16 -108 43 -170 103 -81 78 -134 184 -134 268 0 49 -10 100 -21 100 -4 0
-11 -25 -15 -56z"/>
<path d="M1849 131 c0 -6 -1 -37 -1 -68 l-1 -58 52 -3 c28 -2 51 1 51 6 0 12
-24 22 -50 22 -16 0 -19 9 -22 52 -2 30 -8 53 -15 56 -7 2 -13 -1 -14 -7z"/>
<path d="M2240 126 c0 -18 -47 -49 -55 -36 -3 6 -19 10 -36 10 -28 0 -29 -1
-29 -50 0 -38 4 -50 15 -50 10 0 15 10 15 28 0 27 15 52 32 52 4 0 8 -9 8 -21
0 -39 19 -59 55 -59 27 0 35 4 35 18 0 10 5 23 10 28 14 14 3 42 -21 54 -10 6
-16 17 -13 25 4 8 1 15 -5 15 -6 0 -11 -6 -11 -14z m10 -56 c0 -5 -4 -10 -10
-10 -5 0 -10 5 -10 10 0 6 5 10 10 10 6 0 10 -4 10 -10z m14 -29 c3 -5 -1 -11
-9 -15 -15 -6 -29 7 -18 18 9 9 21 8 27 -3z"/>
<path d="M1972 94 c-25 -18 -30 -65 -8 -83 20 -17 81 -10 82 9 0 8 5 24 9 34
6 14 2 24 -14 38 -28 22 -40 23 -69 2z m45 -28 c-3 -7 -1 -18 5 -24 11 -11 -6
-27 -21 -18 -15 10 -10 56 6 56 9 0 13 -6 10 -14z"/>
<path d="M2326 95 c-22 -23 -20 -34 9 -47 30 -13 34 -32 5 -23 -14 5 -20 2
-20 -9 0 -11 10 -16 34 -16 47 0 56 26 19 56 -23 19 -25 23 -10 24 22 0 17 24
-5 28 -9 2 -23 -4 -32 -13z"/>
<path d="M2437 99 c-51 -30 -31 -99 29 -99 25 0 34 4 34 16 0 12 -6 15 -25 10
-18 -5 -25 -2 -25 8 0 10 9 14 27 13 33 -2 44 30 17 50 -21 16 -33 16 -57 2z
m33 -29 c0 -5 -4 -10 -10 -10 -5 0 -10 5 -10 10 0 6 5 10 10 10 6 0 10 -4 10
-10z"/>
<path d="M2553 103 c-21 -8 -15 -23 10 -23 19 0 18 -2 -11 -20 -28 -17 -31
-23 -22 -40 9 -16 21 -20 61 -20 43 0 50 2 45 18 -3 9 -8 29 -12 45 -8 37 -39
54 -71 40z m37 -68 c0 -8 -4 -15 -9 -15 -13 0 -22 16 -14 24 11 11 23 6 23 -9z"/>
<path d="M2650 66 c0 -58 7 -66 60 -66 l49 0 -5 38 c-8 51 -12 62 -23 62 -5 0
-11 -15 -13 -32 -2 -22 -9 -34 -20 -36 -15 -3 -18 4 -18 32 0 25 -4 36 -15 36
-10 0 -15 -10 -15 -34z"/>
</g>
</svg>
