<?xml version="1.0" standalone="no"?>
<!DOCTYPE svg PUBLIC "-//W3C//DTD SVG 20010904//EN"
 "http://www.w3.org/TR/2001/REC-SVG-20010904/DTD/svg10.dtd">
<svg version="1.0" xmlns="http://www.w3.org/2000/svg"
 width="356.000000pt" height="207.000000pt" viewBox="0 0 356.000000 207.000000"
 preserveAspectRatio="xMidYMid meet">

<g transform="translate(0.000000,207.000000) scale(0.100000,-0.100000)"
fill="#000000" stroke="none">
<path d="M1198 1663 c-3 -376 -4 -411 -22 -446 -24 -48 -66 -71 -118 -64 -69
9 -105 48 -123 130 l-6 28 -122 -3 -122 -3 3 -52 c1 -28 8 -68 16 -90 l13 -38
345 -3 345 -2 19 42 c17 40 19 77 22 476 l3 432 -125 0 -125 0 -3 -407z"/>
<path d="M1530 1595 l0 -475 130 0 130 0 2 277 3 276 94 -276 94 -277 137 0
138 0 50 143 c27 78 68 201 92 272 23 72 46 134 51 139 5 6 9 -110 9 -272 l0
-282 125 0 125 0 0 475 0 475 -169 0 -169 0 -87 -267 c-150 -466 -159 -493
-165 -493 -3 0 -59 170 -126 378 l-120 377 -172 3 -172 2 0 -475z"/>
<path d="M2790 2000 c-13 -13 -20 -33 -20 -57 0 -77 36 -84 42 -8 l3 40 58 3
57 3 0 -38 c0 -47 6 -54 50 -71 66 -26 70 -26 101 4 l29 28 45 -44 45 -44 -25
-26 c-30 -32 -31 -44 -5 -104 20 -44 23 -46 60 -46 l40 0 0 -60 0 -60 -32 0
c-45 0 -52 -7 -73 -67 l-19 -53 27 -28 27 -28 -45 -44 -45 -44 -29 28 -30 29
-58 -25 c-56 -24 -58 -26 -61 -67 l-3 -41 -60 0 -59 0 0 46 c0 38 -3 45 -17
42 -22 -4 -30 -76 -13 -108 10 -19 19 -21 98 -18 l87 3 3 47 c3 43 5 48 37 58
30 10 39 9 62 -8 16 -10 34 -22 41 -26 15 -9 132 100 132 122 0 9 -12 28 -26
43 -24 26 -25 28 -10 63 14 33 19 36 54 36 48 0 52 7 52 105 0 82 -9 95 -67
95 -23 0 -31 6 -41 32 -11 29 -10 34 13 58 14 14 25 33 25 41 0 19 -111 129
-130 129 -8 0 -26 -11 -40 -25 -26 -25 -28 -25 -63 -10 -34 14 -37 19 -37 55
0 49 -18 60 -99 60 -48 0 -65 -4 -81 -20z"/>
<path d="M1007 1994 c-4 -4 -7 -19 -7 -34 0 -39 -38 -54 -69 -29 -31 25 -35
25 -81 -17 -42 -38 -50 -67 -25 -94 22 -25 8 -60 -24 -60 -39 0 -51 -18 -51
-75 0 -56 12 -75 47 -75 34 0 52 -43 30 -68 -25 -28 -21 -44 22 -86 40 -39 65
-42 91 -11 19 22 60 -1 60 -35 0 -37 17 -50 66 -50 66 0 74 6 74 56 0 51 -17
60 -22 12 -3 -31 -6 -33 -45 -36 -43 -3 -43 -3 -43 31 0 31 -4 36 -42 50 -41
16 -42 16 -65 -5 l-24 -22 -30 30 c-29 30 -30 31 -14 60 15 27 15 32 1 67 -14
31 -21 37 -46 37 -29 0 -30 2 -30 45 0 44 0 45 33 45 30 0 35 4 47 40 12 35
11 42 -3 58 -23 25 -22 34 13 67 l30 29 23 -22 c22 -21 24 -21 65 -5 36 14 42
20 42 45 0 27 2 28 45 28 43 0 45 -1 45 -30 0 -16 5 -30 11 -30 6 0 9 17 7 43
l-3 42 -60 3 c-34 2 -64 0 -68 -4z"/>
<path d="M1021 1858 c-51 -14 -79 -37 -108 -85 -35 -60 -30 -143 11 -198 35
-45 103 -77 153 -73 54 5 55 28 1 28 -93 0 -158 63 -158 154 0 38 6 61 25 88
29 43 98 74 145 65 36 -8 43 17 8 27 -28 7 -34 7 -77 -6z"/>
<path d="M283 1812 c24 -26 22 -69 -4 -83 -18 -9 -27 -7 -50 10 -28 21 -29 21
-29 3 0 -32 38 -72 69 -72 17 0 38 -11 55 -29 24 -25 34 -29 65 -24 64 10 67
21 17 72 -27 28 -46 56 -46 69 0 29 -42 72 -71 72 -21 0 -21 -1 -6 -18z"/>
<path d="M2822 1820 c-38 -16 -21 -35 28 -32 178 14 298 -171 207 -320 -41
-69 -104 -101 -202 -102 -29 -1 -40 -5 -40 -16 0 -11 15 -16 62 -18 109 -5
203 62 239 171 49 148 -61 310 -220 323 -28 2 -62 -1 -74 -6z"/>
<path d="M587 1775 c-20 -14 -37 -30 -37 -36 0 -6 -28 -40 -62 -75 -47 -49
-68 -64 -89 -64 -39 0 -179 -142 -179 -181 0 -30 28 -59 56 -59 30 0 184 160
184 191 0 19 18 43 64 87 35 34 69 62 74 62 16 0 55 69 48 85 -7 20 -15 19
-59 -10z m-242 -255 c-21 -22 -41 -37 -44 -35 -6 7 60 75 73 75 6 0 -7 -18
-29 -40z"/>
<path d="M482 1578 c-15 -18 -18 -73 -6 -89 6 -8 16 -33 22 -55 14 -49 29 -63
74 -71 79 -12 125 91 64 143 -15 13 -37 24 -50 24 -12 0 -35 14 -51 30 -32 33
-38 35 -53 18z m129 -114 c9 -11 10 -20 2 -32 -15 -24 -44 -27 -59 -7 -28 38
27 75 57 39z"/>
<path d="M485 1046 c-38 -17 -91 -73 -104 -109 -16 -41 -14 -221 2 -260 19
-45 89 -105 132 -113 103 -19 197 22 236 102 18 38 20 58 17 157 -3 127 -17
161 -86 208 -43 29 -150 37 -197 15z m153 -89 c29 -30 42 -78 42 -147 0 -117
-34 -170 -111 -170 -40 0 -51 4 -72 30 -48 56 -48 224 0 280 21 26 32 30 72
30 37 0 52 -5 69 -23z"/>
<path d="M230 865 c0 -185 0 -186 -25 -211 -19 -19 -31 -23 -48 -18 -32 9 -57
34 -57 56 0 15 -8 18 -51 18 l-51 0 6 -32 c14 -73 76 -118 161 -118 69 0 115
26 143 80 20 41 22 57 22 227 l0 183 -50 0 -50 0 0 -185z"/>
<path d="M810 861 c0 -179 1 -190 23 -222 81 -122 319 -95 357 40 5 20 10 111
10 204 l0 167 -50 0 -50 0 0 -169 c0 -93 -4 -181 -10 -196 -12 -32 -67 -57
-109 -49 -16 4 -40 17 -53 31 -22 24 -23 30 -23 204 l0 179 -47 0 -48 0 0
-189z"/>
<path d="M1240 810 l0 -240 50 0 50 0 0 95 0 95 54 0 c80 0 96 -17 104 -110
l7 -75 57 -3 57 -3 -14 28 c-8 15 -15 55 -15 87 0 54 -3 62 -33 89 l-33 31 29
26 c59 53 43 156 -32 198 -34 19 -54 22 -160 22 l-121 0 0 -240z m213 159 c29
-16 37 -28 37 -63 0 -48 -25 -66 -92 -66 l-58 0 0 70 0 70 46 0 c25 0 55 -5
67 -11z"/>
<path d="M1640 811 l0 -241 50 0 50 0 2 160 3 159 95 -159 94 -160 53 0 53 0
0 240 0 240 -50 0 -50 0 -2 -162 -3 -162 -95 160 -96 159 -52 3 -52 3 0 -240z"/>
<path d="M2085 810 l0 -240 158 0 157 0 0 35 0 35 -110 0 -110 0 0 70 0 70 90
0 90 0 0 40 0 40 -90 0 -90 0 0 60 0 60 110 0 110 0 0 35 0 35 -157 0 -158 0
0 -240z"/>
<path d="M2420 810 l0 -240 160 0 160 0 0 35 0 35 -110 0 -110 0 0 70 0 70 90
0 90 0 0 40 0 40 -90 0 -90 0 0 60 0 60 110 0 110 0 0 35 0 35 -160 0 -160 0
0 -240z"/>
<path d="M2870 814 l0 -226 103 4 c96 3 106 5 142 32 58 44 78 100 73 205 -2
75 -7 93 -30 128 -40 61 -94 83 -201 83 l-87 0 0 -226z m220 184 c62 -43 75
-70 79 -169 4 -102 -5 -132 -53 -178 -38 -37 -84 -50 -168 -51 l-58 0 0 210 0
210 84 0 c70 0 88 -4 116 -22z"/>
<path d="M3252 858 c3 -170 5 -185 25 -214 46 -65 158 -84 221 -37 54 39 62
71 62 261 0 100 -4 172 -9 172 -6 0 -11 -79 -13 -185 l-3 -185 -33 -32 c-30
-30 -37 -33 -97 -33 -60 0 -67 3 -97 33 l-33 32 -3 185 c-2 117 -7 185 -13
185 -7 0 -9 -63 -7 -182z"/>
<path d="M60 255 c0 -153 4 -245 10 -245 6 0 11 86 12 223 l3 222 99 -223 c55
-122 104 -221 109 -219 5 1 51 96 102 210 50 114 95 210 98 214 4 3 7 -91 7
-210 0 -141 4 -217 10 -217 7 0 9 83 8 243 -2 153 -7 242 -13 241 -5 0 -56
-103 -112 -229 l-101 -228 -29 64 c-16 35 -62 139 -103 232 -41 92 -80 167
-87 167 -10 0 -13 -51 -13 -245z"/>
<path d="M610 255 l0 -245 145 0 c90 0 145 4 145 10 0 6 -52 10 -135 10 l-135
0 0 110 0 110 115 0 c70 0 115 4 115 10 0 6 -45 10 -115 10 l-115 0 0 105 0
105 135 0 c83 0 135 4 135 10 0 6 -55 10 -145 10 l-145 0 0 -245z"/>
<path d="M1024 481 c-70 -43 -99 -123 -92 -255 6 -110 34 -169 98 -204 86 -46
202 -12 234 68 18 45 20 70 7 70 -5 0 -11 -17 -15 -38 -9 -61 -67 -102 -142
-102 -55 0 -100 24 -130 70 -25 37 -29 54 -32 134 -5 109 8 164 49 211 49 56
131 67 201 27 28 -16 58 -66 58 -96 0 -9 5 -16 11 -16 15 0 4 56 -17 87 -40
62 -162 85 -230 44z"/>
<path d="M1462 448 c-11 -29 -52 -138 -91 -242 -39 -104 -69 -192 -66 -194 8
-8 13 1 39 69 l24 64 123 0 122 0 25 -67 c14 -38 29 -68 33 -68 5 0 9 3 9 8 0
21 -178 476 -187 479 -6 2 -20 -20 -31 -49z m138 -270 c0 -5 -49 -8 -110 -8
-60 0 -110 2 -110 4 0 2 23 64 50 137 28 74 53 141 56 149 4 12 113 -258 114
-282z"/>
<path d="M1732 253 l2 -248 6 230 5 230 155 -224 c85 -124 161 -226 168 -229
9 -3 12 50 12 242 0 154 -4 246 -10 246 -6 0 -11 -87 -12 -226 l-3 -227 -155
226 c-85 125 -158 226 -162 227 -5 0 -7 -111 -6 -247z"/>
<path d="M2187 493 c-11 -11 -8 -483 3 -483 6 0 10 88 10 245 0 135 -1 245 -3
245 -2 0 -7 -3 -10 -7z"/>
<path d="M2384 481 c-74 -45 -98 -110 -92 -251 5 -110 28 -168 80 -200 98 -59
231 -19 257 77 16 56 0 62 -18 8 -21 -63 -55 -88 -128 -93 -48 -3 -64 0 -93
20 -57 38 -80 96 -80 203 0 108 11 154 48 193 77 82 239 48 258 -55 3 -18 10
-33 15 -33 13 0 -1 62 -20 90 -40 58 -162 80 -227 41z"/>
<path d="M2730 256 c0 -157 4 -246 10 -246 14 0 14 477 0 485 -7 4 -10 -78
-10 -239z"/>
<path d="M2857 493 c-4 -3 -7 -114 -7 -245 l0 -238 145 0 c90 0 145 4 145 10
0 6 -52 10 -135 10 l-135 0 0 110 0 110 114 0 c66 0 117 4 121 10 4 6 -37 10
-114 10 l-121 0 0 105 0 105 135 0 c83 0 135 4 135 10 0 11 -272 14 -283 3z"/>
<path d="M3190 255 c0 -157 4 -245 10 -245 6 0 10 82 10 227 l0 226 156 -226
c85 -125 159 -227 165 -227 5 0 9 98 9 247 0 161 -3 244 -10 237 -5 -5 -11
-102 -12 -226 l-3 -216 -154 224 c-85 123 -159 224 -163 224 -4 0 -8 -110 -8
-245z"/>
</g>
</svg>
