<?xml version="1.0" standalone="no"?>
<!DOCTYPE svg PUBLIC "-//W3C//DTD SVG 20010904//EN"
 "http://www.w3.org/TR/2001/REC-SVG-20010904/DTD/svg10.dtd">
<svg version="1.0" xmlns="http://www.w3.org/2000/svg"
 width="533.000000pt" height="173.000000pt" viewBox="0 0 533.000000 173.000000"
 preserveAspectRatio="xMidYMid meet">

<g transform="translate(0.000000,173.000000) scale(0.100000,-0.100000)"
fill="#000000" stroke="none">
<path d="M3256 1522 c-44 -114 -92 -238 -108 -276 -15 -39 -26 -71 -25 -73 4
-3 325 461 333 480 2 7 -20 25 -55 45 -32 17 -60 32 -62 32 -2 0 -40 -94 -83
-208z"/>
<path d="M2833 1593 c-24 -13 -43 -29 -43 -34 0 -8 215 -325 254 -374 18 -23
18 -21 -90 258 -37 97 -70 177 -73 176 -4 -1 -25 -12 -48 -26z"/>
<path d="M1275 963 c-114 -175 -213 -324 -219 -330 -9 -10 -62 64 -225 312
-117 179 -218 325 -222 325 -5 0 -9 -206 -9 -460 l0 -460 75 0 76 0 -3 245
c-2 135 -1 245 2 245 3 -1 70 -106 148 -235 79 -129 147 -235 150 -235 4 1 70
105 147 231 77 127 143 233 148 235 4 3 7 -105 7 -240 l0 -246 70 0 70 0 0
465 c0 256 -2 465 -4 465 -2 0 -97 -143 -211 -317z"/>
<path d="M3919 1256 c-202 -56 -348 -245 -349 -451 0 -130 50 -243 147 -337
95 -90 189 -128 318 -128 118 0 205 33 287 108 l27 25 -37 53 c-20 30 -40 54
-44 54 -3 0 -19 -11 -35 -24 -123 -103 -291 -99 -412 10 -138 124 -143 332
-11 464 61 61 139 95 220 94 80 0 127 -15 186 -60 25 -20 50 -34 54 -32 5 2
25 26 45 53 l36 50 -33 28 c-104 90 -270 128 -399 93z"/>
<path d="M0 800 l0 -450 70 0 70 0 0 450 0 450 -70 0 -70 0 0 -450z"/>
<path d="M1950 801 l0 -451 75 0 75 0 0 154 0 154 118 4 c99 3 126 8 172 30
76 34 124 79 157 146 68 140 6 304 -147 384 -42 21 -58 23 -247 26 l-203 3 0
-450z m383 295 c57 -24 90 -69 95 -128 3 -43 0 -59 -20 -87 -40 -60 -79 -75
-200 -80 l-108 -3 0 156 0 156 100 0 c63 0 113 -5 133 -14z"/>
<path d="M3370 1203 c-170 -61 -177 -65 -105 -58 204 19 258 25 261 27 6 7
-12 72 -21 74 -6 1 -66 -18 -135 -43z"/>
<path d="M4700 1180 l0 -70 120 0 120 0 0 -380 0 -380 70 0 70 0 0 380 0 379
123 3 122 3 3 68 3 67 -316 0 -315 0 0 -70z"/>
<path d="M2800 1081 c-74 -9 -134 -19 -132 -23 1 -5 2 -16 2 -25 1 -48 12 -48
169 7 83 29 151 54 151 56 0 6 -44 3 -190 -15z"/>
<path d="M2860 737 c-117 -188 -220 -352 -228 -365 l-15 -23 114 3 114 3 32
95 c64 190 202 625 199 627 -1 1 -98 -152 -216 -340z"/>
<path d="M3187 849 c41 -129 93 -292 117 -364 l42 -130 112 -3 c62 -1 112 -1
112 2 0 6 -439 707 -450 720 -5 4 26 -97 67 -225z"/>
<path d="M4180 175 c0 -8 5 -15 10 -15 6 0 10 7 10 15 0 8 -4 15 -10 15 -5 0
-10 -7 -10 -15z"/>
<path d="M5010 95 c0 -57 4 -95 10 -95 6 0 10 38 10 95 0 57 -4 95 -10 95 -6
0 -10 -38 -10 -95z"/>
<path d="M3791 159 c0 -9 -9 -20 -18 -24 -17 -6 -17 -7 0 -16 12 -7 17 -23 17
-59 0 -40 4 -50 20 -55 11 -3 25 -3 32 1 9 6 5 10 -12 14 -22 5 -25 12 -28 53
-3 42 -1 47 17 47 12 0 21 5 21 10 0 6 -9 10 -19 10 -11 0 -22 8 -24 18 -4 15
-5 15 -6 1z"/>
<path d="M46 119 c-17 -13 -26 -30 -26 -49 0 -19 9 -36 26 -49 31 -25 53 -26
80 -6 17 13 16 14 -18 8 -24 -3 -43 -1 -53 7 -27 22 -16 30 40 30 63 0 71 15
30 55 -29 30 -45 31 -79 4z m72 -11 c21 -21 13 -28 -33 -28 -46 0 -54 7 -33
28 15 15 51 15 66 0z"/>
<path d="M460 133 c0 -17 55 -133 63 -133 10 0 69 131 62 138 -7 8 -11 3 -38
-58 l-24 -55 -26 58 c-23 51 -37 70 -37 50z"/>
<path d="M926 119 c-35 -28 -35 -70 0 -98 31 -25 53 -26 80 -6 17 13 16 14
-18 8 -36 -5 -68 8 -68 28 0 4 23 9 52 11 60 4 69 17 34 53 -31 30 -45 31 -80
4z m72 -11 c21 -21 13 -28 -33 -28 -46 0 -54 7 -33 28 15 15 51 15 66 0z"/>
<path d="M1370 138 c-4 -37 -1 -130 4 -135 3 -4 6 14 6 40 0 48 18 77 49 77
29 0 41 -22 41 -72 0 -26 5 -48 10 -48 13 0 13 71 1 103 -12 31 -43 42 -72 27
-17 -10 -23 -9 -30 1 -5 8 -9 11 -9 7z"/>
<path d="M1853 125 c-32 -23 -32 -87 -1 -109 28 -20 62 -20 78 -1 10 12 7 13
-22 8 -26 -4 -39 0 -53 13 -18 19 -17 19 38 22 47 2 57 6 57 21 0 45 -59 73
-97 46z m67 -20 c18 -22 9 -27 -41 -23 -41 3 -42 4 -25 21 22 21 49 22 66 2z"/>
<path d="M2290 70 c0 -81 17 -95 22 -19 2 36 8 55 21 63 30 19 52 -4 55 -63 4
-66 20 -66 24 0 2 36 8 55 21 63 30 19 52 -4 55 -63 4 -66 22 -67 22 -1 0 73
-40 109 -85 76 -16 -12 -22 -12 -42 2 -19 12 -29 12 -48 4 -15 -7 -25 -8 -25
-2 0 6 -4 10 -10 10 -6 0 -10 -30 -10 -70z"/>
<path d="M2869 122 c-47 -39 -16 -122 46 -122 12 0 28 7 35 15 10 12 7 13 -22
8 -26 -4 -39 0 -53 13 -18 19 -17 19 38 22 46 2 57 6 57 20 0 23 -11 37 -37
51 -29 15 -37 14 -64 -7z m71 -17 c18 -22 9 -27 -41 -23 -41 3 -42 4 -25 21
22 21 49 22 66 2z"/>
<path d="M3310 72 c0 -41 4 -72 10 -72 6 0 10 22 10 49 0 54 15 74 52 69 21
-3 23 -9 26 -60 4 -74 22 -76 22 -3 0 47 -3 57 -25 71 -20 13 -31 14 -49 6
-17 -7 -27 -7 -35 1 -8 8 -11 -8 -11 -61z"/>
<path d="M4187 133 c-11 -10 -8 -133 3 -133 6 0 10 30 10 70 0 70 -1 76 -13
63z"/>
<path d="M4565 115 c-14 -13 -25 -33 -25 -45 0 -26 43 -70 68 -70 10 0 27 7
38 15 17 13 16 14 -18 8 -24 -3 -43 -1 -53 7 -27 22 -16 30 40 30 48 0 55 3
55 19 0 21 -44 61 -67 61 -8 0 -25 -11 -38 -25z m73 -7 c21 -21 13 -28 -33
-28 -25 0 -45 4 -45 8 0 15 24 32 45 32 12 0 26 -5 33 -12z"/>
</g>
</svg>
