<?xml version="1.0" standalone="no"?>
<!DOCTYPE svg PUBLIC "-//W3C//DTD SVG 20010904//EN"
 "http://www.w3.org/TR/2001/REC-SVG-20010904/DTD/svg10.dtd">
<svg version="1.0" xmlns="http://www.w3.org/2000/svg"
 width="358.000000pt" height="220.000000pt" viewBox="0 0 358.000000 220.000000"
 preserveAspectRatio="xMidYMid meet">

<g transform="translate(0.000000,220.000000) scale(0.100000,-0.100000)"
fill="#000000" stroke="none">
<path d="M809 2182 c-9 -9 -30 -28 -46 -42 -16 -14 -40 -45 -54 -70 -20 -38
-24 -59 -24 -138 0 -122 0 -122 158 -122 l119 0 28 30 c15 16 30 44 34 61 6
33 22 59 37 59 8 0 66 -100 129 -222 50 -97 47 -98 143 15 l48 57 168 0 c214
0 206 -5 206 127 -1 93 -2 100 -32 143 -17 25 -50 62 -73 83 l-42 37 -129 0
c-71 0 -129 -4 -129 -8 0 -4 -15 -16 -32 -27 -18 -10 -47 -35 -65 -54 l-32
-35 -44 40 c-103 91 -85 84 -225 83 -105 -1 -130 -4 -143 -17z"/>
<path d="M1035 1811 l-28 -41 -122 0 c-185 0 -186 -8 -17 -177 91 -90 304
-248 350 -259 15 -4 94 49 254 172 65 50 228 217 228 233 0 24 -32 31 -147 31
-90 0 -131 -4 -151 -15 -15 -8 -54 -50 -87 -94 -33 -44 -67 -80 -75 -80 -9 -1
-23 14 -31 32 -45 91 -104 195 -124 216 l-23 24 -27 -42z"/>
<path d="M0 1060 l0 -600 404 0 404 0 6 23 c3 12 6 48 6 80 0 53 -2 58 -26 67
-14 6 -141 10 -288 10 -190 0 -265 3 -274 12 -9 9 -12 132 -12 490 0 567 12
518 -130 518 l-90 0 0 -600z"/>
<path d="M981 1310 c-17 -17 -44 -60 -61 -95 l-31 -65 0 -317 c0 -175 2 -330
6 -345 l7 -28 94 0 93 0 7 36 c3 19 4 153 1 296 -5 216 -3 272 10 322 8 34 21
68 29 77 8 8 14 20 14 25 0 17 -106 124 -123 124 -8 0 -29 -14 -46 -30z"/>
<path d="M2465 1256 c-122 -24 -240 -118 -292 -233 -23 -50 -27 -72 -27 -153
0 -104 16 -163 65 -235 37 -56 107 -118 157 -140 23 -11 42 -22 42 -27 0 -4
83 -8 185 -8 106 0 185 4 185 9 0 5 15 13 33 16 17 4 53 18 79 31 58 29 78 30
120 4 18 -11 50 -25 71 -31 20 -5 37 -14 37 -19 0 -6 62 -10 155 -10 85 0 155
3 155 8 0 4 13 13 29 20 16 7 50 33 75 57 l46 44 0 84 c0 82 -1 87 -32 122
-47 53 -110 97 -216 150 -144 73 -177 109 -134 148 38 34 208 16 279 -30 12
-8 32 -13 45 -11 21 3 23 8 26 75 l3 73 -53 24 c-98 46 -250 59 -345 31 -69
-21 -112 -52 -151 -110 -39 -57 -39 -96 -4 -164 37 -71 87 -110 252 -194 92
-47 140 -85 140 -111 0 -7 -12 -23 -26 -37 -23 -22 -34 -24 -112 -23 -83 0
-92 2 -184 47 -54 26 -102 47 -108 47 -6 0 -30 -11 -53 -23 -144 -80 -343 -95
-453 -34 -47 27 -104 108 -104 148 l0 29 293 0 c160 0 297 4 303 8 20 13 23
41 13 104 -37 234 -242 364 -494 314z m205 -168 c51 -26 92 -81 88 -116 l-3
-24 -195 0 c-188 -1 -195 -1 -198 19 -5 33 58 105 108 125 65 25 146 23 200
-4z"/>
<path d="M1247 1253 c-53 -9 -53 -8 78 -258 47 -88 126 -244 177 -347 l93
-187 58 -1 c39 0 57 4 57 13 0 9 134 289 180 377 84 159 180 360 180 378 0 22
-2 23 -101 20 l-101 -3 -35 -70 c-19 -38 -39 -77 -44 -85 -5 -8 -14 -26 -19
-39 -47 -108 -114 -229 -125 -225 -11 5 -75 126 -179 342 -17 35 -35 67 -41
72 -12 10 -140 19 -178 13z"/>
<path d="M382 174 l3 -169 33 -3 32 -3 0 63 0 63 34 1 c85 1 136 62 115 136
-16 59 -40 73 -135 77 l-84 3 2 -168z m142 100 c18 -18 20 -47 6 -75 -8 -13
-21 -19 -45 -19 l-35 0 0 55 c0 54 0 55 29 55 16 0 37 -7 45 -16z"/>
<path d="M780 258 c-12 -46 -30 -110 -40 -143 -35 -116 -35 -117 1 -113 27 2
34 9 44 38 10 31 16 35 51 38 39 3 41 2 50 -35 8 -33 13 -38 42 -41 22 -2 32
1 32 11 0 11 -48 183 -86 310 -4 12 -16 17 -39 17 -33 0 -33 0 -55 -82z m80
-110 c0 -13 -8 -18 -26 -18 -19 0 -24 4 -20 18 3 9 8 31 12 47 l7 30 13 -30
c7 -16 13 -38 14 -47z"/>
<path d="M1110 171 l0 -171 30 0 30 0 0 70 0 70 28 0 c37 0 52 -17 52 -60 0
-65 9 -80 46 -80 32 0 33 1 28 37 -12 90 -16 103 -34 116 -20 14 -20 14 0 32
30 28 27 95 -6 126 -21 20 -38 24 -100 27 l-74 4 0 -171z m124 103 c19 -18 21
-55 4 -72 -7 -7 -25 -12 -40 -12 -27 0 -28 2 -28 50 0 46 2 50 24 50 14 0 32
-7 40 -16z"/>
<path d="M1440 315 c0 -22 4 -25 40 -25 l40 0 0 -145 0 -145 30 0 30 0 0 145
0 145 40 0 c36 0 40 3 40 25 l0 25 -110 0 -110 0 0 -25z"/>
<path d="M1810 171 l0 -171 30 0 29 0 3 108 3 107 53 -108 c52 -107 53 -108
85 -105 l32 3 3 168 2 167 -35 0 -35 0 -1 -107 0 -108 -52 105 c-49 98 -54
105 -85 108 l-32 3 0 -170z"/>
<path d="M2210 170 l0 -170 95 0 c94 0 95 0 95 25 0 23 -4 24 -62 27 l-63 3
-3 48 -3 47 55 0 c53 0 56 1 56 24 0 23 -4 25 -52 28 l-53 3 0 40 0 40 63 3
c58 3 62 4 62 27 0 25 -1 25 -95 25 l-95 0 0 -170z"/>
<path d="M2552 173 l3 -168 30 0 30 0 3 68 c3 62 5 67 25 67 40 0 51 -16 57
-77 5 -57 5 -58 39 -61 33 -3 34 -3 27 29 -3 17 -6 47 -6 65 0 21 -7 40 -19
51 -20 16 -20 17 0 41 21 27 25 72 9 103 -18 32 -64 49 -135 49 l-65 0 2 -167z
m130 100 c35 -31 12 -83 -38 -83 -22 0 -24 4 -24 50 0 45 2 50 22 50 12 0 30
-7 40 -17z"/>
<path d="M2950 310 c-54 -58 -33 -115 62 -160 41 -19 54 -31 56 -51 6 -53 -69
-66 -82 -14 -5 20 -13 25 -36 25 -24 0 -30 -4 -30 -21 0 -55 57 -94 127 -86
53 6 80 28 89 72 9 50 -16 88 -74 113 -61 26 -76 44 -68 78 5 20 12 25 34 22
16 -2 31 -12 37 -25 7 -17 18 -23 42 -23 31 0 31 1 22 32 -13 48 -32 61 -93
66 -52 4 -57 3 -86 -28z"/>
</g>
</svg>
