<?xml version="1.0" standalone="no"?>
<!DOCTYPE svg PUBLIC "-//W3C//DTD SVG 20010904//EN"
 "http://www.w3.org/TR/2001/REC-SVG-20010904/DTD/svg10.dtd">
<svg version="1.0" xmlns="http://www.w3.org/2000/svg"
 width="208.000000pt" height="310.000000pt" viewBox="0 0 208.000000 310.000000"
 preserveAspectRatio="xMidYMid meet">

<g transform="translate(0.000000,310.000000) scale(0.100000,-0.100000)"
fill="#000000" stroke="none">
<path d="M935 3090 c-271 -42 -520 -202 -669 -429 -89 -136 -134 -253 -151
-397 l-8 -59 46 60 c225 298 610 474 989 451 200 -12 429 -88 586 -194 120
-82 255 -219 322 -327 13 -21 26 -33 28 -26 7 20 -27 187 -55 269 -104 311
-357 545 -680 628 -110 29 -304 40 -408 24z"/>
<path d="M915 2570 c-280 -44 -531 -205 -691 -446 -174 -260 -207 -611 -87
-912 32 -82 88 -176 151 -254 47 -58 47 -58 101 -58 91 0 159 -44 176 -113 4
-16 12 -24 21 -20 11 4 8 15 -11 54 -48 94 -21 225 53 259 30 14 32 17 26 53
-17 108 -1 212 50 330 6 12 -8 6 -45 -18 -67 -46 -93 -44 -97 8 -2 21 3 59 12
85 8 26 17 65 20 87 l6 40 -45 -50 c-45 -48 -118 -151 -128 -177 -2 -7 -7 -10
-11 -6 -13 11 23 130 59 193 38 68 144 175 173 175 38 0 46 -24 35 -103 -16
-111 7 -132 85 -79 68 45 178 158 200 204 11 24 23 59 26 79 6 31 3 37 -14 42
-24 6 -28 52 -5 65 13 6 13 14 4 40 -6 18 -14 32 -18 32 -10 0 -51 -48 -50
-58 1 -4 1 -25 0 -46 -1 -55 -12 -39 -59 84 -25 66 -46 106 -56 108 -9 2 -16
13 -16 24 0 18 4 20 38 15 57 -10 78 0 95 44 13 32 13 39 2 39 -20 0 -35 32
-35 74 0 26 4 36 16 36 8 0 12 -4 9 -10 -3 -5 -1 -18 4 -27 9 -16 10 -16 11 3
0 12 9 33 20 46 10 14 16 28 12 32 -10 10 19 26 49 26 15 0 32 -7 39 -15 7 -8
16 -12 21 -9 5 3 9 -1 9 -8 1 -7 8 -1 16 15 19 34 54 36 85 2 17 -18 35 -25
62 -25 50 0 73 -13 93 -52 31 -60 -7 -178 -57 -178 -10 0 -19 -4 -19 -9 0 -5
-29 -47 -64 -94 -35 -48 -70 -103 -76 -122 -18 -54 -4 -128 34 -178 32 -42 57
-58 246 -146 101 -47 170 -109 170 -152 0 -34 -7 -38 -130 -73 -52 -15 -96
-29 -99 -31 -12 -13 13 -14 85 -5 83 11 173 -2 181 -26 4 -11 -95 -34 -145
-34 -30 0 -27 -12 7 -33 52 -31 150 -139 178 -196 21 -43 28 -70 28 -116 -1
-72 -19 -110 -82 -171 l-45 -44 27 -12 c25 -11 29 -10 49 15 12 15 49 40 82
56 122 58 263 254 327 456 66 210 66 390 0 600 -102 323 -369 576 -699 661
-111 29 -304 40 -409 24z"/>
<path d="M1007 2236 c-4 -9 -13 -13 -22 -10 -18 7 -20 -17 -3 -34 28 -28 82 3
62 36 -14 22 -30 26 -37 8z"/>
<path d="M315 848 c-49 -5 -100 -11 -113 -13 l-23 -6 7 -202 c3 -111 8 -204
10 -206 1 -1 30 -6 63 -10 l61 -7 0 46 c0 47 0 47 47 65 26 10 66 35 89 57
l41 38 6 -50 c11 -92 70 -144 162 -143 28 0 64 7 82 16 38 20 83 72 83 98 0
39 18 17 23 -28 7 -64 44 -97 100 -90 21 3 47 13 58 23 18 16 19 16 19 0 0
-14 8 -17 48 -14 l47 3 3 153 3 152 -56 0 -55 0 0 -104 c0 -88 -3 -105 -17
-110 -29 -12 -36 10 -34 114 l2 101 -58 -3 -58 -3 -3 -62 c-3 -66 -16 -83 -25
-35 -20 101 -164 143 -262 76 -20 -13 -37 -24 -38 -24 -1 0 -2 25 -2 55 0 45
-4 59 -26 80 -34 35 -76 42 -184 33z m69 -141 c9 -15 5 -23 -22 -48 -18 -16
-37 -29 -42 -29 -6 0 -10 20 -10 44 0 34 4 46 18 49 28 8 44 3 56 -16z m328
-94 c24 -22 23 -39 -7 -68 -28 -29 -57 -32 -79 -9 -51 51 32 126 86 77z"/>
<path d="M1208 843 l-37 -4 6 -212 c3 -117 6 -213 7 -214 0 0 22 1 47 4 59 7
59 6 59 249 l0 184 -22 -2 c-13 -1 -40 -3 -60 -5z"/>
<path d="M1708 788 c-33 -14 -48 -27 -48 -39 0 -11 -7 -19 -15 -19 -11 0 -15
-12 -15 -44 0 -30 5 -46 15 -50 12 -4 15 -24 15 -90 0 -90 8 -108 57 -127 29
-11 70 -12 76 -1 3 4 8 26 11 48 6 36 5 42 -13 47 -18 4 -21 13 -21 66 0 54 2
61 20 61 17 0 20 7 20 45 0 38 -3 45 -20 45 -17 0 -20 7 -20 40 0 22 -3 40 -7
40 -5 -1 -29 -10 -55 -22z"/>
<path d="M1410 724 c-19 -8 -43 -22 -53 -32 -41 -36 -58 -121 -37 -176 9 -24
14 -25 92 -28 l83 -3 3 -32 c3 -28 7 -33 28 -33 27 0 84 26 84 38 0 4 -11 23
-23 44 -21 34 -24 35 -47 22 -29 -15 -70 -18 -70 -5 0 5 32 33 70 62 39 28 70
58 70 66 0 24 -54 70 -96 82 -50 14 -62 13 -104 -5z m85 -84 c6 -9 -52 -69
-67 -70 -14 0 -8 48 8 64 17 18 50 21 59 6z"/>
<path d="M1368 443 l-28 -4 0 -215 0 -214 38 0 c21 0 43 5 49 11 8 8 17 8 31
0 50 -26 143 -3 181 45 21 27 31 30 31 11 0 -23 45 -57 82 -63 23 -4 46 0 66
10 30 15 32 15 32 0 0 -13 6 -15 31 -10 17 3 42 6 55 6 24 0 24 0 24 124 0
115 -2 127 -22 151 -28 32 -87 47 -155 39 -58 -7 -68 -14 -77 -60 l-7 -31 45
10 c55 12 96 -2 96 -32 0 -18 -3 -19 -30 -9 -37 12 -87 4 -112 -18 -16 -16
-18 -15 -24 2 -19 58 -30 77 -62 105 -33 30 -39 31 -96 27 l-61 -5 3 63 4 64
-34 -1 c-18 -1 -45 -4 -60 -6z m176 -236 c12 -9 17 -23 14 -42 -7 -64 -108
-69 -108 -6 0 49 55 77 94 48z m281 -87 c0 -22 -5 -25 -38 -28 -28 -2 -39 1
-44 14 -8 22 24 46 57 42 19 -2 25 -9 25 -28z"/>
<path d="M77 378 c-32 -14 -47 -27 -47 -39 0 -11 -7 -19 -15 -19 -11 0 -15
-12 -15 -45 0 -33 4 -45 15 -45 12 0 15 -15 15 -79 0 -44 3 -87 6 -96 9 -23
57 -45 98 -45 34 0 36 2 42 40 6 37 24 57 24 27 0 -23 45 -57 82 -63 22 -4 46
-1 64 9 23 12 30 13 39 2 7 -10 24 -12 58 -8 l47 6 0 123 c0 113 -2 125 -22
149 -28 32 -87 47 -156 39 -54 -7 -63 -14 -75 -65 l-7 -26 45 10 c54 12 95 -2
95 -33 0 -17 -3 -18 -26 -10 -49 19 -84 12 -120 -24 -19 -19 -34 -43 -34 -55
0 -14 -6 -21 -19 -21 -23 0 -31 19 -31 72 0 31 4 41 20 45 19 5 21 12 20 90 0
4 -8 8 -18 8 -12 0 -18 10 -20 38 -2 20 -6 37 -10 37 -4 -1 -28 -10 -55 -22z
m278 -258 c0 -22 -5 -25 -38 -28 -28 -2 -39 1 -44 14 -8 22 24 46 57 42 19 -2
25 -9 25 -28z"/>
<path d="M1092 333 c-32 -4 -38 -11 -56 -70 -6 -20 -5 -21 33 -11 50 13 87 4
102 -23 14 -27 9 -31 -27 -17 -45 17 -100 3 -126 -32 -19 -26 -24 -28 -37 -16
-9 8 -33 21 -53 29 -21 9 -38 20 -38 26 0 14 35 23 64 15 25 -6 26 -5 26 40 0
41 -3 46 -25 52 -14 4 -51 4 -81 2 -84 -7 -130 -64 -104 -129 11 -25 62 -59
89 -59 19 0 12 -28 -9 -35 -10 -3 -34 -3 -53 0 -25 5 -36 14 -44 36 -8 20 -25
35 -57 49 -25 10 -46 24 -46 29 0 14 35 23 64 15 25 -6 26 -5 26 40 0 41 -3
46 -25 52 -14 4 -51 4 -81 2 -72 -6 -104 -35 -104 -93 0 -47 26 -79 73 -90 58
-15 16 -53 -44 -40 l-30 7 3 -49 3 -48 72 -3 c75 -3 128 14 140 44 9 23 21 16
25 -13 3 -27 5 -28 72 -31 76 -3 119 9 142 42 14 20 16 20 25 3 13 -22 61 -47
91 -47 13 0 36 7 52 15 35 19 36 19 36 -1 0 -12 6 -15 23 -10 12 3 34 6 48 6
26 0 26 0 32 106 7 118 -3 161 -45 188 -25 16 -105 26 -156 19z m68 -198 c18
-22 -5 -45 -45 -45 -38 0 -49 17 -27 43 19 21 55 22 72 2z"/>
</g>
</svg>
