<?xml version="1.0" standalone="no"?>
<!DOCTYPE svg PUBLIC "-//W3C//DTD SVG 20010904//EN"
 "http://www.w3.org/TR/2001/REC-SVG-20010904/DTD/svg10.dtd">
<svg version="1.0" xmlns="http://www.w3.org/2000/svg"
 width="480.000000pt" height="229.000000pt" viewBox="0 0 480.000000 229.000000"
 preserveAspectRatio="xMidYMid meet">

<g transform="translate(0.000000,229.000000) scale(0.100000,-0.100000)"
fill="#000000" stroke="none">
<path d="M3567 2280 c-3 -8 -8 -24 -10 -35 -3 -11 -26 -78 -52 -150 -79 -223
-95 -274 -95 -305 0 -16 -5 -32 -11 -35 -13 -9 -25 -40 -56 -145 -13 -47 -28
-94 -33 -105 -5 -11 -14 -32 -20 -47 -11 -32 3 -30 -268 -28 l-153 1 3 -88 3
-88 255 1 c140 1 263 2 272 3 18 2 26 22 82 191 19 58 43 128 54 156 13 33 17
55 11 65 -13 20 -11 28 6 25 24 -4 30 -15 69 -135 20 -62 42 -123 48 -135 7
-11 13 -30 15 -42 2 -11 11 -45 21 -75 l17 -54 247 0 c231 0 245 -1 237 -17
-5 -10 -14 -18 -20 -18 -9 0 -115 -74 -129 -89 -3 -3 -17 -13 -31 -21 -15 -8
-67 -43 -117 -77 l-90 -62 35 -98 c19 -54 41 -119 49 -144 8 -26 22 -64 31
-85 9 -22 18 -46 19 -54 0 -8 4 -26 9 -39 10 -33 -4 -26 -120 54 -65 46 -98
63 -111 58 -13 -5 -16 -3 -11 10 7 18 -31 47 -62 47 -12 0 -18 5 -16 12 6 17
-62 61 -82 54 -39 -15 -143 -99 -143 -116 0 -14 -6 -18 -22 -15 -29 5 -180
-99 -172 -118 3 -10 -4 -14 -26 -14 -16 0 -30 3 -30 6 0 3 12 38 26 76 14 39
47 135 74 215 45 134 48 146 33 162 -12 13 -31 18 -70 18 -76 0 -110 -20 -123
-73 -6 -23 -16 -53 -22 -67 -20 -47 -27 -65 -63 -180 -20 -63 -41 -124 -46
-135 -5 -11 -27 -74 -49 -140 -97 -292 -111 -331 -120 -347 -15 -26 -6 -23 68
26 113 75 166 120 172 146 5 20 12 24 34 22 32 -3 136 60 136 83 0 8 6 12 13
10 6 -2 77 41 157 96 80 56 155 106 167 112 23 10 56 -10 263 -158 41 -30 80
-54 87 -54 7 -1 22 -11 35 -24 24 -24 133 -101 242 -172 34 -22 80 -55 101
-72 22 -18 43 -33 46 -33 7 0 -92 304 -110 337 -5 10 -14 36 -19 58 -6 22 -42
134 -82 248 -55 159 -69 211 -60 222 6 7 61 47 123 89 62 42 173 119 247 171
74 51 186 128 248 170 61 42 115 81 118 86 3 6 -93 9 -248 9 -139 0 -351 0
-470 0 l-218 0 -6 28 c-5 26 -32 101 -59 167 -7 17 -22 66 -34 110 -12 44 -26
89 -31 100 -4 11 -20 56 -35 100 -15 44 -34 85 -42 92 -8 6 -12 17 -8 23 10
17 -5 70 -21 70 -8 0 -14 3 -14 8 -6 97 -31 186 -43 152z"/>
<path d="M765 2121 c-399 -94 -745 -387 -763 -647 -4 -65 -2 -77 24 -123 55
-102 153 -146 319 -145 156 2 316 52 470 150 49 30 90 52 92 50 3 -3 -16 -42
-42 -88 -107 -188 -137 -263 -106 -263 8 0 45 50 83 110 104 169 207 323 267
402 l54 71 71 7 c105 9 146 16 146 25 0 15 -81 20 -355 20 -282 0 -374 -9
-442 -42 -65 -32 -23 -64 65 -49 70 12 369 34 400 30 21 -4 20 -7 -22 -58
-109 -132 -370 -281 -564 -320 -184 -38 -345 27 -371 149 -23 106 26 222 144
348 194 206 426 318 683 330 127 5 186 -9 222 -55 69 -88 -53 -213 -216 -221
-67 -4 -72 -3 -92 23 -15 19 -22 42 -22 74 0 55 -14 84 -30 61 -15 -24 -12
-92 8 -130 36 -73 126 -86 240 -34 198 88 232 243 70 315 -73 32 -220 36 -333
10z"/>
<path d="M2109 1888 c-56 -58 -216 -290 -249 -363 -25 -54 -160 -193 -212
-218 -64 -30 -90 1 -62 74 10 24 51 93 92 152 60 88 72 110 62 122 -7 8 -23
15 -36 15 -13 0 -25 8 -29 19 -3 10 -19 24 -35 31 -87 36 -274 -79 -387 -237
-77 -109 -71 -198 16 -224 53 -16 80 -4 168 72 l68 59 10 -40 c28 -110 117
-110 233 -1 18 17 37 31 42 31 5 0 10 -19 12 -42 2 -31 10 -46 30 -61 60 -45
159 -15 264 78 l49 44 3 -42 c4 -51 41 -94 89 -103 39 -7 93 21 170 90 28 25
54 46 57 46 3 0 6 -15 6 -34 0 -50 37 -90 82 -89 19 0 50 9 69 18 37 19 131
111 193 188 70 86 29 62 -69 -41 -133 -140 -215 -177 -215 -96 0 43 21 83 104
203 36 52 66 101 66 108 0 7 -12 16 -27 19 -16 4 -40 20 -55 36 -30 32 -53 34
-123 14 -75 -23 -144 -75 -298 -228 -152 -151 -220 -198 -288 -198 -115 0 -57
126 229 495 106 136 112 155 51 155 -20 0 -41 -14 -80 -52z m-449 -231 c0 -18
-148 -209 -217 -278 -64 -66 -138 -107 -162 -92 -9 6 -17 25 -19 44 -5 61 84
174 218 276 68 52 180 83 180 50z m954 5 c2 -4 -29 -52 -70 -107 -142 -190
-263 -292 -313 -265 -48 25 -5 125 96 224 58 58 153 129 195 146 29 11 85 13
92 2z"/>
<path d="M43 1073 c-22 -8 -14 -20 17 -27 l31 -6 -3 -157 c-3 -157 -3 -157
-27 -163 -14 -3 -26 -11 -29 -18 -6 -19 243 -16 299 3 80 29 122 87 122 171 0
100 -63 175 -162 194 -55 10 -226 13 -248 3z m269 -70 c63 -63 56 -209 -11
-260 -23 -17 -81 -24 -102 -12 -17 9 -19 24 -19 161 l0 151 51 -5 c39 -4 58
-12 81 -35z"/>
<path d="M1250 1066 c0 -8 11 -17 24 -20 25 -6 25 -8 28 -139 4 -174 2 -187
-28 -187 -15 0 -24 -6 -24 -15 0 -12 18 -15 101 -15 76 0 100 3 97 13 -3 6
-13 14 -24 16 -28 5 -34 19 -34 84 l0 57 50 0 c53 0 112 19 142 47 26 23 25
104 -1 127 -37 33 -92 45 -213 46 -94 0 -118 -3 -118 -14z m243 -48 c17 -21
23 -73 9 -95 -10 -15 -57 -33 -88 -33 -23 0 -24 2 -24 73 0 41 3 76 6 80 12
12 80 -6 97 -25z"/>
<path d="M1640 1062 c0 -4 14 -13 30 -19 l30 -11 0 -144 c0 -78 -4 -148 -8
-154 -4 -7 -16 -13 -26 -15 -11 -2 -21 -10 -24 -16 -3 -10 16 -13 73 -13 56 0
76 3 73 12 -3 7 -15 15 -29 18 -24 6 -24 8 -27 133 -1 70 1 127 5 127 4 -1 39
-66 78 -146 38 -79 74 -143 80 -141 5 2 42 68 82 148 l72 144 -2 -130 c-2
-126 -3 -130 -24 -133 -13 -2 -23 -10 -23 -18 0 -11 20 -14 101 -14 76 0 100
3 97 13 -3 6 -13 14 -24 16 -10 2 -22 8 -26 15 -4 6 -8 76 -8 154 l0 144 30
11 c49 18 35 27 -44 27 l-74 0 -63 -130 c-34 -71 -65 -130 -68 -130 -3 0 -34
59 -69 130 l-62 130 -75 0 c-41 0 -75 -4 -75 -8z"/>
<path d="M2230 1065 c0 -2 14 -12 30 -20 l31 -16 -3 -151 c-3 -150 -3 -152
-26 -158 -13 -3 -24 -9 -25 -15 -1 -6 64 -11 175 -13 l177 -2 6 54 c11 83 -12
104 -39 37 -8 -22 -24 -45 -35 -50 -27 -15 -114 -14 -129 1 -7 7 -12 39 -12
75 l0 63 41 0 c32 0 42 -4 46 -20 3 -11 12 -20 19 -20 10 0 14 16 14 60 0 45
-3 60 -14 60 -8 0 -18 -9 -21 -20 -5 -16 -15 -20 -46 -20 l-39 0 0 65 0 65 65
0 c64 0 66 -1 86 -35 12 -19 25 -35 30 -35 5 0 9 23 9 50 l0 50 -170 0 c-93 0
-170 -2 -170 -5z"/>
<path d="M581 913 c-100 -50 -91 -188 16 -223 48 -17 120 -7 146 19 28 27 14
39 -22 18 -58 -34 -115 -11 -127 51 l-6 32 91 0 c101 0 105 4 75 61 -28 54
-108 74 -173 42z m103 -35 c24 -34 20 -38 -39 -38 -30 0 -55 3 -55 8 0 20 34
52 55 52 13 0 31 -10 39 -22z"/>
<path d="M863 915 c-18 -8 -38 -25 -44 -39 -20 -43 8 -72 99 -99 61 -19 77
-27 77 -43 0 -16 -8 -19 -57 -22 -51 -3 -61 0 -83 23 -14 14 -28 25 -30 25 -3
0 -5 -17 -5 -37 l0 -38 81 -3 c126 -4 180 35 147 106 -10 21 -27 31 -73 45
-89 28 -107 36 -103 50 3 7 26 13 53 15 37 3 55 -2 78 -18 33 -25 51 -16 45
20 -3 21 -9 23 -78 26 -49 2 -86 -2 -107 -11z"/>
<path d="M1277 522 c-8 -11 4 -62 14 -62 5 0 9 16 9 35 0 32 -12 46 -23 27z"/>
<path d="M1188 491 c4 -28 2 -30 -34 -33 -31 -2 -42 -9 -52 -31 -18 -36 -7
-81 22 -95 12 -5 42 -8 67 -5 l44 5 -3 94 c-3 90 -4 94 -26 94 -19 0 -22 -4
-18 -29z m-3 -97 c0 -42 -3 -49 -20 -49 -16 0 -21 8 -23 38 -3 39 12 71 32 64
6 -2 11 -26 11 -53z"/>
<path d="M1761 506 c-16 -19 -6 -36 20 -36 15 0 20 6 17 22 -4 27 -21 33 -37
14z"/>
<path d="M657 496 c-4 -9 3 -16 18 -18 20 -4 22 -3 12 14 -14 22 -23 23 -30 4z"/>
<path d="M470 477 c-62 -31 -44 -140 25 -153 20 -3 39 -4 42 0 4 3 -3 6 -15 6
-27 0 -42 28 -42 77 0 44 15 69 45 76 16 4 15 5 -5 6 -14 0 -36 -5 -50 -12z"/>
<path d="M808 478 c-4 -10 -17 -18 -30 -18 -17 0 -19 -3 -10 -12 7 -7 12 -31
12 -53 0 -51 26 -81 62 -69 l23 7 -23 8 c-18 7 -22 16 -22 53 0 32 5 48 18 55
15 9 15 10 0 11 -9 0 -18 8 -20 18 -3 16 -4 16 -10 0z"/>
<path d="M1335 410 c0 -79 0 -80 25 -80 25 0 25 1 25 80 0 79 0 80 -25 80 -25
0 -25 -1 -25 -80z"/>
<path d="M550 473 c0 -5 7 -17 15 -27 14 -19 15 -19 15 7 0 17 -5 27 -15 27
-8 0 -15 -3 -15 -7z"/>
<path d="M632 450 c-51 -21 -48 -97 6 -119 52 -22 102 8 102 59 0 54 -52 82
-108 60z m62 -33 c12 -32 -3 -82 -24 -82 -19 0 -32 57 -20 90 12 32 31 28 44
-8z"/>
<path d="M890 440 c-26 -26 -26 -72 0 -95 24 -22 84 -25 103 -6 10 10 6 10
-17 1 -24 -9 -32 -7 -47 6 -29 26 -23 34 26 34 41 0 45 2 45 24 0 50 -73 73
-110 36z m68 -23 c3 -21 -1 -27 -17 -27 -27 0 -34 15 -21 40 15 28 34 21 38
-13z"/>
<path d="M1422 453 c26 -55 63 -123 68 -123 3 0 11 14 17 30 6 17 7 30 3 30
-5 0 -14 16 -21 35 -11 29 -18 35 -42 35 -16 0 -27 -3 -25 -7z"/>
<path d="M1535 450 c3 -5 8 -10 11 -10 2 0 4 5 4 10 0 6 -5 10 -11 10 -5 0 -7
-4 -4 -10z"/>
<path d="M1595 435 c-47 -46 -18 -109 50 -109 69 0 100 73 49 113 -35 28 -69
26 -99 -4z m73 -39 c4 -55 -9 -76 -33 -56 -9 7 -15 29 -15 55 0 46 6 57 30 53
10 -2 16 -18 18 -52z"/>
<path d="M1755 395 c0 -63 1 -65 25 -65 24 0 25 1 22 65 -3 59 -6 65 -25 65
-20 0 -22 -5 -22 -65z"/>
<path d="M1850 395 c0 -62 1 -65 24 -65 22 0 24 5 28 53 5 66 1 77 -28 77 -23
0 -24 -3 -24 -65z"/>
<path d="M1918 454 c-4 -3 0 -13 8 -21 16 -17 48 -10 42 10 -5 13 -40 22 -50
11z"/>
<path d="M2000 440 c-53 -53 11 -140 81 -110 23 9 23 9 -5 7 -20 -1 -33 5 -43
21 -15 22 -15 22 31 22 39 0 46 3 46 20 0 28 -35 60 -65 60 -14 0 -34 -9 -45
-20z m70 -31 c0 -12 -7 -19 -20 -19 -14 0 -20 7 -20 23 0 13 3 27 7 30 10 11
33 -13 33 -34z"/>
</g>
</svg>
