<?xml version="1.0" standalone="no"?>
<!DOCTYPE svg PUBLIC "-//W3C//DTD SVG 20010904//EN"
 "http://www.w3.org/TR/2001/REC-SVG-20010904/DTD/svg10.dtd">
<svg version="1.0" xmlns="http://www.w3.org/2000/svg"
 width="278.000000pt" height="223.000000pt" viewBox="0 0 278.000000 223.000000"
 preserveAspectRatio="xMidYMid meet">

<g transform="translate(0.000000,223.000000) scale(0.100000,-0.100000)"
fill="#000000" stroke="none">
<path d="M1285 2211 c-212 -61 -370 -217 -437 -431 -33 -109 -31 -254 5 -366
61 -186 198 -329 383 -401 91 -34 266 -44 364 -19 127 32 300 139 300 186 0
24 -37 50 -59 42 -9 -3 -34 -21 -56 -39 -22 -19 -67 -47 -100 -63 -239 -114
-528 -36 -679 183 -121 175 -121 429 0 604 72 105 188 186 309 218 77 20 199
19 280 -1 52 -13 68 -14 80 -4 18 15 20 54 2 68 -50 42 -282 55 -392 23z"/>
<path d="M1340 2062 c-212 -56 -360 -252 -360 -479 0 -76 13 -103 49 -103 33
0 42 26 45 118 2 79 6 97 36 158 134 273 499 312 676 72 53 -73 76 -140 83
-248 l6 -85 30 -3 c42 -5 55 19 55 99 0 179 -112 359 -270 435 -116 56 -229
68 -350 36z"/>
<path d="M1333 1873 c-57 -20 -138 -94 -171 -157 -23 -44 -27 -63 -27 -141 0
-75 4 -98 24 -139 49 -100 153 -171 264 -183 72 -7 99 7 95 50 -3 32 -4 32
-69 39 -143 14 -229 101 -229 232 0 126 100 226 226 226 46 0 65 4 77 18 21
23 21 36 1 56 -20 21 -133 20 -191 -1z"/>
<path d="M22 888 c-9 -12 -12 -65 -10 -209 l3 -194 98 -3 c119 -3 166 8 217
54 107 97 85 266 -42 332 -61 31 -245 45 -266 20z m240 -127 c32 -36 37 -84
13 -131 -20 -39 -43 -50 -104 -50 l-51 0 0 111 0 111 57 -4 c48 -4 61 -10 85
-37z"/>
<path d="M497 894 c-4 -4 -7 -29 -7 -56 0 -36 4 -48 15 -48 25 0 17 -29 -11
-36 -20 -5 -24 -12 -22 -33 3 -22 7 -26 33 -23 67 8 100 61 93 152 l-3 45 -45
3 c-25 2 -49 0 -53 -4z"/>
<path d="M697 697 c-48 -113 -87 -207 -87 -211 0 -3 23 -6 50 -6 51 0 51 0 70
45 l19 45 79 0 79 0 17 -45 c18 -45 18 -45 66 -45 27 0 51 3 53 8 2 4 -35 97
-82 207 l-86 200 -46 3 -45 3 -87 -204z m149 18 c20 -49 18 -55 -21 -55 -19 0
-35 2 -35 5 0 10 32 85 37 85 2 0 11 -16 19 -35z"/>
<path d="M1176 698 c-47 -112 -86 -206 -86 -210 0 -5 23 -8 50 -8 51 0 51 0
70 45 l19 45 79 0 78 0 15 -42 c15 -41 18 -43 59 -46 23 -2 48 -1 56 2 9 4
-11 59 -75 208 l-87 203 -46 3 -45 3 -87 -203z m150 17 c20 -49 18 -55 -21
-55 -19 0 -35 2 -35 5 0 10 32 85 37 85 2 0 11 -16 19 -35z"/>
<path d="M1617 893 c-4 -3 -7 -98 -7 -210 l0 -203 50 0 49 0 3 63 c3 58 4 62
29 65 22 3 32 -6 69 -62 l42 -66 59 0 c33 0 59 3 59 6 0 4 -21 35 -46 70 l-45
64 35 33 c43 41 55 94 35 151 -26 72 -82 95 -240 96 -47 0 -89 -3 -92 -7z
m214 -103 c26 -15 26 -66 -1 -80 -12 -6 -42 -10 -68 -8 l-47 3 -3 48 -3 47 51
0 c28 0 60 -5 71 -10z"/>
<path d="M2015 889 c-4 -5 27 -64 69 -130 l76 -120 0 -80 0 -79 50 0 50 0 0
80 0 79 75 118 c41 65 75 124 75 131 0 8 -16 12 -48 12 -55 0 -61 -5 -113 -92
-18 -32 -36 -58 -39 -58 -3 0 -25 34 -48 75 l-44 75 -48 0 c-27 0 -52 -5 -55
-11z"/>
<path d="M2533 885 c-41 -18 -73 -69 -73 -118 0 -57 46 -99 139 -127 63 -19
72 -24 69 -43 -3 -19 -9 -22 -53 -22 -36 1 -60 7 -82 23 l-31 22 -31 -39 -32
-40 46 -27 c109 -63 227 -51 275 29 53 87 4 160 -132 197 -59 16 -75 32 -53
54 21 21 40 20 94 -4 24 -11 45 -20 46 -20 10 0 45 72 39 81 -25 41 -158 62
-221 34z"/>
<path d="M0 420 c0 -7 465 -10 1375 -10 910 0 1375 3 1375 10 0 7 -465 10
-1375 10 -910 0 -1375 -3 -1375 -10z"/>
<path d="M102 349 c-65 -32 -97 -87 -97 -163 1 -72 20 -114 70 -152 62 -47
165 -43 230 8 25 19 25 21 9 39 -16 18 -18 18 -61 -8 -88 -51 -181 -5 -190 94
-12 122 104 193 200 123 26 -20 31 -21 44 -7 23 22 9 45 -39 67 -56 26 -113
25 -166 -1z"/>
<path d="M506 360 c-34 -11 -82 -54 -102 -92 -8 -15 -14 -53 -14 -84 0 -77 33
-134 95 -164 152 -73 308 69 254 231 -30 90 -134 138 -233 109z m134 -68 c35
-27 50 -59 50 -115 0 -133 -177 -173 -234 -53 -21 44 -20 71 3 122 32 71 118
93 181 46z"/>
<path d="M1335 361 c-51 -21 -79 -82 -60 -128 17 -39 46 -59 110 -73 80 -18
107 -57 65 -95 -25 -23 -96 -16 -138 13 -28 21 -30 21 -46 3 -15 -16 -15 -19
2 -34 28 -26 88 -47 132 -47 56 0 99 24 116 66 27 64 -8 116 -96 140 -98 28
-127 64 -78 98 30 21 66 20 109 -3 37 -20 59 -14 59 16 0 34 -124 64 -175 44z"/>
<path d="M2560 363 c-8 -3 -27 -17 -42 -31 -21 -20 -28 -35 -28 -65 0 -54 38
-91 110 -106 83 -18 113 -57 72 -94 -26 -24 -80 -21 -129 7 -39 23 -42 23 -57
7 -15 -16 -15 -19 2 -34 28 -26 88 -47 132 -47 56 0 99 24 116 66 27 64 -8
116 -96 140 -98 28 -127 64 -78 98 30 21 61 20 107 -4 37 -19 39 -19 55 -1 19
20 14 27 -41 55 -31 16 -92 20 -123 9z"/>
<path d="M850 186 c0 -107 4 -177 10 -181 6 -3 19 -3 30 0 18 6 20 17 22 130
l3 124 103 -130 c71 -89 109 -129 120 -127 15 3 17 23 20 181 l2 177 -25 0
-25 0 0 -120 c0 -66 -4 -120 -9 -120 -5 0 -51 54 -102 120 -80 101 -98 120
-121 120 l-28 0 0 -174z"/>
<path d="M1622 183 l3 -178 130 0 130 0 0 25 c0 25 -1 25 -102 28 l-103 3 0
49 0 50 90 0 c89 0 90 0 90 25 0 25 -1 25 -89 25 l-89 0 -4 46 c-2 25 -1 47 1
50 2 2 49 4 103 4 98 0 98 0 98 25 l0 25 -130 0 -130 0 2 -177z"/>
<path d="M1987 353 c-4 -3 -7 -80 -7 -170 0 -161 0 -164 23 -172 12 -5 25 -7
30 -4 4 2 7 83 7 179 l0 174 -23 0 c-13 0 -27 -3 -30 -7z"/>
<path d="M2162 183 l3 -178 110 -1 c60 -1 115 0 121 3 6 2 11 14 10 26 -1 21
-6 22 -98 25 l-98 3 0 149 0 150 -25 0 -25 0 2 -177z"/>
</g>
</svg>
