<?xml version="1.0" standalone="no"?>
<!DOCTYPE svg PUBLIC "-//W3C//DTD SVG 20010904//EN"
 "http://www.w3.org/TR/2001/REC-SVG-20010904/DTD/svg10.dtd">
<svg version="1.0" xmlns="http://www.w3.org/2000/svg"
 width="405.000000pt" height="164.000000pt" viewBox="0 0 405.000000 164.000000"
 preserveAspectRatio="xMidYMid meet">

<g transform="translate(0.000000,164.000000) scale(0.100000,-0.100000)"
fill="#000000" stroke="none">
<path d="M2000 1625 c0 -8 -9 -15 -20 -15 -84 0 -218 -132 -246 -244 l-6 -26
134 0 135 0 164 -140 c90 -77 168 -140 174 -140 37 0 67 189 46 292 -24 113
-135 235 -232 255 -17 3 -33 12 -36 19 -8 21 -113 19 -113 -1z"/>
<path d="M1571 1283 c0 -5 46 -47 102 -95 56 -48 169 -144 251 -215 82 -70
188 -160 236 -199 l86 -72 90 13 c93 14 224 52 224 65 0 8 -35 38 -265 235
-64 55 -162 139 -217 188 l-100 87 -204 0 c-112 0 -204 -3 -203 -7z"/>
<path d="M1443 1199 c-45 -37 -73 -68 -73 -80 0 -16 -7 -19 -45 -19 -25 0 -45
-4 -45 -10 0 -5 4 -10 10 -10 9 0 36 -22 218 -180 164 -142 173 -148 253 -164
41 -8 103 -18 139 -21 58 -6 63 -5 47 8 -9 8 -57 48 -105 90 -302 261 -335
287 -363 287 -15 0 -30 4 -33 9 -3 5 23 33 59 62 60 50 63 55 48 71 -9 10 -21
18 -27 17 -6 0 -44 -27 -83 -60z"/>
<path d="M1164 1018 c-38 -35 -109 -96 -157 -137 -48 -40 -86 -76 -83 -78 13
-13 83 22 143 73 172 145 203 176 192 190 -6 8 -15 14 -18 14 -4 0 -39 -28
-77 -62z"/>
<path d="M1249 968 c-1 -2 -2 -27 -4 -56 -1 -39 2 -55 13 -59 8 -3 18 0 22 8
7 11 13 11 35 -1 33 -18 52 -2 36 29 -9 16 -9 26 0 42 17 32 -3 47 -37 28 -21
-11 -28 -11 -31 -1 -4 10 -30 18 -34 10z"/>
<path d="M1072 770 c-35 -5 -69 -13 -75 -18 -7 -5 -26 -13 -44 -17 -47 -10
-123 -48 -181 -92 -55 -40 -61 -53 -15 -30 62 31 195 50 324 45 134 -6 153 -9
364 -74 77 -23 169 -49 205 -58 109 -25 317 -48 379 -41 145 17 289 48 337 73
11 5 37 17 58 27 69 29 206 130 206 150 0 4 -6 3 -12 -2 -23 -17 -121 -51
-193 -67 -169 -37 -311 -45 -442 -26 -38 5 -104 14 -148 19 -96 12 -167 27
-345 74 -149 39 -303 53 -418 37z"/>
<path d="M774 556 c-85 -31 -205 -98 -144 -81 14 4 39 13 55 20 80 35 164 45
361 45 109 0 195 2 192 5 -3 3 -37 14 -76 25 -53 15 -101 20 -184 19 -101 0
-122 -4 -204 -33z"/>
<path d="M290 450 c-19 -10 -59 -29 -87 -41 -29 -12 -53 -28 -53 -35 0 -12 5
-12 30 1 26 14 60 20 60 12 0 -2 -9 -29 -19 -60 -28 -82 -135 -242 -170 -257
-16 -6 -31 -20 -34 -31 -6 -24 0 -24 42 2 40 24 69 58 128 147 24 37 49 67 56
67 14 0 11 -72 -4 -112 -10 -28 1 -30 39 -6 36 24 52 39 52 53 0 17 80 99 93
94 8 -3 12 -38 11 -113 -2 -127 4 -135 68 -97 36 21 38 25 22 34 -16 9 -19 23
-19 94 1 70 5 91 27 134 15 27 36 58 48 69 18 16 28 55 15 55 -18 0 -86 -54
-101 -80 -10 -17 -45 -52 -78 -78 -84 -67 -84 -67 -92 -59 -7 7 12 186 23 214
7 18 -16 16 -57 -7z"/>
<path d="M3302 274 c-24 -17 -29 -56 -9 -72 7 -6 30 -17 52 -24 47 -16 64 -40
46 -62 -21 -25 -66 -20 -86 10 -11 17 -20 23 -27 16 -15 -15 12 -51 50 -63 46
-15 96 14 100 58 4 36 -20 57 -80 74 -39 10 -47 26 -26 47 18 18 46 14 60 -8
15 -23 38 -27 38 -6 0 20 -39 46 -70 46 -14 0 -36 -7 -48 -16z"/>
<path d="M3542 278 c-16 -20 -81 -186 -74 -192 10 -11 19 -6 30 19 10 22 18
25 61 25 44 0 49 -3 55 -25 6 -25 37 -36 35 -12 -2 25 -74 191 -85 194 -6 2
-16 -2 -22 -9z m33 -74 c19 -47 20 -44 -16 -44 -29 0 -30 1 -24 33 13 58 19
60 40 11z"/>
<path d="M3706 277 c-14 -10 -16 -26 -14 -101 2 -61 7 -91 16 -94 8 -2 12 9
12 36 0 23 6 45 15 52 13 11 22 6 55 -30 22 -24 40 -47 40 -52 0 -4 5 -8 10
-8 17 0 11 30 -12 63 l-22 30 22 15 c30 19 29 66 0 86 -27 19 -97 21 -122 3z
m105 -33 c20 -24 -1 -49 -42 -49 -31 0 -34 3 -37 33 -3 30 -2 32 31 32 19 0
40 -7 48 -16z"/>
<path d="M3915 277 c-3 -7 -5 -54 -3 -103 l3 -89 68 -3 c37 -2 67 1 67 6 0 14
-26 22 -71 22 l-39 0 0 84 c0 78 -12 118 -25 83z"/>
<path d="M582 173 l3 -98 65 0 c53 0 65 3 68 17 3 13 -6 17 -40 20 -35 2 -43
7 -43 23 0 16 7 20 35 21 28 0 35 4 35 20 0 15 -8 20 -38 22 -30 3 -37 7 -35
20 3 13 13 17 41 16 30 -1 37 2 37 17 0 17 -8 19 -65 19 l-66 0 3 -97z"/>
<path d="M750 239 c0 -18 12 -48 31 -74 21 -29 29 -49 25 -63 -8 -24 7 -36 33
-27 12 3 17 12 15 23 -3 9 11 42 31 72 40 61 42 93 8 98 -19 3 -23 -1 -23 -21
0 -14 -9 -35 -20 -48 l-20 -24 -20 25 c-11 14 -20 35 -20 48 0 15 -6 22 -20
22 -16 0 -20 -7 -20 -31z"/>
<path d="M952 173 l3 -98 65 0 c53 0 65 3 68 17 3 13 -6 17 -40 20 -35 2 -43
7 -43 23 0 16 7 20 35 21 28 0 35 4 35 20 0 15 -8 20 -38 22 -30 3 -37 7 -35
20 3 12 13 17 38 16 34 0 54 12 44 28 -3 4 -34 8 -70 8 l-65 0 3 -97z"/>
<path d="M1130 169 c0 -98 0 -100 23 -97 16 2 22 10 23 28 2 45 4 50 19 50 8
0 21 -15 29 -34 16 -38 31 -50 52 -42 13 5 13 10 -2 38 -15 29 -15 34 0 59 38
64 9 99 -82 99 l-62 0 0 -101z m107 45 c7 -20 -22 -45 -43 -37 -8 3 -14 16
-14 29 0 19 5 24 25 24 15 0 28 -7 32 -16z"/>
<path d="M1408 175 c-3 -83 -1 -96 14 -101 32 -10 38 6 38 102 0 93 0 94 -24
94 -24 0 -25 -2 -28 -95z"/>
<path d="M1504 257 c-3 -8 -4 -52 -2 -98 3 -76 5 -84 23 -84 14 0 21 8 23 28
4 34 25 35 40 2 16 -34 28 -31 42 10 15 46 40 47 40 1 0 -38 10 -49 34 -40 13
5 16 23 16 100 0 93 0 94 -25 94 -20 0 -30 -10 -50 -50 -14 -27 -31 -50 -38
-50 -7 0 -23 23 -35 50 -16 36 -27 50 -42 50 -11 0 -23 -6 -26 -13z"/>
<path d="M1762 173 c3 -84 5 -98 21 -101 14 -3 17 4 17 37 0 52 24 55 40 6 6
-19 16 -35 21 -35 5 0 15 16 23 35 21 48 46 47 43 -2 -2 -32 1 -38 18 -38 18
0 20 8 23 98 3 96 3 97 -21 97 -19 0 -29 -11 -47 -50 -13 -27 -29 -50 -35 -50
-6 0 -23 21 -36 48 -16 32 -31 48 -47 50 -23 3 -23 3 -20 -95z"/>
<path d="M2040 252 c-16 -13 -24 -32 -27 -68 -5 -43 -2 -54 20 -80 22 -25 32
-29 76 -29 69 0 96 26 96 94 0 69 -30 101 -96 101 -30 0 -55 -6 -69 -18z m102
-39 c24 -21 23 -58 -2 -83 -25 -25 -32 -25 -60 -2 -39 32 -24 102 23 102 11 0
29 -7 39 -17z"/>
<path d="M2249 268 c0 -2 -1 -46 -2 -98 l-2 -95 59 -3 c71 -4 106 15 106 56 0
16 -5 33 -12 40 -9 9 -8 17 2 37 12 22 11 27 -5 45 -14 16 -31 20 -82 20 -34
0 -63 -1 -64 -2z m96 -48 c0 -8 -10 -16 -22 -18 -18 -3 -23 2 -23 18 0 16 5
21 23 18 12 -2 22 -10 22 -18z m10 -85 c0 -14 -8 -21 -27 -23 -24 -3 -28 0
-28 23 0 23 4 26 28 23 19 -2 27 -9 27 -23z"/>
<path d="M2452 173 c3 -90 5 -98 23 -98 18 0 20 8 23 98 l3 97 -26 0 -26 0 3
-97z"/>
<path d="M2542 173 l3 -98 68 -3 c61 -3 67 -1 67 17 0 16 -8 20 -42 23 l-43 3
-3 78 c-3 75 -4 77 -28 77 l-25 0 3 -97z"/>
<path d="M2722 173 c3 -90 5 -98 23 -98 18 0 20 7 22 98 l2 97 -25 0 -25 0 3
-97z"/>
<path d="M2812 173 l3 -98 65 0 c53 0 65 3 68 17 3 13 -6 17 -40 20 -35 2 -43
7 -43 23 0 16 7 20 35 21 28 0 35 4 35 20 0 15 -8 20 -38 22 -30 3 -37 7 -35
20 2 12 14 17 43 18 29 0 41 5 43 17 3 15 -6 17 -68 17 l-71 0 3 -97z"/>
<path d="M2992 173 c3 -90 5 -98 23 -98 16 0 21 8 23 38 4 49 26 48 52 -3 19
-38 42 -51 54 -31 4 5 -2 23 -11 39 -17 29 -17 31 0 50 24 26 22 78 -2 92 -11
5 -47 10 -81 10 l-61 0 3 -97z m106 31 c2 -14 -3 -23 -15 -26 -29 -8 -43 2
-43 28 0 22 4 25 28 22 19 -2 28 -9 30 -24z"/>
</g>
</svg>
