<?xml version="1.0" standalone="no"?>
<!DOCTYPE svg PUBLIC "-//W3C//DTD SVG 20010904//EN"
 "http://www.w3.org/TR/2001/REC-SVG-20010904/DTD/svg10.dtd">
<svg version="1.0" xmlns="http://www.w3.org/2000/svg"
 width="2730.000000pt" height="294.000000pt" viewBox="0 0 2730.000000 294.000000"
 preserveAspectRatio="xMidYMid meet">

<g transform="translate(0.000000,294.000000) scale(0.100000,-0.100000)"
fill="#000000" stroke="none">
<path d="M5866 2925 c-110 -21 -177 -41 -278 -85 -561 -241 -901 -877 -827
-1548 72 -654 475 -1147 1039 -1268 104 -22 367 -25 480 -5 174 31 330 97 418
176 91 82 94 94 104 368 8 211 7 242 -7 263 -35 54 -82 19 -135 -103 -55 -127
-120 -254 -163 -318 -116 -171 -269 -255 -467 -255 -161 0 -290 54 -420 176
-253 239 -400 655 -400 1134 0 654 244 1159 635 1315 93 38 253 47 351 20 138
-37 273 -164 409 -382 88 -142 114 -173 145 -173 35 0 43 41 36 201 -6 156
-27 288 -50 323 -31 48 -180 108 -361 147 -132 28 -395 35 -509 14z"/>
<path d="M2800 2864 c-329 -15 -518 -54 -550 -114 -15 -27 -2 -70 24 -80 14
-5 54 -2 103 7 71 13 84 13 116 0 21 -9 43 -29 54 -49 17 -31 18 -90 18 -1158
0 -1085 -1 -1126 -19 -1163 -26 -52 -57 -70 -138 -79 -88 -9 -118 -27 -118
-72 0 -68 54 -81 233 -55 109 16 369 5 527 -21 161 -28 509 -39 613 -20 165
29 298 94 409 198 175 165 257 382 245 647 -17 349 -188 586 -492 681 l-70 21
56 26 c188 84 300 208 344 382 20 77 19 260 0 344 -65 273 -298 430 -724 486
-112 15 -478 26 -631 19z m597 -168 c211 -56 325 -211 348 -468 26 -288 -111
-493 -377 -565 -47 -13 -103 -18 -221 -18 -147 0 -160 1 -173 20 -22 30 -16
926 6 969 22 43 60 67 121 76 70 11 230 4 296 -14z m127 -1238 c135 -52 224
-134 286 -262 45 -95 61 -180 61 -324 0 -238 -50 -390 -165 -510 -94 -99 -198
-141 -361 -149 -192 -10 -294 31 -350 142 l-30 59 -3 524 c-2 407 0 527 9 539
11 13 48 14 248 11 225 -4 239 -5 305 -30z"/>
<path d="M72 2844 c-20 -15 -20 -71 0 -91 10 -9 44 -18 90 -23 81 -8 131 -29
150 -63 17 -29 25 -2168 8 -2291 -15 -117 -46 -142 -193 -153 -106 -7 -117
-14 -117 -63 0 -31 5 -43 24 -55 29 -19 42 -19 301 -6 225 12 453 8 985 -16
396 -18 436 -15 457 27 6 14 27 159 45 323 l34 298 -21 19 c-12 11 -26 20 -32
20 -27 0 -67 -49 -108 -132 -98 -197 -205 -326 -309 -374 -80 -36 -155 -47
-326 -48 -206 0 -264 18 -308 97 -15 29 -17 83 -20 585 -2 430 0 557 10 569
10 13 46 14 237 11 246 -4 275 -10 335 -66 37 -35 96 -157 126 -261 25 -85 48
-121 79 -121 44 0 46 17 46 329 0 163 4 364 9 447 l9 152 -27 17 c-39 26 -71
8 -87 -47 -41 -153 -75 -208 -143 -238 -75 -34 -206 -50 -396 -50 -140 0 -180
3 -189 14 -9 10 -11 138 -9 482 3 508 3 505 59 546 59 44 300 45 463 2 166
-44 291 -143 357 -283 81 -171 84 -176 104 -179 30 -3 46 11 55 54 12 51 12
457 0 508 -17 76 54 70 -861 71 -587 0 -826 -3 -837 -11z"/>
<path d="M7430 1425 l0 -1395 50 0 50 0 0 1395 0 1395 -50 0 -50 0 0 -1395z"/>
<path d="M9767 2603 c-14 -22 -69 -283 -64 -297 10 -25 43 -4 66 43 27 52 68
99 102 116 15 8 55 15 89 15 l60 0 0 -462 c0 -255 -4 -469 -8 -476 -5 -7 -31
-18 -58 -25 -38 -9 -49 -16 -49 -32 0 -19 7 -20 195 -20 187 0 195 1 195 20 0
14 -11 22 -41 30 -79 20 -74 -18 -74 502 l0 465 84 -3 c105 -5 127 -21 157
-121 15 -53 24 -68 39 -68 23 0 27 19 34 181 7 140 -2 159 -50 103 l-30 -37
-290 2 c-302 2 -308 3 -325 48 -8 23 -24 30 -32 16z"/>
<path d="M23906 2593 c-2 -10 -19 -78 -37 -152 -26 -109 -29 -135 -18 -142 18
-11 42 12 79 77 42 75 88 104 167 104 57 0 63 -2 68 -23 3 -12 5 -222 3 -465
-3 -497 2 -463 -78 -477 -39 -7 -59 -28 -37 -42 7 -4 96 -8 200 -8 186 -1 187
-1 187 21 0 17 -7 23 -38 27 -21 4 -46 13 -57 21 -19 14 -20 28 -20 478 l0
463 72 3 c113 5 144 -20 173 -136 11 -43 33 -63 50 -46 5 5 12 75 16 155 6
117 4 148 -6 154 -9 6 -18 2 -24 -9 -38 -63 -15 -59 -330 -57 -158 1 -294 5
-302 8 -8 3 -21 18 -30 34 -17 33 -30 37 -38 12z"/>
<path d="M9190 2555 c-171 -48 -256 -250 -179 -424 29 -66 70 -104 189 -176
171 -103 220 -164 220 -275 0 -121 -72 -200 -181 -200 -103 0 -181 86 -210
229 -12 63 -32 87 -50 60 -5 -8 -9 -63 -9 -122 0 -129 11 -156 80 -189 69 -34
215 -38 294 -8 71 27 140 92 176 165 22 44 25 63 25 160 0 100 -2 115 -27 161
-36 67 -115 138 -223 199 -146 81 -185 127 -185 215 0 116 100 192 206 157 45
-14 71 -50 111 -148 30 -74 57 -91 69 -43 9 35 -4 185 -17 200 -34 41 -201 63
-289 39z"/>
<path d="M15261 2554 c-168 -45 -291 -176 -352 -374 -29 -95 -32 -251 -6 -349
44 -162 144 -294 275 -358 74 -37 79 -38 186 -38 104 0 115 2 179 32 131 62
240 202 283 364 22 85 23 244 1 328 -28 103 -73 187 -142 260 -122 129 -271
176 -424 135z m206 -70 c127 -73 198 -259 197 -514 -1 -191 -38 -319 -118
-408 -100 -110 -257 -109 -354 3 -156 176 -177 615 -41 827 76 118 205 156
316 92z"/>
<path d="M17312 2558 c-6 -7 -78 -233 -161 -502 -83 -268 -157 -499 -166 -512
-9 -15 -32 -28 -60 -35 -33 -8 -45 -16 -45 -30 0 -11 3 -19 8 -19 19 -1 289
-2 300 -1 6 1 12 10 12 21 0 13 -9 22 -27 26 -68 15 -78 20 -81 48 -4 31 55
274 70 294 11 13 214 17 235 4 12 -7 79 -220 89 -282 7 -43 -6 -57 -56 -62
-27 -2 -36 -8 -38 -24 -3 -21 0 -21 188 -21 167 0 190 2 190 16 -1 9 -20 25
-43 36 -27 13 -49 33 -60 55 -11 19 -87 251 -171 514 -83 264 -156 481 -162
483 -6 2 -16 -2 -22 -9z m18 -463 c24 -77 45 -146 47 -152 4 -10 -19 -13 -97
-13 -92 0 -101 2 -96 18 3 9 21 78 41 152 46 173 44 169 55 150 4 -8 27 -78
50 -155z"/>
<path d="M18688 2555 c-82 -21 -147 -56 -213 -117 -123 -112 -187 -258 -187
-433 -2 -243 107 -437 298 -531 71 -36 85 -39 179 -42 149 -6 266 32 299 97
17 32 25 206 11 220 -17 17 -32 -1 -68 -79 -61 -134 -119 -180 -227 -180 -75
0 -120 22 -177 83 -91 98 -133 233 -133 421 0 193 41 327 128 427 74 83 198
118 277 76 40 -21 95 -80 139 -149 19 -32 40 -58 46 -58 27 0 22 163 -6 207
-33 52 -253 87 -366 58z"/>
<path d="M19653 2555 c-219 -59 -367 -261 -380 -520 -6 -127 13 -222 66 -330
87 -175 236 -275 411 -275 273 0 479 244 480 566 0 175 -56 321 -170 435 -118
118 -263 163 -407 124z m187 -63 c87 -41 163 -165 194 -314 20 -97 21 -299 1
-391 -29 -139 -92 -239 -177 -281 -98 -49 -197 -28 -276 59 -86 92 -122 207
-129 415 -6 166 8 253 55 355 75 159 200 218 332 157z"/>
<path d="M21698 2557 c-135 -38 -208 -142 -208 -295 0 -140 44 -204 210 -304
136 -82 181 -123 211 -192 70 -164 -79 -338 -234 -272 -69 29 -130 121 -143
214 -8 62 -29 86 -50 57 -10 -13 -14 -49 -14 -120 0 -127 16 -158 100 -192 69
-28 202 -31 274 -7 68 23 147 99 182 176 25 54 29 75 29 153 0 78 -4 98 -28
150 -36 76 -100 137 -212 199 -171 97 -199 128 -198 228 1 101 56 159 152 161
78 3 115 -34 167 -162 16 -39 29 -57 43 -59 20 -3 21 1 21 93 0 53 -5 105 -11
117 -27 51 -193 82 -291 55z"/>
<path d="M26774 2556 c-148 -34 -280 -139 -347 -276 -52 -106 -68 -177 -69
-300 -1 -173 46 -304 148 -410 101 -106 208 -145 373 -137 113 5 172 21 233
63 61 42 68 70 68 257 0 180 0 182 61 193 41 8 59 21 53 37 -3 9 -60 12 -207
11 -192 0 -202 -1 -202 -19 0 -16 10 -21 50 -28 27 -4 55 -13 62 -19 19 -16
18 -336 -1 -383 -21 -48 -64 -68 -140 -63 -75 5 -124 28 -180 83 -89 89 -136
233 -136 418 0 192 46 341 135 436 62 67 122 95 200 95 107 -1 171 -50 216
-167 16 -41 27 -57 40 -57 25 0 33 37 25 124 -5 59 -10 75 -31 93 -57 50 -237
75 -351 49z"/>
<path d="M8094 2531 c-2 -2 -4 -12 -4 -22 0 -18 19 -29 54 -29 12 0 27 -5 34
-12 16 -16 17 -899 2 -928 -7 -13 -26 -21 -61 -26 -44 -6 -50 -9 -47 -28 3
-20 8 -21 98 -19 52 2 200 -2 329 -7 188 -8 237 -8 248 2 19 20 43 246 27 259
-13 11 -14 10 -87 -101 -59 -90 -88 -105 -205 -105 -137 0 -132 -9 -132 266
l0 219 84 0 c47 0 96 -4 110 -10 30 -11 62 -58 77 -113 9 -35 32 -57 45 -44 3
3 6 85 7 184 2 146 0 178 -12 178 -15 0 -22 -11 -42 -63 -18 -49 -57 -65 -169
-66 l-95 -1 -3 185 c-3 232 -6 225 110 224 129 -1 198 -44 241 -146 20 -49 44
-49 53 -2 8 41 1 191 -10 201 -7 7 -645 11 -652 4z"/>
<path d="M10616 2533 c-3 -3 -6 -14 -6 -24 0 -13 10 -20 38 -24 57 -10 62 -12
72 -41 7 -17 10 -185 8 -461 -3 -488 2 -454 -79 -467 -34 -5 -40 -10 -37 -28
3 -22 5 -22 196 -23 l192 -1 0 23 c0 19 -7 24 -40 29 -76 12 -75 8 -78 240 -2
113 -1 217 2 231 l6 23 208 -2 207 -3 3 -226 c3 -254 5 -245 -72 -264 -31 -8
-41 -15 -41 -30 0 -19 7 -20 195 -20 188 0 195 1 195 20 0 15 -10 22 -41 30
-79 19 -74 -16 -74 490 0 350 3 455 13 462 6 6 30 13 51 16 44 7 62 25 43 44
-10 10 -32 10 -100 2 -62 -7 -112 -7 -174 0 -71 9 -90 8 -101 -3 -11 -11 -11
-16 3 -30 9 -9 29 -16 44 -16 60 0 62 -6 59 -215 l-3 -190 -210 0 -210 0 0
193 c0 215 -3 206 72 217 38 5 44 9 41 28 -3 21 -7 22 -68 17 -91 -7 -175 -6
-246 2 -34 4 -64 5 -68 1z"/>
<path d="M11750 2532 c-21 -7 -10 -42 15 -47 14 -3 36 -7 50 -10 l25 -5 0
-464 c0 -359 -3 -466 -12 -474 -7 -5 -33 -14 -58 -19 -35 -7 -45 -13 -45 -28
0 -19 6 -20 95 -18 52 2 200 -2 329 -7 199 -9 237 -8 249 4 17 16 45 237 32
250 -16 16 -39 -3 -65 -54 -43 -84 -88 -127 -149 -141 -70 -15 -171 -8 -194
15 -15 15 -17 42 -17 239 l0 222 75 3 c129 6 163 -16 194 -121 9 -31 17 -42
31 -42 19 0 20 8 20 180 0 153 -2 180 -15 180 -9 0 -20 -17 -28 -40 -7 -22
-21 -48 -30 -57 -22 -22 -115 -40 -189 -36 l-58 3 0 192 c0 144 3 195 13 205
17 17 155 17 205 -1 55 -19 101 -63 126 -121 22 -50 44 -64 55 -34 9 24 7 197
-3 213 -8 12 -63 15 -325 15 -174 1 -320 0 -326 -2z"/>
<path d="M12600 2532 c-17 -6 -11 -31 9 -42 11 -5 31 -10 45 -10 57 0 56 9 56
-479 0 -502 5 -467 -74 -486 -31 -8 -41 -15 -41 -30 0 -19 7 -20 189 -20 152
0 190 3 194 14 7 19 -25 41 -60 41 -17 0 -31 7 -38 19 -6 12 -10 104 -10 230
l0 211 33 0 c18 0 42 -7 54 -15 13 -9 53 -95 113 -247 51 -128 97 -239 103
-245 7 -9 44 -13 123 -13 103 0 114 2 114 18 0 12 -14 22 -42 32 l-43 15 -95
223 c-52 122 -103 231 -112 242 -17 19 -16 20 20 35 89 38 136 124 136 250 0
92 -25 157 -78 202 -66 55 -81 58 -343 58 -134 0 -247 -1 -253 -3z m431 -75
c19 -12 45 -43 59 -67 21 -39 25 -58 25 -135 0 -155 -52 -218 -175 -213 l-65
3 -3 202 c-3 232 -2 233 77 233 33 0 58 -7 82 -23z"/>
<path d="M14025 2530 c-82 -11 -117 -26 -113 -48 3 -13 14 -17 53 -17 42 0 51
-3 62 -25 19 -36 14 -880 -5 -902 -7 -9 -31 -18 -53 -22 -34 -6 -40 -10 -37
-29 3 -21 7 -22 90 -19 48 2 146 -4 219 -14 197 -25 290 -7 378 72 69 62 95
126 95 234 0 138 -51 223 -163 273 l-45 20 30 14 c80 42 123 114 124 209 0
109 -58 190 -166 228 -96 33 -317 46 -469 26z m348 -64 c79 -29 116 -91 117
-196 0 -122 -57 -185 -185 -203 -113 -17 -109 -23 -113 179 -3 191 0 211 31
224 33 13 107 11 150 -4z m53 -485 c82 -37 119 -118 112 -247 -4 -70 -9 -90
-34 -130 -42 -69 -99 -97 -187 -92 -57 3 -71 8 -95 31 l-27 27 -3 215 -3 215
98 0 c74 0 108 -5 139 -19z"/>
<path d="M16003 2529 c-19 -19 -4 -38 35 -45 77 -14 70 22 74 -437 3 -457 2
-447 72 -525 56 -61 121 -85 248 -90 170 -7 261 35 314 145 l29 58 5 396 c6
448 5 441 80 454 44 7 57 19 42 38 -7 8 -52 12 -149 12 -129 -1 -138 -2 -138
-20 0 -14 12 -23 47 -33 38 -10 49 -19 55 -40 5 -15 8 -198 8 -407 0 -375 0
-381 -22 -422 -33 -60 -70 -91 -132 -110 -100 -29 -214 -1 -255 62 -41 62 -46
123 -46 517 0 363 1 378 19 388 11 5 31 10 45 10 13 0 32 7 41 16 14 14 14 19
3 30 -11 11 -30 12 -98 3 -77 -9 -130 -8 -230 7 -20 3 -40 0 -47 -7z"/>
<path d="M20397 2534 c-4 -4 -7 -15 -7 -24 0 -13 12 -19 42 -24 23 -4 48 -12
55 -18 10 -8 13 -101 13 -445 0 -490 -2 -503 -62 -503 -42 0 -61 -12 -56 -36
3 -18 14 -19 153 -19 148 0 150 0 153 23 2 12 0 22 -5 23 -98 7 -100 8 -114
65 -10 47 -12 774 -1 774 4 -1 135 -210 292 -466 237 -386 288 -464 305 -462
20 3 20 12 25 508 4 385 8 510 18 527 8 15 26 25 52 29 30 5 40 11 40 25 0 23
13 21 -145 23 -146 3 -155 1 -155 -24 0 -20 19 -30 58 -30 50 0 57 -12 63
-117 10 -139 10 -571 2 -576 -5 -3 -112 165 -239 372 l-232 376 -124 3 c-68 1
-127 -1 -131 -4z"/>
<path d="M22224 2525 c-9 -21 3 -33 39 -40 74 -15 67 19 67 -343 1 -486 10
-551 88 -630 56 -56 112 -75 233 -80 179 -8 276 39 330 161 23 51 24 59 29
447 4 290 8 401 18 417 8 15 26 24 57 29 35 5 45 10 45 25 0 11 -3 19 -7 20
-34 5 -277 3 -285 -2 -22 -14 2 -39 42 -45 72 -12 70 -2 70 -430 0 -258 -4
-392 -11 -415 -18 -52 -55 -97 -102 -121 -58 -31 -186 -32 -237 -2 -41 23 -76
71 -90 123 -15 55 -13 814 2 829 7 7 26 12 43 12 39 0 58 13 53 36 -3 17 -11
18 -68 14 -92 -7 -175 -6 -248 2 -50 6 -64 5 -68 -7z"/>
<path d="M23270 2530 c-22 -14 -3 -38 35 -46 68 -12 65 12 65 -483 0 -502 5
-467 -74 -486 -30 -7 -41 -15 -41 -29 0 -19 10 -20 240 -21 132 -1 269 -5 305
-9 38 -4 71 -3 79 3 10 6 19 48 28 123 18 160 9 174 -56 80 -21 -32 -57 -74
-79 -94 -71 -64 -174 -75 -219 -23 l-23 26 0 443 c0 343 3 446 13 454 6 5 31
13 55 17 37 6 43 10 40 28 -3 21 -7 22 -68 17 -90 -7 -176 -6 -236 2 -27 4
-56 3 -64 -2z"/>
<path d="M24761 2527 c-16 -20 11 -47 45 -47 14 0 34 -5 45 -10 18 -10 19 -26
19 -464 0 -508 5 -472 -74 -491 -31 -8 -41 -15 -41 -30 0 -19 7 -20 195 -20
188 0 195 1 195 20 0 16 -11 23 -49 32 -27 7 -53 18 -58 25 -4 7 -8 216 -8
464 0 350 3 454 13 461 6 6 30 13 51 16 44 7 62 25 43 44 -10 10 -31 11 -97 2
-78 -10 -130 -8 -231 7 -24 3 -39 1 -48 -9z"/>
<path d="M25297 2534 c-4 -4 -7 -15 -7 -24 0 -13 12 -19 42 -24 23 -4 48 -12
55 -18 10 -8 13 -101 13 -445 0 -490 -2 -503 -62 -503 -42 0 -61 -12 -56 -36
3 -18 14 -19 153 -19 148 0 150 0 153 23 2 12 0 22 -5 23 -100 7 -102 8 -114
71 -10 54 -12 768 -1 768 4 0 135 -210 292 -466 236 -385 288 -464 305 -462
20 3 20 12 25 508 4 385 8 510 18 527 8 15 26 25 52 29 30 5 40 11 40 25 0 23
13 21 -145 23 -146 3 -155 1 -155 -24 0 -20 19 -30 58 -30 50 0 57 -13 64
-112 9 -131 10 -588 1 -588 -5 1 -112 171 -239 378 l-232 377 -124 3 c-68 1
-127 -1 -131 -4z"/>
<path d="M10140 878 c-79 -41 -130 -104 -161 -200 -48 -149 -7 -314 102 -412
148 -133 358 -81 446 110 86 187 27 406 -136 501 -32 20 -61 27 -115 31 -66 4
-76 1 -136 -30z m203 -31 c74 -57 112 -181 105 -344 -5 -117 -31 -185 -89
-238 -34 -31 -45 -35 -92 -35 -46 0 -59 5 -94 35 -49 41 -78 107 -94 206 -28
181 26 350 126 396 41 18 99 10 138 -20z"/>
<path d="M15745 896 c-37 -17 -80 -62 -94 -99 -15 -39 -14 -122 3 -160 17 -40
54 -74 131 -120 104 -62 142 -117 130 -189 -4 -21 -19 -51 -35 -68 -23 -25
-36 -30 -74 -30 -74 0 -117 47 -140 153 -4 15 -13 27 -21 27 -12 0 -15 -16
-15 -78 0 -69 3 -81 23 -100 27 -26 77 -42 127 -42 153 0 252 138 209 293 -15
55 -62 103 -151 155 -44 25 -88 57 -99 70 -37 47 -17 136 36 160 63 29 106 4
140 -80 31 -75 45 -70 45 16 l0 74 -40 16 c-49 19 -134 20 -175 2z"/>
<path d="M17785 896 c-93 -42 -132 -168 -82 -266 16 -34 38 -55 87 -86 144
-92 186 -152 161 -233 -16 -54 -52 -81 -109 -81 -38 0 -50 5 -82 38 -26 26
-40 51 -45 77 -10 58 -14 67 -28 63 -8 -3 -13 -30 -15 -74 -3 -84 14 -114 76
-132 158 -48 292 53 292 218 -1 91 -50 156 -173 224 -78 44 -96 63 -104 110
-7 47 12 93 48 111 62 33 103 13 142 -69 14 -30 30 -57 36 -60 16 -10 22 32
13 93 -6 50 -9 55 -42 67 -46 17 -138 17 -175 0z"/>
<path d="M18274 891 c-73 -33 -112 -112 -100 -201 10 -69 45 -112 137 -167 93
-55 128 -95 136 -152 11 -81 -38 -141 -114 -141 -38 0 -51 6 -78 33 -20 20
-38 51 -45 78 -17 66 -19 71 -33 67 -8 -3 -13 -30 -15 -74 -3 -86 15 -116 82
-133 72 -18 119 -13 177 17 43 22 59 38 81 81 32 61 38 148 14 204 -19 44 -78
97 -164 147 -57 32 -77 50 -88 77 -28 66 7 137 73 149 46 9 78 -15 111 -84 15
-31 32 -56 37 -55 13 3 18 67 10 111 -5 26 -14 37 -40 48 -47 19 -132 17 -181
-5z"/>
<path d="M19703 893 c-52 -18 -135 -91 -169 -148 -82 -140 -56 -351 57 -464
80 -80 192 -109 302 -77 77 22 97 50 97 133 0 80 -13 80 -56 -3 -49 -95 -119
-126 -199 -88 -163 77 -182 466 -29 592 78 64 162 48 222 -43 19 -27 39 -50
45 -50 17 0 9 106 -9 126 -34 38 -182 51 -261 22z"/>
<path d="M20313 894 c-174 -62 -259 -326 -167 -521 115 -242 411 -240 531 5
26 52 28 66 28 172 0 110 -1 118 -33 182 -72 146 -217 212 -359 162z m153 -34
c86 -42 129 -148 129 -320 0 -141 -18 -202 -79 -266 -41 -42 -45 -44 -101 -44
-57 0 -60 1 -105 48 -67 69 -85 132 -85 293 0 124 1 127 35 195 29 58 42 73
80 92 55 27 72 28 126 2z"/>
<path d="M21014 896 c-3 -9 -48 -151 -99 -316 -51 -165 -100 -309 -110 -320
-10 -11 -26 -20 -37 -20 -10 0 -18 -7 -18 -15 0 -12 18 -15 100 -15 107 0 126
10 65 36 -19 8 -35 21 -35 29 0 9 10 54 21 100 l21 85 79 0 78 0 25 -84 c34
-109 33 -124 -1 -128 -16 -2 -29 -10 -31 -19 -2 -14 13 -16 118 -16 66 0 120
2 120 5 0 3 -16 19 -36 36 -33 29 -41 51 -133 341 -54 170 -103 311 -110 313
-6 2 -14 -3 -17 -12z m20 -287 c14 -48 26 -90 26 -93 0 -3 -27 -6 -60 -6 -33
0 -60 4 -60 8 0 5 6 31 14 58 8 27 20 69 26 93 6 24 15 40 19 35 5 -5 20 -48
35 -95z"/>
<path d="M21552 893 c-23 -8 -67 -37 -97 -64 -123 -113 -155 -292 -82 -453 66
-143 221 -215 370 -172 77 22 97 50 97 132 0 83 -16 83 -55 2 -39 -81 -81
-112 -146 -105 -57 5 -101 35 -133 90 -92 157 -66 420 51 516 77 64 154 50
216 -39 21 -30 43 -55 50 -55 17 0 9 106 -9 126 -34 38 -182 51 -262 22z"/>
<path d="M23893 896 c-87 -28 -166 -106 -204 -204 -33 -82 -32 -223 1 -306 44
-114 161 -196 279 -196 67 0 149 27 183 60 27 28 28 31 28 137 0 116 6 133 47
133 14 0 23 6 23 15 0 13 -21 15 -130 15 -83 0 -130 -4 -130 -10 0 -11 7 -14
53 -24 l27 -6 0 -118 c0 -148 -7 -162 -84 -162 -65 0 -108 26 -153 93 -41 62
-57 139 -51 257 8 156 68 261 168 291 75 23 133 -9 175 -94 11 -22 25 -39 30
-38 6 1 10 29 10 62 0 49 -4 64 -20 75 -47 35 -172 44 -252 20z"/>
<path d="M13088 893 c-87 -3 -118 -7 -118 -16 0 -7 15 -17 33 -22 l32 -10 3
-284 c2 -301 1 -311 -44 -311 -16 0 -24 -6 -24 -18 0 -15 12 -17 120 -17 102
0 120 2 118 15 -2 8 -12 16 -23 18 -42 8 -45 19 -45 158 0 134 0 134 23 134
36 0 51 -24 108 -170 28 -74 56 -141 62 -147 12 -16 143 -18 152 -3 4 6 -7 15
-24 21 -26 9 -36 26 -87 147 -31 75 -64 145 -72 154 -13 16 -12 18 10 27 84
32 116 179 57 262 -39 56 -91 67 -281 62z m161 -53 c22 -11 51 -79 51 -119 0
-51 -12 -90 -36 -116 -19 -20 -32 -25 -74 -25 l-50 0 0 119 c0 66 3 126 6 135
7 18 74 22 103 6z"/>
<path d="M8094 879 c-3 -5 3 -12 13 -15 10 -3 28 -10 41 -15 l22 -9 0 -278 c0
-298 -2 -308 -50 -314 -14 -2 -25 -10 -25 -18 0 -12 21 -15 123 -15 102 0 122
2 120 14 -2 8 -18 19 -36 23 l-32 9 0 293 c0 316 -2 306 51 306 10 0 19 6 19
14 0 11 -24 14 -120 14 -66 0 -123 -4 -126 -9z"/>
<path d="M8445 880 c-4 -6 9 -17 29 -25 l36 -15 0 -70 c0 -122 -22 -474 -31
-497 -6 -15 -17 -23 -33 -23 -28 0 -38 -10 -27 -28 12 -20 186 -12 186 8 0 9
-11 16 -28 18 -45 5 -50 28 -42 206 4 89 10 190 14 226 l7 65 84 -252 c62
-186 88 -253 100 -253 11 0 36 64 95 247 66 203 81 242 86 218 4 -17 7 -120 8
-230 1 -214 -1 -225 -47 -225 -17 0 -23 -5 -20 -17 3 -15 17 -17 117 -18 62 0
118 3 123 6 17 11 -1 29 -27 29 -13 0 -28 8 -33 17 -5 10 -11 144 -13 297 l-4
280 33 8 c57 15 32 33 -50 36 -52 2 -78 -1 -85 -10 -6 -7 -41 -106 -78 -220
-37 -115 -71 -210 -75 -213 -5 -3 -42 95 -82 217 l-73 223 -82 3 c-50 2 -84
-1 -88 -8z"/>
<path d="M9205 880 c-4 -6 9 -17 29 -25 l36 -15 0 -75 c0 -133 -22 -479 -31
-497 -6 -10 -21 -18 -34 -18 -18 0 -25 -5 -25 -20 0 -20 5 -21 92 -18 79 3 93
6 96 21 3 13 -3 17 -27 17 -53 0 -56 20 -42 267 7 120 14 219 16 221 1 2 41
-109 86 -247 62 -186 88 -251 99 -251 12 0 36 62 95 245 48 150 82 240 87 233
4 -7 8 -113 8 -234 0 -238 1 -234 -52 -234 -13 0 -18 -6 -16 -17 3 -15 17 -17
117 -18 62 0 118 3 123 6 16 10 1 26 -31 32 -22 5 -31 13 -34 34 -3 15 -7 147
-9 292 l-3 265 33 8 c18 5 32 15 32 23 0 20 -152 22 -167 3 -6 -7 -41 -109
-78 -225 -38 -117 -72 -213 -76 -213 -4 0 -40 100 -81 223 l-73 222 -82 3
c-50 2 -84 -1 -88 -8z"/>
<path d="M10690 882 c-14 -5 -26 -16 -28 -26 -3 -16 1 -18 26 -13 16 3 34 1
41 -6 8 -8 11 -93 11 -288 0 -290 0 -292 -45 -301 -11 -2 -20 -10 -20 -18 0
-12 15 -15 75 -15 41 0 111 -4 155 -9 103 -11 156 3 206 53 54 53 73 137 48
212 -15 43 -64 95 -97 104 l-25 6 35 24 c46 31 62 71 56 140 -5 62 -22 86 -83
118 -35 19 -59 22 -185 24 -80 1 -156 -1 -170 -5z m300 -60 c55 -55 46 -168
-16 -204 -17 -10 -53 -19 -80 -20 l-49 -3 -3 114 c-1 63 0 121 2 128 4 9 24
13 61 13 49 0 61 -4 85 -28z m25 -305 c78 -78 45 -240 -54 -267 -41 -11 -99 1
-113 22 -4 7 -8 73 -8 146 l0 132 71 0 c67 0 73 -2 104 -33z"/>
<path d="M11264 879 c-3 -5 3 -12 13 -15 10 -3 28 -10 41 -15 l22 -9 0 -278
c0 -298 -2 -308 -50 -314 -14 -2 -25 -10 -25 -18 0 -12 21 -15 123 -15 104 0
122 2 120 15 -2 8 -12 16 -23 18 -45 9 -45 10 -45 312 0 310 -2 300 51 300 10
0 19 6 19 14 0 11 -24 14 -120 14 -66 0 -123 -4 -126 -9z"/>
<path d="M11610 875 c0 -7 14 -15 30 -18 l30 -6 0 -295 0 -295 -32 -9 c-18 -4
-34 -15 -36 -23 -2 -12 29 -14 200 -14 l203 0 8 74 c10 88 -1 108 -32 57 -12
-19 -38 -49 -57 -66 -31 -27 -42 -31 -82 -28 -71 5 -72 9 -72 313 0 143 4 266
9 273 4 7 21 16 36 20 16 5 30 13 32 19 3 8 -33 11 -116 11 -90 0 -121 -4
-121 -13z"/>
<path d="M12090 876 c0 -6 15 -16 33 -21 l32 -10 3 -284 c2 -299 1 -311 -43
-311 -22 0 -42 -25 -27 -33 14 -7 237 -2 240 6 6 19 0 27 -21 27 -46 0 -47 8
-47 305 0 297 1 305 47 305 13 0 23 6 23 14 0 11 -24 14 -120 14 -87 0 -120
-3 -120 -12z"/>
<path d="M12430 876 c0 -7 14 -16 30 -20 l30 -6 -2 -297 -3 -298 -30 -5 c-16
-3 -31 -12 -33 -20 -2 -13 28 -15 212 -17 245 -3 220 -14 232 100 8 83 -3 86
-50 13 -19 -30 -44 -60 -55 -65 -11 -6 -49 -11 -84 -11 -50 0 -66 4 -71 16 -3
9 -6 76 -6 150 l0 134 58 0 c69 0 87 -11 105 -64 26 -77 37 -56 37 73 0 72 -4
121 -10 121 -5 0 -12 -11 -16 -24 -10 -41 -37 -56 -108 -63 l-67 -6 3 129 3
129 60 3 c73 3 119 -22 148 -81 10 -20 23 -35 28 -31 5 3 9 39 9 80 l0 74
-210 0 c-172 0 -210 -3 -210 -14z"/>
<path d="M14390 882 c-14 -5 -26 -16 -28 -26 -3 -16 1 -18 26 -13 16 3 34 1
41 -6 8 -8 11 -93 11 -288 0 -290 0 -292 -45 -301 -11 -2 -20 -10 -20 -18 0
-12 15 -15 75 -15 41 0 111 -4 155 -9 103 -11 156 3 206 53 59 58 75 151 40
226 -21 45 -55 79 -89 90 -23 7 -23 7 11 30 45 31 61 71 55 140 -5 62 -22 86
-83 118 -35 19 -59 22 -185 24 -80 1 -156 -1 -170 -5z m299 -60 c55 -54 47
-168 -15 -204 -17 -10 -53 -19 -80 -20 l-49 -3 -3 114 c-1 63 0 121 2 128 4 9
24 13 61 13 48 0 61 -4 84 -28z m26 -305 c78 -78 45 -240 -54 -267 -41 -11
-99 1 -113 22 -4 7 -8 73 -8 146 l0 132 71 0 c67 0 73 -2 104 -33z"/>
<path d="M14960 874 c0 -8 9 -14 19 -14 52 0 51 5 51 -246 0 -128 5 -255 10
-282 18 -84 81 -131 185 -139 115 -10 200 37 224 122 6 24 11 133 11 265 0
124 3 235 6 248 4 13 17 25 35 30 58 15 34 27 -58 30 -72 2 -93 0 -93 -11 0
-7 15 -17 33 -22 l32 -10 3 -253 c2 -211 0 -259 -13 -286 -42 -87 -188 -98
-242 -17 -23 33 -23 40 -23 297 l0 263 32 9 c17 4 33 13 35 19 3 7 -35 11
-122 11 -100 0 -125 -3 -125 -14z"/>
<path d="M16104 879 c-3 -5 3 -12 13 -15 10 -3 28 -10 41 -15 l22 -9 0 -278
c0 -298 -2 -308 -50 -314 -14 -2 -25 -10 -25 -18 0 -12 21 -15 123 -15 104 0
122 2 120 15 -2 8 -12 16 -23 18 -45 9 -45 10 -45 312 0 310 -2 300 51 300 10
0 19 6 19 14 0 11 -24 14 -120 14 -66 0 -123 -4 -126 -9z"/>
<path d="M16440 875 c0 -8 9 -15 19 -15 53 0 51 9 51 -294 0 -302 -2 -312 -50
-318 -14 -2 -25 -10 -25 -18 0 -12 19 -16 98 -18 92 -3 97 -2 97 18 0 16 -6
20 -30 20 -24 0 -33 6 -40 26 -12 30 -14 497 -2 491 4 -3 86 -134 182 -291
118 -192 180 -285 190 -283 13 2 16 48 20 322 3 176 9 326 13 333 5 6 19 12
33 12 15 0 24 6 24 15 0 13 -15 15 -97 13 -57 -2 -98 -7 -98 -13 0 -5 12 -11
27 -13 14 -2 32 -10 39 -18 17 -21 27 -434 10 -418 -7 6 -74 112 -150 235
l-139 224 -86 3 c-72 2 -86 0 -86 -13z"/>
<path d="M17116 881 c-7 -11 0 -16 37 -25 l27 -6 0 -284 c0 -157 -3 -291 -6
-300 -3 -9 -16 -16 -29 -16 -23 0 -53 -25 -38 -32 4 -2 102 -4 218 -3 l209 0
7 35 c14 64 15 123 2 127 -6 2 -24 -19 -39 -47 -34 -63 -65 -80 -143 -80 -49
0 -62 4 -71 19 -5 11 -10 78 -10 150 l0 131 64 0 c58 0 67 -3 85 -26 12 -15
21 -35 21 -44 0 -20 26 -45 33 -33 9 15 6 223 -4 228 -5 3 -17 -10 -26 -30
-19 -40 -40 -49 -118 -49 l-50 -1 -3 114 c-2 75 1 118 9 127 16 20 107 18 148
-4 19 -9 44 -35 56 -57 12 -22 26 -39 31 -37 5 1 9 35 9 75 l0 72 -207 3
c-123 1 -209 -1 -212 -7z"/>
<path d="M21950 876 c0 -6 15 -16 33 -21 l32 -10 3 -284 c2 -299 1 -311 -43
-311 -22 0 -42 -25 -27 -33 4 -2 61 -3 127 -3 99 1 120 4 120 16 0 9 -11 16
-27 18 -45 5 -49 19 -46 168 l3 139 130 0 130 0 3 -139 c3 -149 -1 -163 -46
-168 -16 -2 -27 -9 -27 -18 0 -12 21 -15 120 -16 66 0 123 1 127 3 15 7 -5 33
-26 33 -45 0 -46 9 -46 305 0 297 1 305 47 305 13 0 23 6 23 14 0 11 -24 14
-120 14 -87 0 -120 -3 -120 -12 0 -6 15 -16 33 -21 l32 -10 3 -123 3 -123
-133 3 -133 3 -3 114 c-3 122 3 141 44 141 14 0 24 6 24 14 0 11 -24 14 -120
14 -87 0 -120 -3 -120 -12z"/>
<path d="M22653 877 c2 -6 18 -15 35 -19 l32 -9 0 -294 0 -294 -32 -9 c-18 -4
-33 -15 -33 -22 0 -12 24 -15 123 -15 104 -1 122 1 120 14 -2 8 -18 19 -36 23
l-32 9 0 293 c0 316 -2 306 51 306 10 0 19 6 19 14 0 11 -25 14 -125 14 -87 0
-125 -4 -122 -11z"/>
<path d="M22990 875 c0 -9 9 -15 23 -15 46 0 47 -8 47 -291 0 -147 -4 -279 -9
-293 -7 -17 -19 -26 -38 -28 -17 -2 -28 -9 -28 -18 0 -12 17 -15 95 -15 82 0
95 2 98 18 3 13 -3 17 -26 17 -16 0 -35 6 -41 14 -8 9 -11 87 -9 261 l3 248
174 -284 c206 -336 190 -312 207 -298 11 9 14 73 14 329 0 331 0 333 43 341
10 2 19 9 20 14 1 6 -38 11 -96 13 -72 2 -98 0 -95 -9 2 -6 19 -17 38 -23 l35
-11 3 -215 c2 -183 0 -212 -11 -195 -7 11 -73 118 -147 238 l-133 217 -83 0
c-68 0 -84 -3 -84 -15z"/>
<path d="M13816 492 c-3 -5 -8 -28 -12 -50 l-7 -42 91 0 91 0 10 38 c18 63 19
62 -78 62 -50 0 -92 -4 -95 -8z"/>
<path d="M18932 483 c-6 -10 -13 -33 -17 -50 l-7 -33 91 0 c100 0 97 -2 115
73 l6 27 -89 0 c-76 0 -92 -3 -99 -17z"/>
</g>
</svg>
