<svg width="75" height="72" viewBox="0 0 75 72" fill="none" xmlns="http://www.w3.org/2000/svg">
<g clip-path="url(#clip0_488_248)">
<path d="M37.5 18C35.0277 18 32.611 18.7038 30.5554 20.0224C28.4998 21.3409 26.8976 23.2151 25.9515 25.4078C25.0054 27.6005 24.7579 30.0133 25.2402 32.3411C25.7225 34.6689 26.913 36.8071 28.6612 38.4853C30.4093 40.1635 32.6366 41.3064 35.0614 41.7694C37.4861 42.2324 39.9995 41.9948 42.2836 41.0866C44.5676 40.1783 46.5199 38.6402 47.8934 36.6668C49.2669 34.6935 50 32.3734 50 30C50 26.8174 48.6831 23.7652 46.3388 21.5147C43.9946 19.2643 40.8152 18 37.5 18ZM37.5 36C36.2639 36 35.0555 35.6481 34.0277 34.9888C32.9999 34.3295 32.1988 33.3925 31.7258 32.2961C31.2527 31.1997 31.1289 29.9933 31.3701 28.8295C31.6113 27.6656 32.2065 26.5965 33.0806 25.7574C33.9547 24.9182 35.0683 24.3468 36.2807 24.1153C37.4931 23.8838 38.7497 24.0026 39.8918 24.4567C41.0338 24.9108 42.0099 25.6799 42.6967 26.6666C43.3835 27.6533 43.75 28.8133 43.75 30C43.75 31.5913 43.0915 33.1174 41.9194 34.2426C40.7473 35.3679 39.1576 36 37.5 36Z" fill="#F6AA06"/>
<path d="M37.5 72C34.8686 72.013 32.2722 71.4205 29.9283 70.2722C27.5844 69.1239 25.5612 67.4532 24.0281 65.4C12.1188 49.629 6.07812 37.773 6.07812 30.159C6.07813 22.1588 9.38863 14.4862 15.2814 8.82914C21.1741 3.17211 29.1664 -0.00598145 37.5 -0.00598145C45.8336 -0.00598145 53.8259 3.17211 59.7186 8.82914C65.6114 14.4862 68.9219 22.1588 68.9219 30.159C68.9219 37.773 62.8813 49.629 50.9719 65.4C49.4388 67.4532 47.4156 69.1239 45.0717 70.2722C42.7278 71.4205 40.1314 72.013 37.5 72ZM37.5 6.54302C30.9763 6.55017 24.7219 9.0412 20.109 13.4696C15.496 17.8981 12.9012 23.9023 12.8937 30.165C12.8937 36.195 18.8094 47.346 29.5469 61.563C30.4584 62.7684 31.6543 63.7494 33.0366 64.4258C34.4189 65.1023 35.9484 65.4549 37.5 65.4549C39.0516 65.4549 40.5811 65.1023 41.9634 64.4258C43.3457 63.7494 44.5416 62.7684 45.4531 61.563C56.1906 47.346 62.1063 36.195 62.1063 30.165C62.0988 23.9023 59.504 17.8981 54.891 13.4696C50.2781 9.0412 44.0237 6.55017 37.5 6.54302Z" fill="#F6AA06"/>
</g>
<defs>
<clipPath id="clip0_488_248">
<rect width="75" height="72" fill="white"/>
</clipPath>
</defs>
</svg>
