<?xml version="1.0" encoding="UTF-8"?>
<!DOCTYPE svg PUBLIC "-//W3C//DTD SVG 1.1//EN" "http://www.w3.org/Graphics/SVG/1.1/DTD/svg11.dtd">
<svg xmlns="http://www.w3.org/2000/svg" version="1.1" width="378px" height="402px" style="shape-rendering:geometricPrecision; text-rendering:geometricPrecision; image-rendering:optimizeQuality; fill-rule:evenodd; clip-rule:evenodd" xmlns:xlink="http://www.w3.org/1999/xlink">
<g><path style="opacity:1" fill="#fefdfd" d="M -0.5,-0.5 C 120.833,-0.5 242.167,-0.5 363.5,-0.5C 370.167,2.16667 374.833,6.83333 377.5,13.5C 377.5,138.167 377.5,262.833 377.5,387.5C 374.833,394.167 370.167,398.833 363.5,401.5C 242.167,401.5 120.833,401.5 -0.5,401.5C -0.5,385.5 -0.5,369.5 -0.5,353.5C 222.167,352.833 222.167,352.167 -0.5,351.5C -0.5,349.833 -0.5,348.167 -0.5,346.5C 57.501,346.333 115.501,346.5 173.5,347C 176.043,349.102 178.043,348.602 179.5,345.5C 177.668,344.752 176.001,343.752 174.5,342.5C 116.314,344.491 57.9809,345.157 -0.5,344.5C -0.5,229.5 -0.5,114.5 -0.5,-0.5 Z"/></g>
<g><path style="opacity:1" fill="#e37021" d="M 293.5,97.5 C 293.5,98.8333 292.833,99.5 291.5,99.5C 288.833,96.633 285.833,93.9663 282.5,91.5C 277.178,89.5063 272.511,86.5063 268.5,82.5C 261.797,78.9791 254.797,76.3124 247.5,74.5C 246.946,78.0548 244.946,80.3882 241.5,81.5C 229.167,81.5 216.833,81.5 204.5,81.5C 204.923,79.2188 204.256,77.5521 202.5,76.5C 202.808,74.076 202.474,71.7427 201.5,69.5C 199.229,65.9564 197.229,62.2897 195.5,58.5C 197.409,48.4136 203.409,43.9136 213.5,45C 216.196,46.3509 218.53,48.1843 220.5,50.5C 224.122,51.3253 227.789,51.8253 231.5,52C 234.737,54.3876 236.403,57.5543 236.5,61.5C 243.322,61.16 247.322,64.3267 248.5,71C 258.423,74.9619 268.09,79.4619 277.5,84.5C 283.201,88.5499 288.534,92.8832 293.5,97.5 Z"/></g>
<g><path style="opacity:1" fill="#ed9155" d="M 238.5,56.5 C 240.288,56.2148 241.955,56.5481 243.5,57.5C 242.667,57.8333 241.833,58.1667 241,58.5C 239.624,58.3158 238.791,57.6491 238.5,56.5 Z"/></g>
<g><path style="opacity:1" fill="#f2c0a3" d="M 250.5,58.5 C 252.861,58.6741 255.194,59.0074 257.5,59.5C 257.5,60.5 257.5,61.5 257.5,62.5C 254.318,62.416 251.985,61.0827 250.5,58.5 Z"/></g>
<g><path style="opacity:1" fill="#90cfe8" d="M 172.5,60.5 C 170.076,60.1924 167.743,60.5258 165.5,61.5C 166.397,61.6691 167.397,62.0024 168.5,62.5C 167.667,62.8333 166.833,63.1667 166,63.5C 163.793,62.2952 161.626,62.2952 159.5,63.5C 160.276,61.026 161.776,60.3593 164,61.5C 165.161,59.3352 166.994,58.3352 169.5,58.5C 171.03,58.6399 172.03,59.3065 172.5,60.5 Z"/></g>
<g><path style="opacity:1" fill="#f3c6ad" d="M 261.5,61.5 C 264.908,62.3722 267.908,64.0388 270.5,66.5C 269.833,66.8333 269.167,67.1667 268.5,67.5C 266.61,66.3877 264.61,65.5544 262.5,65C 261.663,63.9887 261.33,62.8221 261.5,61.5 Z"/></g>
<g><path style="opacity:1" fill="#28a6d7" d="M 195.5,78.5 C 194.432,79.4345 193.099,79.7678 191.5,79.5C 190.328,78.2947 188.995,78.2947 187.5,79.5C 186.833,80.8333 186.167,82.1667 185.5,83.5C 183.981,82.1487 182.648,80.6487 181.5,79C 180.207,78.51 178.873,78.3433 177.5,78.5C 177.5,79.5 177.5,80.5 177.5,81.5C 176.167,81.5 174.833,81.5 173.5,81.5C 174.32,85.145 172.987,87.4783 169.5,88.5C 168.645,92.2563 167.645,95.923 166.5,99.5C 163.074,99.728 160.407,98.3947 158.5,95.5C 157.368,91.5736 156.701,87.5736 156.5,83.5C 152.295,83.4591 150.295,81.2924 150.5,77C 151.78,72.9457 153.447,69.1124 155.5,65.5C 157.483,65.8432 158.817,65.1765 159.5,63.5C 161.626,62.2952 163.793,62.2952 166,63.5C 166.833,63.1667 167.667,62.8333 168.5,62.5C 167.397,62.0024 166.397,61.6691 165.5,61.5C 167.743,60.5258 170.076,60.1924 172.5,60.5C 173.452,59.548 174.452,58.548 175.5,57.5C 174.009,56.7564 172.509,56.0897 171,55.5C 168.959,56.4231 166.792,56.7564 164.5,56.5C 164.36,54.8762 165.027,53.7096 166.5,53C 169.5,52.5 172.5,52 175.5,51.5C 179.873,52.6771 184.207,54.0105 188.5,55.5C 195.259,61.7795 197.592,69.4461 195.5,78.5 Z"/></g>
<g><path style="opacity:1" fill="#8fcfe8" d="M 158.5,68.5 C 160.176,67.2897 161.51,67.7897 162.5,70C 163.793,70.49 165.127,70.6567 166.5,70.5C 166.5,69.5 166.5,68.5 166.5,67.5C 167.833,67.5 169.167,67.5 170.5,67.5C 170.116,69.9294 169.449,72.2627 168.5,74.5C 165.564,73.5942 162.564,72.9275 159.5,72.5C 159.768,70.901 159.434,69.5676 158.5,68.5 Z"/></g>
<g><path style="opacity:1" fill="#f2bc9e" d="M 272.5,67.5 C 274.591,67.3184 276.591,67.6518 278.5,68.5C 279.386,69.325 279.719,70.325 279.5,71.5C 276.361,71.4012 274.027,70.0679 272.5,67.5 Z"/></g>
<g><path style="opacity:1" fill="#f2be9f" d="M 282.5,72.5 C 286.269,72.8822 289.269,74.5489 291.5,77.5C 290.167,78.8333 288.833,78.8333 287.5,77.5C 285.112,76.4456 283.445,74.7789 282.5,72.5 Z"/></g>
<g><path style="opacity:1" fill="#f1b694" d="M 293.5,79.5 C 296.918,79.5768 299.251,81.2435 300.5,84.5C 300.167,84.8333 299.833,85.1667 299.5,85.5C 296.884,83.9976 294.884,81.9976 293.5,79.5 Z"/></g>
<g><path style="opacity:1" fill="#eba176" d="M 202.5,76.5 C 204.256,77.5521 204.923,79.2188 204.5,81.5C 216.833,81.5 229.167,81.5 241.5,81.5C 228.876,83.4809 215.876,84.1476 202.5,83.5C 202.5,81.1667 202.5,78.8333 202.5,76.5 Z"/></g>
<g><path style="opacity:1" fill="#f0b89a" d="M 145.5,85.5 C 146.239,85.369 146.906,85.5357 147.5,86C 146.408,88.5942 144.741,90.7609 142.5,92.5C 142.167,91.8333 141.833,91.1667 141.5,90.5C 142.508,88.5008 143.841,86.8342 145.5,85.5 Z"/></g>
<g><path style="opacity:1" fill="#aedff1" d="M 231.5,128.5 C 233.395,120.422 235.061,112.255 236.5,104C 236.431,102.014 235.765,100.514 234.5,99.5C 236.101,96.4164 236.768,93.083 236.5,89.5C 237.5,89.5 238.5,89.5 239.5,89.5C 247.844,103.029 256.844,116.196 266.5,129C 254.86,128.668 243.193,128.501 231.5,128.5 Z"/></g>
<g><path style="opacity:1" fill="#97d2e9" d="M 195.5,78.5 C 195.938,80.6382 196.105,82.9715 196,85.5C 196.45,82.8941 197.95,81.5608 200.5,81.5C 200.786,83.2769 201.453,84.9436 202.5,86.5C 201.37,90.386 199.37,93.7194 196.5,96.5C 195.422,93.8927 196.089,91.726 198.5,90C 196.924,89.5604 195.59,88.727 194.5,87.5C 193.908,84.5636 192.908,81.8969 191.5,79.5C 193.099,79.7678 194.432,79.4345 195.5,78.5 Z"/></g>
<g><path style="opacity:1" fill="#fdaf53" d="M 336.5,149.5 C 335.167,149.5 334.5,150.167 334.5,151.5C 329.878,153.137 325.212,154.804 320.5,156.5C 315.5,156.5 310.5,156.5 305.5,156.5C 299.511,155.169 294.177,152.502 289.5,148.5C 277.01,131.393 277.677,115.059 291.5,99.5C 292.833,99.5 293.5,98.8333 293.5,97.5C 297.849,95.2787 302.516,94.2787 307.5,94.5C 307.838,90.8493 306.172,89.1826 302.5,89.5C 302.238,88.0222 302.571,86.6888 303.5,85.5C 306.167,86.8333 308.167,88.8333 309.5,91.5C 326.241,92.2154 337.908,100.215 344.5,115.5C 345.833,122.833 345.833,130.167 344.5,137.5C 342.177,140.126 339.843,142.793 337.5,145.5C 336.571,146.689 336.238,148.022 336.5,149.5 Z"/></g>
<g><path style="opacity:1" fill="#f1b591" d="M 137.5,94.5 C 138.376,94.3691 139.043,94.7025 139.5,95.5C 138.784,97.9076 137.451,99.9076 135.5,101.5C 134.386,100.277 134.219,98.9437 135,97.5C 136.045,96.6266 136.878,95.6266 137.5,94.5 Z"/></g>
<g><path style="opacity:1" fill="#e67a34" d="M 148.5,92.5 C 149.586,92.62 150.253,93.2867 150.5,94.5C 145.899,100.639 141.565,106.972 137.5,113.5C 136.065,115.401 134.398,115.734 132.5,114.5C 137.857,107.093 143.19,99.7597 148.5,92.5 Z"/></g>
<g><path style="opacity:1" fill="#8d754d" d="M 313.5,110.5 C 310.5,110.5 307.5,110.5 304.5,110.5C 306.638,109.596 308.971,108.929 311.5,108.5C 312.713,108.747 313.38,109.414 313.5,110.5 Z"/></g>
<g><path style="opacity:1" fill="#1e3b4f" d="M 304.5,110.5 C 307.5,110.5 310.5,110.5 313.5,110.5C 314.492,110.328 315.158,110.662 315.5,111.5C 313.26,112.687 310.76,113.354 308,113.5C 306.319,113.392 305.152,112.725 304.5,111.5C 304.5,111.167 304.5,110.833 304.5,110.5 Z"/></g>
<g><path style="opacity:1" fill="#e1e4e3" d="M 329.5,115.5 C 326.418,116.13 323.418,117.13 320.5,118.5C 321.522,119.354 322.355,120.354 323,121.5C 323.497,124.146 323.664,126.813 323.5,129.5C 326.545,129.492 329.545,129.159 332.5,128.5C 335.018,129.511 335.018,130.844 332.5,132.5C 321.939,135.901 311.272,138.568 300.5,140.5C 298.36,140.444 296.694,139.777 295.5,138.5C 299.046,137.728 302.379,136.395 305.5,134.5C 303.022,133.278 302.022,131.278 302.5,128.5C 302.5,126.5 302.5,124.5 302.5,122.5C 300.302,122.12 298.635,122.787 297.5,124.5C 295.5,124.5 293.5,124.5 291.5,124.5C 289.766,121.284 290.433,118.617 293.5,116.5C 296.428,115.516 299.428,115.183 302.5,115.5C 302.229,113.62 302.896,112.287 304.5,111.5C 305.152,112.725 306.319,113.392 308,113.5C 310.76,113.354 313.26,112.687 315.5,111.5C 319.841,109.314 324.508,108.314 329.5,108.5C 329.5,110.833 329.5,113.167 329.5,115.5 Z"/></g>
<g><path style="opacity:1" fill="#193e50" d="M 329.5,115.5 C 330.693,115.97 331.36,116.97 331.5,118.5C 332.21,121.799 332.543,125.133 332.5,128.5C 329.545,129.159 326.545,129.492 323.5,129.5C 323.664,126.813 323.497,124.146 323,121.5C 322.355,120.354 321.522,119.354 320.5,118.5C 323.418,117.13 326.418,116.13 329.5,115.5 Z"/></g>
<g><path style="opacity:1" fill="#245468" d="M 307.5,117.5 C 311.167,117.5 314.833,117.5 318.5,117.5C 319.288,120.434 319.954,123.434 320.5,126.5C 320.358,131.475 317.858,134.475 313,135.5C 310.065,134.988 307.565,133.655 305.5,131.5C 304.341,127.878 304.175,124.211 305,120.5C 306.417,119.922 307.25,118.922 307.5,117.5 Z"/></g>
<g><path style="opacity:1" fill="#96d2e6" d="M 308.5,121.5 C 311.579,121.26 314.579,121.593 317.5,122.5C 319.691,127.438 318.191,130.438 313,131.5C 307.855,129.956 306.355,126.623 308.5,121.5 Z"/></g>
<g><path style="opacity:1" fill="#d47738" d="M 129.5,133.5 C 128.057,134.335 127.057,135.668 126.5,137.5C 125.583,138.127 124.583,138.461 123.5,138.5C 124.956,132.631 127.29,127.131 130.5,122C 131.483,121.409 132.15,121.743 132.5,123C 130.335,126.16 129.335,129.66 129.5,133.5 Z"/></g>
<g><path style="opacity:1" fill="#153f51" d="M 302.5,128.5 C 302.022,131.278 303.022,133.278 305.5,134.5C 302.379,136.395 299.046,137.728 295.5,138.5C 295.5,138.167 295.5,137.833 295.5,137.5C 295.843,135.517 295.176,134.183 293.5,133.5C 293.71,130.248 293.044,127.248 291.5,124.5C 293.5,124.5 295.5,124.5 297.5,124.5C 298.496,124.586 299.329,124.252 300,123.5C 300.05,125.744 300.883,127.411 302.5,128.5 Z"/></g>
<g><path style="opacity:1" fill="#617b85" d="M 302.5,128.5 C 300.883,127.411 300.05,125.744 300,123.5C 299.329,124.252 298.496,124.586 297.5,124.5C 298.635,122.787 300.302,122.12 302.5,122.5C 302.5,124.5 302.5,126.5 302.5,128.5 Z"/></g>
<g><path style="opacity:1" fill="#5b7783" d="M 157.5,131.5 C 149.833,130.167 142.167,130.167 134.5,131.5C 134.791,130.351 135.624,129.684 137,129.5C 142.661,128.226 148.327,128.226 154,129.5C 155.681,129.608 156.848,130.275 157.5,131.5 Z"/></g>
<g><path style="opacity:1" fill="#35aad9" d="M 234.5,99.5 C 235.765,100.514 236.431,102.014 236.5,104C 235.061,112.255 233.395,120.422 231.5,128.5C 231.737,129.791 231.404,130.791 230.5,131.5C 222.427,132.132 214.76,131.465 207.5,129.5C 214.777,129.873 221.777,128.873 228.5,126.5C 231.239,117.658 233.239,108.658 234.5,99.5 Z"/></g>
<g><path style="opacity:1" fill="#0e3c50" d="M 157.5,131.5 C 168.958,136.333 178.958,143.333 187.5,152.5C 195.257,160.919 201.59,170.253 206.5,180.5C 222.189,180.842 237.522,181.842 252.5,183.5C 252.5,195.5 252.5,207.5 252.5,219.5C 252.5,221.833 252.5,224.167 252.5,226.5C 252.5,228.167 252.5,229.833 252.5,231.5C 252.5,233.833 252.5,236.167 252.5,238.5C 252.5,247.5 252.5,256.5 252.5,265.5C 252.5,268.5 252.5,271.5 252.5,274.5C 252.5,275.833 252.5,277.167 252.5,278.5C 252.5,283.833 252.5,289.167 252.5,294.5C 252.5,305.167 252.5,315.833 252.5,326.5C 244.833,326.5 237.167,326.5 229.5,326.5C 231.909,324.748 233.576,322.415 234.5,319.5C 235.167,319.5 235.833,319.5 236.5,319.5C 236.5,319.833 236.5,320.167 236.5,320.5C 239.962,321.482 243.629,321.815 247.5,321.5C 247.5,278.833 247.5,236.167 247.5,193.5C 235.988,193.172 224.654,193.505 213.5,194.5C 215.157,200.741 216.823,206.741 218.5,212.5C 218.5,214.833 218.5,217.167 218.5,219.5C 218.5,226.5 218.5,233.5 218.5,240.5C 218.5,241.833 218.5,243.167 218.5,244.5C 216.744,245.552 216.077,247.219 216.5,249.5C 215.578,253.02 213.911,256.02 211.5,258.5C 208.294,261.788 204.627,264.622 200.5,267C 194.472,267.83 188.472,267.664 182.5,266.5C 174.947,264.116 167.947,260.783 161.5,256.5C 161.5,255.167 160.833,254.5 159.5,254.5C 137.344,234.741 123.677,210.074 118.5,180.5C 118.5,179.833 118.5,179.167 118.5,178.5C 117.167,170.5 117.167,162.5 118.5,154.5C 118.192,152.076 118.526,149.743 119.5,147.5C 121.115,144.605 122.448,141.605 123.5,138.5C 124.583,138.461 125.583,138.127 126.5,137.5C 127.057,135.668 128.057,134.335 129.5,133.5C 131.167,132.833 132.833,132.167 134.5,131.5C 142.167,130.167 149.833,130.167 157.5,131.5 Z"/></g>
<g><path style="opacity:1" fill="#abddf0" d="M 207.5,129.5 C 214.76,131.465 222.427,132.132 230.5,131.5C 229.081,132.451 227.415,132.784 225.5,132.5C 223.045,139.655 221.045,146.988 219.5,154.5C 218.943,156.332 217.943,157.665 216.5,158.5C 208.807,151.472 201.141,144.472 193.5,137.5C 193.279,136.265 192.612,135.265 191.5,134.5C 196.711,132.344 202.045,130.678 207.5,129.5 Z"/></g>
<g><path style="opacity:1" fill="#efb99a" d="M 77.5,137.5 C 76.5084,137.328 75.8417,137.662 75.5,138.5C 65.8331,137.192 56.1664,137.192 46.5,138.5C 45.5041,144.463 45.1707,150.463 45.5,156.5C 44.8333,150.5 44.1667,144.5 43.5,138.5C 43.5774,137.25 44.244,136.417 45.5,136C 55.5,135.333 65.5,135.333 75.5,136C 76.4158,136.278 77.0825,136.778 77.5,137.5 Z"/></g>
<g><path style="opacity:1" fill="#a07f4f" d="M 293.5,133.5 C 295.176,134.183 295.843,135.517 295.5,137.5C 293.824,136.817 293.157,135.483 293.5,133.5 Z"/></g>
<g><path style="opacity:1" fill="#718893" d="M 157.5,140.5 C 152.138,139.382 146.804,139.382 141.5,140.5C 143.743,139.188 146.41,138.522 149.5,138.5C 152.59,138.522 155.257,139.188 157.5,140.5 Z"/></g>
<g><path style="opacity:1" fill="#fafbfb" d="M 157.5,140.5 C 162.486,142.409 167.319,144.742 172,147.5C 194.285,165.741 207.451,189.074 211.5,217.5C 211.5,222.833 211.5,228.167 211.5,233.5C 209.604,251.062 199.937,258.395 182.5,255.5C 172.504,252.06 164.171,246.393 157.5,238.5C 156.752,235.851 157.085,233.184 158.5,230.5C 160.748,227.672 162.748,224.672 164.5,221.5C 168.215,219.118 171.215,216.118 173.5,212.5C 177.691,210.793 179.691,207.626 179.5,203C 178.335,193.183 173.169,186.683 164,183.5C 161.659,183.83 159.492,184.496 157.5,185.5C 149.155,188.97 140.489,191.303 131.5,192.5C 130.028,189.731 128.861,186.731 128,183.5C 127.333,174.5 127.333,165.5 128,156.5C 130.344,149.215 134.844,143.882 141.5,140.5C 146.804,139.382 152.138,139.382 157.5,140.5 Z"/></g>
<g><path style="opacity:1" fill="#f1ba99" d="M 345.5,138.5 C 348.226,139.755 349.892,141.922 350.5,145C 349.216,145.684 348.049,145.517 347,144.5C 345.872,142.655 345.372,140.655 345.5,138.5 Z"/></g>
<g><path style="opacity:1" fill="#f2c7ac" d="M 43.5,140.5 C 38.6042,142.446 33.2709,143.113 27.5,142.5C 32.3958,140.554 37.7291,139.887 43.5,140.5 Z"/></g>
<g><path style="opacity:1" fill="#ea9b6c" d="M 116.5,138.5 C 117.693,138.97 118.36,139.97 118.5,141.5C 118.167,142.5 117.833,143.5 117.5,144.5C 116.534,142.604 116.201,140.604 116.5,138.5 Z"/></g>
<g><path style="opacity:1" fill="#e69566" d="M 77.5,137.5 C 78.1279,144.913 77.4612,151.913 75.5,158.5C 75.5,151.833 75.5,145.167 75.5,138.5C 75.8417,137.662 76.5084,137.328 77.5,137.5 Z"/></g>
<g><path style="opacity:1" fill="#e36e1f" d="M 43.5,138.5 C 44.1667,144.5 44.8333,150.5 45.5,156.5C 49.7147,158.436 54.3814,159.103 59.5,158.5C 58.8333,159.167 58.1667,159.833 57.5,160.5C 57.5,161.5 57.5,162.5 57.5,163.5C 51.4908,163.334 45.4908,163.501 39.5,164C 38.944,164.383 38.6107,164.883 38.5,165.5C 37.2652,165.721 36.2652,166.388 35.5,167.5C 32.539,165.412 29.3723,163.745 26,162.5C 25.8333,159.167 25.6667,155.833 25.5,152.5C 25.5136,148.761 26.1803,145.428 27.5,142.5C 33.2709,143.113 38.6042,142.446 43.5,140.5C 43.5,139.833 43.5,139.167 43.5,138.5 Z"/></g>
<g><path style="opacity:1" fill="#f4f5f5" d="M 75.5,138.5 C 75.5,145.167 75.5,151.833 75.5,158.5C 72.3056,158.27 69.3056,158.936 66.5,160.5C 64.3543,159.106 62.021,158.44 59.5,158.5C 54.3814,159.103 49.7147,158.436 45.5,156.5C 45.1707,150.463 45.5041,144.463 46.5,138.5C 56.1664,137.192 65.8331,137.192 75.5,138.5 Z"/></g>
<g><path style="opacity:1" fill="#edaa82" d="M 116.5,154.5 C 116.5,155.167 116.5,155.833 116.5,156.5C 115.275,155.848 114.608,154.681 114.5,153C 114.833,151.833 115.167,150.667 115.5,149.5C 116.452,151.045 116.785,152.712 116.5,154.5 Z"/></g>
<g><path style="opacity:1" fill="#e67a35" d="M 336.5,149.5 C 338.633,152.543 340.299,155.877 341.5,159.5C 339.956,160.622 338.623,160.289 337.5,158.5C 336.593,156.061 335.593,153.728 334.5,151.5C 334.5,150.167 335.167,149.5 336.5,149.5 Z"/></g>
<g><path style="opacity:1" fill="#f2b896" d="M 350.5,149.5 C 353.887,150.802 354.887,153.135 353.5,156.5C 351.659,154.488 350.659,152.155 350.5,149.5 Z"/></g>
<g><path style="opacity:1" fill="#cfd5d6" d="M 193.5,137.5 C 201.141,144.472 208.807,151.472 216.5,158.5C 217.335,159.943 218.668,160.943 220.5,161.5C 219.672,162.415 218.672,163.081 217.5,163.5C 215.698,162.014 213.698,161.014 211.5,160.5C 211.762,159.022 211.429,157.689 210.5,156.5C 204.124,150.325 197.791,144.158 191.5,138C 192.094,137.536 192.761,137.369 193.5,137.5 Z"/></g>
<g><path style="opacity:1" fill="#fdd6ad" d="M 305.5,156.5 C 310.5,156.5 315.5,156.5 320.5,156.5C 318.193,158.047 315.527,158.713 312.5,158.5C 310.5,158.333 308.5,158.167 306.5,158C 305.944,157.617 305.611,157.117 305.5,156.5 Z"/></g>
<g><path style="opacity:1" fill="#eb9e71" d="M 59.5,158.5 C 62.021,158.44 64.3543,159.106 66.5,160.5C 69.3056,158.936 72.3056,158.27 75.5,158.5C 72.9451,160.346 70.1117,162.013 67,163.5C 64.3772,160.972 61.2105,159.972 57.5,160.5C 58.1667,159.833 58.8333,159.167 59.5,158.5 Z"/></g>
<g><path style="opacity:1" fill="#f1bd96" d="M 57.5,163.5 C 51.2996,164.243 44.9663,164.91 38.5,165.5C 38.6107,164.883 38.944,164.383 39.5,164C 45.4908,163.501 51.4908,163.334 57.5,163.5 Z"/></g>
<g><path style="opacity:1" fill="#637d88" d="M 116.5,154.5 C 117.167,154.5 117.833,154.5 118.5,154.5C 117.167,162.5 117.167,170.5 118.5,178.5C 117.833,177.833 117.167,177.167 116.5,176.5C 116.5,169.833 116.5,163.167 116.5,156.5C 116.5,155.833 116.5,155.167 116.5,154.5 Z"/></g>
<g><path style="opacity:1" fill="#f4c6ad" d="M 112.5,160.5 C 113.5,160.5 114.5,160.5 115.5,160.5C 115.5,163.5 115.5,166.5 115.5,169.5C 114.5,169.5 113.5,169.5 112.5,169.5C 112.5,166.5 112.5,163.5 112.5,160.5 Z"/></g>
<g><path style="opacity:1" fill="#1e485b" d="M 356.5,176.5 C 348.5,176.5 340.5,176.5 332.5,176.5C 330.833,167.5 334.5,163.833 343.5,165.5C 343.5,166.833 343.5,168.167 343.5,169.5C 346.503,168.812 349.169,167.479 351.5,165.5C 352.5,165.833 353.5,166.167 354.5,166.5C 356.289,169.556 356.956,172.889 356.5,176.5 Z"/></g>
<g><path style="opacity:1" fill="#0da1d4" d="M 332.5,176.5 C 340.5,176.5 348.5,176.5 356.5,176.5C 356.5,177.167 356.5,177.833 356.5,178.5C 354.738,178.357 353.071,178.691 351.5,179.5C 346.977,183.592 341.977,186.925 336.5,189.5C 335.388,190.265 334.721,191.265 334.5,192.5C 333.833,192.5 333.167,192.5 332.5,192.5C 332.5,187.167 332.5,181.833 332.5,176.5 Z"/></g>
<g><path style="opacity:1" fill="#f2b088" d="M 279.5,176.5 C 280.01,179.388 279.344,181.721 277.5,183.5C 278.807,181.848 278.807,180.182 277.5,178.5C 277.747,177.287 278.414,176.62 279.5,176.5 Z"/></g>
<g><path style="opacity:1" fill="#bcc8ce" d="M 356.5,176.5 C 358.698,177.067 361.031,177.067 363.5,176.5C 363.5,181.167 363.5,185.833 363.5,190.5C 361.517,190.843 360.183,190.176 359.5,188.5C 361.402,185.663 362.069,182.329 361.5,178.5C 360.167,178.5 358.833,178.5 357.5,178.5C 357.167,178.5 356.833,178.5 356.5,178.5C 356.5,177.833 356.5,177.167 356.5,176.5 Z"/></g>
<g><path style="opacity:1" fill="#d5cec9" d="M 114.5,180.5 C 89.1667,180.5 63.8333,180.5 38.5,180.5C 62.9944,179.502 87.661,179.169 112.5,179.5C 112.192,177.076 112.526,174.743 113.5,172.5C 114.48,175.086 114.813,177.753 114.5,180.5 Z"/></g>
<g><path style="opacity:1" fill="#9eacb1" d="M 116.5,176.5 C 117.167,177.167 117.833,177.833 118.5,178.5C 118.5,179.167 118.5,179.833 118.5,180.5C 117.508,180.328 116.842,180.662 116.5,181.5C 90.5,181.5 64.5,181.5 38.5,181.5C 38.5,181.167 38.5,180.833 38.5,180.5C 63.8333,180.5 89.1667,180.5 114.5,180.5C 116.104,179.713 116.771,178.38 116.5,176.5 Z"/></g>
<g><path style="opacity:1" fill="#0e7aa0" d="M 356.5,178.5 C 356.833,178.5 357.167,178.5 357.5,178.5C 355.613,182.552 356.28,185.885 359.5,188.5C 358.022,189.448 357.022,190.781 356.5,192.5C 349.167,192.5 341.833,192.5 334.5,192.5C 334.721,191.265 335.388,190.265 336.5,189.5C 341.977,186.925 346.977,183.592 351.5,179.5C 353.071,178.691 354.738,178.357 356.5,178.5 Z"/></g>
<g><path style="opacity:1" fill="#274d5f" d="M 36.5,182.5 C 36.8417,181.662 37.5084,181.328 38.5,181.5C 64.5,181.5 90.5,181.5 116.5,181.5C 116.5,182.833 115.833,183.5 114.5,183.5C 88.672,182.502 62.672,182.169 36.5,182.5 Z"/></g>
<g><path style="opacity:1" fill="#023a4e" d="M 36.5,182.5 C 62.672,182.169 88.672,182.502 114.5,183.5C 114.851,187.159 113.851,190.159 111.5,192.5C 87.8094,191.843 64.4761,192.51 41.5,194.5C 41.5,236.833 41.5,279.167 41.5,321.5C 89.8333,321.5 138.167,321.5 186.5,321.5C 187.01,318.612 186.344,316.279 184.5,314.5C 183.005,310.179 181.672,305.845 180.5,301.5C 197.247,316.905 213.58,332.905 229.5,349.5C 227.876,352.457 225.543,354.791 222.5,356.5C 218.467,352.132 214.134,348.132 209.5,344.5C 208.328,344.919 207.328,345.585 206.5,346.5C 205.251,349.418 203.585,352.085 201.5,354.5C 199.193,350.424 197.193,346.424 195.5,342.5C 195.635,340.446 194.968,338.779 193.5,337.5C 193.946,334.99 193.28,332.99 191.5,331.5C 191.169,329.678 190.502,328.011 189.5,326.5C 138.177,324.504 86.5108,323.838 34.5,324.5C 33.8459,276.949 34.5126,229.616 36.5,182.5 Z"/></g>
<g><path style="opacity:1" fill="#fafafa" d="M 118.5,180.5 C 123.677,210.074 137.344,234.741 159.5,254.5C 147.784,253.856 136.451,254.522 125.5,256.5C 123.409,257.865 121.076,258.532 118.5,258.5C 114.264,258.48 110.264,257.48 106.5,255.5C 103.178,251.51 99.8449,247.51 96.5,243.5C 92.8364,234.89 92.5031,226.224 95.5,217.5C 97.4589,215.218 99.7922,213.218 102.5,211.5C 105.452,205.932 108.118,200.265 110.5,194.5C 111.338,194.158 111.672,193.492 111.5,192.5C 113.851,190.159 114.851,187.159 114.5,183.5C 115.833,183.5 116.5,182.833 116.5,181.5C 116.842,180.662 117.508,180.328 118.5,180.5 Z"/></g>
<g><path style="opacity:1" fill="#0c334b" d="M 357.5,178.5 C 358.833,178.5 360.167,178.5 361.5,178.5C 362.069,182.329 361.402,185.663 359.5,188.5C 356.28,185.885 355.613,182.552 357.5,178.5 Z"/></g>
<g><path style="opacity:1" fill="#aebabf" d="M 252.5,183.5 C 254.479,195.12 255.146,207.12 254.5,219.5C 253.833,219.5 253.167,219.5 252.5,219.5C 252.5,207.5 252.5,195.5 252.5,183.5 Z"/></g>
<g><path style="opacity:1" fill="#a9dbed" d="M 157.5,185.5 C 156.585,194.997 159.585,202.997 166.5,209.5C 168.758,210.799 171.092,211.799 173.5,212.5C 171.215,216.118 168.215,219.118 164.5,221.5C 162.748,224.672 160.748,227.672 158.5,230.5C 157.085,233.184 156.752,235.851 157.5,238.5C 154.513,237.169 152.513,234.836 151.5,231.5C 150.328,231.081 149.328,230.415 148.5,229.5C 146.631,224.965 143.964,220.965 140.5,217.5C 136.214,209.619 133.214,201.285 131.5,192.5C 140.489,191.303 149.155,188.97 157.5,185.5 Z"/></g>
<g><path style="opacity:1" fill="#646451" d="M 111.5,192.5 C 111.672,193.492 111.338,194.158 110.5,194.5C 88.1667,194.5 65.8333,194.5 43.5,194.5C 43.1667,194.5 42.8333,194.5 42.5,194.5C 42.1667,194.5 41.8333,194.5 41.5,194.5C 64.4761,192.51 87.8094,191.843 111.5,192.5 Z"/></g>
<g><path style="opacity:1" fill="#b4d0dc" d="M 332.5,192.5 C 333.167,192.5 333.833,192.5 334.5,192.5C 341.833,192.5 349.167,192.5 356.5,192.5C 352.893,193.824 348.893,194.491 344.5,194.5C 340.107,194.491 336.107,193.824 332.5,192.5 Z"/></g>
<g><path style="opacity:1" fill="#fdae4f" d="M 43.5,194.5 C 65.8333,194.5 88.1667,194.5 110.5,194.5C 108.118,200.265 105.452,205.932 102.5,211.5C 99.7922,213.218 97.4589,215.218 95.5,217.5C 88.7489,220.063 82.5823,223.73 77,228.5C 70.7086,231.63 64.542,234.963 58.5,238.5C 55.2287,240.75 53.2287,243.75 52.5,247.5C 51.2353,248.514 50.5687,250.014 50.5,252C 50.4886,255.116 51.1553,257.949 52.5,260.5C 52.5,261.167 52.5,261.833 52.5,262.5C 55.1186,277.792 64.1186,284.792 79.5,283.5C 79.3505,282.448 79.5172,281.448 80,280.5C 81.3561,281.38 82.8561,281.714 84.5,281.5C 84.4551,284.077 85.4551,286.077 87.5,287.5C 88.038,289.117 88.3713,290.784 88.5,292.5C 85.0928,293.716 81.7595,295.216 78.5,297C 67.8528,304.66 56.8528,311.827 45.5,318.5C 43.5056,277.513 42.8389,236.18 43.5,194.5 Z"/></g>
<g><path style="opacity:1" fill="#f9ac4f" d="M 213.5,194.5 C 223.5,194.5 233.5,194.5 243.5,194.5C 242.432,195.434 241.099,195.768 239.5,195.5C 239.67,196.822 239.337,197.989 238.5,199C 233.699,201.313 229.032,203.813 224.5,206.5C 221.884,208.002 219.884,210.002 218.5,212.5C 216.823,206.741 215.157,200.741 213.5,194.5 Z"/></g>
<g><path style="opacity:1" fill="#bd853e" d="M 245.5,194.5 C 246.499,236.33 246.832,278.33 246.5,320.5C 243.167,320.5 239.833,320.5 236.5,320.5C 236.5,320.167 236.5,319.833 236.5,319.5C 239.5,319.5 242.5,319.5 245.5,319.5C 245.5,277.833 245.5,236.167 245.5,194.5 Z"/></g>
<g><path style="opacity:1" fill="#746747" d="M 213.5,194.5 C 224.654,193.505 235.988,193.172 247.5,193.5C 247.5,236.167 247.5,278.833 247.5,321.5C 243.629,321.815 239.962,321.482 236.5,320.5C 239.833,320.5 243.167,320.5 246.5,320.5C 246.832,278.33 246.499,236.33 245.5,194.5C 244.833,194.5 244.167,194.5 243.5,194.5C 233.5,194.5 223.5,194.5 213.5,194.5 Z"/></g>
<g><path style="opacity:1" fill="#e89639" d="M 243.5,194.5 C 244.167,194.5 244.833,194.5 245.5,194.5C 245.5,236.167 245.5,277.833 245.5,319.5C 242.5,319.5 239.5,319.5 236.5,319.5C 235.833,319.5 235.167,319.5 234.5,319.5C 216.199,312.98 198.032,305.98 180,298.5C 179.26,299.749 179.427,300.749 180.5,301.5C 181.672,305.845 183.005,310.179 184.5,314.5C 184.433,315.959 184.766,317.292 185.5,318.5C 138.833,318.5 92.1667,318.5 45.5,318.5C 56.8528,311.827 67.8528,304.66 78.5,297C 81.7595,295.216 85.0928,293.716 88.5,292.5C 88.3713,290.784 88.038,289.117 87.5,287.5C 90.5304,291.266 93.5304,295.266 96.5,299.5C 97.5237,300.853 98.857,301.52 100.5,301.5C 103.221,305.913 106.221,310.247 109.5,314.5C 117.807,315.498 126.14,315.831 134.5,315.5C 134.5,314.5 134.5,313.5 134.5,312.5C 134.5,311.833 134.5,311.167 134.5,310.5C 137.568,304.006 136.902,298.006 132.5,292.5C 132.408,290.152 131.408,288.486 129.5,287.5C 125.284,280.401 121.617,273.068 118.5,265.5C 118.5,264.5 118.5,263.5 118.5,262.5C 130.142,258.637 142.142,257.637 154.5,259.5C 159.809,259.592 164.475,261.259 168.5,264.5C 176.079,267.845 183.912,269.845 192,270.5C 199.492,271.588 205.659,269.255 210.5,263.5C 211.452,261.955 211.785,260.288 211.5,258.5C 213.911,256.02 215.578,253.02 216.5,249.5C 217.931,248.22 218.598,246.553 218.5,244.5C 218.5,243.167 218.5,241.833 218.5,240.5C 219.821,237.402 220.488,233.902 220.5,230C 220.488,226.098 219.821,222.598 218.5,219.5C 218.5,217.167 218.5,214.833 218.5,212.5C 219.884,210.002 221.884,208.002 224.5,206.5C 229.032,203.813 233.699,201.313 238.5,199C 239.337,197.989 239.67,196.822 239.5,195.5C 241.099,195.768 242.432,195.434 243.5,194.5 Z"/></g>
<g><path style="opacity:1" fill="#1e4659" d="M 173.5,212.5 C 171.092,211.799 168.758,210.799 166.5,209.5C 159.585,202.997 156.585,194.997 157.5,185.5C 159.492,184.496 161.659,183.83 164,183.5C 173.169,186.683 178.335,193.183 179.5,203C 179.691,207.626 177.691,210.793 173.5,212.5 Z"/></g>
<g><path style="opacity:1" fill="#eff1f3" d="M 163.5,189.5 C 169.061,189.544 172.894,192.211 175,197.5C 175.667,200.167 175.667,202.833 175,205.5C 172.959,206.423 170.792,206.756 168.5,206.5C 167.664,203.813 166.164,201.48 164,199.5C 163.502,196.183 163.335,192.85 163.5,189.5 Z"/></g>
<g><path style="opacity:1" fill="#f0b492" d="M 364.5,206.5 C 365.765,207.514 366.431,209.014 366.5,211C 366.167,212.5 365.833,214 365.5,215.5C 364.516,212.572 364.183,209.572 364.5,206.5 Z"/></g>
<g><path style="opacity:1" fill="#f58435" d="M 277.5,183.5 C 279.344,181.721 280.01,179.388 279.5,176.5C 282.336,177.776 285.336,178.442 288.5,178.5C 288.5,177.167 288.5,175.833 288.5,174.5C 290.167,174.5 291.833,174.5 293.5,174.5C 294.126,179.822 296.126,180.489 299.5,176.5C 302.029,178.063 303.029,180.396 302.5,183.5C 305.599,183.172 307.932,184.338 309.5,187C 305.191,190.902 305.858,193.402 311.5,194.5C 311.838,198.151 310.172,199.817 306.5,199.5C 306.585,201.929 307.585,203.929 309.5,205.5C 307.998,208.92 305.998,209.254 303.5,206.5C 301.032,208.966 300.032,211.966 300.5,215.5C 297.837,213.677 294.837,212.677 291.5,212.5C 291.5,214.167 291.5,215.833 291.5,217.5C 289.833,217.5 288.167,217.5 286.5,217.5C 286.5,215.833 286.5,214.167 286.5,212.5C 283.675,212.081 281.509,213.081 280,215.5C 277.788,212.998 276.955,209.998 277.5,206.5C 275.167,206.5 272.833,206.5 270.5,206.5C 271.014,204.302 272.014,202.302 273.5,200.5C 272.625,198.227 270.958,197.227 268.5,197.5C 268.5,195.833 268.5,194.167 268.5,192.5C 270.958,192.773 272.625,191.773 273.5,189.5C 271.441,188.049 270.441,186.049 270.5,183.5C 272.833,183.5 275.167,183.5 277.5,183.5 Z"/></g>
<g><path style="opacity:1" fill="#f6d1bb" d="M 284.5,181.5 C 295.649,180.1 302.316,184.934 304.5,196C 303,204.167 298.167,209 290,210.5C 277.569,206.972 273.736,199.306 278.5,187.5C 280.18,185.03 282.18,183.03 284.5,181.5 Z"/></g>
<g><path style="opacity:1" fill="#f48231" d="M 284.5,185.5 C 289.347,185.232 294.014,185.898 298.5,187.5C 301.845,194.432 300.845,200.599 295.5,206C 282.935,208.415 277.768,203.248 280,190.5C 281.356,188.591 282.856,186.924 284.5,185.5 Z"/></g>
<g><path style="opacity:1" fill="#f5ede7" d="M 284.5,188.5 C 289.268,187.774 293.268,189.108 296.5,192.5C 298.051,196.572 297.051,199.905 293.5,202.5C 287.05,204.23 283.384,201.73 282.5,195C 282.83,192.659 283.496,190.492 284.5,188.5 Z"/></g>
<g><path style="opacity:1" fill="#f58537" d="M 254.5,294.5 C 254.5,289.5 254.5,284.5 254.5,279.5C 269.026,279.926 279.359,273.592 285.5,260.5C 286.833,255.167 286.833,249.833 285.5,244.5C 282.925,239.916 279.925,235.582 276.5,231.5C 269.713,227.699 262.38,226.032 254.5,226.5C 254.5,224.167 254.5,221.833 254.5,219.5C 256.167,219.5 257.833,219.5 259.5,219.5C 259.558,216.336 260.224,213.336 261.5,210.5C 263.806,210.993 266.139,211.326 268.5,211.5C 268.909,214.991 269.909,218.325 271.5,221.5C 272.607,222.022 273.774,222.355 275,222.5C 277.674,220.974 280.174,219.307 282.5,217.5C 288.494,220.684 289.161,224.851 284.5,230C 285.703,231.368 286.703,232.868 287.5,234.5C 290.914,234.891 294.248,234.891 297.5,234.5C 298.393,237.084 298.726,239.751 298.5,242.5C 296.857,242.48 295.524,243.147 294.5,244.5C 293.516,247.428 293.183,250.428 293.5,253.5C 295.591,253.318 297.591,253.652 299.5,254.5C 300.48,257.086 300.813,259.753 300.5,262.5C 297.5,262.5 294.5,262.5 291.5,262.5C 289.84,267.2 290.507,271.534 293.5,275.5C 292.796,277.535 292.129,279.535 291.5,281.5C 287.926,280.033 284.26,279.2 280.5,279C 279.975,279.692 279.308,280.192 278.5,280.5C 277.833,283.833 277.167,287.167 276.5,290.5C 274.821,292.104 272.821,292.771 270.5,292.5C 269.109,287.089 265.776,285.089 260.5,286.5C 259.833,288.5 259.167,290.5 258.5,292.5C 257.476,293.853 256.143,294.52 254.5,294.5 Z"/></g>
<g><path style="opacity:1" fill="#a0673e" d="M 252.5,219.5 C 253.167,219.5 253.833,219.5 254.5,219.5C 254.5,221.833 254.5,224.167 254.5,226.5C 253.833,226.5 253.167,226.5 252.5,226.5C 252.5,224.167 252.5,221.833 252.5,219.5 Z"/></g>
<g><path style="opacity:1" fill="#506e7a" d="M 211.5,217.5 C 212.812,219.743 213.478,222.41 213.5,225.5C 213.478,228.59 212.812,231.257 211.5,233.5C 211.5,228.167 211.5,222.833 211.5,217.5 Z"/></g>
<g><path style="opacity:1" fill="#e36715" d="M 355.5,208.5 C 355.5,222.167 355.5,235.833 355.5,249.5C 354.839,250.718 354.172,252.051 353.5,253.5C 352.702,253.043 352.369,252.376 352.5,251.5C 352.5,250.167 352.5,248.833 352.5,247.5C 353.268,246.737 353.768,245.737 354,244.5C 354.167,238.833 354.333,233.167 354.5,227.5C 354.496,221.458 353.829,215.792 352.5,210.5C 352.183,207.428 352.516,204.428 353.5,201.5C 355.171,203.51 355.838,205.843 355.5,208.5 Z"/></g>
<g><path style="opacity:1" fill="#093c4f" d="M 95.5,217.5 C 92.5031,226.224 92.8364,234.89 96.5,243.5C 99.8449,247.51 103.178,251.51 106.5,255.5C 110.264,257.48 114.264,258.48 118.5,258.5C 117.833,259.833 117.167,261.167 116.5,262.5C 114.801,262.34 113.134,262.506 111.5,263C 108.907,264.373 106.574,265.873 104.5,267.5C 99.75,269.03 95.0834,270.863 90.5,273C 87.7467,274.103 85.7467,275.936 84.5,278.5C 80.8383,279.156 77.1716,279.823 73.5,280.5C 68.5445,279.856 64.2112,277.856 60.5,274.5C 58.1534,270.178 55.4868,266.178 52.5,262.5C 52.5,261.833 52.5,261.167 52.5,260.5C 52.5,256.167 52.5,251.833 52.5,247.5C 53.2287,243.75 55.2287,240.75 58.5,238.5C 64.542,234.963 70.7086,231.63 77,228.5C 82.5823,223.73 88.7489,220.063 95.5,217.5 Z"/></g>
<g><path style="opacity:1" fill="#eb955e" d="M 355.5,208.5 C 356.963,214.434 357.63,220.601 357.5,227C 356.979,236.162 356.646,245.329 356.5,254.5C 355.549,253.081 355.216,251.415 355.5,249.5C 355.5,235.833 355.5,222.167 355.5,208.5 Z"/></g>
<g><path style="opacity:1" fill="#a37747" d="M 218.5,219.5 C 219.821,222.598 220.488,226.098 220.5,230C 220.488,233.902 219.821,237.402 218.5,240.5C 218.5,233.5 218.5,226.5 218.5,219.5 Z"/></g>
<g><path style="opacity:1" fill="#d78449" d="M 252.5,231.5 C 258.271,230.887 263.604,231.554 268.5,233.5C 263.897,232.617 259.23,232.283 254.5,232.5C 254.5,234.5 254.5,236.5 254.5,238.5C 253.833,238.5 253.167,238.5 252.5,238.5C 252.5,236.167 252.5,233.833 252.5,231.5 Z"/></g>
<g><path style="opacity:1" fill="#f68435" d="M 268.5,233.5 C 273.699,235.693 277.532,239.359 280,244.5C 283.815,265.175 275.315,275.175 254.5,274.5C 254.5,272.167 254.5,269.833 254.5,267.5C 259.409,267.88 264.076,267.213 268.5,265.5C 269.336,262.813 270.836,260.48 273,258.5C 275.327,250.527 273.16,244.193 266.5,239.5C 262.555,238.509 258.555,238.176 254.5,238.5C 254.5,236.5 254.5,234.5 254.5,232.5C 259.23,232.283 263.897,232.617 268.5,233.5 Z"/></g>
<g><path style="opacity:1" fill="#f8e4d8" d="M 252.5,226.5 C 253.167,226.5 253.833,226.5 254.5,226.5C 262.38,226.032 269.713,227.699 276.5,231.5C 279.925,235.582 282.925,239.916 285.5,244.5C 286.833,249.833 286.833,255.167 285.5,260.5C 279.359,273.592 269.026,279.926 254.5,279.5C 254.158,278.662 253.492,278.328 252.5,278.5C 252.5,277.167 252.5,275.833 252.5,274.5C 253.167,274.5 253.833,274.5 254.5,274.5C 275.315,275.175 283.815,265.175 280,244.5C 277.532,239.359 273.699,235.693 268.5,233.5C 263.604,231.554 258.271,230.887 252.5,231.5C 252.5,229.833 252.5,228.167 252.5,226.5 Z"/></g>
<g><path style="opacity:1" fill="#f1b996" d="M 352.5,210.5 C 353.829,215.792 354.496,221.458 354.5,227.5C 354.333,233.167 354.167,238.833 354,244.5C 353.768,245.737 353.268,246.737 352.5,247.5C 353.833,235.167 353.833,222.833 352.5,210.5 Z"/></g>
<g><path style="opacity:1" fill="#efb18c" d="M 363.5,232.5 C 364.693,232.97 365.36,233.97 365.5,235.5C 365.167,236.5 364.833,237.5 364.5,238.5C 363.534,236.604 363.201,234.604 363.5,232.5 Z"/></g>
<g><path style="opacity:1" fill="#f7f4f2" d="M 254.5,238.5 C 258.555,238.176 262.555,238.509 266.5,239.5C 273.16,244.193 275.327,250.527 273,258.5C 270.836,260.48 269.336,262.813 268.5,265.5C 264.076,267.213 259.409,267.88 254.5,267.5C 254.5,266.833 254.5,266.167 254.5,265.5C 254.5,256.5 254.5,247.5 254.5,238.5 Z"/></g>
<g><path style="opacity:1" fill="#7f653d" d="M 218.5,244.5 C 218.598,246.553 217.931,248.22 216.5,249.5C 216.077,247.219 216.744,245.552 218.5,244.5 Z"/></g>
<g><path style="opacity:1" fill="#a1aeb2" d="M 252.5,238.5 C 253.167,238.5 253.833,238.5 254.5,238.5C 254.5,247.5 254.5,256.5 254.5,265.5C 253.833,265.5 253.167,265.5 252.5,265.5C 252.5,256.5 252.5,247.5 252.5,238.5 Z"/></g>
<g><path style="opacity:1" fill="#faede2" d="M 209.5,278.5 C 199.525,282.408 189.525,282.408 179.5,278.5C 173.155,275.994 167.155,272.994 161.5,269.5C 161.5,268.167 161.5,266.833 161.5,265.5C 163.288,265.215 164.955,265.548 166.5,266.5C 180.464,277.385 195.464,279.052 211.5,271.5C 221.449,261.667 226.116,249.667 225.5,235.5C 226.833,235.5 228.167,235.5 229.5,235.5C 231.124,253.908 224.458,268.241 209.5,278.5 Z"/></g>
<g><path style="opacity:1" fill="#eeaa83" d="M 361.5,244.5 C 362.725,245.152 363.392,246.319 363.5,248C 363.167,249.167 362.833,250.333 362.5,251.5C 361.526,249.257 361.192,246.924 361.5,244.5 Z"/></g>
<g><path style="opacity:1" fill="#b7894a" d="M 52.5,247.5 C 52.5,251.833 52.5,256.167 52.5,260.5C 51.1553,257.949 50.4886,255.116 50.5,252C 50.5687,250.014 51.2353,248.514 52.5,247.5 Z"/></g>
<g><path style="opacity:1" fill="#e0bf9b" d="M 159.5,254.5 C 160.833,254.5 161.5,255.167 161.5,256.5C 149.471,255.288 137.471,255.288 125.5,256.5C 136.451,254.522 147.784,253.856 159.5,254.5 Z"/></g>
<g><path style="opacity:1" fill="#fdaf53" d="M 352.5,251.5 C 352.369,252.376 352.702,253.043 353.5,253.5C 354.172,252.051 354.839,250.718 355.5,249.5C 355.216,251.415 355.549,253.081 356.5,254.5C 358.167,254.5 359.833,254.5 361.5,254.5C 365.571,261.451 369.071,268.784 372,276.5C 373.051,282.781 372.218,288.781 369.5,294.5C 366.912,298.012 364.578,301.678 362.5,305.5C 359.094,307.53 355.761,309.53 352.5,311.5C 345.327,313.688 337.994,314.021 330.5,312.5C 328.833,312.5 327.167,312.5 325.5,312.5C 325.179,310.952 324.179,310.285 322.5,310.5C 320.373,307.408 317.707,304.742 314.5,302.5C 312.19,299.367 310.19,296.034 308.5,292.5C 304.291,271.744 311.957,257.577 331.5,250C 338.576,249.511 345.576,250.011 352.5,251.5 Z"/></g>
<g><path style="opacity:1" fill="#faf8f6" d="M 355.5,270.5 C 354.21,271.935 352.544,272.935 350.5,273.5C 340.92,275.188 331.586,274.521 322.5,271.5C 322.5,267.833 322.5,264.167 322.5,260.5C 333.5,260.5 344.5,260.5 355.5,260.5C 355.5,263.833 355.5,267.167 355.5,270.5 Z"/></g>
<g><path style="opacity:1" fill="#071f28" d="M 116.5,262.5 C 116.285,264.179 116.952,265.179 118.5,265.5C 121.617,273.068 125.284,280.401 129.5,287.5C 129.777,289.728 130.777,291.395 132.5,292.5C 136.902,298.006 137.568,304.006 134.5,310.5C 133.833,310.5 133.167,310.5 132.5,310.5C 132.2,307.731 131.2,305.231 129.5,303C 124.991,298.052 120.991,292.885 117.5,287.5C 113.449,280.489 109.116,273.822 104.5,267.5C 106.574,265.873 108.907,264.373 111.5,263C 113.134,262.506 114.801,262.34 116.5,262.5 Z"/></g>
<g><path style="opacity:1" fill="#c3d2d5" d="M 327.5,264.5 C 335.65,263.507 343.983,263.174 352.5,263.5C 352.5,265.5 352.5,267.5 352.5,269.5C 348.167,269.5 343.833,269.5 339.5,269.5C 342.684,267.586 346.351,266.92 350.5,267.5C 350.5,266.5 350.5,265.5 350.5,264.5C 342.833,264.5 335.167,264.5 327.5,264.5 Z"/></g>
<g><path style="opacity:1" fill="#95b0b6" d="M 327.5,264.5 C 335.167,264.5 342.833,264.5 350.5,264.5C 350.5,265.5 350.5,266.5 350.5,267.5C 346.351,266.92 342.684,267.586 339.5,269.5C 335.5,269.5 331.5,269.5 327.5,269.5C 327.5,267.833 327.5,266.167 327.5,264.5 Z"/></g>
<g><path style="opacity:1" fill="#ba7c31" d="M 161.5,256.5 C 167.947,260.783 174.947,264.116 182.5,266.5C 188.472,267.664 194.472,267.83 200.5,267C 204.627,264.622 208.294,261.788 211.5,258.5C 211.785,260.288 211.452,261.955 210.5,263.5C 205.659,269.255 199.492,271.588 192,270.5C 183.912,269.845 176.079,267.845 168.5,264.5C 164.475,261.259 159.809,259.592 154.5,259.5C 142.142,257.637 130.142,258.637 118.5,262.5C 118.5,263.5 118.5,264.5 118.5,265.5C 116.952,265.179 116.285,264.179 116.5,262.5C 117.167,261.167 117.833,259.833 118.5,258.5C 121.076,258.532 123.409,257.865 125.5,256.5C 137.471,255.288 149.471,255.288 161.5,256.5 Z"/></g>
<g><path style="opacity:1" fill="#9b6c4a" d="M 252.5,265.5 C 253.167,265.5 253.833,265.5 254.5,265.5C 254.5,266.167 254.5,266.833 254.5,267.5C 254.5,269.833 254.5,272.167 254.5,274.5C 253.833,274.5 253.167,274.5 252.5,274.5C 252.5,271.5 252.5,268.5 252.5,265.5 Z"/></g>
<g><path style="opacity:1" fill="#042d3b" d="M 104.5,267.5 C 109.116,273.822 113.449,280.489 117.5,287.5C 120.991,292.885 124.991,298.052 129.5,303C 131.2,305.231 132.2,307.731 132.5,310.5C 124.833,310.5 117.167,310.5 109.5,310.5C 106.595,307.031 103.929,303.365 101.5,299.5C 97.3257,296.832 94.3257,293.165 92.5,288.5C 89.4466,286.436 86.7799,284.103 84.5,281.5C 84.5,280.5 84.5,279.5 84.5,278.5C 85.7467,275.936 87.7467,274.103 90.5,273C 95.0834,270.863 99.75,269.03 104.5,267.5 Z"/></g>
<g><path style="opacity:1" fill="#e36d1b" d="M 322.5,271.5 C 331.586,274.521 340.92,275.188 350.5,273.5C 352.544,272.935 354.21,271.935 355.5,270.5C 357.066,269.939 358.399,270.606 359.5,272.5C 358.235,273.514 357.569,275.014 357.5,277C 357.569,278.986 358.235,280.486 359.5,281.5C 359.5,285.833 359.5,290.167 359.5,294.5C 346.372,295.804 333.372,295.804 320.5,294.5C 320.5,290.167 320.5,285.833 320.5,281.5C 320.5,279.167 320.5,276.833 320.5,274.5C 320.34,272.801 320.506,271.134 321,269.5C 321.278,270.416 321.778,271.082 322.5,271.5 Z"/></g>
<g><path style="opacity:1" fill="#9e6f43" d="M 359.5,272.5 C 360.765,273.514 361.431,275.014 361.5,277C 361.431,278.986 360.765,280.486 359.5,281.5C 358.235,280.486 357.569,278.986 357.5,277C 357.569,275.014 358.235,273.514 359.5,272.5 Z"/></g>
<g><path style="opacity:1" fill="#3e4744" d="M 320.5,274.5 C 320.5,276.833 320.5,279.167 320.5,281.5C 319.275,280.848 318.608,279.681 318.5,278C 318.608,276.319 319.275,275.152 320.5,274.5 Z"/></g>
<g><path style="opacity:1" fill="#c28032" d="M 161.5,269.5 C 167.155,272.994 173.155,275.994 179.5,278.5C 189.525,282.408 199.525,282.408 209.5,278.5C 206.974,280.559 203.974,282.059 200.5,283C 186.544,284.11 173.878,280.61 162.5,272.5C 161.614,271.675 161.281,270.675 161.5,269.5 Z"/></g>
<g><path style="opacity:1" fill="#f0b18a" d="M 350.5,283.5 C 349.833,283.5 349.167,283.5 348.5,283.5C 348.5,282.5 348.5,281.5 348.5,280.5C 347.5,280.5 346.5,280.5 345.5,280.5C 345.5,281.5 345.5,282.5 345.5,283.5C 343.952,283.179 343.285,282.179 343.5,280.5C 342.5,280.5 341.5,280.5 340.5,280.5C 339.833,284.5 339.167,284.5 338.5,280.5C 337.167,280.5 335.833,280.5 334.5,280.5C 333.833,284.5 333.167,284.5 332.5,280.5C 331.5,280.5 330.5,280.5 329.5,280.5C 329.715,282.179 329.048,283.179 327.5,283.5C 327.5,282.5 327.5,281.5 327.5,280.5C 326.167,280.5 324.833,280.5 323.5,280.5C 323.5,279.167 323.5,277.833 323.5,276.5C 324.833,276.5 326.167,276.5 327.5,276.5C 328.167,280.5 328.833,280.5 329.5,276.5C 330.5,276.5 331.5,276.5 332.5,276.5C 333.167,280.5 333.833,280.5 334.5,276.5C 335.833,276.5 337.167,276.5 338.5,276.5C 338.351,277.552 338.517,278.552 339,279.5C 339.908,277.561 341.408,276.561 343.5,276.5C 344.167,280.5 344.833,280.5 345.5,276.5C 346.5,276.5 347.5,276.5 348.5,276.5C 349.167,280.5 349.833,280.5 350.5,276.5C 351.833,276.5 353.167,276.5 354.5,276.5C 354.5,277.833 354.5,279.167 354.5,280.5C 353.167,280.5 351.833,280.5 350.5,280.5C 350.5,281.5 350.5,282.5 350.5,283.5 Z"/></g>
<g><path style="opacity:1" fill="#c4883d" d="M 52.5,262.5 C 55.4868,266.178 58.1534,270.178 60.5,274.5C 64.2112,277.856 68.5445,279.856 73.5,280.5C 77.1716,279.823 80.8383,279.156 84.5,278.5C 84.5,279.5 84.5,280.5 84.5,281.5C 82.8561,281.714 81.3561,281.38 80,280.5C 79.5172,281.448 79.3505,282.448 79.5,283.5C 64.1186,284.792 55.1186,277.792 52.5,262.5 Z"/></g>
<g><path style="opacity:1" fill="#a06840" d="M 252.5,278.5 C 253.492,278.328 254.158,278.662 254.5,279.5C 254.5,284.5 254.5,289.5 254.5,294.5C 253.833,294.5 253.167,294.5 252.5,294.5C 252.5,289.167 252.5,283.833 252.5,278.5 Z"/></g>
<g><path style="opacity:1" fill="#e17324" d="M 348.5,283.5 C 347.5,283.5 346.5,283.5 345.5,283.5C 345.5,282.5 345.5,281.5 345.5,280.5C 346.5,280.5 347.5,280.5 348.5,280.5C 348.5,281.5 348.5,282.5 348.5,283.5 Z"/></g>
<g><path style="opacity:1" fill="#faeee4" d="M 232.5,262.5 C 233.833,262.5 235.167,262.5 236.5,262.5C 229.372,281.589 215.539,291.589 195,292.5C 190.833,292.167 186.667,291.833 182.5,291.5C 181.754,290.264 181.421,288.93 181.5,287.5C 204.841,291.708 221.841,283.375 232.5,262.5 Z"/></g>
<g><path style="opacity:1" fill="#ee9d6d" d="M 345.5,283.5 C 346.5,283.5 347.5,283.5 348.5,283.5C 349.167,283.5 349.833,283.5 350.5,283.5C 351.833,283.5 353.167,283.5 354.5,283.5C 354.672,285.492 354.005,287.158 352.5,288.5C 353.853,289.524 354.52,290.857 354.5,292.5C 352.549,292.773 351.049,292.107 350,290.5C 348.271,293.079 346.438,293.079 344.5,290.5C 342.562,293.079 340.729,293.079 339,290.5C 337.333,293.167 335.667,293.167 334,290.5C 332,293.167 330,293.167 328,290.5C 326.951,292.107 325.451,292.773 323.5,292.5C 323.626,290.8 324.293,289.3 325.5,288C 324.852,286.56 324.519,285.06 324.5,283.5C 325.5,283.5 326.5,283.5 327.5,283.5C 329.048,283.179 329.715,282.179 329.5,280.5C 330.5,280.5 331.5,280.5 332.5,280.5C 333.167,284.5 333.833,284.5 334.5,280.5C 335.833,280.5 337.167,280.5 338.5,280.5C 339.167,284.5 339.833,284.5 340.5,280.5C 341.5,280.5 342.5,280.5 343.5,280.5C 343.285,282.179 343.952,283.179 345.5,283.5 Z"/></g>
<g><path style="opacity:1" fill="#846033" d="M 129.5,287.5 C 131.408,288.486 132.408,290.152 132.5,292.5C 130.777,291.395 129.777,289.728 129.5,287.5 Z"/></g>
<g><path style="opacity:1" fill="#acb9be" d="M 252.5,294.5 C 253.167,294.5 253.833,294.5 254.5,294.5C 255.143,305.552 254.476,316.219 252.5,326.5C 252.5,315.833 252.5,305.167 252.5,294.5 Z"/></g>
<g><path style="opacity:1" fill="#995d2b" d="M 320.5,294.5 C 333.372,295.804 346.372,295.804 359.5,294.5C 359.5,295.167 359.5,295.833 359.5,296.5C 346.5,296.5 333.5,296.5 320.5,296.5C 320.5,297.5 320.5,298.5 320.5,299.5C 319.351,299.209 318.684,298.376 318.5,297C 318.684,295.624 319.351,294.791 320.5,294.5 Z"/></g>
<g><path style="opacity:1" fill="#123a4d" d="M 359.5,296.5 C 359.715,298.179 359.048,299.179 357.5,299.5C 345.167,299.5 332.833,299.5 320.5,299.5C 320.5,298.5 320.5,297.5 320.5,296.5C 333.5,296.5 346.5,296.5 359.5,296.5 Z"/></g>
<g><path style="opacity:1" fill="#8c774f" d="M 320.5,299.5 C 332.833,299.5 345.167,299.5 357.5,299.5C 351.705,300.83 345.538,301.496 339,301.5C 332.462,301.496 326.295,300.83 320.5,299.5 Z"/></g>
<g><path style="opacity:1" fill="#1682b1" d="M 234.5,319.5 C 233.576,322.415 231.909,324.748 229.5,326.5C 227.284,326.275 225.617,327.108 224.5,329C 225.734,331.072 227.401,332.572 229.5,333.5C 229.821,335.048 230.821,335.715 232.5,335.5C 232.5,336.833 233.167,337.5 234.5,337.5C 234.285,339.179 234.952,340.179 236.5,340.5C 236.762,341.978 236.429,343.311 235.5,344.5C 233.728,346.62 231.728,348.287 229.5,349.5C 213.58,332.905 197.247,316.905 180.5,301.5C 179.427,300.749 179.26,299.749 180,298.5C 198.032,305.98 216.199,312.98 234.5,319.5 Z"/></g>
<g><path style="opacity:1" fill="#926632" d="M 109.5,310.5 C 117.167,310.5 124.833,310.5 132.5,310.5C 133.167,310.5 133.833,310.5 134.5,310.5C 134.5,311.167 134.5,311.833 134.5,312.5C 125.766,313.135 117.433,312.468 109.5,310.5 Z"/></g>
<g><path style="opacity:1" fill="#be7c2e" d="M 84.5,281.5 C 86.7799,284.103 89.4466,286.436 92.5,288.5C 94.3257,293.165 97.3257,296.832 101.5,299.5C 103.929,303.365 106.595,307.031 109.5,310.5C 117.433,312.468 125.766,313.135 134.5,312.5C 134.5,313.5 134.5,314.5 134.5,315.5C 126.14,315.831 117.807,315.498 109.5,314.5C 106.221,310.247 103.221,305.913 100.5,301.5C 98.857,301.52 97.5237,300.853 96.5,299.5C 93.5304,295.266 90.5304,291.266 87.5,287.5C 85.4551,286.077 84.4551,284.077 84.5,281.5 Z"/></g>
<g><path style="opacity:1" fill="#fdd4a5" d="M 352.5,311.5 C 348.881,314.008 344.714,315.008 340,314.5C 337.167,314.333 334.333,314.167 331.5,314C 330.944,313.617 330.611,313.117 330.5,312.5C 337.994,314.021 345.327,313.688 352.5,311.5 Z"/></g>
<g><path style="opacity:1" fill="#e5762c" d="M 322.5,310.5 C 324.179,310.285 325.179,310.952 325.5,312.5C 313.41,324.211 299.077,331.877 282.5,335.5C 282.5,334.833 282.5,334.167 282.5,333.5C 282.721,332.265 283.388,331.265 284.5,330.5C 290.68,329.284 296.68,327.617 302.5,325.5C 306.544,321.481 311.211,318.481 316.5,316.5C 318.652,314.47 320.652,312.47 322.5,310.5 Z"/></g>
<g><path style="opacity:1" fill="#de9640" d="M 42.5,194.5 C 42.8333,194.5 43.1667,194.5 43.5,194.5C 42.8389,236.18 43.5056,277.513 45.5,318.5C 92.1667,318.5 138.833,318.5 185.5,318.5C 138.003,319.499 90.3363,319.832 42.5,319.5C 42.5,277.833 42.5,236.167 42.5,194.5 Z"/></g>
<g><path style="opacity:1" fill="#a07a45" d="M 41.5,194.5 C 41.8333,194.5 42.1667,194.5 42.5,194.5C 42.5,236.167 42.5,277.833 42.5,319.5C 90.3363,319.832 138.003,319.499 185.5,318.5C 184.766,317.292 184.433,315.959 184.5,314.5C 186.344,316.279 187.01,318.612 186.5,321.5C 138.167,321.5 89.8333,321.5 41.5,321.5C 41.5,279.167 41.5,236.833 41.5,194.5 Z"/></g>
<g><path style="opacity:1" fill="#00243c" d="M 34.5,324.5 C 86.5108,323.838 138.177,324.504 189.5,326.5C 137.489,327.162 85.8226,326.496 34.5,324.5 Z"/></g>
<g><path style="opacity:1" fill="#d0cecd" d="M 229.5,333.5 C 247.167,333.5 264.833,333.5 282.5,333.5C 282.5,334.167 282.5,334.833 282.5,335.5C 282.179,337.048 281.179,337.715 279.5,337.5C 264.202,335.516 248.536,334.849 232.5,335.5C 230.821,335.715 229.821,335.048 229.5,333.5 Z"/></g>
<g><path style="opacity:1" fill="#c8c8c8" d="M 191.5,333.5 C 130.833,334.833 70.1667,336.167 9.5,337.5C 7.82351,336.817 7.15684,335.483 7.5,333.5C 68.8333,333.5 130.167,333.5 191.5,333.5 Z"/></g>
<g><path style="opacity:1" fill="#7b7c7c" d="M 191.5,331.5 C 193.28,332.99 193.946,334.99 193.5,337.5C 132.833,337.5 72.1667,337.5 11.5,337.5C 10.8333,337.5 10.1667,337.5 9.5,337.5C 70.1667,336.167 130.833,334.833 191.5,333.5C 191.5,332.833 191.5,332.167 191.5,331.5 Z"/></g>
<g><path style="opacity:1" fill="#858585" d="M 232.5,335.5 C 248.536,334.849 264.202,335.516 279.5,337.5C 278.833,337.5 278.167,337.5 277.5,337.5C 263.167,337.5 248.833,337.5 234.5,337.5C 233.167,337.5 232.5,336.833 232.5,335.5 Z"/></g>
<g><path style="opacity:1" fill="#cccccc" d="M 11.5,337.5 C 72.1667,337.5 132.833,337.5 193.5,337.5C 194.968,338.779 195.635,340.446 195.5,342.5C 194.596,341.791 194.263,340.791 194.5,339.5C 133.158,340.163 72.1575,339.496 11.5,337.5 Z"/></g>
<g><path style="opacity:1" fill="#cbcdcd" d="M 234.5,337.5 C 248.833,337.5 263.167,337.5 277.5,337.5C 277.082,338.222 276.416,338.722 275.5,339C 262.327,339.169 249.327,339.669 236.5,340.5C 234.952,340.179 234.285,339.179 234.5,337.5 Z"/></g>
<g><path style="opacity:1" fill="#f4d2c0" d="M -0.5,346.5 C -0.5,345.833 -0.5,345.167 -0.5,344.5C 57.9809,345.157 116.314,344.491 174.5,342.5C 176.001,343.752 177.668,344.752 179.5,345.5C 178.043,348.602 176.043,349.102 173.5,347C 115.501,346.5 57.501,346.333 -0.5,346.5 Z"/></g>
<g><path style="opacity:1" fill="#efb99b" d="M -0.5,351.5 C 222.167,352.167 222.167,352.833 -0.5,353.5C -0.5,352.833 -0.5,352.167 -0.5,351.5 Z"/></g>
</svg>
