<svg width="88" height="69" viewBox="0 0 88 69" fill="none" xmlns="http://www.w3.org/2000/svg">
<path d="M69.6789 0.477051H18.3797C13.5224 0.481928 8.86577 2.10152 5.43115 4.98056C1.99654 7.8596 0.064412 11.763 0.0585938 15.8346L0.0585938 52.6927C0.064412 56.7643 1.99654 60.6677 5.43115 63.5468C8.86577 66.4258 13.5224 68.0454 18.3797 68.0503H69.6789C74.5362 68.0454 79.1928 66.4258 82.6275 63.5468C86.0621 60.6677 87.9942 56.7643 88 52.6927V15.8346C87.9942 11.763 86.0621 7.8596 82.6275 4.98056C79.1928 2.10152 74.5362 0.481928 69.6789 0.477051ZM18.3797 6.62007H69.6789C71.873 6.62369 74.0156 7.1776 75.8309 8.21051C77.6463 9.24343 79.0514 10.7081 79.8654 12.416L51.8048 35.9407C49.7397 37.6648 46.9439 38.6328 44.0293 38.6328C41.1147 38.6328 38.3189 37.6648 36.2538 35.9407L8.19318 12.416C9.00718 10.7081 10.4123 9.24343 12.2277 8.21051C14.043 7.1776 16.1856 6.62369 18.3797 6.62007ZM69.6789 61.9073H18.3797C15.4643 61.9073 12.6683 60.9364 10.6067 59.2084C8.5452 57.4803 7.38705 55.1366 7.38705 52.6927V20.4419L31.0726 40.2838C34.5119 43.1595 39.1715 44.7745 44.0293 44.7745C48.8871 44.7745 53.5467 43.1595 56.986 40.2838L80.6716 20.4419V52.6927C80.6716 55.1366 79.5134 57.4803 77.4519 59.2084C75.3904 60.9364 72.5943 61.9073 69.6789 61.9073Z" fill="#F6AA06"/>
</svg>
